<svg width="80" height="80" viewBox="0 0 80 80" fill="none" xmlns="http://www.w3.org/2000/svg">
<path d="M40.0551 4L7 15.9339L12.0512 60.2476L40.0551 76L68.5037 60.0353L74 15.7215L40.0551 4ZM54.345 58.8422L49.8169 48.2344H31.3397L27.2044 58.7095L19.5102 58.8422L40.0551 12.524L40.1071 12.4067L61.6991 58.9748L54.345 58.8422ZM34.0354 42.0288H47.1213L40.1597 27.2841L40.0551 27.5361L34.0354 42.0288Z" fill="#E23237"/>
<path d="M47.1209 42.0259H40.0547V27.5333L40.1593 27.2812L47.1209 42.0259Z" fill="#B52E31"/>
<path d="M73.9996 15.7215L68.5034 60.0619L40.0547 76V48.2344H49.8166L54.3446 58.8422L61.6987 58.9748L40.1067 12.4067L40.0547 12.524V4L73.9996 15.7215Z" fill="#B52E31"/>
</svg>
