<svg width="80" height="80" viewBox="0 0 80 80" fill="none" xmlns="http://www.w3.org/2000/svg">
<path d="M23.8565 33.98C23.8565 34.8855 23.955 35.6195 24.1272 36.158C24.3241 36.6965 24.5703 37.2837 24.9146 37.9201C25.0376 38.116 25.0868 38.3118 25.0868 38.483C25.0868 38.7278 24.9391 38.9725 24.6192 39.217L23.0687 40.2448C22.8473 40.3916 22.6256 40.4649 22.429 40.4649C22.1828 40.4649 21.9366 40.3427 21.6907 40.1222C21.3461 39.7552 21.051 39.3636 20.8048 38.9719C20.5586 38.556 20.3124 38.091 20.0418 37.5282C18.1222 39.7795 15.7103 40.9052 12.806 40.9052C10.7387 40.9052 9.08974 40.3178 7.88362 39.1431C6.67749 37.9685 6.0625 36.4022 6.0625 34.4446C6.0625 32.3644 6.80073 30.6759 8.30227 29.4034C9.80381 28.1308 11.7971 27.4947 14.332 27.4947C15.1687 27.4947 16.0302 27.568 16.9409 27.6905C17.8516 27.8131 18.7867 28.0086 19.7712 28.229V26.4426C19.7712 24.5829 19.3773 23.2857 18.6143 22.527C17.8268 21.7684 16.4977 21.4014 14.6026 21.4014C13.7411 21.4014 12.8552 21.4993 11.9445 21.7194C11.0338 21.9396 10.1479 22.209 9.28638 22.5514C8.89249 22.7226 8.59738 22.8205 8.42491 22.8694C8.25243 22.9184 8.12949 22.9427 8.03102 22.9427C7.68637 22.9427 7.5142 22.6979 7.5142 22.1841V20.9851C7.5142 20.5934 7.56343 20.3 7.68637 20.1285C7.80931 19.957 8.03102 19.7858 8.37537 19.6146C9.23684 19.174 10.2705 18.807 11.4763 18.5133C12.6821 18.1952 13.962 18.0484 15.3158 18.0484C18.2446 18.0484 20.3859 18.7091 21.7641 20.0306C23.1177 21.3521 23.807 23.3587 23.807 26.0506V33.9794H23.8562L23.8565 33.98ZM13.8641 37.6997C14.6763 37.6997 15.513 37.5528 16.399 37.2591C17.2849 36.9654 18.0727 36.4271 18.7372 35.6928C19.1311 35.2279 19.4262 34.714 19.5739 34.1265C19.7216 33.5391 19.8201 32.8297 19.8201 31.9974V30.9696C19.1063 30.7984 18.3433 30.6516 17.5559 30.5537C16.7684 30.4558 16.0054 30.4068 15.2424 30.4068C13.5934 30.4068 12.3873 30.7249 11.5754 31.3856C10.7634 32.0464 10.3696 32.9762 10.3696 34.1998C10.3696 35.3501 10.665 36.2064 11.2803 36.7939C11.8711 37.4057 12.7323 37.6994 13.8644 37.6994L13.8641 37.6997ZM33.6272 40.3427C33.1841 40.3427 32.889 40.2694 32.6921 40.0979C32.4951 39.951 32.3229 39.6084 32.1752 39.1434L26.3917 20.227C26.244 19.7375 26.1703 19.4194 26.1703 19.2482C26.1703 18.8566 26.3672 18.6364 26.7611 18.6364H29.1731C29.6406 18.6364 29.9605 18.7097 30.133 18.8812C30.3299 19.0281 30.4777 19.3708 30.6254 19.8357L34.7603 36.0358L38.5997 19.8357C38.7227 19.3461 38.8704 19.0281 39.0673 18.8812C39.2643 18.7343 39.6089 18.6364 40.0517 18.6364H42.0205C42.4881 18.6364 42.808 18.7097 43.005 18.8812C43.2019 19.0281 43.3741 19.3708 43.4725 19.8357L47.3613 36.2316L51.6185 19.8354C51.7662 19.3458 51.9384 19.0278 52.1108 18.8809C52.3078 18.734 52.6277 18.6361 53.0708 18.6361H55.3598C55.7537 18.6361 55.9751 18.8319 55.9751 19.2479C55.9751 19.3702 55.9506 19.4927 55.9258 19.6396C55.9014 19.7864 55.8521 19.9823 55.7537 20.2514L49.8221 39.1681C49.6744 39.6576 49.5023 39.9757 49.3053 40.1225C49.1084 40.2694 48.7885 40.3673 48.3701 40.3673H46.2536C45.786 40.3673 45.4661 40.294 45.2692 40.1225C45.0723 39.951 44.9001 39.633 44.8016 39.1437L40.9869 23.3596L37.1967 39.1194C37.0737 39.609 36.926 39.927 36.7291 40.0982C36.5321 40.2694 36.1875 40.343 35.7447 40.343H33.6281L33.6272 40.3427ZM65.2531 41.0034C63.9733 41.0034 62.6935 40.8566 61.4629 40.5628C60.2323 40.2691 59.2724 39.951 58.6326 39.584C58.2387 39.3639 57.9681 39.1191 57.8696 38.8989C57.7711 38.6788 57.7219 38.434 57.7219 38.2139V36.966C57.7219 36.4521 57.9188 36.2073 58.288 36.2073C58.4357 36.2073 58.5834 36.2316 58.7311 36.2806C58.8788 36.3295 59.1002 36.4274 59.3464 36.5254C60.1831 36.8924 61.0938 37.1861 62.0537 37.3819C63.0381 37.5777 63.9981 37.6757 64.9825 37.6757C66.533 37.6757 67.7391 37.4066 68.5758 36.868C69.4125 36.3295 69.8556 35.5465 69.8556 34.5431C69.8556 33.858 69.6342 33.2952 69.1911 32.83C68.748 32.3647 67.9113 31.9491 66.7054 31.5574L63.1366 30.4561C61.34 29.8932 60.0109 29.0613 59.1987 27.9599C58.3864 26.8832 57.9681 25.6839 57.9681 24.4114C57.9681 23.3836 58.1895 22.4781 58.6326 21.6951C59.0757 20.9121 59.6662 20.2267 60.4048 19.6885C61.143 19.1257 61.98 18.7097 62.9644 18.416C63.9488 18.1222 64.9825 18 66.0654 18C66.607 18 67.173 18.0243 67.7143 18.0979C68.2804 18.1712 68.7972 18.2691 69.314 18.367C69.8064 18.4893 70.274 18.6118 70.7168 18.7587C71.1599 18.9055 71.5042 19.0524 71.7504 19.1993C72.0951 19.3951 72.3413 19.5909 72.4887 19.8111C72.6364 20.0069 72.7101 20.276 72.7101 20.6187V21.769C72.7101 22.2829 72.5131 22.552 72.144 22.552C71.9471 22.552 71.6272 22.4541 71.2088 22.2582C69.8061 21.6221 68.2308 21.3038 66.4834 21.3038C65.0807 21.3038 63.973 21.5239 63.21 21.9888C62.447 22.4538 62.0531 23.1635 62.0531 24.1669C62.0531 24.852 62.2993 25.4395 62.7914 25.9044C63.2834 26.3693 64.1941 26.8342 65.4987 27.2502L68.9935 28.3516C70.7657 28.9144 72.0452 29.6974 72.8082 30.7008C73.5712 31.7043 73.9404 32.8543 73.9404 34.1268C73.9404 35.1792 73.719 36.1334 73.3006 36.9657C72.8575 37.7976 72.267 38.5319 71.504 39.1191C70.741 39.7309 69.8302 40.1715 68.7721 40.4896C67.6645 40.8322 66.5079 41.0034 65.2525 41.0034H65.2531Z" fill="#252F3E"/>
<path fill-rule="evenodd" clip-rule="evenodd" d="M69.9023 52.8925C61.805 58.8393 50.0407 61.9958 39.9253 61.9958C25.7491 61.9958 12.9756 56.7834 3.32783 48.1204C2.56482 47.4353 3.25412 46.5051 4.16453 47.0436C14.5998 53.0637 27.4717 56.7098 40.7865 56.7098C49.7697 56.7098 59.6389 54.8501 68.7206 51.0325C70.0742 50.4207 71.2311 51.9134 69.902 52.8922L69.9023 52.8925Z" fill="#FF9900"/>
<path fill-rule="evenodd" clip-rule="evenodd" d="M73.2762 49.0779C72.2426 47.7564 66.4343 48.4418 63.8006 48.7598C63.0132 48.8577 62.8899 48.1724 63.6037 47.6585C68.2306 44.4283 75.8356 45.3582 76.7218 46.4349C77.6078 47.5362 76.4756 55.0979 72.1441 58.7197C71.4796 59.2826 70.8398 58.9888 71.1349 58.2548C72.1193 55.8323 74.3099 50.3751 73.2762 49.0779Z" fill="#FF9900"/>
</svg>
