<svg width="80" height="80" viewBox="0 0 80 80" fill="none" xmlns="http://www.w3.org/2000/svg">
<path d="M30.6693 13.0014H47.2402L30.038 64.1941C29.9501 64.4555 29.8221 64.7017 29.6586 64.9235C29.4956 65.1454 29.2989 65.3402 29.0755 65.5011C28.8521 65.6621 28.6057 65.787 28.344 65.8715C28.0822 65.9559 27.8091 65.9993 27.5348 65.9993H14.6383C14.2196 65.9993 13.8067 65.8996 13.4342 65.7069C13.0615 65.5149 12.7397 65.2364 12.4955 64.8944C12.2512 64.5525 12.0913 64.1574 12.0292 63.7414C11.9669 63.3254 12.0048 62.9003 12.1384 62.5019L28.1654 14.8052C28.2529 14.5439 28.381 14.2978 28.5449 14.0758C28.7079 13.8539 28.9055 13.6591 29.128 13.4982C29.3513 13.3372 29.5978 13.2123 29.8595 13.1279C30.1212 13.0434 30.3944 13 30.6687 13V13.0007L30.6693 13.0014Z" fill="url(#paint0_linear_6215_21521)"/>
<path d="M61.2133 65.9967H46.3338C46.1679 65.9967 46.0019 65.9811 45.8382 65.9496C45.6752 65.9188 45.5148 65.8724 45.3601 65.8112C45.2053 65.7499 45.0569 65.6741 44.9163 65.5856C44.7757 65.4964 44.6438 65.3942 44.5222 65.2805L27.6372 49.4511C27.4587 49.2837 27.3342 49.0664 27.2802 48.8271C27.1696 48.3375 27.3688 47.8301 27.7821 47.5475C27.9844 47.4098 28.2232 47.3359 28.4674 47.3359H54.7444L61.2122 65.9971L61.2135 65.9964L61.2133 65.9967Z" fill="#0078D4"/>
<path d="M47.3025 13L35.7027 47.3409L54.6557 47.3366L61.1571 65.9978H46.3337C46.1803 65.9964 46.0271 65.9822 45.876 65.955C45.7248 65.9278 45.5764 65.8875 45.4321 65.8341C45.1431 65.7283 44.874 65.5737 44.6369 65.3767L33.2387 54.6982L30.0479 64.1442C29.9654 64.3803 29.8519 64.6045 29.7104 64.8103C29.4269 65.2245 29.0394 65.5559 28.5868 65.7709C28.3614 65.8778 28.123 65.9541 27.8777 65.9978H14.649C14.2263 65.9991 13.8089 65.8981 13.4331 65.7026C12.6701 65.3064 12.1472 64.5622 12.0317 63.7077C11.9749 63.2865 12.0198 62.8576 12.1626 62.4576L28.1634 14.8397C28.2466 14.5734 28.372 14.3226 28.5343 14.0961C28.696 13.8699 28.8934 13.6702 29.1174 13.5059C29.3415 13.3415 29.5906 13.2134 29.8546 13.1279C30.1185 13.0421 30.395 12.9987 30.6729 13H47.3032H47.3025Z" fill="url(#paint1_linear_6215_21521)"/>
<path d="M67.8604 62.5005C67.9943 62.8992 68.0317 63.324 67.9703 63.74C67.9082 64.1561 67.7485 64.5511 67.5047 64.8931C67.0093 65.5862 66.2116 65.9975 65.3619 65.9977H46.8933C47.312 65.9977 47.7249 65.8973 48.098 65.7053C48.4705 65.5135 48.7926 65.2346 49.0368 64.8931C49.281 64.5516 49.4407 64.1561 49.5031 63.74C49.5654 63.324 49.5275 62.899 49.3938 62.5005L33.3664 14.8025C33.1899 14.2771 32.8537 13.8206 32.4052 13.4968C32.1825 13.3359 31.9363 13.2116 31.675 13.1272C31.4137 13.0428 31.1408 13 30.8672 13H49.3351C49.6096 13 49.8818 13.0428 50.1436 13.1272C50.4046 13.2116 50.6511 13.3366 50.8744 13.4968C51.0971 13.6578 51.2938 13.8523 51.4568 14.0738C51.6199 14.2953 51.7473 14.5412 51.8356 14.8025L67.8631 62.5005H67.8604Z" fill="url(#paint2_linear_6215_21521)"/>
<defs>
<linearGradient id="paint0_linear_6215_21521" x1="36.6728" y1="16.9803" x2="19.3424" y2="67.9814" gradientUnits="userSpaceOnUse">
<stop stop-color="#114A8B"/>
<stop offset="1" stop-color="#0669BC"/>
</linearGradient>
<linearGradient id="paint1_linear_6215_21521" x1="42.0473" y1="40.7661" x2="38.0629" y2="42.1125" gradientUnits="userSpaceOnUse">
<stop stop-opacity="0.3"/>
<stop offset="0.1" stop-opacity="0.2"/>
<stop offset="0.3" stop-opacity="0.1"/>
<stop offset="0.6" stop-opacity="0.1"/>
<stop offset="1" stop-opacity="0"/>
</linearGradient>
<linearGradient id="paint2_linear_6215_21521" x1="39.9709" y1="15.4436" x2="58.9891" y2="65.9174" gradientUnits="userSpaceOnUse">
<stop stop-color="#3CCBF4"/>
<stop offset="1" stop-color="#2892DF"/>
</linearGradient>
</defs>
</svg>
