<svg width="169" height="37" viewBox="0 0 169 37" fill="none" xmlns="http://www.w3.org/2000/svg">
<path d="M19.7109 15.6367H23.135V36.9787H19.7109V15.6367ZM35.0803 30.1695C35.0803 33.4379 32.3371 33.6908 31.52 33.6908C29.4773 33.6908 29.1076 31.7842 29.1076 30.6364V22.4654H25.6836V30.6169C25.6836 32.6402 26.3256 34.3134 27.4345 35.4223C28.4267 36.4145 29.8858 36.9398 31.4811 36.9398C32.6095 36.9398 34.2242 36.5896 35.0608 35.8114V36.9787H38.4848V22.4654H35.0608V30.1695H35.0803ZM45.3329 17.3487H41.9089V22.4654H39.3409V25.8894H41.9089V36.9981H45.3329V25.8894H47.901V22.4654H45.3329V17.3487ZM58.6595 32.6402C57.9202 33.3017 56.928 33.6713 55.858 33.6713C53.4845 33.6713 51.7336 31.9204 51.7336 29.5275C51.7336 27.1345 53.4262 25.4614 55.858 25.4614C56.9086 25.4614 57.9202 25.8116 58.679 26.4731L59.2042 26.9205L61.4999 24.6248L60.9163 24.0996C59.5544 22.8739 57.7646 22.193 55.858 22.193C51.5974 22.193 48.4846 25.2669 48.4846 29.508C48.4846 33.7492 51.6558 36.9203 55.858 36.9203C57.8035 36.9203 59.6322 36.2394 60.9552 34.9943L61.5194 34.469L59.1848 32.1733L58.6595 32.6402ZM73.6981 23.7299C72.7059 22.7377 71.558 22.2124 69.9628 22.2124C68.8344 22.2124 67.5504 22.5626 66.6943 23.3408V15.6367H63.2703V36.9787H66.6943V28.9827C66.6943 25.7143 69.0095 25.4614 69.8266 25.4614C71.8693 25.4614 71.811 27.368 71.811 28.5158V36.9787H75.235V28.5353C75.235 26.512 74.807 24.8389 73.6981 23.7299Z" fill="#426772"/>
<path d="M55.7442 27.1172C57.106 27.1172 58.215 28.2261 58.215 29.5879C58.215 30.9498 57.106 32.0587 55.7442 32.0587C54.3824 32.0587 53.2734 30.9498 53.2734 29.5879C53.2734 28.2261 54.3824 27.1172 55.7442 27.1172Z" fill="#F4442A"/>
<path d="M14.9421 31.631C13.6386 32.9734 11.8877 33.6932 10.02 33.6932C6.20685 33.6932 3.44427 30.6972 3.44427 26.6117C3.44427 22.5262 6.20685 19.5107 10.02 19.5107C11.8488 19.5107 13.5997 20.2305 14.9226 21.5534L15.4479 22.0787L17.7241 19.8025L17.2183 19.2772C15.3312 17.3317 12.7631 16.2617 10.02 16.2617C4.41701 16.2617 0.195312 20.7169 0.195312 26.6311C0.195312 32.5454 4.43646 36.9617 10.02 36.9617C12.7826 36.9617 15.3506 35.8916 17.2377 33.9462L17.7436 33.4209L15.4868 31.1058L14.9421 31.6505V31.631Z" fill="#426772"/>
<path d="M3.51933 5.71113H1.57385V9.05736H0.484375V0.789062H3.22751C4.16134 0.789062 4.88117 1.00307 5.36754 1.43107C5.87336 1.85908 6.12627 2.46218 6.12627 3.27928C6.12627 3.78511 5.99009 4.25202 5.71772 4.62166C5.44535 5.01076 5.05626 5.28313 4.55043 5.47768L6.49592 8.97954V9.05736H5.32863L3.53878 5.71113H3.51933ZM1.57385 4.81621H3.24696C3.7917 4.81621 4.2197 4.68003 4.53098 4.38821C4.84226 4.11584 5.01735 3.72674 5.01735 3.25983C5.01735 2.754 4.86171 2.3649 4.56989 2.09254C4.25861 1.82017 3.83061 1.68398 3.24696 1.68398H1.57385V4.81621Z" fill="#78848A"/>
<path d="M12.3254 5.22476H8.74572V8.16244H12.9091V9.05736H7.65625V0.789062H12.8507V1.68398H8.74572V4.3493H12.3254V5.24422V5.22476Z" fill="#78848A"/>
<path d="M17.0017 7.59825L19.3558 0.789062H20.5425L17.4686 9.05736H16.4959L13.4609 0.789062H14.6477L17.0017 7.59825Z" fill="#78848A"/>
<path d="M22.8238 9.05736H21.7344V0.789062H22.8238V9.05736Z" fill="#78848A"/>
<path d="M29.4895 5.22476H25.9098V8.16244H30.0731V9.05736H24.8203V0.789062H30.0148V1.68398H25.9098V4.3493H29.4895V5.24422V5.22476Z" fill="#78848A"/>
<path d="M33.2054 6.45042L33.3611 7.53989L33.5945 6.56715L35.2287 0.789062H36.1431L37.7384 6.54769L37.9719 7.53989L38.147 6.43096L39.431 0.789062H40.5205L38.5166 9.05736H37.5244L35.8124 3.02637L35.6762 2.40381L35.54 3.02637L33.7696 9.05736H32.7774L30.8125 0.789062H31.902L33.2054 6.45042Z" fill="#78848A"/>
<path d="M46.4192 5.22476H42.8395V8.16244H47.0028V9.05736H41.75V0.789062H46.9444V1.68398H42.8395V4.3493H46.4192V5.24422V5.22476Z" fill="#78848A"/>
<path d="M48.3516 9.05736V0.789062H50.6861C51.406 0.789062 52.048 0.944701 52.5927 1.27543C53.1375 1.58671 53.5655 2.05363 53.8767 2.63727C54.1686 3.22092 54.3242 3.90183 54.3242 4.66057V5.18585C54.3242 5.96405 54.1686 6.64497 53.8767 7.22861C53.5849 7.81225 53.1375 8.25972 52.5927 8.57099C52.0285 8.88227 51.3865 9.03791 50.6472 9.05736H48.3516ZM49.441 1.68398V8.16244H50.5889C51.4254 8.16244 52.0869 7.90953 52.5538 7.38425C53.0207 6.85897 53.2542 6.11968 53.2542 5.14694V4.66057C53.2542 3.72674 53.0402 2.98746 52.5927 2.46218C52.1453 1.9369 51.5227 1.68398 50.725 1.66453H49.4605L49.441 1.68398Z" fill="#78848A"/>
<path d="M65.216 5.1893C65.216 6.0064 65.0799 6.70678 64.8075 7.30988C64.5351 7.91298 64.146 8.37989 63.6402 8.69117C63.1344 9.00245 62.5507 9.17754 61.8893 9.17754C61.2278 9.17754 60.6636 9.0219 60.1578 8.69117C59.652 8.37989 59.2629 7.91298 58.9905 7.32933C58.7181 6.74569 58.5625 6.04531 58.5625 5.26712V4.66402C58.5625 3.86637 58.6987 3.166 58.971 2.5629C59.2434 1.9598 59.6325 1.49288 60.1383 1.16215C60.6442 0.83142 61.2278 0.675781 61.8698 0.675781C62.5118 0.675781 63.1149 0.83142 63.6208 1.16215C64.1266 1.47343 64.5157 1.94034 64.788 2.54344C65.0604 3.14654 65.1966 3.86637 65.1966 4.66402V5.1893H65.216ZM64.1266 4.66402C64.1266 3.69128 63.932 2.93254 63.5429 2.40726C63.1538 1.88198 62.5896 1.62907 61.8893 1.62907C61.1889 1.62907 60.6636 1.88198 60.2551 2.40726C59.866 2.93254 59.652 3.65237 59.652 4.5862V5.1893C59.652 6.14259 59.8465 6.88187 60.2551 7.42661C60.6636 7.97134 61.2084 8.24371 61.9087 8.24371C62.6091 8.24371 63.1538 7.9908 63.5429 7.46551C63.932 6.95969 64.1266 6.22041 64.146 5.26712V4.64457L64.1266 4.66402Z" fill="#78848A"/>
<path d="M73.186 9.05736H72.0966L67.9332 2.69564V9.05736H66.8438V0.789062H67.9332L72.0966 7.1897V0.789062H73.186V9.05736Z" fill="#78848A"/>
<path d="M96.7186 32.8151H97.7497V33.924H96.7186V35.7722H95.3373V33.924H91.7577L91.7188 33.0874L95.279 27.5039H96.6992V32.8151H96.7186ZM93.1779 32.8151H95.3373V29.3716L95.2401 29.5467L93.1779 32.8151Z" fill="#78848A"/>
<path d="M104.758 32.8151H105.789V33.924H104.758V35.7722H103.376V33.924H99.7967L99.7578 33.0874L103.318 27.5039H104.738V32.8151H104.758ZM101.217 32.8151H103.376V29.3716L103.279 29.5467L101.217 32.8151Z" fill="#78848A"/>
<path d="M115.746 32.5894H114.151V35.7605H112.711V27.4922H115.61C116.563 27.4922 117.302 27.7062 117.808 28.1342C118.333 28.5622 118.586 29.1848 118.586 29.9824C118.586 30.5271 118.45 30.9941 118.178 31.3637C117.905 31.7333 117.536 32.0252 117.069 32.2197L118.917 35.6632V35.741H117.38L115.726 32.5699L115.746 32.5894ZM114.151 31.4221H115.629C116.116 31.4221 116.485 31.3053 116.758 31.0524C117.03 30.7995 117.166 30.4688 117.166 30.0408C117.166 29.6128 117.049 29.2626 116.796 29.0097C116.544 28.7568 116.174 28.64 115.668 28.64H114.151V31.4026V31.4221Z" fill="#78848A"/>
<path d="M126.223 32.0641H122.838V34.6127H126.807V35.7605H121.398V27.4922H126.768V28.6595H122.838V30.9357H126.223V32.0641Z" fill="#78848A"/>
<path d="M132.318 33.9512L134.419 27.4922H135.995L133.018 35.7605H131.637L128.68 27.4922H130.256L132.337 33.9512H132.318Z" fill="#78848A"/>
<path d="M139.901 35.7605H138.461V27.4922H139.901V35.7605Z" fill="#78848A"/>
<path d="M147.919 32.0641H144.533V34.6127H148.502V35.7605H143.094V27.4922H148.463V28.6595H144.533V30.9357H147.919V32.0641Z" fill="#78848A"/>
<path d="M157.589 33.7177L158.854 27.4922H160.274L158.368 35.7605H156.986L155.41 29.7295L153.796 35.7605H152.414L150.508 27.4922H151.928L153.212 33.6983L154.788 27.4922H155.994L157.55 33.7177H157.589Z" fill="#78848A"/>
<path d="M167.11 33.6356C167.11 33.266 166.974 32.9936 166.721 32.7991C166.468 32.6045 166.001 32.41 165.34 32.196C164.678 32.0014 164.153 31.768 163.745 31.5345C162.986 31.0676 162.616 30.445 162.616 29.6863C162.616 29.0248 162.889 28.4801 163.433 28.0326C163.978 27.6046 164.678 27.3906 165.554 27.3906C166.138 27.3906 166.643 27.4879 167.091 27.7019C167.538 27.9159 167.889 28.2077 168.161 28.6163C168.414 29.0054 168.55 29.4334 168.55 29.9198H167.11C167.11 29.4917 166.974 29.1416 166.702 28.9081C166.429 28.6552 166.04 28.5385 165.534 28.5385C165.068 28.5385 164.698 28.6357 164.445 28.8303C164.192 29.0248 164.056 29.3167 164.056 29.6668C164.056 29.9781 164.192 30.231 164.484 30.4256C164.776 30.6201 165.223 30.8341 165.865 31.0092C166.507 31.1843 167.033 31.4178 167.422 31.6707C167.811 31.9236 168.103 32.196 168.278 32.5072C168.453 32.8185 168.55 33.1882 168.55 33.6162C168.55 34.2971 168.278 34.8613 167.752 35.2504C167.227 35.6589 166.507 35.8535 165.612 35.8535C165.009 35.8535 164.464 35.7367 163.959 35.5227C163.453 35.3087 163.064 34.9975 162.791 34.6084C162.519 34.2193 162.383 33.7718 162.383 33.2465H163.822C163.822 33.7134 163.978 34.0831 164.289 34.336C164.601 34.5889 165.048 34.7251 165.632 34.7251C166.138 34.7251 166.507 34.6278 166.76 34.4138C167.013 34.2193 167.13 33.9469 167.13 33.6162L167.11 33.6356Z" fill="#78848A"/>
<path d="M99.2751 1.04734L100.909 4.35466C101.007 4.54921 101.201 4.68539 101.415 4.7243L105.073 5.24958C105.617 5.3274 105.831 6.00832 105.442 6.39741L102.796 8.98491C102.641 9.14054 102.563 9.35455 102.602 9.56855L103.224 13.2066C103.322 13.7513 102.738 14.1599 102.252 13.907L98.9833 12.195C98.7887 12.0977 98.5553 12.0977 98.3607 12.195L95.0923 13.907C94.6059 14.1599 94.0223 13.7513 94.1196 13.2066L94.7421 9.56855C94.781 9.35455 94.7032 9.14054 94.5476 8.98491L91.9017 6.39741C91.5126 6.00832 91.7266 5.34685 92.2714 5.24958L95.9289 4.7243C96.1429 4.68539 96.3374 4.54921 96.4347 4.35466L98.0689 1.04734C98.3218 0.541512 99.0222 0.541512 99.2751 1.04734Z" fill="#F7A200"/>
<path d="M115.119 1.04734L116.753 4.35466C116.85 4.54921 117.045 4.68539 117.259 4.7243L120.916 5.24958C121.461 5.3274 121.675 6.00832 121.286 6.39741L118.64 8.98491C118.485 9.14054 118.407 9.35455 118.446 9.56855L119.068 13.2066C119.165 13.7513 118.582 14.1599 118.095 13.907L114.827 12.195C114.632 12.0977 114.399 12.0977 114.204 12.195L110.936 13.907C110.45 14.1599 109.866 13.7513 109.963 13.2066L110.586 9.56855C110.625 9.35455 110.547 9.14054 110.391 8.98491L107.745 6.39741C107.356 6.00832 107.57 5.34685 108.115 5.24958L111.773 4.7243C111.987 4.68539 112.181 4.54921 112.278 4.35466L113.913 1.04734C114.166 0.541512 114.866 0.541512 115.119 1.04734Z" fill="#F7A200"/>
<path d="M130.955 1.04734L132.589 4.35466C132.686 4.54921 132.881 4.68539 133.095 4.7243L136.752 5.24958C137.297 5.3274 137.511 6.00832 137.122 6.39741L134.476 8.98491C134.32 9.14054 134.243 9.35455 134.282 9.56855L134.904 13.2066C135.001 13.7513 134.418 14.1599 133.931 13.907L130.663 12.195C130.468 12.0977 130.235 12.0977 130.04 12.195L126.772 13.907C126.286 14.1599 125.702 13.7513 125.799 13.2066L126.422 9.56855C126.461 9.35455 126.383 9.14054 126.227 8.98491L123.581 6.39741C123.192 6.00832 123.406 5.34685 123.951 5.24958L127.609 4.7243C127.823 4.68539 128.017 4.54921 128.114 4.35466L129.749 1.04734C130.001 0.541512 130.702 0.541512 130.955 1.04734Z" fill="#F7A200"/>
<path d="M146.799 1.04734L148.433 4.35466C148.53 4.54921 148.725 4.68539 148.939 4.7243L152.596 5.24958C153.141 5.3274 153.355 6.00832 152.966 6.39741L150.32 8.98491C150.164 9.14054 150.086 9.35455 150.125 9.56855L150.748 13.2066C150.845 13.7513 150.261 14.1599 149.775 13.907L146.507 12.195C146.312 12.0977 146.079 12.0977 145.884 12.195L142.616 13.907C142.129 14.1599 141.546 13.7513 141.643 13.2066L142.266 9.56855C142.304 9.35455 142.227 9.14054 142.071 8.98491L139.425 6.39741C139.036 6.00832 139.25 5.34685 139.795 5.24958L143.452 4.7243C143.666 4.68539 143.861 4.54921 143.958 4.35466L145.592 1.04734C145.845 0.541512 146.546 0.541512 146.799 1.04734Z" fill="#F7A200"/>
<path d="M162.627 1.04734L164.261 4.35466C164.358 4.54921 164.553 4.68539 164.767 4.7243L168.424 5.24958C168.969 5.3274 169.183 6.00832 168.794 6.39741L166.148 8.98491C165.992 9.14054 165.915 9.35455 165.953 9.56855L166.576 13.2066C166.673 13.7513 166.09 14.1599 165.603 13.907L162.335 12.195C162.14 12.0977 161.907 12.0977 161.712 12.195L158.444 13.907C157.957 14.1599 157.374 13.7513 157.471 13.2066L158.094 9.56855C158.133 9.35455 158.055 9.14054 157.899 8.98491L155.253 6.39741C154.864 6.00832 155.078 5.34685 155.623 5.24958L159.28 4.7243C159.494 4.68539 159.689 4.54921 159.786 4.35466L161.42 1.04734C161.673 0.541512 162.374 0.541512 162.627 1.04734Z" fill="#F7A200"/>
</svg>
