<svg width="80" height="80" viewBox="0 0 80 80" fill="none" xmlns="http://www.w3.org/2000/svg">
<g clip-path="url(#clip0_6814_20600)">
<path d="M13.1222 72.212C11.8822 72.212 11.5217 71.4928 11.5217 70.4146C11.5217 70.0554 11.5669 69.65 11.6228 69.2233C11.8943 67.3592 12.5577 66.2928 14.1581 66.2928C15.2408 66.2928 15.7685 66.7753 15.7685 67.6514V68.0784H16.8424C16.8543 68.0784 16.8543 67.6851 16.8543 67.5956C16.8543 66.3154 16.0762 65.1012 14.1599 65.1012C11.5556 65.1012 10.4848 66.5108 10.0904 69.2741C10.0339 69.6448 10 69.991 10 70.3606C10 71.9894 10.643 73.4709 12.9425 73.4709C14.6896 73.4709 15.7273 72.622 16.3356 71.5774L15.3095 70.8887C14.6447 71.9337 13.9225 72.2117 13.1222 72.2117V72.212ZM20.168 67.0675C18.0821 67.0675 17.1809 68.1341 16.8766 70.2567C16.841 70.5024 16.8219 70.7501 16.8195 70.9984C16.8195 72.3682 17.4623 73.4585 19.2427 73.4585C21.3286 73.4585 22.242 72.3463 22.5463 70.2567C22.5802 69.9876 22.6028 69.7404 22.6028 69.4932C22.6034 68.1006 21.9386 67.0675 20.168 67.0675ZM21.0362 70.2572C20.8105 71.7965 20.3262 72.2683 19.4125 72.2683C18.6803 72.2683 18.3198 71.9649 18.3198 71.055C18.3198 70.8301 18.3427 70.561 18.3876 70.2572C18.6133 68.7298 19.0639 68.2583 19.9884 68.2583C20.7325 68.2583 21.104 68.5615 21.104 69.4825C21.104 69.7072 21.0811 69.9656 21.0362 70.2575V70.2572ZM27.8462 65.2129L27.497 67.2748C27.4747 67.4541 27.486 67.3944 27.5541 67.563C27.2272 67.3161 26.6404 67.1527 26.246 67.1527C24.3746 67.1527 23.3267 67.9967 22.9888 70.3554C22.9494 70.6043 22.9306 70.8561 22.9323 71.1082C22.9323 72.8273 23.9465 73.468 25.3103 73.468C25.8861 73.468 26.4491 73.4799 26.8885 73.1097L27.0006 73.8085H28.0832L29.3455 65.2124H27.8459L27.8462 65.2129ZM26.7754 71.942C26.2686 72.2446 25.7731 72.3128 25.4688 72.3128C24.6458 72.3128 24.4203 71.8857 24.4203 71.2008C24.4203 70.9424 24.4542 70.6398 24.4997 70.3133C24.7585 68.5277 25.3337 68.2127 26.0779 68.2127C26.5622 68.2127 26.9339 68.2918 27.284 68.4832L26.7754 71.9423V71.942ZM32.6378 67.0675C30.5742 67.0675 29.6058 68.044 29.2783 70.2567C29.2441 70.5266 29.2212 70.7851 29.2212 71.0322C29.2212 72.5487 29.9996 73.4588 31.7122 73.4588C33.0426 73.4588 34.0354 72.9079 34.5649 71.897L33.426 71.4365C33.0994 71.9302 32.6598 72.2675 31.882 72.2675C31.048 72.2675 30.7096 72.0437 30.7096 71.3022C30.7096 71.1558 30.7209 70.9436 30.7438 70.9436H34.8127C34.8697 70.3704 34.9367 69.9653 34.9367 69.6295C34.9367 68.5069 34.5087 67.0678 32.6378 67.0678V67.0675ZM33.4153 69.7979H30.9353C31.184 69.2247 31.6001 68.3377 32.4573 68.3377C33.122 68.3377 33.4495 68.7249 33.4495 69.3876C33.4489 69.4999 33.4385 69.7979 33.4153 69.7979ZM39.2748 66.9324L39.4098 65.7864H36.2306L36.0958 66.9324H36.9298L36.0286 72.663H35.1934L35.059 73.8093H38.2376L38.3735 72.663H37.539L38.4405 66.9324H39.2751H39.2748ZM45.7347 68.6516L46.141 67.5055H45.0476L44.2591 67.6678C43.8192 67.3877 43.2217 67.1772 42.6586 67.1772C41.046 67.1772 39.6712 67.9531 39.6712 69.717C39.6712 70.2119 39.8515 70.6112 40.065 70.8812C39.7277 71.0605 39.4342 71.3608 39.4342 71.7659C39.4342 71.9455 39.5014 72.1292 39.6373 72.2972C38.9604 72.7023 38.5445 73.3733 38.5445 74.159C38.5445 75.676 40.1337 75.9997 41.3511 75.9997C42.8841 75.9997 44.7106 75.6506 44.7106 73.7074C44.7106 73.045 44.2936 72.5273 43.0875 72.3027L40.9121 71.8976C40.6643 71.8522 40.6078 71.7737 40.6078 71.6614C40.6078 71.4928 40.7104 71.4035 40.8785 71.4035L41.0254 71.4258C41.3184 71.493 41.6568 71.5271 42.006 71.5271C43.5735 71.5271 44.9708 70.8529 44.9708 69.1005C44.9708 68.8531 44.9259 68.6856 44.8132 68.4159C45.0044 68.506 45.2531 68.6521 45.3536 68.6521H45.735V68.6516H45.7347ZM42.6354 73.3008C43.0634 73.38 43.2098 73.5368 43.2098 73.8177C43.2098 74.7278 42.2292 74.8401 41.5192 74.8401C40.4368 74.8401 40.0314 74.5823 40.0314 74.0086C40.0314 73.503 40.1775 73.2676 40.5162 72.9076L42.6354 73.3008ZM42.1724 70.3586C41.5186 70.3586 41.1578 70.123 41.1578 69.5608C41.1578 68.7298 41.6426 68.2467 42.4882 68.2467C43.1646 68.2467 43.4918 68.5277 43.4918 69.0772C43.4918 69.9087 43.018 70.3586 42.1724 70.3586ZM49.7395 67.0675C49.1081 67.0675 48.545 67.3762 47.8458 67.926L47.7447 67.5053H46.5041L45.6362 73.8087H47.1355L47.7896 69.0286C48.2295 68.7593 48.7702 68.368 49.2324 68.368C49.7958 68.368 49.9992 68.6389 49.9992 69.1554C49.9992 69.279 49.9873 69.6454 49.9647 69.78L49.413 73.809H50.9126L51.4644 69.7473C51.4872 69.5573 51.5096 69.2443 51.5096 69.065C51.5101 67.9967 51.0021 67.0678 49.7398 67.0678L49.7395 67.0675ZM54.3576 72.2299L54.3689 72.0757L55.0223 67.5055H52.5308L52.3737 68.6516H53.4665C53.3761 68.6516 53.3199 68.752 53.3088 68.8424L52.8576 71.886C52.8353 72.0324 52.8243 72.3373 52.8243 72.46C52.8243 73.2463 53.2523 73.809 54.131 73.809H54.8977L55.067 72.6627H54.5825C54.4129 72.6627 54.357 72.3642 54.357 72.2296L54.3576 72.2299ZM55.3266 65.2132H53.8612C53.7708 65.2132 53.7708 64.8826 53.76 64.9949L53.5566 66.6099C53.545 66.7115 53.545 66.9327 53.6351 66.9327H55.1012C55.1916 66.9327 55.1916 66.54 55.2023 66.4378L55.4057 65.1913C55.417 65.079 55.417 65.2132 55.3263 65.2132H55.3266ZM58.3839 72.2683C58.0124 72.2683 57.8318 72.111 57.8318 71.7746L57.8431 71.7515L58.3166 68.6518H60.0299L60.548 67.5058H58.474L58.8232 64.9837L57.2459 65.4864L56.9636 67.5058H56.0508L55.8932 68.6518H56.9526C56.8515 69.225 56.7495 68.8531 56.7388 68.966L56.3328 71.6839C56.3104 71.8078 56.3104 71.8976 56.3104 72.0093C56.3104 73.0765 57.0995 73.4758 58.0471 73.4758C58.9261 73.4758 59.6363 73.22 60.1889 72.7589L59.4897 71.9019C59.1393 72.115 58.9032 72.2686 58.3842 72.2686L58.3839 72.2683ZM63.8852 67.0678C61.8225 67.0678 60.8531 68.0443 60.526 70.257C60.4921 70.5269 60.4695 70.7853 60.4695 71.0325C60.4695 72.549 61.2472 73.4591 62.9605 73.4591C64.2909 73.4591 65.2837 72.9082 65.8128 71.8973L64.6745 71.4367C64.3482 71.9305 63.9081 72.2677 63.1297 72.2677C62.2963 72.2677 61.9572 72.044 61.9572 71.3025C61.9572 71.1561 61.9694 70.9439 61.992 70.9439H66.0612C66.1174 70.3707 66.1852 69.9656 66.1852 69.6298C66.1852 68.5072 65.7569 67.0681 63.8852 67.0681V67.0678ZM64.6635 69.7981H62.1835C62.4313 69.225 62.8477 68.338 63.7055 68.338C64.3703 68.338 64.6977 68.7252 64.6977 69.3878C64.6971 69.5002 64.6861 69.7981 64.6635 69.7981ZM70.3338 67.0678C69.7927 67.0678 69.2853 67.3771 68.7779 67.859L68.6878 67.5058H67.4484L66.5802 73.8093H68.0908L68.7556 68.9279C69.1503 68.6926 69.6012 68.4916 70.0298 68.4916C70.3007 68.4916 70.5595 68.4486 70.8073 68.4821L71 67.1798C70.7734 67.1351 70.5479 67.0681 70.3341 67.0681L70.3338 67.0678ZM32.0504 60.6982C28.6382 59.2285 25.4453 55.4934 25.4375 51.6716C25.4282 47.5048 28.0783 43.9671 31.3746 41.6425C30.9785 43.1341 30.7623 44.4987 31.7441 45.833C32.6566 47.0734 34.2551 47.6763 35.7643 47.3492C39.291 46.58 39.4527 42.7172 37.3619 40.4665C35.2949 38.2377 33.295 35.7204 34.0821 32.4883C34.4759 30.8682 35.4742 29.3505 36.7392 28.2657C35.7669 30.8113 38.5297 33.3219 40.3499 34.5724C43.5074 36.742 46.9718 38.3815 49.8749 40.925C52.9286 43.5978 55.1838 47.212 54.7285 51.4037C54.235 55.947 50.6118 59.1067 46.5475 60.702C55.1357 58.8133 64.0095 52.172 64.1912 42.6817C64.3419 34.8741 58.9663 28.8654 52.3076 25.4254L51.9596 25.2363C52.1424 25.678 52.2021 26.054 52.1952 26.3904C52.2549 26.1423 52.2952 25.8874 52.3068 25.6243C52.305 25.9368 52.2642 26.248 52.1848 26.5503L52.1952 26.3907C52.0964 26.8053 51.9297 27.2006 51.7023 27.5615L51.7999 27.4567C50.4715 29.652 46.875 30.129 45.0986 27.8554C42.2425 24.1985 45.1583 20.2561 45.5663 16.3838C46.0769 11.5306 43.0223 6.81926 39.2351 4C41.321 7.36209 38.5729 11.8101 36.3743 14.2971C34.2424 16.7075 31.6496 18.7203 29.2963 20.9104C26.7682 23.2627 24.3378 25.7407 22.2597 28.5016C18.1036 34.0278 15.5593 40.9781 17.429 47.8724C19.2975 54.762 25.2871 59.1474 32.0507 60.6982H32.0504Z" fill="#EE4323"/>
</g>
<defs>
<clipPath id="clip0_6814_20600">
<rect width="61" height="72" fill="white" transform="translate(10 4)"/>
</clipPath>
</defs>
</svg>
