<svg width="80" height="80" viewBox="0 0 80 80" fill="none" xmlns="http://www.w3.org/2000/svg">
<path d="M39.9972 41.6824V48.788C51.7925 48.788 60.9756 37.1522 57.1177 24.5315C55.4313 19.0164 51.1399 14.6334 45.7389 12.9123C33.3794 8.97199 21.9844 18.35 21.9844 30.3945H28.9591L28.9609 30.3927C28.9618 22.8343 36.2872 16.9906 44.0696 19.8742C46.953 20.9428 49.2524 23.2908 50.2998 26.2343C53.1238 34.1765 47.41 41.6539 40.0143 41.664V34.5815C40.0143 34.5815 40.0143 34.5815 40.0134 34.5815H33.0603L33.0594 34.5824V41.6824H39.999H39.9972ZM33.0558 47.1395H27.7116V41.6824H33.0567V47.1386C33.0567 47.1386 33.0567 47.1395 33.0558 47.1395ZM27.7152 41.6824H23.2364L23.2328 41.6815V37.1098C23.2328 37.1098 23.2346 37.1062 23.2364 37.1062H27.7116L27.7152 37.108V41.6824Z" fill="#0080FF"/>
<path d="M10.2239 55.9983C9.31714 55.3559 8.18864 55.0301 6.86994 55.0301H4V64.329H6.86994C8.18503 64.329 9.31444 63.9857 10.2248 63.3082C10.7206 62.9493 11.11 62.4467 11.3822 61.8172C11.6535 61.1904 11.7905 60.4513 11.7905 59.6192C11.7905 58.7872 11.6526 58.0674 11.3822 57.4498C11.11 56.8286 10.7197 56.3407 10.2239 55.9983ZM5.67654 56.6021H6.577C7.57931 56.6021 8.40406 56.8037 9.03051 57.2013C9.72546 57.6293 10.077 58.442 10.077 59.6192C10.077 60.7964 9.72366 61.6819 9.0278 62.1476C8.4284 62.5526 7.60816 62.7578 6.59052 62.7578H5.67744V56.6031L5.67654 56.6021ZM12.9668 64.329H14.5811V57.7793H12.9668V64.329ZM13.7888 54.9159C13.513 54.9159 13.275 55.0163 13.0839 55.2114C12.8901 55.4001 12.7919 55.6385 12.7919 55.921C12.7919 56.2036 12.8892 56.4457 13.0821 56.6417C13.275 56.8387 13.513 56.939 13.7879 56.939C14.0628 56.939 14.3017 56.8387 14.4946 56.6417C14.6875 56.4447 14.7857 56.2018 14.7857 55.921C14.7857 55.6403 14.6875 55.4001 14.4946 55.2123C14.3017 55.0154 14.0637 54.9159 13.7879 54.9159H13.7888ZM20.4418 58.327C19.955 57.8852 19.4115 57.6275 18.8238 57.6275C17.9333 57.6275 17.1924 57.9423 16.6236 58.5626C16.0467 59.1774 15.7547 59.969 15.7547 60.9152C15.7547 61.8614 16.0422 62.629 16.611 63.2613C17.1842 63.8734 17.9288 64.1836 18.8238 64.1836C19.4458 64.1836 19.9812 64.0068 20.4165 63.6571V63.808C20.4165 64.3511 20.2741 64.7745 19.9929 65.0644C19.7126 65.3543 19.3232 65.5016 18.8364 65.5016C18.091 65.5016 17.6241 65.2024 17.0562 64.4183L15.9575 65.4961L15.9872 65.5384C16.2243 65.8789 16.5884 66.2112 17.068 66.5278C17.5484 66.8426 18.1514 67.0028 18.8617 67.0028C19.8198 67.0028 20.595 66.7009 21.1656 66.1063C21.7397 65.508 22.0309 64.7082 22.0309 63.7279V57.7803H20.4418V58.327ZM20.0181 62.1955C19.736 62.5222 19.3737 62.6814 18.9113 62.6814C18.4489 62.6814 18.0883 62.5231 17.8107 62.1964C17.534 61.8715 17.3934 61.4398 17.3934 60.9152C17.3934 60.3905 17.534 59.9451 17.8107 59.6183C18.0847 59.2943 18.4552 59.1296 18.9113 59.1296C19.3673 59.1296 19.736 59.2897 20.0181 59.6183C20.2994 59.946 20.4418 60.3813 20.4418 60.9143C20.4418 61.4472 20.2994 61.8696 20.0181 62.1945V62.1955ZM23.4118 64.3299H25.0261V57.7803H23.4118V64.3299ZM24.2347 54.9169C23.9589 54.9169 23.7209 55.0172 23.5298 55.2123C23.336 55.401 23.2378 55.6394 23.2378 55.922C23.2378 56.2045 23.3351 56.4466 23.528 56.6426C23.7209 56.8396 23.9589 56.9399 24.2347 56.9399C24.5105 56.9399 24.7476 56.8396 24.9414 56.6426C25.1343 56.4457 25.2316 56.2027 25.2316 55.922C25.2316 55.6412 25.1334 55.401 24.9414 55.2132C24.7485 55.0163 24.5105 54.9169 24.2347 54.9169ZM28.5631 56.0112H26.9739V57.7803H26.051V59.2824H26.9739V62.0031C26.9739 62.8545 27.1407 63.4638 27.4688 63.8135C27.7987 64.1651 28.3837 64.3428 29.2075 64.3428C29.4698 64.3428 29.7339 64.3336 29.9917 64.317L30.0647 64.3124V62.8112L29.5113 62.8407C29.1273 62.8407 28.8704 62.7716 28.7487 62.6363C28.6252 62.4983 28.5631 62.2065 28.5631 61.7702V59.2833H30.0656V57.7812H28.5631V56.0122V56.0112ZM35.6045 58.2708C35.1151 57.8447 34.439 57.6284 33.5954 57.6284C33.0581 57.6284 32.5561 57.749 32.1018 57.9837C31.6818 58.2009 31.2689 58.5617 31.0066 59.0329L31.0229 59.0532L32.0567 60.0638C32.4822 59.3707 32.9554 59.1305 33.5836 59.1305C33.9208 59.1305 34.2011 59.2225 34.4156 59.4048C34.6292 59.5852 34.7338 59.8153 34.7338 60.1071V60.4255C34.3336 60.3013 33.9343 60.2378 33.5458 60.2378C32.7427 60.2378 32.0892 60.431 31.6033 60.8112C31.1121 61.1968 30.8624 61.7472 30.8624 62.4495C30.8624 63.0653 31.0724 63.565 31.4889 63.936C31.908 64.294 32.4326 64.4762 33.0473 64.4762C33.6621 64.4762 34.2362 64.2231 34.7581 63.7905V64.3299H36.3472V60.1199C36.3472 59.3229 36.0975 58.7007 35.6045 58.2708ZM32.7391 61.8273C32.922 61.6966 33.1807 61.6313 33.5079 61.6313C33.8964 61.6313 34.3083 61.7113 34.7329 61.8678V62.5102C34.3823 62.8434 33.9135 63.0119 33.3394 63.0119C33.06 63.0119 32.8427 62.9484 32.6931 62.8232C32.5471 62.7008 32.475 62.5443 32.475 62.3464C32.475 62.1218 32.5606 61.9516 32.7373 61.8264L32.7391 61.8273ZM37.6335 64.3299H39.2478V55.031H37.6335V64.3299ZM45.1031 64.4698C42.5144 64.4698 40.4088 62.3197 40.4088 59.6763C40.4088 57.0329 42.5144 54.8828 45.1031 54.8828C47.6918 54.8828 49.7974 57.0329 49.7974 59.6763C49.7974 62.3197 47.6918 64.4698 45.1031 64.4698ZM45.1031 56.5718C43.4265 56.5718 42.0628 57.9643 42.0628 59.6763C42.0628 61.3883 43.4265 62.7808 45.1031 62.7808C46.7796 62.7808 48.1434 61.3883 48.1434 59.6763C48.1434 57.9643 46.7796 56.5718 45.1031 56.5718ZM55.5526 61.9875C55.2641 62.3179 54.9685 62.6041 54.7413 62.7532C54.5187 62.8996 54.2366 62.9741 53.9049 62.9741C53.429 62.9741 53.0468 62.7974 52.7358 62.4329C52.4257 62.0703 52.2689 61.6055 52.2689 61.0486C52.2689 60.4918 52.4239 60.027 52.7295 59.6671C53.0369 59.3054 53.4172 59.1296 53.8923 59.1296C54.4123 59.1296 54.9604 59.46 55.43 60.027L56.4963 58.9823C55.8004 58.0582 54.9135 57.6275 53.8544 57.6275C52.9684 57.6275 52.2004 57.957 51.5713 58.6068C50.9457 59.252 50.6284 60.073 50.6284 61.0486C50.6284 62.0243 50.9457 62.8471 51.5703 63.4969C52.1959 64.1467 52.9639 64.4762 53.8544 64.4762C55.0226 64.4762 55.9663 63.9608 56.6018 63.0174L55.5526 61.9875ZM62.1767 58.6951C61.9477 58.3693 61.6359 58.107 61.2501 57.9156C60.8652 57.7241 60.4163 57.6275 59.9161 57.6275C59.0156 57.6275 58.2783 57.9671 57.724 58.6372C57.1867 59.3017 56.9145 60.1282 56.9145 61.0937C56.9145 62.0592 57.2129 62.9079 57.8024 63.5356C58.3883 64.1605 59.1724 64.4772 60.1333 64.4772C61.2212 64.4772 62.1145 64.028 62.7878 63.1407L62.8239 63.0929L61.7711 62.0602C61.6737 62.1807 61.5349 62.317 61.4087 62.4385C61.2492 62.5922 61.0996 62.7109 60.9391 62.7919C60.6976 62.9143 60.4271 62.9751 60.1243 62.9751C59.6772 62.9751 59.3068 62.8407 59.0237 62.5756C58.7587 62.328 58.6046 61.9939 58.5631 61.5806H62.8392L62.8536 60.9787C62.8536 60.5525 62.7968 60.143 62.6851 59.7591C62.5733 59.3753 62.4011 59.0173 62.1749 58.6951H62.1767ZM58.6497 60.2368C58.7272 59.9239 58.8687 59.6625 59.0715 59.46C59.2905 59.24 59.5745 59.1287 59.9179 59.1287C60.3091 59.1287 60.6119 59.2419 60.8183 59.4674C61.0094 59.6754 61.1167 59.934 61.1392 60.2368H58.6506H58.6497ZM68.3754 58.2699C67.8859 57.8438 67.2099 57.6275 66.3662 57.6275C65.829 57.6275 65.327 57.748 64.8727 57.9828C64.4526 58.2 64.0398 58.5608 63.7775 59.032L63.7937 59.0523L64.8276 60.0629C65.253 59.3698 65.7263 59.1296 66.3545 59.1296C66.6916 59.1296 66.9719 59.2216 67.1865 59.4039C67.4001 59.5843 67.5046 59.8144 67.5046 60.1061V60.4246C67.1044 60.3003 66.7051 60.2368 66.3167 60.2368C65.5135 60.2368 64.86 60.4301 64.3742 60.8102C63.883 61.1959 63.6333 61.7463 63.6333 62.4486C63.6333 63.0643 63.8433 63.5641 64.2597 63.935C64.6789 64.2931 65.2035 64.4753 65.8182 64.4753C66.4329 64.4753 67.0071 64.2222 67.529 63.7896V64.329H69.1181V60.119C69.1181 59.3219 68.8684 58.6998 68.3754 58.2699ZM65.5099 61.8264C65.6929 61.6957 65.9516 61.6303 66.2788 61.6303C66.6673 61.6303 67.0792 61.7104 67.5037 61.8669V62.5093C67.1531 62.8425 66.6844 63.011 66.1102 63.011C65.8308 63.011 65.6136 62.9474 65.4649 62.8223C65.3188 62.6999 65.2467 62.5434 65.2467 62.3455C65.2467 62.1209 65.3324 61.9506 65.509 61.8255L65.5099 61.8264ZM75.3267 58.3979C74.8769 57.8861 74.245 57.6266 73.4491 57.6266C72.8092 57.6266 72.2891 57.8143 71.8997 58.1843V57.7784H70.3169V64.3281H71.9312V60.7164C71.9312 60.2203 72.0466 59.8263 72.2747 59.5447C72.5018 59.264 72.8146 59.1277 73.231 59.1277C73.597 59.1277 73.8737 59.2492 74.0783 59.5005C74.2838 59.7527 74.3875 60.0988 74.3875 60.5323V64.329H76.0018V60.5323C76.0018 59.6248 75.7747 58.9068 75.3276 58.3979H75.3267Z" fill="#0080FF"/>
</svg>
