<svg width="34" height="34" viewBox="0 0 34 34" fill="none" xmlns="http://www.w3.org/2000/svg">
<path d="M27.8975 24.6916C27.0175 24.6916 26.3175 25.3116 26.1275 26.1316H19.7775V8.88156H22.3675C22.5575 9.70156 23.2675 10.3216 24.1375 10.3216C25.1575 10.3216 25.9975 9.49156 25.9975 8.46156C25.9975 7.43156 25.1675 6.60156 24.1375 6.60156C23.2575 6.60156 22.5575 7.22156 22.3675 8.04156H19.3575C19.1275 8.04156 18.9375 8.23156 18.9375 8.46156V26.5516C18.9375 26.7816 19.1275 26.9716 19.3575 26.9716H26.1175C26.3075 27.7916 27.0175 28.4116 27.8875 28.4116C28.9075 28.4116 29.7475 27.5816 29.7475 26.5516C29.7475 25.5216 28.9175 24.6916 27.8875 24.6916H27.8975Z" fill="#1A1A1A"/>
<path d="M31.4128 21.2297C30.5328 21.2297 29.8328 21.8497 29.6428 22.6697H22.7128V12.7097H26.1428C26.3328 13.5297 27.0428 14.1497 27.9128 14.1497C28.9328 14.1497 29.7728 13.3197 29.7728 12.2897C29.7728 11.2597 28.9428 10.4297 27.9128 10.4297C27.0328 10.4297 26.3328 11.0497 26.1428 11.8697H22.3028C22.0728 11.8697 21.8828 12.0597 21.8828 12.2897V23.0797C21.8828 23.3097 22.0728 23.4997 22.3028 23.4997H29.6528C29.8428 24.3197 30.5528 24.9397 31.4228 24.9397C32.4428 24.9397 33.2828 24.1097 33.2828 23.0897C33.2828 22.0697 32.4528 21.2297 31.4228 21.2297H31.4128Z" fill="#1A1A1A"/>
<path d="M16.7578 4.42C16.7578 4.19 16.5678 4 16.3378 4H13.2578C13.0378 4 12.8578 4.16 12.8478 4.38L12.5778 7.42C11.4278 7.72 10.3378 8.21 9.34781 8.86L6.92781 6.83C6.76781 6.69 6.51781 6.7 6.36781 6.85L3.84781 9.37C3.69781 9.52 3.68781 9.77 3.82781 9.93L5.93781 12.44C5.35781 13.42 4.93781 14.46 4.68781 15.56L1.38781 15.85C1.17781 15.87 1.00781 16.05 1.00781 16.26V19.82C1.00781 20.04 1.16781 20.22 1.38781 20.23L4.68781 20.52C4.93781 21.62 5.35781 22.67 5.93781 23.64L3.82781 26.15C3.68781 26.31 3.69781 26.56 3.84781 26.71L6.36781 29.23C6.51781 29.38 6.76781 29.39 6.92781 29.25L9.34781 27.22C10.3478 27.88 11.4278 28.36 12.5778 28.66L12.8478 31.7C12.8678 31.91 13.0478 32.08 13.2578 32.08H16.3378C16.3378 32.08 16.4678 32.08 16.5778 31.98C16.6478 31.93 16.6778 31.85 16.7078 31.76C16.7078 31.76 16.7078 31.75 16.7078 31.74C16.7078 31.71 16.7378 31.69 16.7378 31.66C16.7378 31.64 16.7178 31.62 16.7178 31.6C16.7378 31.5 16.7578 31.4 16.7378 31.24V4.42H16.7578ZM13.6078 25.19C13.6078 25.19 13.5778 25.17 13.5578 25.17C10.0978 24.46 7.58781 21.38 7.58781 17.84C7.58781 14.3 10.1178 11.19 13.6078 10.51V25.19Z" fill="#1A1A1A"/>
</svg>
