<svg width="80" height="80" viewBox="0 0 80 80" fill="none" xmlns="http://www.w3.org/2000/svg">
<g clip-path="url(#clip0_6203_47407)">
<path d="M40.0134 4C59.8906 4.00663 76 20.123 76 40.0001V40.0137C75.9934 59.894 59.8704 76.0069 39.9869 76.0003C20.106 75.9934 3.99338 59.8672 4 39.9869C4.00663 20.106 20.1296 3.99338 40.0134 4ZM39.8293 13.2586C38.8407 16.9999 35.5074 20.3232 32.0167 23.8138C26.796 29.0478 20.8607 34.9699 20.8607 43.8647C20.8742 54.3257 29.3444 62.8065 39.806 62.8333C50.2874 62.8333 58.7882 54.3424 58.798 43.8647C58.798 34.9699 52.8793 29.0512 47.6419 23.8138L47.1741 23.3457C43.8575 20.025 40.7707 16.8354 39.8293 13.2586ZM40.0866 41.6631C42.2643 43.9845 43.6472 45.5847 45.08 47.3314C45.1868 47.4616 45.2839 47.6019 45.3709 47.7523C47.1246 50.2808 46.8872 53.6879 44.7997 55.9457C42.3414 58.6076 38.1932 58.7715 35.5307 56.3132C32.8688 53.8547 32.7049 49.7064 35.1631 47.0442C36.5596 45.3943 38.2462 43.7708 40.0866 41.6631ZM31.4187 32.9587L32.3339 33.8237L36.5827 38.169C36.7431 38.3531 36.7431 38.6235 36.5827 38.8073L32.1403 43.7172L30.5868 45.6077C29.996 46.3273 29.4948 47.1157 29.0938 47.9559C29.0371 48.0962 28.9167 48.1999 28.7698 48.233H28.6128C28.1819 48.1964 27.6876 47.4014 27.6876 47.4014L27.6089 47.2824C27.5061 47.1223 27.4119 46.9569 27.3269 46.787L27.2434 46.6067C26.637 44.6286 26.5875 42.5218 27.0999 40.5175L27.1572 40.3092C27.6297 38.6434 28.3743 37.0672 29.3612 35.6445C29.9954 34.7109 30.6825 33.8142 31.4184 32.959L31.4187 32.9587ZM39.8561 24.1742C40.9882 25.4603 42.2643 26.7497 43.4666 27.952L43.4934 28.0355C46.0078 30.378 48.2817 32.9662 50.2805 35.7614C51.978 38.1465 52.9058 40.9936 52.9395 43.9211C52.9395 45.186 52.7491 46.4439 52.3747 47.6523L52.3562 47.7021C52.256 47.9484 52.0356 48.1256 51.7735 48.1702H51.6534C51.3938 48.0881 51.1743 47.9116 51.0387 47.6759L50.8373 47.3735C49.7539 45.767 48.5326 44.2576 47.1877 42.8628L45.4545 41.0325L39.6758 35.0136C38.7004 34.0749 36.9569 32.3912 36.222 31.476C36.1987 31.4256 36.1708 31.3778 36.1385 31.3326C35.9383 31.0587 35.7839 30.7539 35.6808 30.4307V30.2504C35.5811 29.6627 35.6603 29.0587 35.908 28.5169C36.0685 28.1721 36.2891 27.859 36.5593 27.5916C37.6781 26.4728 38.7972 25.3774 39.8558 24.1747H39.8564L39.8561 24.1742Z" fill="#009DDE"/>
</g>
<defs>
<clipPath id="clip0_6203_47407">
<rect width="72" height="72" fill="white" transform="translate(4 4)"/>
</clipPath>
</defs>
</svg>
