<svg width="80" height="80" viewBox="0 0 80 80" fill="none" xmlns="http://www.w3.org/2000/svg">
<path fill-rule="evenodd" clip-rule="evenodd" d="M25.9068 4.89489C25.1514 3.46481 23.0259 3.82644 22.7783 5.42752L14 62.116L14.4323 61.5057L34.8749 22.382L34.9181 21.9679L25.9068 4.89489Z" fill="#FFA712"/>
<path fill-rule="evenodd" clip-rule="evenodd" d="M41.484 15.0283C40.847 13.805 39.068 13.8012 38.4376 15.0283L34.8516 21.9258V22.5132L41.4857 34.8824L48.1957 27.9515L41.4837 15.0283H41.484Z" fill="#FFA50E"/>
<path d="M14 62.1186L14.1959 61.9199L14.9078 61.6283L41.0665 35.3424L41.3979 34.4326L34.8723 21.8906L14 62.1186Z" fill="#F6820C"/>
<path d="M66 62.0543L59.2395 20.0594C59.0279 18.7456 57.4299 18.2262 56.4972 19.168L14.1961 61.9164L14.1896 61.9127L14.004 62.1105L14 62.1145L35.9474 74.4743L37.5382 75.3703C39.0259 76.208 40.8377 76.2083 42.3257 75.3714L66 62.0546V62.0543Z" fill="#FCCA3F"/>
</svg>
