<svg width="144" height="37" viewBox="0 0 144 37" fill="none" xmlns="http://www.w3.org/2000/svg">
<path d="M8.66838 7.4003C8.66838 7.4003 7.49493 7.28674 7.49493 8.3277V12.9647H15.217V14.3464C15.217 14.3464 15.2359 15.0277 14.5167 15.0277H7.49493V21.0653H15.9362C15.9362 21.0653 21.0464 20.2893 21.1031 15.0277V7.4003H8.68731H8.66838ZM20.8382 0H5.6212C0.113559 1.28701 0 5.81046 0 5.81046V21.0653H5.84832V7.1921C5.84832 6.01866 7.02177 5.81046 7.02177 5.81046H20.8193V0H20.8382ZM42.9255 16.6933C42.5281 16.9582 42.2252 17.1664 41.9981 17.28C41.241 17.7531 40.5408 18.1127 39.8783 18.3777C38.9131 18.7752 38.0614 18.9644 37.2854 18.9644C34.6546 18.9644 32.4591 18.1695 30.7179 16.5418C28.9577 14.9142 28.0871 12.8701 28.0871 10.4096C28.0871 7.94917 28.8631 5.9808 30.4718 4.22063C32.0427 2.47938 33.9732 1.60876 36.2444 1.60876C37.1908 1.60876 38.1939 1.7791 39.2348 2.10085C40.5975 2.51724 41.6764 3.17967 42.5848 4.01244L41.0707 5.67798C40.4272 5.03447 39.5944 4.59916 38.6292 4.31526C37.891 4.10707 37.0961 3.99351 36.2066 3.99351C34.6357 3.99351 33.2919 4.63701 32.1941 5.9051C31.1342 7.1921 30.5854 8.70623 30.5854 10.5043C30.5854 12.3023 31.191 13.7407 32.4213 14.8763C33.6515 16.0308 35.2035 16.6175 37.0772 16.6175C37.8532 16.6175 38.6481 16.3526 39.4809 15.8794C40.1622 15.3684 40.5218 15.1034 40.5218 15.1034V11.4317H35.4117L36.1498 9.14154H42.9255V16.6743V16.6933ZM58.3128 12.2266C58.3128 13.9868 57.6693 15.5198 56.4202 16.8257C55.171 18.1317 53.619 18.7752 51.7642 18.7752C50.0419 18.7752 48.5656 18.1317 47.2597 16.8636C45.9538 15.5955 45.3292 14.0625 45.3292 12.2455C45.3292 10.4286 45.9348 8.93335 47.1651 7.60849C48.3953 6.28363 49.8905 5.65905 51.6317 5.65905C53.5812 5.65905 55.171 6.30255 56.4202 7.55171C57.6693 8.78194 58.3128 10.3528 58.3128 12.2455V12.2266ZM55.9281 12.2644C55.9281 11.0721 55.5306 10.05 54.7357 9.21725C53.9408 8.36555 52.9377 7.96809 51.7453 7.96809C50.6476 7.96809 49.7012 8.38448 48.8874 9.2551C48.1114 10.1068 47.7139 11.091 47.7139 12.2077C47.7139 13.3243 48.1114 14.3464 48.8874 15.1791C49.6634 16.0119 50.6476 16.4283 51.8399 16.4283C52.9377 16.4283 53.884 16.0308 54.6978 15.1981C55.5495 14.3464 55.947 13.3622 55.947 12.2455L55.9281 12.2644ZM73.492 12.2266C73.492 13.9868 72.8485 15.5198 71.5993 16.8257C70.3501 18.1317 68.7982 18.7752 66.9434 18.7752C65.221 18.7752 63.7448 18.1317 62.4388 16.8636C61.1329 15.5955 60.5083 14.0625 60.5083 12.2455C60.5083 10.4286 61.114 8.93335 62.3442 7.60849C63.5744 6.28363 65.0696 5.65905 66.8109 5.65905C68.7603 5.65905 70.3501 6.30255 71.5993 7.55171C72.8485 8.78194 73.492 10.3528 73.492 12.2455V12.2266ZM71.0883 12.2644C71.0883 11.0721 70.6908 10.05 69.8959 9.21725C69.101 8.36555 68.0979 7.96809 66.9055 7.96809C65.8078 7.96809 64.8614 8.38448 64.0476 9.2551C63.2716 10.1068 62.8741 11.091 62.8741 12.2077C62.8741 13.3243 63.2716 14.3464 64.0476 15.1791C64.8236 16.0119 65.8078 16.4283 67.0001 16.4283C68.0979 16.4283 69.0442 16.0308 69.8581 15.1981C70.7097 14.3464 71.1072 13.3622 71.1072 12.2455L71.0883 12.2644ZM87.5355 18.4156L85.34 18.7373V16.6175L84.8668 17.1664C84.4505 17.5639 83.9773 17.8667 83.4852 18.1317C82.7281 18.4913 81.9332 18.6427 81.1004 18.6427C79.3781 18.6427 77.9208 17.9992 76.7473 16.75C75.5739 15.5009 74.9493 13.9678 74.9493 12.2266C74.9493 10.4853 75.536 8.85764 76.7095 7.58956C77.8829 6.30256 79.3024 5.65905 81.0247 5.65905C82.0089 5.65905 82.8606 5.82939 83.5609 6.13222C84.0719 6.35933 84.5072 6.68109 84.8858 7.05962C84.9993 7.22996 85.1129 7.38137 85.2643 7.55171V1.98729L87.5923 1.66554L87.5166 18.4345L87.5355 18.4156ZM85.4914 12.378C85.4914 11.1288 85.075 10.0689 84.2233 9.21725C83.3716 8.34663 82.4064 7.93024 81.3086 7.93024C80.0784 7.93024 79.1132 8.3277 78.3561 9.16047C77.6558 9.93646 77.2962 10.9017 77.2962 12.0373C77.2962 13.3054 77.6747 14.3653 78.3939 15.1981C79.1321 16.0308 80.0406 16.4283 81.1951 16.4283C82.3496 16.4283 83.2959 16.0497 84.1666 15.2738C85.0372 14.4978 85.4914 13.5325 85.4914 12.3969V12.378ZM99.8756 4.27741H93.327V8.72516H98.4183V11.0153H93.327V18.3966L90.7909 18.7752V1.98729H99.3835L99.8756 4.29634V4.27741ZM103.131 2.9904L101.56 4.97769L100.046 2.9904L101.617 1.04096L103.131 2.9904ZM104.664 18.4156L102.336 18.7373V6.32148L104.664 5.96188V18.4156ZM115.225 5.81046L114.127 8.34663C113.995 8.3277 113.843 8.3277 113.673 8.3277C113.446 8.3277 113.219 8.34663 112.992 8.36555C112.765 8.38448 112.519 8.47911 112.254 8.63053C111.762 8.83872 111.326 9.31188 110.986 9.99324C110.588 10.7882 110.38 11.6588 110.38 12.5673V18.3777L108.052 18.7563V6.32148L110.21 5.92402V8.51697C110.493 8.06273 110.777 7.62742 111.061 7.15425C111.459 6.68109 111.932 6.35933 112.443 6.13222C112.727 6.01866 113.219 5.94295 113.995 5.86724C114.752 5.82939 115.168 5.79154 115.225 5.82939V5.81046ZM132.656 18.4156L130.329 18.7373V10.2014C130.329 9.42544 130.158 8.83872 129.817 8.47911C129.477 8.11951 128.947 7.93024 128.266 7.93024C127.433 7.93024 126.827 8.25199 126.411 8.95228C126.127 9.42544 125.956 9.91753 125.956 10.4096V18.3399L123.628 18.7563V10.2014C123.628 9.44437 123.458 8.87657 123.117 8.47911C122.758 8.08165 122.323 7.89239 121.736 7.89239H121.509C120.676 7.89239 120.089 8.21414 119.711 8.93335C119.427 9.44437 119.294 10.1068 119.294 10.9206V18.3209L116.872 18.7373V6.2647L119.067 5.88617V7.49493C119.294 7.1164 119.559 6.81357 119.767 6.60538C120.411 6.01866 121.13 5.73476 121.963 5.73476C122.89 5.73476 123.572 5.86724 124.045 6.189C124.442 6.45397 124.821 6.94606 125.218 7.64634C126.013 6.37826 127.149 5.73476 128.663 5.73476C130.177 5.73476 131.161 6.189 131.862 7.09747C132.429 7.85454 132.713 8.95228 132.713 10.3907V18.4156H132.656ZM143.331 14.6492C143.331 15.8037 142.934 16.75 142.139 17.4692C141.344 18.2263 140.322 18.567 139.092 18.567C138.164 18.567 137.35 18.3588 136.593 17.9235C135.836 17.5071 135.268 16.9961 134.928 16.4472L136.574 14.9899C136.688 15.1791 136.801 15.3116 136.896 15.4062C137.502 16.0497 138.24 16.3526 139.092 16.3526C139.678 16.3526 140.151 16.1822 140.473 15.8794C140.833 15.5766 140.984 15.1413 140.984 14.5924C140.984 13.9489 140.587 13.5325 139.792 13.3054C138.221 12.8322 137.35 12.5483 137.218 12.5105C136.48 12.1319 135.969 11.7345 135.647 11.2802C135.268 10.7692 135.079 10.0879 135.079 9.19832C135.079 8.11951 135.477 7.24888 136.253 6.51075C137.029 5.81046 137.975 5.45086 139.054 5.45086C139.886 5.45086 140.625 5.64012 141.344 6.01866C142.063 6.39719 142.536 6.79465 142.858 7.24888L141.476 8.76301C141.268 8.55482 141.022 8.36555 140.795 8.19521C140.227 7.79776 139.697 7.60849 139.186 7.60849C138.675 7.60849 138.297 7.72205 137.994 7.93024C137.615 8.19521 137.426 8.59267 137.426 9.10369C137.426 9.61471 137.596 9.97431 137.975 10.2014C138.278 10.3907 138.94 10.5989 140 10.8449C141.041 11.1099 141.855 11.5263 142.423 12.1319C143.085 12.7944 143.35 13.5893 143.35 14.6303L143.331 14.6492Z" fill="#3A7AF3"/>
<path d="M64.6794 31.3748L65.1525 27.457H69.6192V28.8387H66.591L66.4206 30.3528C66.5531 30.2771 66.7045 30.2203 66.9127 30.1635C67.1209 30.1068 67.3102 30.0878 67.5183 30.0878C68.2754 30.0878 68.8621 30.3149 69.2785 30.7692C69.6949 31.2234 69.8842 31.848 69.8842 32.6618C69.8842 33.1539 69.7706 33.6082 69.5624 34.0056C69.3542 34.4031 69.0325 34.7059 68.635 34.9141C68.2376 35.1223 67.7644 35.2359 67.2345 35.2359C66.7613 35.2359 66.3071 35.1412 65.8907 34.933C65.4743 34.7248 65.1336 34.4599 64.9065 34.1192C64.6604 33.7785 64.5469 33.3811 64.5469 32.9457H66.326C66.326 33.2296 66.4395 33.4568 66.591 33.6082C66.7424 33.7785 66.9695 33.8542 67.2345 33.8542C67.8212 33.8542 68.124 33.4189 68.124 32.5294C68.124 31.7155 67.7644 31.2991 67.0263 31.2991C66.6099 31.2991 66.307 31.4316 66.0989 31.6966L64.6794 31.3559V31.3748Z" fill="#78848A"/>
<path d="M71.9451 33.4023C72.229 33.4023 72.4561 33.4781 72.6454 33.6484C72.8347 33.8187 72.9293 34.0269 72.9293 34.2919C72.9293 34.5569 72.8347 34.7651 72.6454 34.9354C72.4561 35.1057 72.229 35.1814 71.9451 35.1814C71.6612 35.1814 71.4341 35.1057 71.2448 34.9354C71.0556 34.7651 70.9609 34.5569 70.9609 34.2919C70.9609 34.0269 71.0556 33.8187 71.2448 33.6484C71.4341 33.4781 71.6612 33.4023 71.9451 33.4023Z" fill="#78848A"/>
<path d="M79.392 31.9847C79.392 33.0256 79.1649 33.8206 78.6917 34.3694C78.2185 34.9372 77.575 35.2022 76.7233 35.2022C75.8716 35.2022 75.2092 34.9183 74.755 34.3505C74.2818 33.7827 74.0547 32.9878 74.0547 31.9657V30.5652C74.0547 29.5242 74.2818 28.7293 74.755 28.1804C75.2281 27.6126 75.8716 27.3477 76.7233 27.3477C77.575 27.3477 78.2375 27.6316 78.6917 28.1994C79.1649 28.7672 79.392 29.5621 79.392 30.5841V31.9847ZM77.6129 30.357C77.6129 29.8081 77.5372 29.3917 77.4047 29.1268C77.2533 28.8618 77.0262 28.7293 76.7233 28.7293C76.4205 28.7293 76.1934 28.8618 76.0609 29.1078C75.9284 29.3539 75.8527 29.7324 75.8338 30.2624V32.2118C75.8338 32.7796 75.9095 33.196 76.042 33.4609C76.1934 33.7259 76.4205 33.8584 76.7233 33.8584C77.0262 33.8584 77.2533 33.7259 77.3858 33.4799C77.5372 33.2149 77.594 32.8174 77.6129 32.2686V30.3759V30.357Z" fill="#78848A"/>
<path d="M80.5332 36.6413L79.9844 36.2628C80.3061 35.8085 80.4954 35.3354 80.4954 34.8433V33.9727H81.4417V34.7297C81.4417 35.0893 81.3471 35.4489 81.1768 35.7896C81.0064 36.1492 80.7793 36.4331 80.5143 36.6413H80.5332Z" fill="#78848A"/>
<path d="M90.2652 35.1121H85.2497V34.4118L87.8994 31.4592C88.2969 31.005 88.5618 30.6454 88.7132 30.3804C88.8646 30.0965 88.9404 29.8126 88.9404 29.5098C88.9404 29.1123 88.8268 28.7906 88.5808 28.5256C88.3347 28.2796 88.013 28.1471 87.6155 28.1471C87.1423 28.1471 86.7638 28.2796 86.4799 28.5635C86.196 28.8474 86.0824 29.2259 86.0824 29.718H85.1172C85.1172 29.0177 85.3443 28.4499 85.7985 28.0146C86.2528 27.5793 86.8584 27.3711 87.6155 27.3711C88.3347 27.3711 88.8836 27.5604 89.3 27.9389C89.7163 28.3174 89.9245 28.8095 89.9245 29.4341C89.9245 30.1912 89.4514 31.0807 88.4861 32.1217L86.442 34.3361H90.2841V35.131L90.2652 35.1121Z" fill="#78848A"/>
<path d="M96.3277 35.1121H91.3122V34.4118L93.9619 31.4592C94.3594 31.005 94.6243 30.6454 94.7757 30.3804C94.9272 30.0965 95.0029 29.8126 95.0029 29.5098C95.0029 29.1123 94.8893 28.7906 94.6433 28.5256C94.3972 28.2796 94.0755 28.1471 93.678 28.1471C93.1859 28.1471 92.8263 28.2796 92.5424 28.5635C92.2774 28.8474 92.1449 29.2259 92.1449 29.718H91.1797C91.1797 29.0177 91.4068 28.4499 91.861 28.0146C92.3153 27.5793 92.9209 27.3711 93.678 27.3711C94.3972 27.3711 94.9461 27.5604 95.3625 27.9389C95.7789 28.3174 95.987 28.8095 95.987 29.4341C95.987 30.1912 95.5139 31.0807 94.5486 32.1217L92.5046 34.3361H96.3467V35.131L96.3277 35.1121Z" fill="#78848A"/>
<path d="M103.078 32.0183H101.28V35.1223H100.258V27.457H102.794C103.665 27.457 104.327 27.6463 104.781 28.0438C105.254 28.4412 105.482 29.009 105.482 29.7661C105.482 30.2392 105.349 30.6556 105.103 31.0152C104.838 31.3748 104.478 31.6398 104.024 31.8101L105.822 35.0655V35.1223H104.743L103.078 32.0183ZM101.28 31.1856H102.832C103.343 31.1856 103.74 31.0531 104.024 30.7881C104.327 30.5231 104.46 30.1825 104.46 29.7471C104.46 29.274 104.327 28.9144 104.043 28.6494C103.759 28.3844 103.362 28.2709 102.813 28.2709H101.261V31.1856H101.28Z" fill="#78848A"/>
<path d="M109.12 35.2221C108.344 35.2221 107.719 34.9761 107.227 34.465C106.735 33.954 106.508 33.2727 106.508 32.4399V32.2696C106.508 31.7018 106.621 31.2097 106.83 30.7554C107.038 30.3201 107.341 29.9605 107.738 29.7145C108.117 29.4684 108.552 29.3359 109.006 29.3359C109.744 29.3359 110.331 29.582 110.728 30.0741C111.145 30.5662 111.353 31.2664 111.353 32.1749V32.5724H107.492C107.492 33.1402 107.662 33.5944 107.984 33.9351C108.306 34.2758 108.703 34.4461 109.176 34.4461C109.517 34.4461 109.82 34.3704 110.047 34.2379C110.293 34.1054 110.501 33.9162 110.672 33.6891L111.258 34.1433C110.785 34.8814 110.066 35.241 109.12 35.241V35.2221ZM109.006 30.1119C108.609 30.1119 108.287 30.2633 108.022 30.5472C107.757 30.8311 107.587 31.2286 107.53 31.7396H110.388V31.6639C110.369 31.1718 110.236 30.7933 109.99 30.5094C109.744 30.2255 109.423 30.1119 109.025 30.1119H109.006Z" fill="#78848A"/>
<path d="M114.274 33.8056L115.694 29.4336H116.697L114.653 35.1305H113.915L111.852 29.4336H112.855L114.293 33.8056H114.274Z" fill="#78848A"/>
<path d="M117.617 27.9155C117.617 27.764 117.674 27.6316 117.769 27.518C117.863 27.4044 118.015 27.3477 118.204 27.3477C118.393 27.3477 118.545 27.4044 118.639 27.518C118.734 27.6316 118.791 27.764 118.791 27.9155C118.791 28.0669 118.734 28.1994 118.639 28.3129C118.545 28.4265 118.393 28.4643 118.204 28.4643C118.015 28.4643 117.863 28.4075 117.769 28.3129C117.674 28.2183 117.617 28.0858 117.617 27.9155ZM118.677 35.1076H117.712V29.4107H118.677V35.1076Z" fill="#78848A"/>
<path d="M122.577 35.2221C121.801 35.2221 121.177 34.9761 120.704 34.465C120.211 33.954 119.984 33.2727 119.984 32.4399V32.2696C119.984 31.7018 120.098 31.2097 120.306 30.7554C120.514 30.3012 120.817 29.9605 121.215 29.7145C121.612 29.4684 122.028 29.3359 122.483 29.3359C123.221 29.3359 123.789 29.582 124.205 30.0741C124.621 30.5662 124.83 31.2664 124.83 32.1749V32.5724H120.969C120.969 33.1402 121.139 33.5944 121.461 33.9351C121.782 34.2758 122.18 34.4461 122.653 34.4461C122.994 34.4461 123.278 34.3704 123.524 34.2379C123.77 34.1054 123.978 33.9162 124.148 33.6891L124.735 34.1433C124.262 34.8814 123.543 35.241 122.596 35.241L122.577 35.2221ZM122.464 30.1119C122.066 30.1119 121.745 30.2633 121.48 30.5472C121.215 30.8311 121.044 31.2286 120.987 31.7396H123.845V31.6639C123.808 31.1718 123.675 30.7933 123.448 30.5094C123.221 30.2255 122.88 30.1119 122.483 30.1119H122.464Z" fill="#78848A"/>
<path d="M130.955 33.7633L132.053 29.4102H133.018L131.353 35.1071H130.558L129.176 30.7918L127.832 35.1071H127.037L125.391 29.4102H126.356L127.473 33.6686L128.797 29.4102H129.573L130.917 33.7633H130.955Z" fill="#78848A"/>
<path d="M137.343 33.6133C137.343 33.3484 137.248 33.1402 137.04 33.0077C136.832 32.8752 136.491 32.7427 135.999 32.6292C135.507 32.5156 135.109 32.402 134.826 32.2506C134.542 32.0992 134.314 31.9289 134.182 31.7207C134.05 31.5125 133.974 31.2664 133.974 31.0015C133.974 30.5283 134.163 30.1498 134.561 29.828C134.958 29.5063 135.45 29.3359 136.075 29.3359C136.718 29.3359 137.248 29.5063 137.646 29.828C138.043 30.1687 138.251 30.5851 138.251 31.0961H137.267C137.267 30.8311 137.153 30.604 136.926 30.4148C136.699 30.2255 136.415 30.1309 136.075 30.1309C135.734 30.1309 135.45 30.2066 135.242 30.358C135.034 30.5094 134.939 30.7176 134.939 30.9636C134.939 31.1907 135.034 31.38 135.223 31.4936C135.412 31.6071 135.753 31.7207 136.226 31.8342C136.718 31.9478 137.097 32.0803 137.4 32.2317C137.702 32.3831 137.929 32.5724 138.062 32.7806C138.213 32.9888 138.289 33.2537 138.289 33.5566C138.289 34.0676 138.081 34.465 137.683 34.7868C137.286 35.1085 136.756 35.241 136.094 35.241C135.639 35.241 135.242 35.1653 134.882 34.995C134.542 34.8436 134.258 34.6165 134.068 34.3136C133.879 34.0297 133.766 33.708 133.766 33.3673H134.731C134.731 33.6891 134.882 33.954 135.128 34.1433C135.374 34.3326 135.696 34.4272 136.094 34.4272C136.453 34.4272 136.756 34.3515 136.983 34.2001C137.21 34.0487 137.324 33.8594 137.324 33.5944L137.343 33.6133Z" fill="#78848A"/>
<path d="M5.91982 26.4036L7.20683 28.9965C7.28254 29.1479 7.43395 29.2615 7.60429 29.2804L10.4622 29.6968C10.8975 29.7536 11.0679 30.2835 10.7461 30.5863L8.68311 32.6115C8.55062 32.725 8.51277 32.8954 8.53169 33.0657L9.02379 35.9236C9.09949 36.3589 8.64525 36.6807 8.26672 36.4725L5.71163 35.1287C5.56022 35.053 5.37095 35.053 5.21954 35.1287L2.66445 36.4725C2.28592 36.6807 1.83168 36.34 1.90739 35.9236L2.39948 33.0657C2.43733 32.8954 2.38055 32.725 2.24807 32.6115L0.185067 30.5863C-0.117758 30.2835 0.0525809 29.7536 0.468966 29.6968L3.32688 29.2804C3.49722 29.2615 3.64863 29.1479 3.72434 28.9965L5.01135 26.4036C5.20061 26.0061 5.74949 26.0061 5.95768 26.4036H5.91982Z" fill="#F7A200"/>
<path d="M18.3261 26.4036L19.6131 28.9965C19.6888 29.1479 19.8402 29.2615 20.0105 29.2804L22.8685 29.6968C23.3038 29.7536 23.4741 30.2835 23.1524 30.5863L21.0894 32.6115C20.9569 32.725 20.919 32.8954 20.9379 33.0657L21.43 35.9236C21.5057 36.3589 21.0515 36.6807 20.673 36.4725L18.1179 35.1287C17.9665 35.053 17.7772 35.053 17.6258 35.1287L15.0707 36.4725C14.6922 36.6807 14.2379 36.34 14.3136 35.9236L14.8057 33.0657C14.8436 32.8954 14.7868 32.725 14.6543 32.6115L12.5913 30.5863C12.2885 30.2835 12.4588 29.7536 12.8752 29.6968L15.7331 29.2804C15.9035 29.2615 16.0549 29.1479 16.1306 28.9965L17.4176 26.4036C17.6069 26.0061 18.1557 26.0061 18.3639 26.4036H18.3261Z" fill="#F7A200"/>
<path d="M30.7323 26.4036L32.0193 28.9965C32.095 29.1479 32.2464 29.2615 32.4168 29.2804L35.2747 29.6968C35.71 29.7536 35.8804 30.2835 35.5586 30.5863L33.4956 32.6115C33.3631 32.725 33.3253 32.8954 33.3442 33.0657L33.8363 35.9236C33.912 36.3589 33.4578 36.6807 33.0792 36.4725L30.5241 35.1287C30.3727 35.053 30.1835 35.053 30.032 35.1287L27.477 36.4725C27.0984 36.6807 26.6442 36.34 26.7199 35.9236L27.212 33.0657C27.2498 32.8954 27.1931 32.725 27.0606 32.6115L24.9976 30.5863C24.6947 30.2835 24.8651 29.7536 25.2815 29.6968L28.1394 29.2804C28.3097 29.2615 28.4611 29.1479 28.5368 28.9965L29.8238 26.4036C30.0131 26.0061 30.562 26.0061 30.7702 26.4036H30.7323Z" fill="#F7A200"/>
<path d="M43.1386 26.4036L44.4256 28.9965C44.5013 29.1479 44.6527 29.2615 44.823 29.2804L47.681 29.6968C48.1163 29.7536 48.2866 30.2835 47.9649 30.5863L45.9019 32.6115C45.7694 32.725 45.7315 32.8954 45.7504 33.0657L46.2425 35.9236C46.3182 36.3589 45.864 36.6807 45.4855 36.4725L42.9304 35.1287C42.779 35.053 42.5897 35.053 42.4383 35.1287L39.8832 36.4725C39.5047 36.6807 39.0504 36.34 39.1261 35.9236L39.6182 33.0657C39.6561 32.8954 39.5993 32.725 39.4668 32.6115L37.4038 30.5863C37.101 30.2835 37.2713 29.7536 37.6877 29.6968L40.5456 29.2804C40.716 29.2615 40.8674 29.1479 40.9431 28.9965L42.2301 26.4036C42.4194 26.0061 42.9682 26.0061 43.1764 26.4036H43.1386Z" fill="#F7A200"/>
<path d="M55.5526 26.4036L56.8396 28.9965C56.9154 29.1479 57.0668 29.2615 57.2371 29.2804L60.095 29.6968C60.5303 29.7536 60.7007 30.2835 60.3789 30.5863L58.3159 32.6115C58.1834 32.725 58.1456 32.8954 58.1645 33.0657L58.6566 35.9236C58.7323 36.3589 58.2781 36.6807 57.8995 36.4725L55.3444 35.1287C55.193 35.053 55.0038 35.053 54.8524 35.1287L52.2973 36.4725C51.9187 36.6807 51.4645 36.34 51.5402 35.9236L52.0323 33.0657C52.0701 32.8954 52.0134 32.725 51.8809 32.6115L49.8179 30.5863C49.5151 30.2835 49.6854 29.7536 50.1018 29.6968L52.9597 29.2804C53.13 29.2615 53.2814 29.1479 53.3572 28.9965L54.6442 26.4036C54.8334 26.0061 55.3823 26.0061 55.5905 26.4036H55.5526Z" fill="#F7A200"/>
</svg>
