<svg width="80" height="80" viewBox="0 0 80 80" fill="none" xmlns="http://www.w3.org/2000/svg">
<path d="M44.8775 23.7588H45.9814L49.1277 20.5932L49.2823 19.249C43.4258 14.0482 34.4886 14.6092 29.3195 20.5009C27.884 22.1377 26.8416 24.0848 26.2734 26.1916C26.6242 26.0468 27.0124 26.0234 27.3773 26.1249L33.6706 25.0803C33.6706 25.0803 33.991 24.5471 34.1562 24.5804C36.9553 21.4872 41.667 21.1265 44.8987 23.7581H44.8768L44.8775 23.7588Z" fill="#EA4335"/>
<path d="M53.6083 26.1898C52.8849 23.5099 51.4 21.1012 49.3356 19.2578L44.9196 23.7009C46.7842 25.234 47.8464 27.5433 47.8012 29.9662V30.7551C49.9722 30.7551 51.7317 32.5254 51.7317 34.7096C51.7317 36.8939 49.9722 38.6642 47.8012 38.6642H39.9404L39.1562 39.4638V44.2072L39.9404 44.9962H47.8012C53.4474 45.0402 58.0603 40.4707 58.1041 34.7899C58.1309 31.3466 56.4434 28.1185 53.6083 26.1891V26.1898Z" fill="#4285F4"/>
<path d="M32.0626 44.9534H39.9235V38.6214H32.0626C31.5022 38.6214 30.9489 38.5 30.4393 38.2656L29.3355 38.61L26.1666 41.7757L25.8906 42.8863C27.6678 44.2362 29.8359 44.9619 32.0626 44.9527V44.9534Z" fill="#34A853"/>
<path d="M32.0688 24.4148C26.4227 24.4489 21.8726 29.0816 21.9064 34.7624C21.9255 37.9345 23.3977 40.9212 25.8969 42.8548L30.4568 38.2668C28.4786 37.3678 27.5992 35.0252 28.4934 33.0348C29.3876 31.0443 31.7152 30.1596 33.6935 31.0593C34.5651 31.4555 35.2631 32.1578 35.657 33.0348L40.2169 28.4468C38.2768 25.8947 35.2617 24.4028 32.0688 24.4141V24.4148Z" fill="#FBBC05"/>
<path d="M8.15576 61.044C6.79319 61.0613 5.48176 60.52 4.52463 59.5438C3.53659 58.6084 2.98372 57.299 3.00037 55.9341C2.98431 54.5697 3.53659 53.2604 4.52463 52.3249C5.47759 51.3386 6.78903 50.7871 8.15576 50.7973C9.45769 50.78 10.7121 51.2884 11.6383 52.2089L10.6591 53.2108C9.98856 52.5588 9.08851 52.2005 8.15576 52.2143C7.17783 52.2023 6.23913 52.6037 5.56974 53.3214C4.87419 54.0159 4.49075 54.9651 4.50799 55.9508C4.49966 56.9246 4.88251 57.8607 5.56974 58.5468C6.9864 59.9673 9.26983 59.9942 10.7192 58.6078C11.1508 58.1322 11.4153 57.5275 11.473 56.8863H8.17181V55.4693H12.8427C12.8885 55.7547 12.9069 56.0442 12.898 56.3331C12.9568 57.5419 12.5211 58.722 11.693 59.5989C10.7715 60.5643 9.48503 61.0894 8.15516 61.0434L8.15576 61.044ZM19.0164 60.1031C17.7139 61.3592 15.6588 61.3592 14.3563 60.1031C13.7255 59.4876 13.3801 58.6341 13.4045 57.7506C13.3807 56.8672 13.7261 56.0136 14.3563 55.3982C15.66 54.1451 17.7127 54.1451 19.0164 55.3982C19.6466 56.0142 19.992 56.8672 19.9682 57.7506C19.9908 58.6353 19.6436 59.4888 19.0111 60.1031H19.0164ZM15.3853 59.1784C16.0583 59.9015 17.186 59.9386 17.9048 59.2615C17.9333 59.2346 17.9606 59.2071 17.9874 59.1784C18.3548 58.7962 18.5533 58.2812 18.5373 57.75C18.5539 57.2171 18.3554 56.6997 17.9874 56.3163C17.2954 55.5902 16.1498 55.5656 15.4281 56.2619C15.4097 56.2798 15.3919 56.2978 15.374 56.3163C15.006 56.6997 14.8075 57.2171 14.8241 57.75C14.8099 58.2818 15.0108 58.7974 15.38 59.1784H15.3853ZM26.18 60.1031C24.8775 61.3592 22.8224 61.3592 21.5198 60.1031C20.8891 59.4876 20.5437 58.6341 20.5681 57.7506C20.5443 56.8672 20.8897 56.0136 21.5198 55.3982C22.8224 54.1421 24.8775 54.1421 26.18 55.3982C26.8102 56.0142 27.1556 56.8672 27.1318 57.7506C27.1562 58.6347 26.8108 59.4876 26.18 60.1031ZM22.5489 59.1784C23.2219 59.9015 24.3496 59.9386 25.0683 59.2615C25.0969 59.2346 25.1242 59.2071 25.151 59.1784C25.5184 58.7962 25.7169 58.2812 25.7009 57.75C25.7175 57.2171 25.519 56.6997 25.151 56.3163C24.459 55.5902 23.3134 55.5656 22.5917 56.2619C22.5733 56.2798 22.5554 56.2978 22.5376 56.3163C22.1696 56.6997 21.9711 57.2171 21.9877 57.75C21.9734 58.2818 22.1744 58.7974 22.5435 59.1784H22.5489ZM30.8895 64C30.2303 64.0209 29.5835 63.8139 29.0573 63.4132C28.5901 63.0597 28.2227 62.5908 27.9902 62.0512L29.2446 61.5255C29.3813 61.8479 29.5948 62.1314 29.8664 62.3503C30.1571 62.586 30.5222 62.7098 30.8955 62.699C31.3747 62.7283 31.8425 62.5465 32.1772 62.2008C32.5089 61.7982 32.6724 61.2826 32.6338 60.7617V60.2855H32.5844C32.1594 60.7934 31.5215 61.0703 30.8622 61.0326C30.0269 61.035 29.2291 60.6857 28.6614 60.0696C28.0461 59.4583 27.7061 58.6203 27.7203 57.75C27.7049 56.875 28.0449 56.0316 28.6614 55.4137C29.2274 54.7946 30.0258 54.4429 30.8622 54.4447C31.2124 54.4441 31.5578 54.5219 31.8746 54.6714C32.1487 54.7917 32.3924 54.9711 32.5898 55.1972H32.6391V54.6714H34.0035V60.5667C34.076 61.5093 33.7597 62.44 33.1284 63.1404C32.5274 63.7188 31.72 64.0281 30.889 63.9982L30.8895 64ZM30.9888 59.7484C31.4644 59.7592 31.9204 59.5558 32.2325 59.1951C32.5719 58.804 32.7509 58.2973 32.7331 57.7781C32.7533 57.25 32.5743 56.7338 32.2325 56.3337C31.921 55.9718 31.465 55.769 30.9888 55.7804C30.5008 55.7702 30.0317 55.9718 29.7012 56.3337C29.3373 56.72 29.1394 57.235 29.1513 57.7674C29.14 58.2943 29.3379 58.8046 29.7012 59.1844C30.0299 59.5498 30.499 59.7556 30.9888 59.749V59.7484ZM36.4302 51.1681V60.8442H34.9945V51.1681H36.4302ZM40.3692 61.044C39.5001 61.0667 38.6607 60.7234 38.0531 60.0971C37.4366 59.4757 37.1008 58.6275 37.1233 57.75C37.0906 56.8708 37.4141 56.0154 38.0204 55.3808C38.5917 54.7749 39.3907 54.4388 40.2212 54.4561C40.5987 54.4519 40.9732 54.5255 41.3216 54.672C41.6355 54.7994 41.9215 54.9872 42.1634 55.2253C42.3715 55.4269 42.5558 55.6518 42.7133 55.8952C42.8411 56.1004 42.9499 56.3175 43.0379 56.543L43.1865 56.9192L38.7849 58.7406C39.0572 59.3704 39.6874 59.7664 40.3692 59.737C41.0285 59.7388 41.6409 59.3919 41.9815 58.8237L43.0819 59.5708C42.8013 59.9751 42.4416 60.3178 42.0255 60.578C41.5303 60.8926 40.9548 61.0541 40.3692 61.0428V61.044ZM38.5317 57.6507L41.4589 56.4276C41.3686 56.2116 41.2075 56.034 41.0024 55.9239C40.7723 55.7935 40.5125 55.7265 40.2486 55.7301C39.8009 55.7421 39.3759 55.9305 39.0655 56.2559C38.6898 56.6178 38.4942 57.1292 38.5317 57.6507ZM50.7074 61.044C48.204 61.0876 46.1393 59.0809 46.0965 56.5621C46.0953 56.5005 46.0959 56.4389 46.0965 56.3773C46.0383 53.8586 48.0203 51.7699 50.5237 51.7113C50.5849 51.7101 50.6461 51.7095 50.7074 51.7113C51.9594 51.6718 53.1608 52.2101 53.9699 53.1725L53.1775 53.9477C52.583 53.1952 51.6669 52.7735 50.7127 52.813C49.7972 52.7921 48.9132 53.148 48.2646 53.7982C47.5899 54.4806 47.229 55.4161 47.2689 56.3779C47.229 57.3397 47.5899 58.2746 48.2646 58.9577C48.9132 59.6078 49.7978 59.9637 50.7127 59.9428C51.7781 59.9548 52.7905 59.4781 53.4634 58.6472L54.2559 59.4446C53.8409 59.9434 53.3202 60.343 52.7316 60.6127C52.0973 60.9076 51.4053 61.0547 50.7068 61.0446L50.7074 61.044ZM56.3853 60.8448H55.2463V51.9051H56.3853V60.8448ZM58.2449 55.464C59.4874 54.2228 61.492 54.2228 62.7345 55.464C63.3236 56.0902 63.6405 56.927 63.6149 57.7889C63.641 58.6508 63.3242 59.4876 62.7345 60.1139C61.492 61.355 59.4874 61.355 58.2449 60.1139C57.6558 59.4876 57.3389 58.6508 57.3644 57.7889C57.3383 56.927 57.6552 56.0902 58.2449 55.464ZM59.092 59.3943C59.8209 60.1695 61.036 60.203 61.8065 59.4697C61.832 59.4452 61.857 59.42 61.8814 59.3943C62.2832 58.9601 62.4955 58.3817 62.4699 57.7889C62.4955 57.1962 62.2832 56.6178 61.8814 56.1835C61.1525 55.4083 59.9374 55.3748 59.1669 56.1082C59.1414 56.1327 59.1164 56.1578 59.092 56.1835C58.6902 56.6178 58.4779 57.1962 58.5035 57.7889C58.4809 58.3805 58.6949 58.9571 59.098 59.3889L59.0926 59.3943H59.092ZM69.9254 60.8448H68.825V59.9978H68.7917C68.5961 60.3196 68.3185 60.5834 67.9885 60.7617C67.6461 60.9614 67.2567 61.0667 66.8608 61.0661C66.2092 61.111 65.5731 60.8544 65.1332 60.3687C64.7165 59.8381 64.5072 59.173 64.5447 58.4977V54.7336H65.6837V58.2878C65.6837 59.4278 66.1843 59.9984 67.186 59.9984C67.6372 60.0128 68.0676 59.8064 68.3417 59.4452C68.6371 59.0689 68.7941 58.6018 68.7875 58.1221V54.7342H69.9266V60.8454L69.9254 60.8448ZM73.7931 61.044C73.0114 61.0464 72.2676 60.7048 71.7576 60.1085C71.1875 59.4745 70.8819 58.6437 70.9051 57.7889C70.8819 56.9342 71.1875 56.1034 71.7576 55.4693C72.2676 54.873 73.0114 54.5315 73.7931 54.5339C74.2259 54.5273 74.6533 54.6296 75.0368 54.8329C75.3733 55.0034 75.658 55.2612 75.8619 55.58H75.9113L75.8619 54.733V51.9045H77.001V60.8442H75.9006V59.9972H75.8512C75.6473 60.316 75.3626 60.5744 75.0261 60.7443C74.6462 60.9453 74.2229 61.0482 73.7937 61.0434L73.7931 61.044ZM73.9804 59.9978C74.5011 60.0056 74.9999 59.7879 75.3501 59.3997C75.7371 58.9565 75.9344 58.3775 75.9 57.7889C75.9344 57.1998 75.7365 56.6214 75.3501 56.1781C74.6587 55.4137 73.4828 55.3581 72.723 56.0537C72.6796 56.0932 72.6386 56.1351 72.5994 56.1781C72.2112 56.6184 72.0132 57.1962 72.0495 57.7835C72.0138 58.3709 72.2118 58.9487 72.5994 59.3889C72.9501 59.7837 73.4542 60.0056 73.9804 59.9978Z" fill="#5F6368"/>
</svg>
