<svg width="172" height="44" viewBox="0 0 172 44" fill="none" xmlns="http://www.w3.org/2000/svg">
<path d="M59.5048 36.5215H60.6995V37.4278H59.5048V39.4465H58.3924V37.4278H54.4375V36.7687L58.31 30.7539H59.4842V36.5009L59.5048 36.5215ZM55.694 36.5215H58.3924V32.2782L58.2688 32.5254L55.694 36.5421V36.5215Z" fill="#78848A"/>
<path d="M61.8594 38.8545C61.8594 38.6691 61.9212 38.5043 62.0242 38.3807C62.1272 38.2571 62.3125 38.1953 62.5391 38.1953C62.7657 38.1953 62.9305 38.2571 63.0541 38.3807C63.1777 38.5043 63.2395 38.6691 63.2395 38.8545C63.2395 39.0399 63.1777 39.184 63.0541 39.3076C62.9305 39.4312 62.7657 39.493 62.5391 39.493C62.3125 39.493 62.1478 39.4312 62.0242 39.3076C61.9006 39.184 61.8594 39.0399 61.8594 38.8545Z" fill="#78848A"/>
<path d="M69.151 35.6177C68.9244 35.8855 68.636 36.112 68.3271 36.2768C67.9975 36.4416 67.6473 36.524 67.2765 36.524C66.7822 36.524 66.3496 36.4004 65.9788 36.1532C65.608 35.9061 65.3197 35.5559 65.1137 35.1233C64.9077 34.6907 64.8047 34.1758 64.8047 33.6402C64.8047 33.0634 64.9077 32.5485 65.1343 32.0747C65.3609 31.6009 65.6698 31.2508 66.0818 31.0036C66.4938 30.7564 66.9675 30.6328 67.5031 30.6328C68.3682 30.6328 69.0274 30.9624 69.5218 31.6009C70.0161 32.2395 70.2633 33.1252 70.2633 34.217V34.5465C70.2633 36.2356 69.9337 37.4715 69.254 38.2337C68.5948 39.0164 67.5855 39.4078 66.226 39.4284H66.02V38.5015H66.2466C67.1529 38.5015 67.8533 38.2543 68.3476 37.8011C68.842 37.3479 69.1098 36.627 69.151 35.6383V35.6177ZM67.4619 35.6177C67.8327 35.6177 68.1623 35.5147 68.4918 35.2675C68.8008 35.0409 69.0274 34.7525 69.1716 34.423V33.9904C69.1716 33.2694 69.0068 32.6721 68.6978 32.2189C68.3888 31.7657 67.9975 31.5392 67.5031 31.5392C67.0087 31.5392 66.638 31.7245 66.329 32.0953C66.0406 32.4661 65.8964 32.9605 65.8964 33.5578C65.8964 34.1552 66.0406 34.6289 66.329 35.0203C66.6174 35.4117 66.9881 35.5971 67.4619 35.5971V35.6177Z" fill="#78848A"/>
<path d="M77.6338 35.5793C76.6451 35.2909 75.9447 34.9614 75.4916 34.5494C75.0384 34.1374 74.8118 33.6224 74.8118 33.0251C74.8118 32.3453 75.0796 31.7686 75.6358 31.336C76.1713 30.8828 76.8923 30.6562 77.7574 30.6562C78.3548 30.6562 78.8903 30.7798 79.3435 31.0064C79.8173 31.233 80.1674 31.5626 80.4352 31.954C80.6824 32.3659 80.8266 32.7985 80.8266 33.2723H79.6731C79.6731 32.7573 79.5083 32.3247 79.1787 32.0364C78.8491 31.7274 78.3754 31.5832 77.7574 31.5832C77.2013 31.5832 76.7481 31.7068 76.4391 31.954C76.1301 32.2011 75.9653 32.5513 75.9653 32.9839C75.9653 33.3341 76.1095 33.643 76.4185 33.8902C76.7275 34.1374 77.2219 34.364 77.9428 34.57C78.6638 34.776 79.2199 35.0026 79.6319 35.2497C80.0439 35.4969 80.3322 35.7853 80.5382 36.1149C80.7442 36.4445 80.8266 36.8152 80.8266 37.2684C80.8266 37.9687 80.5588 38.5249 80.0027 38.9575C79.4465 39.3901 78.7255 39.596 77.7986 39.596C77.2013 39.596 76.6451 39.4724 76.1301 39.2459C75.6152 39.0193 75.2238 38.7103 74.9354 38.2983C74.647 37.8864 74.5234 37.4538 74.5234 36.9388H75.677C75.677 37.4538 75.8623 37.8864 76.2537 38.1747C76.6451 38.4631 77.1601 38.6279 77.7986 38.6279C78.396 38.6279 78.8697 38.5043 79.1787 38.2571C79.4877 38.0099 79.6525 37.6804 79.6525 37.2478C79.6525 36.8152 79.5083 36.4856 79.1993 36.2591C78.9109 36.0325 78.3548 35.8059 77.572 35.5793H77.6338Z" fill="#78848A"/>
<path d="M83.6252 31.4396V33.0051H84.8199V33.8497H83.6252V37.8458C83.6252 38.1136 83.687 38.299 83.79 38.4226C83.893 38.5461 84.0784 38.6079 84.3462 38.6079C84.4698 38.6079 84.6551 38.5873 84.8611 38.5255V39.4113C84.5728 39.4937 84.2844 39.5349 84.0166 39.5349C83.5222 39.5349 83.1515 39.3907 82.9043 39.0817C82.6571 38.7727 82.5335 38.3608 82.5335 37.8046V33.8085H81.3594V32.9639H82.5335V31.3984H83.6252V31.4396Z" fill="#78848A"/>
<path d="M90.0956 39.4275C90.0338 39.3039 89.972 39.0773 89.9308 38.7477C89.4158 39.2833 88.8185 39.5511 88.0975 39.5511C87.459 39.5511 86.944 39.3657 86.532 39.0155C86.1201 38.6653 85.9141 38.1916 85.9141 37.656C85.9141 36.9763 86.1613 36.4613 86.6762 36.0905C87.1912 35.7197 87.9121 35.5344 88.8185 35.5344H89.8896V35.0194C89.8896 34.628 89.766 34.319 89.5394 34.0925C89.3128 33.8659 88.9627 33.7423 88.5301 33.7423C88.1387 33.7423 87.8091 33.8453 87.5414 34.0307C87.2736 34.2366 87.15 34.4632 87.15 34.7516H86.0377C86.0377 34.422 86.1407 34.1131 86.3878 33.8247C86.6144 33.5157 86.9234 33.2891 87.3148 33.1037C87.7061 32.9389 88.1387 32.8359 88.5919 32.8359C89.3334 32.8359 89.9102 33.0213 90.3428 33.3921C90.7753 33.7629 90.9813 34.2778 91.0019 34.9164V37.8826C91.0019 38.48 91.0843 38.9537 91.2285 39.3039V39.4069H90.075L90.0956 39.4275ZM88.2623 38.5829C88.6125 38.5829 88.9421 38.5005 89.251 38.3152C89.56 38.1298 89.7866 37.9032 89.9308 37.6148V36.2965H89.0657C87.7061 36.2965 87.047 36.6879 87.047 37.4912C87.047 37.8414 87.1706 38.1092 87.3972 38.2946C87.6237 38.48 87.9121 38.5829 88.2829 38.5829H88.2623Z" fill="#78848A"/>
<path d="M95.8682 33.9912C95.7034 33.9706 95.518 33.95 95.3326 33.95C94.6117 33.95 94.1173 34.259 93.8701 34.877V39.4499H92.7578V33.0025H93.8289V33.744C94.1997 33.1673 94.7147 32.8789 95.3738 32.8789C95.5798 32.8789 95.7446 32.8995 95.8682 32.9613V33.9912Z" fill="#78848A"/>
<path d="M100.613 37.7178C100.613 37.4294 100.51 37.1822 100.284 37.0175C100.057 36.8527 99.6658 36.7085 99.1096 36.5849C98.5535 36.4613 98.1003 36.3171 97.7913 36.1523C97.4617 35.9875 97.2145 35.7815 97.0704 35.5549C96.9056 35.3284 96.8438 35.0606 96.8438 34.731C96.8438 34.1954 97.0704 33.7629 97.5235 33.3921C97.9767 33.0213 98.5329 32.8359 99.2332 32.8359C99.9542 32.8359 100.552 33.0213 101.005 33.3921C101.458 33.7629 101.684 34.2572 101.684 34.834H100.572C100.572 34.525 100.449 34.2778 100.181 34.0513C99.9336 33.8247 99.604 33.7217 99.2126 33.7217C98.8212 33.7217 98.4917 33.8041 98.2651 33.9895C98.0385 34.1542 97.9149 34.4014 97.9149 34.6692C97.9149 34.937 98.0179 35.143 98.2239 35.2666C98.4299 35.3902 98.8212 35.5344 99.3568 35.6579C99.913 35.7815 100.346 35.9257 100.696 36.0905C101.046 36.2553 101.293 36.4613 101.458 36.7085C101.623 36.9557 101.705 37.244 101.705 37.5942C101.705 38.171 101.478 38.6241 101.025 38.9743C100.572 39.3245 99.9748 39.4893 99.2332 39.4893C98.7182 39.4893 98.2651 39.4069 97.8737 39.2215C97.4823 39.0361 97.1733 38.7889 96.9468 38.4594C96.7202 38.1298 96.6172 37.7796 96.6172 37.3882H97.7295C97.7295 37.759 97.8943 38.0474 98.1621 38.274C98.4299 38.5006 98.8006 38.6035 99.2538 38.6035C99.6658 38.6035 100.016 38.5211 100.263 38.3564C100.51 38.1916 100.634 37.965 100.634 37.6766L100.613 37.7178Z" fill="#78848A"/>
<path d="M103.11 41.1608L102.492 40.7282C102.863 40.2133 103.069 39.6777 103.069 39.1215V38.1328H104.14V38.998C104.14 39.3893 104.037 39.8013 103.852 40.1927C103.666 40.584 103.419 40.9136 103.11 41.1608Z" fill="#78848A"/>
<path d="M114.053 31.3953L110.469 39.4493H109.315L112.9 31.6837H108.203V30.7773H114.053V31.3953Z" fill="#78848A"/>
<path d="M119.95 36.5215H121.145V37.4278H119.95V39.4465H118.838V37.4278H114.883V36.7687L118.755 30.7539H119.929V36.5009L119.95 36.5215ZM116.139 36.5215H118.838V32.2782L118.714 32.5254L116.139 36.5421V36.5215Z" fill="#78848A"/>
<path d="M128.63 35.9241H126.591V39.4259H125.438V30.7539H128.301C129.269 30.7539 130.031 30.9805 130.546 31.4131C131.061 31.8662 131.329 32.5048 131.329 33.3493C131.329 33.8849 131.185 34.3587 130.896 34.7706C130.608 35.162 130.196 35.471 129.681 35.677L131.72 39.3641V39.4465H130.505L128.63 35.9447V35.9241ZM126.591 34.9972H128.342C128.919 34.9972 129.372 34.853 129.701 34.5646C130.031 34.2763 130.196 33.8849 130.196 33.3905C130.196 32.855 130.031 32.443 129.722 32.1546C129.392 31.8662 128.939 31.722 128.342 31.722H126.591V35.0178V34.9972Z" fill="#78848A"/>
<path d="M135.446 39.55C134.58 39.55 133.86 39.2616 133.324 38.6849C132.768 38.1081 132.5 37.346 132.5 36.3778V36.1718C132.5 35.5333 132.624 34.9565 132.871 34.4622C133.118 33.9678 133.448 33.5764 133.901 33.288C134.354 32.9997 134.807 32.8555 135.322 32.8555C136.167 32.8555 136.805 33.1232 137.279 33.6794C137.753 34.2356 137.979 35.0183 137.979 36.0483V36.5014H133.612C133.612 37.14 133.818 37.6549 134.168 38.0463C134.519 38.4377 134.972 38.6231 135.528 38.6231C135.919 38.6231 136.249 38.5407 136.517 38.3759C136.784 38.2111 137.032 38.0051 137.217 37.7373L137.897 38.2523C137.361 39.0762 136.537 39.4882 135.466 39.4882L135.446 39.55ZM135.301 33.7824C134.848 33.7824 134.477 33.9472 134.189 34.2768C133.901 34.6063 133.695 35.0595 133.633 35.6363H136.867V35.5539C136.826 34.9977 136.682 34.5652 136.414 34.2562C136.146 33.9472 135.775 33.803 135.322 33.803L135.301 33.7824Z" fill="#78848A"/>
<path d="M141.284 37.9437L142.87 33H144.003L141.696 39.4474H140.851L138.523 33H139.656L141.284 37.9437Z" fill="#78848A"/>
<path d="M145.07 31.2948C145.07 31.1094 145.132 30.9652 145.235 30.8416C145.338 30.718 145.503 30.6562 145.729 30.6562C145.956 30.6562 146.1 30.718 146.224 30.8416C146.327 30.9652 146.389 31.1094 146.389 31.2948C146.389 31.4802 146.327 31.6244 146.224 31.748C146.121 31.8716 145.956 31.9334 145.729 31.9334C145.503 31.9334 145.359 31.8716 145.235 31.748C145.132 31.6244 145.07 31.4802 145.07 31.2948ZM146.265 39.4518H145.173V33.0045H146.265V39.4518Z" fill="#78848A"/>
<path d="M150.688 39.55C149.823 39.55 149.102 39.2616 148.566 38.6849C148.01 38.1081 147.742 37.346 147.742 36.3778V36.1718C147.742 35.5333 147.866 34.9565 148.113 34.4622C148.36 33.9678 148.69 33.5764 149.143 33.288C149.596 32.9997 150.049 32.8555 150.564 32.8555C151.409 32.8555 152.047 33.1232 152.521 33.6794C152.995 34.2356 153.221 35.0183 153.221 36.0483V36.5014H148.855C148.855 37.14 149.06 37.6549 149.411 38.0463C149.761 38.4377 150.214 38.6231 150.77 38.6231C151.162 38.6231 151.491 38.5407 151.759 38.3759C152.027 38.2111 152.274 38.0051 152.459 37.7373L153.139 38.2523C152.603 39.0762 151.779 39.4882 150.708 39.4882L150.688 39.55ZM150.544 33.7824C150.09 33.7824 149.72 33.9472 149.431 34.2768C149.143 34.6063 148.937 35.0595 148.875 35.6363H152.109V35.5539C152.068 34.9977 151.924 34.5652 151.656 34.2562C151.388 33.9472 151.017 33.803 150.564 33.803L150.544 33.7824Z" fill="#78848A"/>
<path d="M160.184 37.9231L161.42 33H162.532L160.658 39.4474H159.772L158.206 34.5655L156.682 39.4474H155.796L153.922 33H155.014L156.291 37.8201L157.794 33H158.68L160.204 37.9231H160.184Z" fill="#78848A"/>
<path d="M167.395 37.7178C167.395 37.4294 167.292 37.1822 167.065 37.0175C166.838 36.8527 166.447 36.7085 165.891 36.5849C165.335 36.4613 164.882 36.3171 164.573 36.1523C164.243 35.9875 163.996 35.7815 163.852 35.5549C163.687 35.3284 163.625 35.0606 163.625 34.731C163.625 34.1954 163.852 33.7629 164.305 33.3921C164.758 33.0213 165.314 32.8359 166.014 32.8359C166.735 32.8359 167.333 33.0213 167.786 33.3921C168.239 33.7629 168.466 34.2572 168.466 34.834H167.353C167.353 34.525 167.23 34.2778 166.962 34.0513C166.715 33.8247 166.385 33.7217 165.994 33.7217C165.602 33.7217 165.273 33.8041 165.046 33.9895C164.82 34.1542 164.696 34.4014 164.696 34.6692C164.696 34.937 164.799 35.143 165.005 35.2666C165.211 35.3902 165.602 35.5344 166.138 35.6579C166.694 35.7815 167.127 35.9257 167.477 36.0905C167.827 36.2553 168.074 36.4613 168.239 36.7085C168.404 36.9557 168.486 37.244 168.486 37.5942C168.486 38.171 168.26 38.6241 167.807 38.9743C167.353 39.3245 166.756 39.4893 166.014 39.4893C165.499 39.4893 165.046 39.4069 164.655 39.2215C164.264 39.0361 163.955 38.7889 163.728 38.4594C163.501 38.1298 163.398 37.7796 163.398 37.3882H164.511C164.511 37.759 164.676 38.0474 164.943 38.274C165.211 38.5006 165.582 38.6035 166.035 38.6035C166.447 38.6035 166.797 38.5211 167.044 38.3564C167.292 38.1916 167.415 37.965 167.415 37.6766L167.395 37.7178Z" fill="#78848A"/>
<mask id="mask0_8062_23972" style="mask-type:luminance" maskUnits="userSpaceOnUse" x="0" y="0" width="43" height="44">
<path d="M42.1241 17.859H21.7933V26.2838H33.4933C32.4016 31.6394 27.8493 34.7086 21.7933 34.7086C14.6662 34.7086 8.89859 28.9616 8.89859 21.8139C8.89859 14.6662 14.6456 8.91919 21.7933 8.91919C24.8625 8.91919 27.6433 10.0109 29.8267 11.803L36.1711 5.45862C32.2986 2.08046 27.3549 0 21.7933 0C9.72253 0.0205986 0 9.74313 0 21.8345C0 33.9259 9.72253 43.6484 21.8139 43.6484C32.7106 43.6484 42.6391 35.7179 42.6391 21.8345C42.6391 20.5368 42.4331 19.1567 42.1447 17.8796L42.1241 17.859Z" fill="white"/>
</mask>
<g mask="url(#mask0_8062_23972)">
<path d="M-1.98438 34.7269V8.9375L14.8653 21.8322L-1.98438 34.7269Z" fill="#FBBC05"/>
</g>
<mask id="mask1_8062_23972" style="mask-type:luminance" maskUnits="userSpaceOnUse" x="0" y="0" width="43" height="44">
<path d="M42.1241 17.859H21.7933V26.2838H33.4933C32.4016 31.6394 27.8493 34.7086 21.7933 34.7086C14.6662 34.7086 8.89859 28.9616 8.89859 21.8139C8.89859 14.6662 14.6456 8.91919 21.7933 8.91919C24.8625 8.91919 27.6433 10.0109 29.8267 11.803L36.1711 5.45862C32.2986 2.08046 27.3549 0 21.7933 0C9.72253 0.0205986 0 9.74313 0 21.8345C0 33.9259 9.72253 43.6484 21.8139 43.6484C32.7106 43.6484 42.6391 35.7179 42.6391 21.8345C42.6391 20.5368 42.4331 19.1567 42.1447 17.8796L42.1241 17.859Z" fill="white"/>
</mask>
<g mask="url(#mask1_8062_23972)">
<path d="M-1.98438 8.94353L14.8653 21.8382L21.807 15.7823L45.5984 11.9097V-1.95312H-1.98438V8.94353Z" fill="#EA4335"/>
</g>
<mask id="mask2_8062_23972" style="mask-type:luminance" maskUnits="userSpaceOnUse" x="0" y="0" width="43" height="44">
<path d="M42.1241 17.859H21.7933V26.2838H33.4933C32.4016 31.6394 27.8493 34.7086 21.7933 34.7086C14.6662 34.7086 8.89859 28.9616 8.89859 21.8139C8.89859 14.6662 14.6456 8.91919 21.7933 8.91919C24.8625 8.91919 27.6433 10.0109 29.8267 11.803L36.1711 5.45862C32.2986 2.08046 27.3549 0 21.7933 0C9.72253 0.0205986 0 9.74313 0 21.8345C0 33.9259 9.72253 43.6484 21.8139 43.6484C32.7106 43.6484 42.6391 35.7179 42.6391 21.8345C42.6391 20.5368 42.4331 19.1567 42.1447 17.8796L42.1241 17.859Z" fill="white"/>
</mask>
<g mask="url(#mask2_8062_23972)">
<path d="M-1.98438 34.733L27.76 11.9303L35.5874 12.9191L45.5984 -1.95312V45.6296H-1.98438V34.733Z" fill="#34A853"/>
</g>
<mask id="mask3_8062_23972" style="mask-type:luminance" maskUnits="userSpaceOnUse" x="0" y="0" width="43" height="44">
<path d="M42.1241 17.859H21.7933V26.2838H33.4933C32.4016 31.6394 27.8493 34.7086 21.7933 34.7086C14.6662 34.7086 8.89859 28.9616 8.89859 21.8139C8.89859 14.6662 14.6456 8.91919 21.7933 8.91919C24.8625 8.91919 27.6433 10.0109 29.8267 11.803L36.1711 5.45862C32.2986 2.08046 27.3549 0 21.7933 0C9.72253 0.0205986 0 9.74313 0 21.8345C0 33.9259 9.72253 43.6484 21.8139 43.6484C32.7106 43.6484 42.6391 35.7179 42.6391 21.8345C42.6391 20.5368 42.4331 19.1567 42.1447 17.8796L42.1241 17.859Z" fill="white"/>
</mask>
<g mask="url(#mask3_8062_23972)">
<path d="M45.5943 45.6264L14.8612 21.8351L10.9062 18.8689L45.5943 8.96094V45.647V45.6264Z" fill="#4285F4"/>
</g>
<path d="M63.5829 2.65755L66.096 7.766C66.2402 8.07498 66.5285 8.28096 66.8787 8.32216L72.5227 9.1461C73.3673 9.26969 73.6968 10.2996 73.0995 10.897L69.021 14.8725C68.7738 15.0991 68.6708 15.4493 68.7326 15.7788L69.7007 21.3817C69.8449 22.2262 68.9592 22.8648 68.2176 22.4734L63.171 19.8162C62.862 19.6514 62.5118 19.6514 62.2028 19.8162L57.1562 22.4734C56.394 22.8648 55.5083 22.2262 55.6731 21.3817L56.6412 15.7788C56.703 15.4493 56.5794 15.0991 56.3528 14.8725L52.2743 10.897C51.6564 10.2996 52.0065 9.26969 52.8511 9.1461L58.4951 8.32216C58.8247 8.28096 59.113 8.05438 59.2778 7.766L61.7909 2.65755C62.1616 1.8954 63.2534 1.8954 63.6447 2.65755H63.5829Z" fill="#F7A200"/>
<path d="M87.997 2.65755L90.51 7.766C90.6542 8.07498 90.9426 8.28096 91.2928 8.32216L96.9368 9.1461C97.7813 9.26969 98.1109 10.2996 97.5135 10.897L93.435 14.8725C93.1878 15.0991 93.0849 15.4493 93.1467 15.7788L94.1148 21.3817C94.259 22.2262 93.3732 22.8648 92.6317 22.4734L87.585 19.8162C87.2761 19.6514 86.9259 19.6514 86.6169 19.8162L81.5703 22.4734C80.8081 22.8648 79.9224 22.2262 80.0871 21.3817L81.0553 15.7788C81.1171 15.4493 80.9935 15.0991 80.7669 14.8725L76.6884 10.897C76.0704 10.2996 76.4206 9.26969 77.2651 9.1461L82.9092 8.32216C83.2387 8.28096 83.5271 8.05438 83.6919 7.766L86.2049 2.65755C86.5757 1.8954 87.6674 1.8954 88.0588 2.65755H87.997Z" fill="#F7A200"/>
<path d="M112.411 2.65755L114.924 7.766C115.068 8.07498 115.357 8.28096 115.707 8.32216L121.351 9.1461C122.195 9.26969 122.525 10.2996 121.928 10.897L117.849 14.8725C117.602 15.0991 117.499 15.4493 117.561 15.7788L118.529 21.3817C118.673 22.2262 117.787 22.8648 117.046 22.4734L111.999 19.8162C111.69 19.6514 111.34 19.6514 111.031 19.8162L105.984 22.4734C105.222 22.8648 104.336 22.2262 104.501 21.3817L105.469 15.7788C105.531 15.4493 105.408 15.0991 105.181 14.8725L101.102 10.897C100.484 10.2996 100.835 9.26969 101.679 9.1461L107.323 8.32216C107.653 8.28096 107.941 8.05438 108.106 7.766L110.619 2.65755C110.99 1.8954 112.081 1.8954 112.473 2.65755H112.411Z" fill="#F7A200"/>
<path d="M136.81 2.65755L139.323 7.766C139.467 8.07498 139.755 8.28096 140.105 8.32216L145.749 9.1461C146.594 9.26969 146.923 10.2996 146.326 10.897L142.248 14.8725C142 15.0991 141.897 15.4493 141.959 15.7788L142.927 21.3817C143.071 22.2262 142.186 22.8648 141.444 22.4734L136.398 19.8162C136.089 19.6514 135.738 19.6514 135.429 19.8162L130.383 22.4734C129.621 22.8648 128.735 22.2262 128.9 21.3817L129.868 15.7788C129.93 15.4493 129.806 15.0991 129.579 14.8725L125.501 10.897C124.883 10.2996 125.233 9.26969 126.078 9.1461L131.722 8.32216C132.051 8.28096 132.34 8.05438 132.504 7.766L135.017 2.65755C135.388 1.8954 136.48 1.8954 136.871 2.65755H136.81Z" fill="#F7A200"/>
<path d="M161.216 2.65755L163.729 7.766C163.873 8.07498 164.161 8.28096 164.512 8.32216L170.156 9.1461C171 9.26969 171.33 10.2996 170.732 10.897L166.654 14.8725C166.407 15.0991 166.304 15.4493 166.365 15.7788L167.334 21.3817C167.478 22.2262 166.592 22.8648 165.85 22.4734L160.804 19.8162C160.495 19.6514 160.145 19.6514 159.836 19.8162L154.789 22.4734C154.027 22.8648 153.141 22.2262 153.306 21.3817L154.274 15.7788C154.336 15.4493 154.212 15.0991 153.986 14.8725L149.907 10.897C149.289 10.2996 149.639 9.26969 150.484 9.1461L156.128 8.32216C156.457 8.28096 156.746 8.05438 156.911 7.766L159.424 2.65755C159.794 1.8954 160.886 1.8954 161.278 2.65755H161.216Z" fill="#F7A200"/>
</svg>
