<svg width="80" height="80" viewBox="0 0 80 80" fill="none" xmlns="http://www.w3.org/2000/svg">
<path d="M3 33.1016H5.58037V38.9792H11.0223V33.1016H13.6059V47.5295H11.0223V41.5283H5.58037V47.5295H3V33.1016ZM21.7804 42.83C21.7804 44.0377 20.8207 45.0207 19.6429 45.0207C18.465 45.0207 17.5056 44.038 17.5056 42.83V36.6182H15.0585V42.83C15.0585 45.4216 17.1152 47.5295 19.6429 47.5295C22.1705 47.5295 24.2264 45.4216 24.2264 42.83V36.6182H21.7801V42.83M31.0575 36.6911C29.8436 36.6911 28.9964 37.0523 28.1782 37.8757V33.1016H25.7233V41.9496C25.7233 45.2614 28.0589 47.5295 30.6825 47.5295C33.5994 47.5295 36.1552 45.221 36.1552 42.1104C36.1552 38.9998 33.7986 36.6911 31.0575 36.6911ZM31.1185 45.201C29.4549 45.201 28.1829 43.7767 28.1829 42.1104C28.1829 40.4442 29.4549 39.0193 31.1185 39.0193C32.5281 39.0193 33.801 40.4442 33.801 42.1104C33.801 43.7767 32.5281 45.201 31.1185 45.201ZM40.2784 37.3254C40.2784 36.0601 41.1007 35.6589 42.0009 35.6589C42.7256 35.6589 43.6847 36.221 44.3104 36.9035L45.9151 34.9769C45.1132 33.8731 43.4887 33.1104 42.1575 33.1104C39.4949 33.1104 37.5764 34.6962 37.5764 37.3257C37.5764 42.2027 43.4298 40.657 43.4298 43.3873C43.4298 44.2292 42.6276 44.9728 41.7079 44.9728C40.2586 44.9728 39.7888 44.2501 39.1234 43.4871L37.3416 45.3734C38.4777 46.7986 39.8868 47.5216 41.5705 47.5216C44.0955 47.5216 46.1315 45.9157 46.1315 43.4067C46.1315 37.988 40.2784 39.6739 40.2784 37.3257M52.5944 36.5503C49.9708 36.5503 47.6353 38.8171 47.6353 42.1296V51.0003H50.0901V46.2035C50.9086 47.0263 51.7552 47.388 52.9698 47.388C55.7106 47.388 58.0675 45.0401 58.0675 41.969C58.0675 38.8979 55.5111 36.5503 52.5947 36.5503H52.5944ZM53.0307 45.0605C51.3674 45.0605 50.0952 43.634 50.0952 41.9693C50.0952 40.3046 51.3674 38.8781 53.0307 38.8781C54.4401 38.8781 55.7129 40.3031 55.7129 41.9693C55.7129 43.6355 54.4401 45.0605 53.0307 45.0605ZM76.1377 45.2016C74.6896 45.2016 74.2787 44.5597 74.2787 43.5757V39.2205H76.5296V37.0131H74.2787V34.1025L71.7934 35.2464V44.1178C71.7934 46.3862 73.3196 47.5304 75.4134 47.5304C75.7265 47.5304 76.1578 47.5097 76.3929 47.4503L76.9997 45.1625C76.7256 45.1819 76.4127 45.2019 76.1377 45.2019" fill="#45535E"/>
<path d="M69.6622 39.3479C69.1916 38.5178 68.5297 37.8523 67.702 37.3512C67.0836 36.9821 66.4422 36.7478 65.7196 36.6471V34.0093C66.4422 33.6946 66.8909 32.9983 66.8909 32.1859C66.8909 31.0787 66.0248 30.1812 64.9458 30.1812C63.8668 30.1812 62.9847 31.0787 62.9847 32.1859C62.9847 32.9983 63.4074 33.6946 64.13 34.0093V36.6483C63.5519 36.7339 62.9521 36.9187 62.4048 37.2028C61.2865 36.332 57.6194 33.4751 55.4745 31.8068C55.5254 31.6186 55.5645 31.425 55.5645 31.2204C55.5645 29.994 54.5959 29 53.3991 29C52.2023 29 51.2344 29.994 51.2344 31.2204C51.2344 32.4469 52.2035 33.4412 53.4003 33.4412C53.8085 33.4412 54.1859 33.3188 54.5119 33.1176L54.9645 33.4697L61.1849 38.065C60.8561 38.3746 60.5497 38.7267 60.3049 39.1218C59.8085 39.9273 59.505 40.8135 59.505 41.7802V41.982C59.505 42.6607 59.6309 43.3013 59.8449 43.9032C60.0334 44.4286 60.3093 44.9066 60.6509 45.3385L58.5865 47.4602C57.9755 47.2272 57.2879 47.3816 56.8282 47.8557C56.5132 48.1768 56.3371 48.6142 56.3386 49.0694C56.3386 49.5277 56.5129 49.9587 56.8291 50.2828C57.1423 50.6057 57.5682 50.7869 58.0125 50.7857C58.4569 50.7869 58.8831 50.6057 59.1966 50.2828C59.5113 49.9617 59.6877 49.5247 59.6865 49.0694C59.6865 48.8922 59.6599 48.7189 59.6095 48.5544L61.7432 46.3664C62.0357 46.5737 62.3518 46.7479 62.6914 46.8985C63.3612 47.1956 64.1007 47.3765 64.91 47.3765H65.0583C65.9529 47.3765 66.7971 47.161 67.5904 46.7203C68.4264 46.2544 69.0808 45.6177 69.5752 44.8043C70.0722 43.9888 70.3457 43.088 70.3457 42.0971V42.0476C70.3457 41.0727 70.1255 40.1731 69.6631 39.3488L69.6622 39.3479ZM67.0549 43.9381C66.4756 44.5979 65.8099 45.0046 65.0574 45.0046H64.9334C64.5036 45.0046 64.0829 44.8829 63.6715 44.6613C63.2076 44.4173 62.8548 44.0695 62.5661 43.6288C62.2678 43.1963 62.1058 42.7244 62.1058 42.2236V42.0716C62.1058 41.5793 62.1979 41.1128 62.43 40.6721C62.678 40.1904 63.0134 39.8156 63.4592 39.5179C63.897 39.222 64.3644 39.0769 64.8848 39.0769H64.9334C65.4055 39.0769 65.8522 39.1722 66.274 39.3934C66.7038 39.6293 67.0549 39.9516 67.327 40.3756C67.5913 40.7996 67.7485 41.2573 67.7991 41.7556C67.8071 41.8591 67.8112 41.9653 67.8112 42.0667C67.8112 42.7432 67.559 43.3693 67.0549 43.9381Z" fill="#F8761F"/>
</svg>
