<svg width="34" height="34" viewBox="0 0 34 34" fill="none" xmlns="http://www.w3.org/2000/svg">
<path d="M5.28938 17.6269C5.52938 17.6269 5.72938 17.4369 5.72938 17.1869V9.05687C5.72938 8.29688 6.34938 7.67687 7.10938 7.67687H22.6894C22.9294 7.67687 23.1294 7.48687 23.1294 7.23687C23.1294 6.98687 22.9394 6.79688 22.6894 6.79688H7.10938C5.86938 6.79688 4.85938 7.80688 4.85938 9.04688V17.1769C4.85938 17.4169 5.04938 17.6169 5.29938 17.6169L5.28938 17.6269Z" fill="#1A1A1A"/>
<path d="M29.6996 27.0491V13.4791C29.6996 13.2391 29.5096 13.0391 29.2596 13.0391C29.0096 13.0391 28.8196 13.2291 28.8196 13.4791V26.7491H5.72963V25.2591C5.72963 25.0191 5.53963 24.8191 5.28963 24.8191C5.03963 24.8191 4.84963 25.0091 4.84963 25.2591V27.0391L3.18963 29.3591C2.93963 29.7091 2.90963 30.1591 3.09963 30.5391C3.29963 30.9191 3.67963 31.1591 4.10963 31.1591H30.4296C30.8596 31.1591 31.2496 30.9191 31.4396 30.5391C31.6396 30.1591 31.5996 29.7091 31.3496 29.3591L29.6896 27.0391L29.6996 27.0491ZM30.6796 30.1491C30.6796 30.1491 30.5896 30.2991 30.4396 30.2991H22.0196L21.1996 28.7591C21.1196 28.6191 20.9796 28.5291 20.8196 28.5291H13.1896C13.0296 28.5291 12.8796 28.6191 12.8096 28.7591L11.9896 30.2991H4.11963C3.96963 30.2991 3.89963 30.1991 3.87963 30.1491C3.85963 30.1091 3.80963 29.9891 3.89963 29.8691L5.50963 27.6191H29.0396L30.6496 29.8691C30.7396 29.9891 30.6896 30.0991 30.6696 30.1491H30.6796Z" fill="#1A1A1A"/>
<path d="M3.5875 25.5573C3.7075 25.5573 3.8175 25.5073 3.8975 25.4273L13.0875 16.2373L17.7775 20.9273C17.9375 21.0873 18.2275 21.0873 18.3975 20.9273L28.6075 10.7173L30.4475 12.5573C30.5575 12.6673 30.7175 12.7073 30.8675 12.6673C31.0175 12.6273 31.1375 12.5073 31.1775 12.3573L33.5375 3.53735C33.5775 3.38735 33.5375 3.22735 33.4275 3.11735C33.3175 3.00735 33.1575 2.96735 33.0075 3.00735L24.1875 5.36735C24.0375 5.40735 23.9175 5.52735 23.8775 5.67735C23.8375 5.82735 23.8775 5.98735 23.9875 6.09735L25.8275 7.93735L18.0875 15.6773L13.3975 10.9873C13.2375 10.8273 12.9475 10.8273 12.7775 10.9873L1.1275 22.6573C0.9575 22.8273 0.9575 23.1073 1.1275 23.2773L3.2875 25.4373C3.3675 25.5173 3.4775 25.5673 3.5975 25.5673L3.5875 25.5573Z" fill="#1A1A1A"/>
</svg>
