<svg width="80" height="80" viewBox="0 0 80 80" fill="none" xmlns="http://www.w3.org/2000/svg">
<path d="M8 4L13.2752 68.5533L39.7378 76L65.4221 68.5533L71 4.12975L8 4ZM36.9598 66.3182L18.4153 61.4852V49.5304L24.7661 50.5478V55.8894L30.1008 56.9068V17.2266H36.9598V66.3182ZM59.8225 37.3123L58.5524 62.5027L42.1048 66.3182V58.4329L53.2177 54.6177L53.8596 44.1889L42.1048 45.8929V17.2266H61.0929L59.8225 24.8319H49.3535V37.3123H59.8225Z" fill="#E9CA32"/>
<path d="M39.7344 10.1484V69.7665L61.0516 63.5748L65.6781 10.2348L39.7344 10.1484ZM59.8191 24.8325H49.35V37.313H59.8191L58.549 62.5034L42.1014 66.3189V58.4336L53.2143 54.6183L53.8561 44.1895L42.1014 45.8936V17.2272H61.0894L59.8191 24.8325Z" fill="#FFDE25"/>
</svg>
