<svg width="80" height="80" viewBox="0 0 80 80" fill="none" xmlns="http://www.w3.org/2000/svg">
<path d="M75.9594 19.7405C75.986 19.8391 75.9997 19.941 76 20.0431V35.9269C76 36.3418 75.7778 36.725 75.4171 36.9317L62.0639 44.6072V59.8209C62.0639 60.2349 61.8434 60.6173 61.484 60.8258L33.6099 76.8457C33.546 76.882 33.4765 76.9049 33.4067 76.9296C33.3808 76.9383 33.356 76.9544 33.3283 76.9615C33.1335 77.0127 32.9286 77.0127 32.7338 76.9615C32.7019 76.9529 32.6729 76.9353 32.6425 76.924C32.5787 76.9008 32.5121 76.8805 32.451 76.8457L4.58287 60.8258C4.22253 60.6191 4.0003 60.2361 4 59.8209V12.1693C4 12.065 4.01462 11.9638 4.04057 11.8652C4.04922 11.8318 4.0695 11.8015 4.08114 11.7681C4.10291 11.7074 4.1232 11.6451 4.15511 11.5885C4.17689 11.551 4.20881 11.5206 4.23476 11.4858C4.26817 11.4393 4.2986 11.3917 4.33767 11.3512C4.37108 11.3178 4.41463 11.2934 4.45222 11.2642C4.49428 11.2294 4.53186 11.1918 4.57989 11.1644H4.58138L18.5163 3.15479C18.8755 2.9484 19.3173 2.9484 19.6764 3.15479L33.6114 11.1647H33.6144C33.6609 11.1936 33.7 11.23 33.742 11.2633C33.7796 11.2922 33.8217 11.3184 33.8551 11.3503C33.8956 11.3923 33.9246 11.4399 33.9595 11.4864C33.9842 11.5212 34.0174 11.5516 34.0379 11.5891C34.0713 11.6469 34.0901 11.7079 34.1134 11.7687C34.125 11.8021 34.1453 11.8324 34.154 11.8673C34.1805 11.9659 34.1942 12.0677 34.1945 12.1699V41.9326L45.8064 35.2574V20.0422C45.8064 19.941 45.821 19.8382 45.8469 19.7411C45.8571 19.7063 45.8759 19.6759 45.8875 19.6425C45.9108 19.5818 45.931 19.5196 45.963 19.463C45.9847 19.4254 46.0167 19.3951 46.0414 19.3602C46.0763 19.3138 46.1052 19.2661 46.1458 19.2256C46.1792 19.1923 46.2213 19.1678 46.2589 19.1386C46.3024 19.1038 46.34 19.0663 46.3865 19.0389H46.388L60.3242 11.0289C60.683 10.8223 61.1251 10.8223 61.4843 11.0289L75.4192 19.0389C75.4684 19.0678 75.5063 19.1041 75.5496 19.1375C75.586 19.1663 75.628 19.1926 75.6611 19.2244C75.7017 19.2664 75.7306 19.3141 75.7655 19.3605C75.7918 19.3954 75.8234 19.4257 75.844 19.4633C75.8774 19.5198 75.8962 19.5821 75.9195 19.6428C75.9326 19.6762 75.9514 19.7066 75.96 19.7414L75.9594 19.7405ZM73.6772 35.2568V22.0483L68.8006 24.851L62.0639 28.7234V41.932L73.6786 35.2568H73.6772ZM59.7422 59.1506V45.9334L53.1155 49.7117L34.1924 60.494V73.8357L59.7419 59.1506H59.7422ZM6.32284 14.1744V59.1509L31.8696 73.8345V60.4955L18.5235 52.9546L18.519 52.9516L18.5134 52.9486C18.4683 52.9224 18.4307 52.8849 18.3887 52.853C18.3523 52.8242 18.3105 52.8009 18.2786 52.7691L18.2756 52.7646C18.238 52.7283 18.2118 52.6836 18.1799 52.6431C18.1509 52.6041 18.116 52.5707 18.0928 52.5302L18.0913 52.5257C18.0653 52.4823 18.0492 52.4302 18.0304 52.381C18.0116 52.3375 17.9869 52.297 17.9752 52.2509V52.2494C17.9606 52.1943 17.9579 52.1365 17.952 52.0799C17.9463 52.0364 17.9347 51.993 17.9347 51.9498V20.8496L11.1991 16.9756L6.32254 14.1759V14.1744H6.32284ZM19.0977 5.49708L7.48739 12.1693L19.095 18.8417L30.7039 12.1681L19.0947 5.49708H19.0977ZM25.1355 47.138L31.8711 43.2671V14.1744L26.9945 16.9771L20.2578 20.8496V49.9419L25.1358 47.1377L25.1355 47.138ZM60.9038 13.3709L49.2949 20.0434L60.9038 26.7159L72.5114 20.0422L60.9038 13.3712V13.3709ZM59.7422 28.7234L53.0055 24.851L48.1289 22.0483V35.2568L54.8644 39.1278L59.7425 41.932V28.7234H59.7422ZM33.0297 58.4891L50.0574 48.784L58.569 43.9345L46.9688 37.2665L33.6126 44.9435L21.4396 51.94L33.0297 58.4891Z" fill="#FF2D20"/>
</svg>
