<svg width="101" height="110" viewBox="0 0 101 110" fill="none" xmlns="http://www.w3.org/2000/svg">
<path d="M100.728 27.7363V82.2637L50.6374 109.527L0.546875 82.2637V27.7363L50.6374 0.472595L100.728 27.7363Z" fill="white"/>
<path d="M50.5 110L50.3089 109.895L0 82.5132V27.5L0.215345 27.3849L50.5 0L50.6911 0.104907L101 27.5V82.5275L50.5 110ZM0.818919 82.0131L50.5 109.054L100.181 82.0131V27.9869L50.5 0.946204L0.818919 27.9869V82.0131Z" fill="#6A797D"/>
<path d="M98.271 29.2193V80.7807L50.5007 106.562L2.73047 80.7807V29.2193L50.5007 3.4375L98.271 29.2193Z" fill="#6A797D"/>
<path d="M98.271 39.875H2.73047V70.125H98.271V39.875Z" fill="#17313B"/>
<path d="M93.631 31.2807V78.7193L50.6378 102.438L7.64453 78.7193V31.2807L50.6378 7.5625L93.631 31.2807Z" fill="white" stroke="#17313B" stroke-width="2" stroke-miterlimit="10"/>
<path d="M96.9046 42.625H4.09375V67.375H96.9046V42.625Z" fill="#17313B"/>
<path d="M14.332 70.125H86.6699" stroke="#17313B" stroke-miterlimit="10"/>
<path d="M14.332 39.875H86.6699" stroke="#17313B" stroke-miterlimit="10"/>
<path d="M40.6989 48.4H38.2422V61.325H40.6989V48.4Z" fill="white"/>
<path d="M48.6148 57.475C48.6148 59.4876 46.7232 59.6475 46.1934 59.6475C44.867 59.6475 44.5202 58.4701 44.5202 57.7612V52.8H42.6094V57.75C42.6094 58.9987 42.9996 60.0294 43.7255 60.7149C44.4403 61.3505 45.3684 61.6876 46.3218 61.655C47.1347 61.6346 47.9273 61.3932 48.6148 60.9563V61.325H50.7986V52.8H48.6148V57.475Z" fill="white"/>
<path d="M55.4388 49.775H52.982V52.8H51.6172V54.45H52.982V61.325H55.4388V54.45H57.0766V52.8H55.4388V49.775Z" fill="white"/>
<path d="M64.1471 58.9549C63.6304 59.3796 62.9824 59.6068 62.3151 59.5955C60.7592 59.5955 59.6177 58.52 59.6177 57.0431C59.6177 55.5663 60.7096 54.5376 62.3151 54.5376C62.9844 54.5254 63.6365 54.7484 64.1602 55.167L64.4989 55.442L66.0053 54.0232L65.6282 53.7044C64.693 52.9273 63.5132 52.5087 62.301 52.525C59.5086 52.525 57.4805 54.4255 57.4805 57.035C57.4805 59.6444 59.5581 61.6 62.301 61.6C63.5192 61.6193 64.7041 61.1967 65.6393 60.4093L66.0023 60.0875L64.4736 58.6687L64.1461 58.9549H64.1471Z" fill="white"/>
<path d="M74.0381 53.6026C73.3101 52.9681 72.3719 52.633 71.4094 52.6645C70.5824 52.6543 69.7726 52.8978 69.0861 53.3632V48.4H66.9023V61.325H69.0861V56.8425C69.0861 54.8299 70.8412 54.6669 71.371 54.6669C72.6975 54.6669 72.9078 55.8464 72.9078 56.5563V61.325H75.0915V56.5675C75.0915 55.3188 74.7751 54.2901 74.0381 53.6026Z" fill="white"/>
<path d="M62.2308 58.5893C63.1219 58.5893 63.8443 57.9071 63.8443 57.0656C63.8443 56.224 63.1219 55.5419 62.2308 55.5419C61.3396 55.5419 60.6172 56.224 60.6172 57.0656C60.6172 57.9071 61.3396 58.5893 62.2308 58.5893Z" fill="#FF3D2E"/>
<path d="M35.5452 58.3244C34.6778 59.1515 33.5242 59.6078 32.3292 59.5945C29.8401 59.5945 28.0304 57.752 28.0304 55.222C28.0304 52.692 29.8401 50.8383 32.3292 50.8383C33.5171 50.8322 34.6636 51.2834 35.5341 52.0982L35.8728 52.4201L37.3661 51.0125L37.0385 50.6906C35.7676 49.4796 34.0783 48.8156 32.3292 48.8369C28.6633 48.8369 25.9062 51.5869 25.9062 55.2332C25.9062 58.8795 28.6744 61.6 32.3292 61.6C34.0843 61.6204 35.7788 60.9502 37.0516 59.7331L37.3792 59.4143L35.8971 57.9843L35.5452 58.3255V58.3244Z" fill="white"/>
<path d="M46.4794 18.3333V14.8612H45.1914V14.3968H48.2891V14.8612H46.9961V18.3333H46.4784H46.4794Z" fill="#17313B"/>
<path d="M49.1094 16.4155C49.1094 15.7616 49.2833 15.2503 49.6321 14.8806C49.9799 14.5108 50.4298 14.3255 50.9808 14.3255C51.3417 14.3255 51.6672 14.412 51.9564 14.5862C52.2455 14.7604 52.4669 15.0018 52.6186 15.3124C52.7702 15.6231 52.8461 15.9755 52.8461 16.3696C52.8461 16.7638 52.7662 17.1264 52.6065 17.4411C52.4467 17.7558 52.2203 17.9952 51.9271 18.1571C51.6339 18.3191 51.3174 18.4006 50.9777 18.4006C50.6097 18.4006 50.2811 18.3109 49.991 18.1317C49.7008 17.9524 49.4814 17.708 49.3328 17.3983C49.1842 17.0887 49.1094 16.7607 49.1094 16.4155ZM49.6422 16.4236C49.6422 16.8982 49.7686 17.272 50.0223 17.545C50.2761 17.818 50.5935 17.9544 50.9757 17.9544C51.3579 17.9544 51.6854 17.8169 51.9372 17.5409C52.1889 17.2649 52.3143 16.8738 52.3143 16.3676C52.3143 16.0468 52.2607 15.7677 52.1525 15.5283C52.0453 15.289 51.8876 15.1036 51.6804 14.9722C51.4731 14.8408 51.2406 14.7746 50.9828 14.7746C50.6168 14.7746 50.3014 14.9009 50.0375 15.1545C49.7736 15.4081 49.6412 15.8308 49.6412 16.4236H49.6422Z" fill="#17313B"/>
<path d="M54.0596 18.3333V14.3968H55.5337C55.7935 14.3968 55.9916 14.409 56.1281 14.4344C56.3202 14.467 56.481 14.5281 56.6104 14.6188C56.7398 14.7094 56.8449 14.8357 56.9238 14.9987C57.0027 15.1617 57.0421 15.3409 57.0421 15.5355C57.0421 15.8706 56.9359 16.1537 56.7246 16.3859C56.5133 16.6181 56.1312 16.7332 55.5781 16.7332H54.5762V18.3333H54.0586H54.0596ZM54.5772 16.2678H55.5872C55.9209 16.2678 56.1585 16.2046 56.299 16.0794C56.4395 15.9541 56.5093 15.7779 56.5093 15.5507C56.5093 15.3857 56.4678 15.2452 56.3849 15.1281C56.302 15.0109 56.1938 14.9335 56.0584 14.8958C55.9714 14.8724 55.8107 14.8612 55.5761 14.8612H54.5762V16.2688L54.5772 16.2678Z" fill="#17313B"/>
<path d="M28.4727 27.5V23.5634H29.8193C30.1236 23.5634 30.3552 23.5817 30.5149 23.6194C30.7383 23.6714 30.9294 23.7651 31.0881 23.9016C31.2944 24.0767 31.4481 24.3008 31.5512 24.5748C31.6533 24.8478 31.7049 25.1594 31.7049 25.5108C31.7049 25.8103 31.6705 26.0751 31.6007 26.3053C31.531 26.5355 31.443 26.7269 31.3338 26.8787C31.2246 27.0305 31.1063 27.1486 30.9779 27.2362C30.8485 27.3228 30.6938 27.389 30.5119 27.4338C30.3299 27.4786 30.1206 27.501 29.884 27.501H28.4737L28.4727 27.5ZM28.9903 27.0355H29.8244C30.0822 27.0355 30.2844 27.0111 30.431 26.9632C30.5776 26.9154 30.6949 26.8471 30.7818 26.7595C30.9041 26.6363 31.0002 26.4703 31.0679 26.2615C31.1367 26.0527 31.17 25.8001 31.17 25.5027C31.17 25.0912 31.1033 24.7744 30.9688 24.5534C30.8344 24.3324 30.6716 24.1837 30.4795 24.1093C30.341 24.0554 30.1176 24.0289 29.8102 24.0289H28.9893V27.0366L28.9903 27.0355Z" fill="#17313B"/>
<path d="M33.0508 27.5V23.5634H33.5684V27.5H33.0508Z" fill="#17313B"/>
<path d="M36.851 25.9559V25.4935L38.506 25.4905V26.951C38.2522 27.1547 37.9894 27.3085 37.7194 27.4114C37.4495 27.5143 37.1725 27.5662 36.8874 27.5662C36.5032 27.5662 36.1544 27.4837 35.841 27.3177C35.5276 27.1517 35.29 26.9123 35.1302 26.5996C34.9705 26.2869 34.8906 25.9366 34.8906 25.5495C34.8906 25.1625 34.9705 24.8091 35.1292 24.477C35.288 24.145 35.5175 23.8985 35.8157 23.7376C36.1139 23.5767 36.4577 23.4962 36.8469 23.4962C37.129 23.4962 37.3848 23.542 37.6133 23.6347C37.8418 23.7274 38.0207 23.8557 38.1501 24.0197C38.2795 24.1837 38.3786 24.3996 38.4463 24.6644L37.9803 24.7938C37.9216 24.5931 37.8488 24.4353 37.7619 24.3212C37.6749 24.2071 37.5506 24.1144 37.3888 24.0462C37.2271 23.9769 37.0471 23.9433 36.85 23.9433C36.6134 23.9433 36.4092 23.98 36.2373 24.0523C36.0644 24.1246 35.9259 24.2204 35.8197 24.3385C35.7136 24.4567 35.6317 24.586 35.5731 24.7276C35.474 24.971 35.4234 25.2348 35.4234 25.52C35.4234 25.8714 35.4831 26.1647 35.6034 26.401C35.7237 26.6373 35.8976 26.8125 36.1271 26.9276C36.3566 27.0427 36.6002 27.0997 36.857 27.0997C37.0805 27.0997 37.2999 27.0559 37.5132 26.9693C37.7265 26.8828 37.8883 26.7901 37.9985 26.6913V25.958H36.85L36.851 25.9559Z" fill="#17313B"/>
<path d="M39.9062 27.5V23.5634H40.4239V27.5H39.9062Z" fill="#17313B"/>
<path d="M42.874 27.5V24.0279H41.5859V23.5634H44.6837V24.0279H43.3906V27.5H42.873H42.874Z" fill="#17313B"/>
<path d="M44.9268 27.5L46.4271 23.5634H46.9842L48.5836 27.5H47.9942L47.5382 26.3073H45.9044L45.4748 27.5H44.9258H44.9268ZM46.0541 25.8836H47.3785L46.9711 24.7928C46.8467 24.4617 46.7547 24.1898 46.694 23.9759C46.6445 24.2285 46.5737 24.4791 46.4837 24.7276L46.0541 25.8826V25.8836Z" fill="#17313B"/>
<path d="M49.5195 27.5V23.5634H50.0372V27.0355H51.9621V27.5H49.5205H49.5195Z" fill="#17313B"/>
<path d="M54.9844 27.5V23.5634H56.331C56.6354 23.5634 56.8669 23.5817 57.0266 23.6194C57.2501 23.6714 57.4411 23.7651 57.5999 23.9016C57.8061 24.0767 57.9598 24.3008 58.0629 24.5748C58.165 24.8478 58.2166 25.1594 58.2166 25.5108C58.2166 25.8103 58.1822 26.0751 58.1124 26.3053C58.0427 26.5355 57.9547 26.7269 57.8455 26.8787C57.7363 27.0305 57.6181 27.1486 57.4897 27.2362C57.3613 27.3228 57.2056 27.389 57.0236 27.4338C56.8416 27.4786 56.6323 27.501 56.3957 27.501H54.9854L54.9844 27.5ZM55.502 27.0355H56.3361C56.5939 27.0355 56.7961 27.0111 56.9427 26.9632C57.0893 26.9154 57.2066 26.8471 57.2935 26.7595C57.4159 26.6363 57.5119 26.4703 57.5796 26.2615C57.6474 26.0527 57.6828 25.8001 57.6828 25.5027C57.6828 25.0912 57.616 24.7744 57.4816 24.5534C57.3471 24.3324 57.1843 24.1837 56.9922 24.1093C56.8537 24.0554 56.6303 24.0289 56.323 24.0289H55.502V27.0366V27.0355Z" fill="#17313B"/>
<path d="M59.4844 27.5V23.5634H62.3102V24.0279H60.002V25.2338H62.1636V25.6962H60.002V27.0366H62.4011V27.501H59.4844V27.5Z" fill="#17313B"/>
<path d="M63.4844 26.235L63.9727 26.1922C63.9959 26.3888 64.0495 26.5507 64.1334 26.677C64.2174 26.8033 64.3488 26.9052 64.5267 26.9836C64.7047 27.062 64.9048 27.1007 65.1263 27.1007C65.3234 27.1007 65.4973 27.0712 65.6489 27.0121C65.8006 26.9531 65.9128 26.8716 65.9866 26.7687C66.0604 26.6658 66.0968 26.5538 66.0968 26.4316C66.0968 26.3093 66.0614 26.2004 65.9907 26.1077C65.9199 26.016 65.8026 25.9376 65.6388 25.8755C65.5337 25.8347 65.3022 25.7706 64.9433 25.683C64.5844 25.5964 64.3326 25.5139 64.189 25.4375C64.002 25.3387 63.8635 25.2165 63.7715 25.0708C63.6795 24.9252 63.634 24.7612 63.634 24.5809C63.634 24.3823 63.6896 24.1969 63.8018 24.0238C63.9141 23.8506 64.0768 23.7203 64.2922 23.6306C64.5075 23.541 64.7461 23.4962 65.009 23.4962C65.2991 23.4962 65.5539 23.5431 65.7753 23.6368C65.9967 23.7305 66.1666 23.869 66.2859 24.0513C66.4052 24.2336 66.4689 24.4404 66.478 24.6716L65.9826 24.7093C65.9563 24.4607 65.8653 24.2723 65.7116 24.145C65.558 24.0177 65.3305 23.9545 65.0302 23.9545C64.7299 23.9545 64.4893 24.0126 64.3468 24.1277C64.2032 24.2428 64.1324 24.3823 64.1324 24.5453C64.1324 24.6868 64.183 24.803 64.2841 24.8946C64.3832 24.9863 64.643 25.08 65.0636 25.1757C65.4842 25.2715 65.7723 25.355 65.929 25.4263C66.1565 25.5322 66.3243 25.6656 66.4325 25.8276C66.5407 25.9895 66.5953 26.1759 66.5953 26.3878C66.5953 26.5996 66.5356 26.7942 66.4163 26.9795C66.297 27.1649 66.1261 27.3085 65.9027 27.4114C65.6793 27.5143 65.4285 27.5662 65.1495 27.5662C64.7957 27.5662 64.4994 27.5143 64.2608 27.4104C64.0222 27.3065 63.8342 27.1506 63.6987 26.9418C63.5622 26.7331 63.4915 26.4978 63.4844 26.234V26.235Z" fill="#17313B"/>
<path d="M67.9375 27.5V23.5634H68.4551V27.5H67.9375Z" fill="#17313B"/>
<path d="M71.7416 25.9559V25.4935L73.3966 25.4905V26.951C73.1429 27.1547 72.88 27.3085 72.6101 27.4114C72.3401 27.5143 72.0631 27.5662 71.778 27.5662C71.3938 27.5662 71.045 27.4837 70.7316 27.3177C70.4182 27.1517 70.1816 26.9123 70.0209 26.5996C69.8601 26.2869 69.7812 25.9366 69.7812 25.5495C69.7812 25.1625 69.8611 24.8091 70.0198 24.477C70.1786 24.145 70.4081 23.8985 70.7063 23.7376C71.0046 23.5767 71.3483 23.4962 71.7376 23.4962C72.0196 23.4962 72.2754 23.542 72.5039 23.6347C72.7324 23.7274 72.9113 23.8557 73.0407 24.0197C73.1702 24.1837 73.2692 24.3996 73.337 24.6644L72.8709 24.7938C72.8123 24.5931 72.7395 24.4353 72.6525 24.3212C72.5656 24.2071 72.4412 24.1144 72.2795 24.0462C72.1177 23.9769 71.9377 23.9433 71.7406 23.9433C71.504 23.9433 71.2998 23.98 71.1279 24.0523C70.955 24.1246 70.8165 24.2204 70.7104 24.3385C70.6042 24.4567 70.5223 24.586 70.4637 24.7276C70.3646 24.971 70.314 25.2348 70.314 25.52C70.314 25.8714 70.3737 26.1647 70.494 26.401C70.6143 26.6373 70.7882 26.8125 71.0177 26.9276C71.2472 27.0427 71.4909 27.0997 71.7477 27.0997C71.9711 27.0997 72.1905 27.0559 72.4038 26.9693C72.6171 26.8828 72.7789 26.7901 72.8891 26.6913V25.958H71.7406L71.7416 25.9559Z" fill="#17313B"/>
<path d="M74.6992 27.5V23.5634H75.23L77.2824 26.6546V23.5634H77.7777V27.5H77.247L75.1946 24.4057V27.5H74.6992Z" fill="#17313B"/>
<path d="M39.9643 35.2867L40.482 35.4181C40.3738 35.8458 40.1787 36.1728 39.8966 36.3969C39.6145 36.6219 39.2708 36.734 38.8633 36.734C38.4559 36.734 38.1 36.6474 37.8362 36.4753C37.5723 36.3032 37.3711 36.0526 37.2336 35.7246C37.0961 35.3967 37.0273 35.0453 37.0273 34.6694C37.0273 34.259 37.1052 33.9015 37.2609 33.5969C37.4166 33.2914 37.638 33.0602 37.9251 32.9013C38.2122 32.7434 38.5277 32.664 38.8724 32.664C39.2637 32.664 39.5923 32.7638 39.8592 32.9644C40.1261 33.1651 40.3111 33.4472 40.4163 33.8108L39.9067 33.932C39.8157 33.6458 39.6843 33.437 39.5124 33.3067C39.3395 33.1763 39.1232 33.1111 38.8623 33.1111C38.5621 33.1111 38.3113 33.1834 38.1091 33.3291C37.9069 33.4737 37.7654 33.6693 37.6835 33.9127C37.6016 34.1571 37.5612 34.4087 37.5612 34.6684C37.5612 35.0035 37.6097 35.2958 37.7067 35.5454C37.8038 35.7949 37.9544 35.9823 38.1587 36.1056C38.3629 36.2288 38.5843 36.2909 38.8229 36.2909C39.112 36.2909 39.3577 36.2064 39.5589 36.0383C39.7601 35.8703 39.8956 35.6207 39.9664 35.2887L39.9643 35.2867Z" fill="#17313B"/>
<path d="M41.5078 34.7488C41.5078 34.0949 41.6817 33.5836 42.0305 33.2139C42.3783 32.8442 42.8282 32.6588 43.3792 32.6588C43.7401 32.6588 44.0657 32.7454 44.3548 32.9195C44.644 33.0937 44.8654 33.3351 45.017 33.6457C45.1687 33.9564 45.2445 34.3088 45.2445 34.703C45.2445 35.0971 45.1646 35.4597 45.0049 35.7744C44.8452 36.0892 44.6187 36.3285 44.3255 36.4905C44.0323 36.6524 43.7159 36.7339 43.3762 36.7339C43.0082 36.7339 42.6796 36.6443 42.3894 36.465C42.0993 36.2857 41.8799 36.0413 41.7312 35.7317C41.5826 35.422 41.5078 35.0941 41.5078 34.7488ZM42.0406 34.7569C42.0406 35.2316 42.167 35.6054 42.4208 35.8783C42.6745 36.1513 42.992 36.2878 43.3741 36.2878C43.7563 36.2878 44.0839 36.1503 44.3356 35.8743C44.5874 35.5982 44.7127 35.2071 44.7127 34.7009C44.7127 34.3801 44.6591 34.101 44.551 33.8617C44.4438 33.6223 44.2861 33.4369 44.0788 33.3056C43.8716 33.1742 43.639 33.108 43.3812 33.108C43.0152 33.108 42.6998 33.2343 42.4359 33.4879C42.172 33.7415 42.0396 34.1642 42.0396 34.7569H42.0406Z" fill="#17313B"/>
<path d="M46.4414 36.6667V32.7301H47.2199L48.145 35.5178C48.2299 35.7775 48.2926 35.972 48.332 36.1004C48.3765 35.9568 48.4452 35.747 48.5403 35.4689L49.4755 32.7301H50.171V36.6667H49.6726V33.3718L48.5372 36.6667H48.0712L46.9408 33.3147V36.6667H46.4424H46.4414Z" fill="#17313B"/>
<path d="M51.5518 36.6667V32.7301H53.0258C53.2857 32.7301 53.4838 32.7423 53.6203 32.7678C53.8124 32.8004 53.9732 32.8615 54.1026 32.9521C54.232 33.0428 54.3371 33.1691 54.416 33.332C54.4948 33.495 54.5343 33.6743 54.5343 33.8688C54.5343 34.2039 54.4281 34.487 54.2168 34.7193C54.0055 34.9515 53.6234 35.0666 53.0703 35.0666H52.0684V36.6667H51.5508H51.5518ZM52.0694 34.6011H53.0794C53.4131 34.6011 53.6507 34.538 53.7912 34.4127C53.9317 34.2874 54.0015 34.1112 54.0015 33.8841C54.0015 33.7191 53.96 33.5785 53.8771 33.4614C53.7942 33.3443 53.686 33.2669 53.5506 33.2292C53.4636 33.2058 53.3029 33.1945 53.0683 33.1945H52.0684V34.6021L52.0694 34.6011Z" fill="#17313B"/>
<path d="M54.9034 36.6667L56.4037 32.7301H56.9608L58.5602 36.6667H57.9708L57.5148 35.474H55.881L55.4513 36.6667H54.9023H54.9034ZM56.0306 35.0503H57.3551L56.9476 33.9595C56.8233 33.6284 56.7303 33.3565 56.6706 33.1426C56.6211 33.3952 56.5503 33.6457 56.4603 33.8943L56.0306 35.0493V35.0503Z" fill="#17313B"/>
<path d="M59.5156 36.6667V32.7301H60.0464L62.0988 35.8213V32.7301H62.5942V36.6667H62.0634L60.011 33.5724V36.6667H59.5156Z" fill="#17313B"/>
<path d="M65.1119 36.6667V34.9994L63.6055 32.7301H64.2343L65.0047 33.9167C65.1473 34.1387 65.2797 34.3608 65.402 34.5828C65.5193 34.377 65.6619 34.1448 65.8287 33.8871L66.5859 32.7301H67.1885L65.6295 34.9994V36.6667H65.1119Z" fill="#17313B"/>
<path d="M31.9514 74.9986H32.469V77.273C32.469 77.6682 32.4245 77.9829 32.3356 78.2151C32.2466 78.4483 32.0858 78.6368 31.8543 78.7834C31.6228 78.9291 31.3185 79.0024 30.9414 79.0024C30.5643 79.0024 30.2761 78.9393 30.0426 78.8119C29.8101 78.6846 29.6432 78.5013 29.5442 78.2599C29.4451 78.0195 29.3945 77.6906 29.3945 77.273V74.9986H29.9122V77.2709C29.9122 77.6131 29.9435 77.8647 30.0072 78.0267C30.0699 78.1886 30.1791 78.3139 30.3327 78.4015C30.4864 78.4891 30.6745 78.5329 30.8969 78.5329C31.277 78.5329 31.548 78.4463 31.7097 78.2721C31.8715 78.098 31.9524 77.7649 31.9524 77.2709V74.9986H31.9514Z" fill="#17313B"/>
<path d="M33.8711 78.9352V74.9986H34.4019L36.4542 78.0898V74.9986H36.9496V78.9352H36.4188L34.3665 75.8409V78.9352H33.8711Z" fill="#17313B"/>
<path d="M38.4531 78.9352V74.9986H38.9708V78.9352H38.4531Z" fill="#17313B"/>
<path d="M41.4208 78.9352V75.4631H40.1328V74.9986H43.2305V75.4631H41.9375V78.9352H41.4198H41.4208Z" fill="#17313B"/>
<path d="M44.3164 78.9352V74.9986H47.1422V75.4631H44.834V76.669H46.9956V77.1314H44.834V78.4718H47.2332V78.9362H44.3164V78.9352Z" fill="#17313B"/>
<path d="M48.4961 78.9352V74.9986H49.8428C50.1471 74.9986 50.3786 75.0169 50.5383 75.0546C50.7618 75.1066 50.9529 75.2003 51.1116 75.3368C51.3178 75.5119 51.4715 75.736 51.5736 76.01C51.6757 76.283 51.7273 76.5946 51.7273 76.946C51.7273 77.2455 51.6929 77.5103 51.6232 77.7405C51.5534 77.9707 51.4654 78.1621 51.3562 78.3139C51.2481 78.4657 51.1288 78.5838 51.0004 78.6714C50.872 78.758 50.7163 78.8242 50.5343 78.869C50.3523 78.9138 50.143 78.9362 49.9065 78.9362H48.4961V78.9352ZM49.0137 78.4707H49.8478C50.1056 78.4707 50.3078 78.4463 50.4544 78.3984C50.601 78.3506 50.7183 78.2823 50.8052 78.1947C50.9276 78.0715 51.0236 77.9055 51.0914 77.6967C51.1601 77.4879 51.1945 77.2353 51.1945 76.9379C51.1945 76.5264 51.1278 76.2096 50.9933 75.9886C50.8588 75.7676 50.6961 75.6189 50.504 75.5445C50.3655 75.4906 50.142 75.4641 49.8347 75.4641H49.0137V78.4718V78.4707Z" fill="#17313B"/>
<path d="M54.8711 77.6702L55.3594 77.6274C55.3827 77.824 55.4363 77.9859 55.5202 78.1122C55.6041 78.2385 55.7355 78.3404 55.9135 78.4188C56.0914 78.4972 56.2916 78.5359 56.513 78.5359C56.7101 78.5359 56.884 78.5064 57.0357 78.4473C57.1873 78.3883 57.2995 78.3068 57.3733 78.2039C57.4471 78.101 57.4835 77.989 57.4835 77.8668C57.4835 77.7445 57.4482 77.6356 57.3774 77.5429C57.3066 77.4512 57.1893 77.3728 57.0256 77.3107C56.9204 77.2699 56.6889 77.2057 56.33 77.1182C55.9711 77.0316 55.7193 76.9491 55.5758 76.8727C55.3887 76.7739 55.2502 76.6517 55.1582 76.506C55.0662 76.3604 55.0207 76.1964 55.0207 76.0161C55.0207 75.8175 55.0763 75.6321 55.1886 75.459C55.3008 75.2858 55.4636 75.1555 55.6789 75.0658C55.8942 74.9762 56.1328 74.9314 56.3957 74.9314C56.6859 74.9314 56.9406 74.9782 57.162 75.072C57.3835 75.1657 57.5533 75.3042 57.6726 75.4865C57.7919 75.6688 57.8556 75.8756 57.8647 76.1068L57.3693 76.1444C57.343 75.8959 57.252 75.7075 57.0984 75.5802C56.9447 75.4529 56.7172 75.3897 56.4169 75.3897C56.1167 75.3897 55.876 75.4478 55.7335 75.5629C55.5899 75.678 55.5192 75.8175 55.5192 75.9805C55.5192 76.122 55.5697 76.2382 55.6708 76.3298C55.7699 76.4215 56.0297 76.5152 56.4503 76.6109C56.8709 76.7067 57.159 76.7902 57.3157 76.8615C57.5432 76.9674 57.711 77.1008 57.8192 77.2628C57.9274 77.4247 57.982 77.6111 57.982 77.823C57.982 78.0348 57.9223 78.2294 57.803 78.4147C57.6837 78.6001 57.5129 78.7437 57.2894 78.8466C57.066 78.9495 56.8153 79.0014 56.5362 79.0014C56.1824 79.0014 55.8862 78.9495 55.6476 78.8456C55.409 78.7417 55.2209 78.5858 55.0854 78.377C54.9489 78.1683 54.8782 77.933 54.8711 77.6692V77.6702Z" fill="#17313B"/>
<path d="M60.2294 78.9352V75.4631H58.9414V74.9986H62.0391V75.4631H60.7461V78.9352H60.2284H60.2294Z" fill="#17313B"/>
<path d="M62.2823 78.9352L63.7826 74.9986H64.3397L65.9391 78.9352H65.3497L64.8937 77.7425H63.2599L62.8302 78.9352H62.2812H62.2823ZM63.4095 77.3188H64.734L64.3265 76.228C64.2022 75.8969 64.1102 75.625 64.0495 75.4111C64 75.6637 63.9292 75.9143 63.8392 76.1628L63.4095 77.3178V77.3188Z" fill="#17313B"/>
<path d="M67.4872 78.9352V75.4631H66.1992V74.9986H69.297V75.4631H68.0039V78.9352H67.4862H67.4872Z" fill="#17313B"/>
<path d="M70.3828 78.9352V74.9986H73.2086V75.4631H70.9004V76.669H73.062V77.1314H70.9004V78.4718H73.2996V78.9362H70.3828V78.9352Z" fill="#17313B"/>
<path d="M74.3828 77.6702L74.8711 77.6274C74.8944 77.824 74.948 77.9859 75.0319 78.1122C75.1158 78.2385 75.2472 78.3404 75.4252 78.4188C75.6031 78.4972 75.8033 78.5359 76.0247 78.5359C76.2218 78.5359 76.3957 78.5064 76.5474 78.4473C76.699 78.3883 76.8113 78.3068 76.8851 78.2039C76.9589 78.101 76.9953 77.989 76.9953 77.8668C76.9953 77.7445 76.9599 77.6356 76.8891 77.5429C76.8183 77.4512 76.7011 77.3728 76.5373 77.3107C76.4321 77.2699 76.2006 77.2057 75.8417 77.1182C75.4828 77.0316 75.2311 76.9491 75.0875 76.8727C74.9005 76.7739 74.7619 76.6517 74.6699 76.506C74.5779 76.3604 74.5324 76.1964 74.5324 76.0161C74.5324 75.8175 74.588 75.6321 74.7003 75.459C74.8125 75.2858 74.9753 75.1555 75.1906 75.0658C75.406 74.9762 75.6446 74.9314 75.9074 74.9314C76.1976 74.9314 76.4524 74.9782 76.6738 75.072C76.8952 75.1657 77.065 75.3042 77.1843 75.4865C77.3036 75.6688 77.3673 75.8756 77.3764 76.1068L76.881 76.1444C76.8547 75.8959 76.7637 75.7075 76.6101 75.5802C76.4564 75.4529 76.2289 75.3897 75.9287 75.3897C75.6284 75.3897 75.3878 75.4478 75.2452 75.5629C75.1016 75.678 75.0309 75.8175 75.0309 75.9805C75.0309 76.122 75.0814 76.2382 75.1825 76.3298C75.2816 76.4215 75.5414 76.5152 75.962 76.6109C76.3826 76.7067 76.6707 76.7902 76.8274 76.8615C77.0549 76.9674 77.2227 77.1008 77.3309 77.2628C77.4391 77.4247 77.4937 77.6111 77.4937 77.823C77.4937 78.0348 77.434 78.2294 77.3147 78.4147C77.1954 78.6001 77.0246 78.7437 76.8012 78.8466C76.5777 78.9495 76.327 79.0014 76.048 79.0014C75.6941 79.0014 75.3979 78.9495 75.1593 78.8456C74.9207 78.7417 74.7326 78.5858 74.5972 78.377C74.4607 78.1683 74.3899 77.933 74.3828 77.6692V77.6702Z" fill="#17313B"/>
<path d="M46.3415 87.6374V88.1019H43.7583C43.7543 87.9857 43.7735 87.8737 43.8139 87.7657C43.8797 87.5885 43.9848 87.4144 44.1294 87.2422C44.274 87.0701 44.4832 86.8715 44.7572 86.6464C45.1818 86.295 45.469 86.018 45.6186 85.8122C45.7682 85.6075 45.842 85.413 45.842 85.2307C45.842 85.0392 45.7743 84.8772 45.6378 84.7458C45.5023 84.6144 45.3244 84.5482 45.106 84.5482C44.8745 84.5482 44.6905 84.6185 44.552 84.7581C44.4135 84.8976 44.3427 85.0911 44.3417 85.3386L43.8483 85.2877C43.8817 84.9169 44.0091 84.6348 44.2295 84.4403C44.4499 84.2457 44.7461 84.149 45.1171 84.149C45.4882 84.149 45.7885 84.2539 46.0078 84.4627C46.2272 84.6715 46.3354 84.9322 46.3354 85.2419C46.3354 85.3997 46.3031 85.5545 46.2394 85.7063C46.1757 85.8581 46.0695 86.019 45.9209 86.187C45.7723 86.3551 45.5256 86.5863 45.1808 86.8796C44.8927 87.1231 44.7077 87.2881 44.6268 87.3746C44.5449 87.4612 44.4772 87.5488 44.4246 87.6364H46.3415V87.6374Z" fill="#17313B"/>
<path d="M47.4023 86.1606C47.4023 85.6951 47.4499 85.3203 47.5449 85.0371C47.6399 84.754 47.7815 84.534 47.9685 84.3802C48.1555 84.2264 48.3921 84.149 48.6762 84.149C48.8855 84.149 49.0695 84.1918 49.2282 84.2763C49.3859 84.3619 49.5174 84.4841 49.6205 84.644C49.7236 84.8039 49.8045 84.9994 49.8631 85.2296C49.9218 85.4598 49.9511 85.7694 49.9511 86.1606C49.9511 86.623 49.9036 86.9957 49.8096 87.2789C49.7155 87.5631 49.574 87.782 49.387 87.9369C49.1999 88.0917 48.9623 88.1691 48.6762 88.1691C48.2991 88.1691 48.0039 88.0326 47.7886 87.7607C47.5307 87.4327 47.4023 86.899 47.4023 86.1606ZM47.8957 86.1606C47.8957 86.8073 47.9705 87.2371 48.1212 87.451C48.2718 87.6649 48.4568 87.7719 48.6772 87.7719C48.8976 87.7719 49.0826 87.6649 49.2333 87.45C49.3839 87.2351 49.4587 86.8053 49.4587 86.1606C49.4587 85.5158 49.3839 85.082 49.2333 84.8691C49.0826 84.6562 48.8966 84.5493 48.6722 84.5493C48.4477 84.5493 48.2759 84.643 48.1444 84.8314C47.9796 85.0718 47.8967 85.5148 47.8967 86.1606H47.8957Z" fill="#17313B"/>
<path d="M53.5055 87.6374V88.1019H50.9224C50.9184 87.9857 50.9376 87.8737 50.978 87.7657C51.0437 87.5885 51.1489 87.4144 51.2934 87.2422C51.438 87.0701 51.6473 86.8715 51.9213 86.6464C52.3459 86.295 52.633 86.018 52.7827 85.8122C52.9323 85.6075 53.0061 85.413 53.0061 85.2307C53.0061 85.0392 52.9384 84.8772 52.8019 84.7458C52.6664 84.6144 52.4885 84.5482 52.2701 84.5482C52.0386 84.5482 51.8546 84.6185 51.716 84.7581C51.5775 84.8976 51.5068 85.0911 51.5058 85.3386L51.0124 85.2877C51.0457 84.9169 51.1731 84.6348 51.3935 84.4403C51.6139 84.2457 51.9102 84.149 52.2812 84.149C52.6522 84.149 52.9525 84.2539 53.1719 84.4627C53.3913 84.6715 53.4995 84.9322 53.4995 85.2419C53.4995 85.3997 53.4671 85.5545 53.4034 85.7063C53.3397 85.8581 53.2336 86.019 53.085 86.187C52.9363 86.3551 52.6897 86.5863 52.3449 86.8796C52.0568 87.1231 51.8717 87.2881 51.7909 87.3746C51.709 87.4612 51.6412 87.5488 51.5887 87.6364H53.5055V87.6374Z" fill="#17313B"/>
<path d="M54.5703 87.063L55.0505 86.9988C55.1051 87.2728 55.1992 87.4704 55.3316 87.5906C55.464 87.7118 55.6248 87.7719 55.8159 87.7719C56.0413 87.7719 56.2324 87.6934 56.3881 87.5356C56.5438 87.3777 56.6217 87.1832 56.6217 86.9499C56.6217 86.7167 56.5499 86.5445 56.4053 86.4009C56.2607 86.2573 56.0787 86.185 55.8563 86.185C55.7653 86.185 55.6531 86.2033 55.5176 86.239L55.5712 85.8143C55.6036 85.8183 55.6288 85.8194 55.648 85.8194C55.8523 85.8194 56.0363 85.7654 56.2001 85.6584C56.3638 85.5515 56.4457 85.3855 56.4457 85.1614C56.4457 84.9842 56.3861 84.8375 56.2668 84.7214C56.1475 84.6053 55.9938 84.5472 55.8058 84.5472C55.6177 84.5472 55.464 84.6063 55.3397 84.7245C55.2153 84.8426 55.1355 85.0198 55.1001 85.2561L54.6199 85.1706C54.6785 84.8467 54.8119 84.5951 55.0202 84.4169C55.2285 84.2386 55.4863 84.15 55.7957 84.15C56.009 84.15 56.2051 84.1958 56.3851 84.2885C56.565 84.3812 56.7015 84.5065 56.7966 84.6664C56.8916 84.8253 56.9391 84.9954 56.9391 85.1736C56.9391 85.3519 56.8936 85.4985 56.8036 85.6381C56.7137 85.7776 56.5792 85.8886 56.4013 85.9711C56.6328 86.0251 56.8117 86.1361 56.9401 86.3052C57.0685 86.4743 57.1322 86.6861 57.1322 86.9407C57.1322 87.285 57.0079 87.5763 56.7592 87.8146C56.5104 88.054 56.196 88.1732 55.8159 88.1732C55.4731 88.1732 55.188 88.0703 54.9616 87.8645C54.7351 87.6588 54.6057 87.392 54.5733 87.064L54.5703 87.063Z" fill="#17313B"/>
</svg>
