<svg width="120" height="110" viewBox="0 0 120 110" fill="none" xmlns="http://www.w3.org/2000/svg">
<path fill-rule="evenodd" clip-rule="evenodd" d="M119.979 60.5705C100.063 63.8771 80.0423 65.5198 59.9789 65.5198C39.9154 65.5198 19.9154 63.8771 0 60.5705C2.21987 56.8849 4.4186 53.1572 6.65962 49.4084C4.4186 45.0067 2.21987 40.5629 0 36.1401C19.9154 39.4467 39.9366 41.0894 60 41.0894C80.0634 41.0894 100.085 39.4467 120 36.1401C117.78 40.5839 115.581 45.0067 113.34 49.3873C115.56 53.1361 117.78 56.8428 119.979 60.5705Z" fill="#686C6E"/>
<path fill-rule="evenodd" clip-rule="evenodd" d="M108.394 53.7048C76.2378 57.9802 43.7854 57.9802 11.6289 53.7048C14.9693 57.0324 18.2885 60.2758 21.6289 63.4981C47.168 66.2149 72.8763 66.2149 98.4365 63.4981C101.735 60.2758 105.054 56.9903 108.394 53.7048Z" fill="#5B5B5B"/>
<path fill-rule="evenodd" clip-rule="evenodd" d="M25.6016 14.3634V95.6577L59.999 105.219L94.3965 95.6577V14.3634L59.999 4.80188L25.6016 14.3634Z" fill="#5B5B5B"/>
<path fill-rule="evenodd" clip-rule="evenodd" d="M24.0382 96.816V13.184L59.979 3.20123L95.9198 13.184V96.816L59.979 106.799L24.0382 96.816ZM60.0001 0L20.9727 10.8463V99.1537L60.0001 110L99.0276 99.1537V10.8463L60.0001 0Z" fill="#F7A939"/>
<path fill-rule="evenodd" clip-rule="evenodd" d="M108.392 53.8311C76.2355 58.1275 43.7619 58.6119 11.6055 54.3366V29.9061C43.7619 34.1815 76.2355 33.6971 108.392 29.4218V53.8311Z" fill="#858789"/>
<path fill-rule="evenodd" clip-rule="evenodd" d="M27.6757 52.8202C29.1556 52.9466 30.6355 53.0729 32.1366 53.1993V39.8468C33.5108 39.9521 34.885 40.0364 36.2592 40.1417V36.8562C32.0309 36.5614 27.8025 36.2033 23.5742 35.7821V39.0676C24.9484 39.215 26.3226 39.3414 27.6757 39.4677V52.8202ZM35.3713 45.112C35.3713 42.4373 36.0901 40.3523 37.4854 38.9412C38.8808 37.5301 40.9738 36.8351 43.7433 36.9404C46.4918 37.0457 48.5848 37.9092 49.9801 39.4256C51.3755 40.942 52.1154 43.1112 52.1154 45.7649C52.1154 48.4185 51.3755 50.5457 49.9801 51.9988C48.5848 53.452 46.4706 54.2313 43.7433 54.126C41.0161 54.0207 38.9231 53.0729 37.5066 51.5144C36.1112 49.956 35.3713 47.7446 35.3713 45.112ZM39.9801 45.3647C39.9801 46.7337 40.255 48.0816 40.8469 49.0925C41.4601 50.1034 42.3903 50.7984 43.7645 50.8616C45.1176 50.9247 46.0689 50.2929 46.6609 49.3241C47.274 48.3553 47.5488 47.0285 47.5488 45.6596C47.5488 44.2906 47.274 42.8796 46.6609 41.8897C46.0478 40.8999 45.1176 40.268 43.7645 40.2049C42.4114 40.1417 41.4601 40.7103 40.8469 41.658C40.2338 42.6058 39.9801 43.9326 39.9801 45.3647ZM52.2846 54.0838C53.7645 54.1049 55.2444 54.126 56.7243 54.147V48.3343H58.4579C60.5298 48.3343 62.2 47.8288 63.3205 46.9022C64.441 45.9755 65.0753 44.6276 65.0753 42.9427C65.0753 41.0683 64.4622 39.7205 63.236 38.8359C62.0097 37.9514 60.1281 37.5301 57.5911 37.5091C55.8152 37.5091 54.0393 37.467 52.2846 37.4459V45.7649C52.2846 48.5449 52.2846 51.3249 52.2846 54.0838ZM56.7243 40.6682H57.866C59.3882 40.6682 60.6144 41.2158 60.6144 42.9006C60.6144 44.5855 59.3882 45.1962 57.866 45.1962H56.7243V40.6682ZM77.5066 53.8101C78.9865 53.7469 80.4664 53.6626 81.9463 53.5995V36.9615C80.6355 37.0247 79.3247 37.0879 78.0351 37.151C76.1324 38.4568 74.2507 39.7415 72.3691 41.0262C73.0245 42.0161 73.6799 42.9849 74.3565 43.9747C75.4135 43.1955 76.4706 42.3952 77.5277 41.6159V47.7235C77.5277 49.7664 77.5066 51.7672 77.5066 53.8101ZM89.663 53.3046C92.4326 53.0729 94.0393 51.8304 94.9696 50.1244C95.8998 48.4185 96.1535 46.2493 96.1535 44.08C96.1535 41.9108 95.8998 39.8047 94.9696 38.2883C94.0393 36.772 92.4114 35.8663 89.663 36.098C86.8935 36.3297 85.2655 37.5091 84.3353 39.1729C83.4051 40.8367 83.1725 43.0059 83.1725 45.1541C83.1725 47.3023 83.4051 49.4505 84.3353 51.009C85.2655 52.5675 86.8935 53.5363 89.663 53.3046ZM89.663 50.314C88.6482 50.3982 88.1197 49.7032 87.8237 48.6502C87.5277 47.5972 87.4854 46.2072 87.4854 44.8803C87.4854 43.5535 87.5277 42.1635 87.8237 41.0683C88.1197 39.9732 88.6694 39.1939 89.663 39.1097C90.6778 39.0255 91.2064 39.7205 91.5023 40.7524C91.7983 41.7844 91.8406 43.1955 91.8406 44.5223C91.8406 45.8491 91.7983 47.2602 91.5023 48.3553C91.2064 49.4505 90.6567 50.2297 89.663 50.314Z" fill="white"/>
<path fill-rule="evenodd" clip-rule="evenodd" d="M39.4511 94.7942C40.8464 95.2365 42.6857 95.4681 44.1657 95.4681C47.6752 95.4681 51.1213 94.373 51.1213 90.2872C51.1213 84.6008 43.6583 86.3278 43.6583 83.7795C43.6583 82.4105 45.4342 82.3052 46.4912 82.3052C47.6963 82.3052 48.9225 82.5369 50.0008 83.0213L50.2756 79.7779C49.2185 79.4199 47.7175 79.1882 46.1953 79.1882C43.024 79.1882 39.3242 80.2202 39.3242 84.0111C39.3242 89.7396 46.7872 87.8863 46.7872 90.8137C46.7872 92.0774 45.5187 92.3512 44.1868 92.3512C42.4532 92.3512 40.931 91.9089 39.8316 91.3192L39.4511 94.7942Z" fill="white"/>
<path fill-rule="evenodd" clip-rule="evenodd" d="M51.5 95.1944H62.8742V92.2248H55.7072V88.6656H62.24V85.6749H55.7072V82.4316H62.6205V79.462H51.5V95.1944Z" fill="white"/>
<path fill-rule="evenodd" clip-rule="evenodd" d="M62.8555 87.3386C62.8555 92.3511 65.625 95.4681 70.7836 95.4681C75.9422 95.4681 78.7117 92.33 78.7117 87.3386C78.7117 82.3473 76.0056 79.2092 70.7836 79.2092C65.5827 79.1882 62.8555 82.2841 62.8555 87.3386ZM67.2106 87.3386C67.2106 84.6008 68.2254 82.3051 70.7836 82.3051C73.3417 82.3051 74.3565 84.6008 74.3565 87.3386C74.3565 89.9291 73.3417 92.3721 70.7836 92.3721C68.2254 92.3511 67.2106 89.9291 67.2106 87.3386Z" fill="white"/>
<path fill-rule="evenodd" clip-rule="evenodd" d="M40.7399 69.7109H41.8393V66.1938H44.7145V65.225H41.8393V62.9715H44.8414V62.0027H40.7399V69.7109ZM45.4545 69.7109H46.5538V62.0027H45.4545V69.7109ZM47.6532 69.7109H48.7526V63.3927H48.7737L52.2621 69.732H53.6786V62.0237H52.5792V68.2156H52.5581L49.1543 62.0237H47.6532V69.7109ZM54.6934 69.7109H56.9767C59.5137 69.7109 61.0993 68.3841 61.0993 65.7936C61.0993 63.4138 59.2811 62.0027 56.9767 62.0027H54.6934V69.7109ZM55.8139 62.9925H57.1035C58.6892 62.9925 59.9365 64.0456 59.9365 65.8568C59.9365 67.8365 58.8794 68.7632 56.9767 68.7632H55.8139V62.9925ZM40.7399 78.2405H42.7906C44.3551 78.2405 45.7293 77.8403 45.7293 76.1976C45.7293 75.1235 44.9894 74.4285 43.9323 74.3443V74.3232C44.9048 74.0705 45.5179 73.5439 45.5179 72.4909C45.5179 71.0588 44.4185 70.5533 42.8118 70.5533H40.7188V78.2405H40.7399ZM41.8393 74.7233H42.5581C43.5094 74.7233 44.5665 74.8918 44.5665 76.0712C44.5665 77.1032 43.6786 77.3138 42.6638 77.3138H41.8393V74.7233ZM41.8393 71.4379H43.002C43.6363 71.4379 44.4397 71.6695 44.4397 72.5752C44.4397 73.7124 43.5306 73.8177 42.4524 73.8177H41.8393V71.4379ZM46.3001 78.2405H50.6342V77.2717H47.4207V74.7444H50.3593V73.7756H47.4207V71.5221H50.6342V70.5533H46.3001V78.2405ZM55.1796 70.6797C54.6511 70.4901 54.038 70.4059 53.5306 70.4059C52.1352 70.4059 51.057 71.143 51.057 72.512C51.057 74.9129 54.3763 74.4285 54.3763 76.1555C54.3763 77.0611 53.4883 77.4191 52.8541 77.4191C52.2832 77.4191 51.6278 77.2085 51.2473 77.04L51.1416 78.072C51.649 78.2405 52.1775 78.3879 52.7272 78.3879C54.2705 78.3879 55.5602 77.735 55.5602 76.0923C55.5602 73.565 52.2409 73.902 52.2409 72.4277C52.2409 71.6274 52.9809 71.3958 53.594 71.3958C54.1648 71.3958 54.482 71.5011 55.0528 71.7117L55.1796 70.6797ZM57.7166 78.2405V71.5221H55.3065V70.5533H61.2262V71.5221H58.816V78.2405H57.7166Z" fill="white"/>
<path fill-rule="evenodd" clip-rule="evenodd" d="M70.4652 61.6447C75.1164 61.6447 78.8796 65.3935 78.8796 70.0268C78.8796 74.6602 75.1164 78.409 70.4652 78.409C65.8141 78.409 62.0509 74.6602 62.0509 70.0268C62.0297 65.3935 65.8141 61.6447 70.4652 61.6447ZM73.7845 65.4777C73.9325 65.6883 74.2496 65.7515 74.461 65.6041C74.6724 65.4566 74.7359 65.1407 74.5879 64.9301C70.0424 61.2866 65.349 64.2772 68.4568 67.7101C71.5858 71.1641 78.9642 69.753 75.3701 66.1095C77.8225 70.8482 71.0361 69.058 69.535 67.7944C66.3215 65.0986 69.5984 62.3818 73.7845 65.4777ZM67.6746 67.2679C67.7168 66.9941 67.5477 66.7413 67.294 66.6992C67.0192 66.6571 66.7655 66.8256 66.7232 67.0783C66.4906 69.3739 67.1037 71.0377 68.1397 72.0065C67.9282 72.0065 67.7168 72.1539 67.6534 72.3645C67.5054 73.3965 67.3786 73.4386 67.7803 74.3864C68.0974 73.7967 68.3299 73.2491 68.6048 72.6173C68.6259 72.533 68.6259 72.4488 68.6048 72.3645C70.5287 73.6492 73.4674 72.8911 75.3701 69.6688L74.5667 70.4901C70.9726 73.902 66.9557 72.3224 67.6746 67.2679ZM70.3384 73.902C70.5075 73.6914 70.4864 73.3965 70.275 73.228C70.0636 73.0595 69.7676 73.0806 69.5984 73.2912C69.1967 74.0073 69.0276 74.1758 69.1756 74.9761C69.5984 74.618 69.9156 74.2811 70.3384 73.902ZM66.554 66.4254C66.7655 66.5939 67.0826 66.5518 67.2306 66.3412C67.3997 66.1306 67.3574 65.8147 67.146 65.6672C63.9536 63.7928 62.8965 68.4894 66.0889 68.8685C63.7633 67.0783 65.0318 65.3513 66.554 66.4254ZM75.9621 69.7109C75.7084 69.6056 75.4335 69.732 75.3278 69.9847C75.2221 70.2374 75.349 70.5112 75.6027 70.6165C76.4695 71.0167 77.4843 73.1017 73.7211 72.3224C76.554 74.7233 78.5625 71.2062 75.9621 69.7109ZM66.998 73.3965C67.2729 73.3965 67.5054 73.1649 67.5054 72.87C67.5054 72.5962 67.2729 72.3645 66.9769 72.3645C63.2559 72.7226 66.1735 77.9667 70.2538 76.6399C71.4589 76.2397 71.4589 75.1446 70.5075 74.3864C70.7401 75.0393 71.1841 75.7764 70.275 76.1133C67.5477 77.1032 64.757 73.5018 66.998 73.3965Z" fill="#F7A939"/>
<path d="M46.0631 26.7997L46.9616 27.0251C46.7734 27.7601 46.433 28.3224 45.9447 28.7078C45.4542 29.0932 44.8559 29.287 44.1476 29.287C43.4394 29.287 42.8199 29.1375 42.3612 28.8405C41.9024 28.5435 41.5535 28.1139 41.3125 27.5495C41.0736 26.9872 40.9531 26.3806 40.9531 25.734C40.9531 25.0285 41.0884 24.4135 41.359 23.8891C41.6297 23.3647 42.0144 22.9646 42.5134 22.6929C43.0123 22.4212 43.562 22.2843 44.1624 22.2843C44.8432 22.2843 45.414 22.457 45.877 22.8024C46.34 23.1478 46.6635 23.6322 46.8453 24.2577L45.9595 24.4662C45.8009 23.9734 45.5726 23.6153 45.2724 23.39C44.9722 23.1646 44.5958 23.053 44.1413 23.053C43.6191 23.053 43.1815 23.1773 42.8305 23.4279C42.4796 23.6764 42.2322 24.0113 42.0905 24.4325C41.9489 24.8537 41.877 25.2855 41.877 25.7319C41.877 26.3069 41.9616 26.8102 42.1307 27.2399C42.2998 27.6695 42.562 27.9896 42.9172 28.2024C43.2724 28.4151 43.6571 28.5204 44.0715 28.5204C44.5747 28.5204 45.0017 28.3751 45.3506 28.0865C45.6994 27.798 45.9362 27.3684 46.0609 26.7976L46.0631 26.7997Z" fill="white"/>
<path d="M47.4474 26.7218C47.4474 25.8141 47.7011 25.1401 48.2085 24.7042C48.6314 24.3419 49.1472 24.1587 49.7561 24.1587C50.4326 24.1587 50.9865 24.3798 51.4157 24.8221C51.8449 25.2644 52.0605 25.8751 52.0605 26.6523C52.0605 27.2841 51.9654 27.779 51.7751 28.1413C51.5848 28.5035 51.3079 28.7836 50.9443 28.9837C50.5806 29.1838 50.1853 29.2849 49.7561 29.2849C49.0669 29.2849 48.5087 29.0658 48.0838 28.6236C47.6588 28.1813 47.4453 27.5495 47.4453 26.7197L47.4474 26.7218ZM48.3058 26.7218C48.3058 27.3494 48.4432 27.8211 48.718 28.1328C48.9929 28.4445 49.3396 28.6025 49.7561 28.6025C50.1726 28.6025 50.5151 28.4445 50.7899 28.1307C51.0648 27.8169 51.2022 27.3389 51.2022 26.6944C51.2022 26.0879 51.0648 25.6287 50.7878 25.3149C50.5109 25.0032 50.1662 24.8453 49.7561 24.8453C49.3459 24.8453 48.9929 25.0011 48.718 25.3107C48.4432 25.6224 48.3058 26.0921 48.3058 26.7197V26.7218Z" fill="white"/>
<path d="M52.8302 29.1753V24.2703H53.5765V24.959C53.7309 24.7189 53.9359 24.5251 54.1939 24.3798C54.4497 24.2345 54.7414 24.1608 55.0691 24.1608C55.4349 24.1608 55.733 24.2366 55.9655 24.3882C56.1981 24.5399 56.363 24.7505 56.4603 25.02C56.8493 24.4472 57.3567 24.1608 57.9803 24.1608C58.4687 24.1608 58.845 24.2956 59.1072 24.5651C59.3694 24.8347 59.5004 25.2496 59.5004 25.8098V29.1774H58.6696V26.0878C58.6696 25.7551 58.6421 25.5171 58.5892 25.3696C58.5343 25.2243 58.437 25.1064 58.2954 25.0158C58.1537 24.9253 57.9867 24.881 57.7943 24.881C57.4476 24.881 57.16 24.9948 56.9317 25.2243C56.7034 25.4539 56.5892 25.8203 56.5892 26.3258V29.1753H55.7541V25.9888C55.7541 25.6203 55.6865 25.3423 55.5512 25.1569C55.4159 24.9716 55.1918 24.8789 54.8831 24.8789C54.6484 24.8789 54.4307 24.94 54.2319 25.0643C54.0332 25.1864 53.8873 25.3675 53.7985 25.6055C53.7097 25.8435 53.6632 26.1847 53.6632 26.6312V29.1753H52.8281H52.8302Z" fill="white"/>
<path d="M60.5295 31.0539V24.2703H61.2906V24.9084C61.4703 24.6599 61.6732 24.4725 61.8973 24.3482C62.1235 24.2239 62.3963 24.1608 62.7176 24.1608C63.1383 24.1608 63.5083 24.2682 63.8297 24.4851C64.151 24.6999 64.3942 25.0053 64.5569 25.397C64.7197 25.7888 64.8022 26.2205 64.8022 26.6881C64.8022 27.1893 64.7113 27.6421 64.5316 28.0444C64.3498 28.4466 64.0876 28.7541 63.743 28.9689C63.3984 29.1837 63.0369 29.289 62.6563 29.289C62.3772 29.289 62.1278 29.2301 61.9079 29.1142C61.6859 28.9963 61.5062 28.8489 61.3624 28.6699V31.0581H60.5273L60.5295 31.0539ZM61.2842 26.7491C61.2842 27.3809 61.4132 27.8464 61.669 28.1476C61.9248 28.4487 62.2356 28.6004 62.6013 28.6004C62.9671 28.6004 63.2906 28.4445 63.5548 28.1307C63.8191 27.819 63.9523 27.3346 63.9523 26.6775C63.9523 26.0204 63.8233 25.5845 63.5654 25.2728C63.3075 24.9611 62.9988 24.8073 62.6394 24.8073C62.28 24.8073 61.9692 24.9737 61.6965 25.3044C61.4237 25.635 61.2863 26.1173 61.2863 26.747L61.2842 26.7491Z" fill="white"/>
<path d="M68.815 28.5688C68.5064 28.83 68.2083 29.0153 67.9228 29.1227C67.6374 29.2301 67.3309 29.2849 67.0032 29.2849C66.462 29.2849 66.0476 29.1543 65.7558 28.8889C65.4662 28.6257 65.3203 28.2887 65.3203 27.8801C65.3203 27.64 65.3753 27.421 65.4852 27.223C65.5952 27.0251 65.7389 26.865 65.9165 26.7449C66.0941 26.6249 66.2949 26.5343 66.5169 26.4733C66.6797 26.429 66.9271 26.389 67.259 26.349C67.9334 26.269 68.4281 26.1742 68.7474 26.0626C68.7495 25.9489 68.7516 25.8772 68.7516 25.8457C68.7516 25.5066 68.6734 25.2686 68.5148 25.1296C68.3013 24.9421 67.9842 24.8474 67.5634 24.8474C67.1702 24.8474 66.8806 24.9169 66.6945 25.0538C66.5085 25.1907 66.3689 25.4329 66.2801 25.7804L65.4641 25.6687C65.5381 25.3212 65.6607 25.039 65.8298 24.8263C65.999 24.6115 66.2463 24.4472 66.5677 24.3314C66.889 24.2156 67.2611 24.1587 67.6861 24.1587C68.111 24.1587 68.4472 24.2071 68.7114 24.3061C68.9757 24.4051 69.1681 24.5294 69.2907 24.6789C69.4133 24.8284 69.5 25.0159 69.5508 25.2454C69.5782 25.3865 69.593 25.6435 69.593 26.012V27.1198C69.593 27.8928 69.61 28.3814 69.6459 28.5856C69.6818 28.7899 69.7516 28.9858 69.8573 29.1753H68.9863C68.8996 29.0027 68.8446 28.8005 68.8193 28.5709L68.815 28.5688ZM68.7453 26.7112C68.4429 26.8334 67.9884 26.9387 67.3816 27.0251C67.0391 27.0735 66.796 27.1304 66.6544 27.1914C66.5127 27.2525 66.4028 27.3431 66.3245 27.461C66.2463 27.5789 66.2083 27.7116 66.2083 27.857C66.2083 28.0781 66.2928 28.2634 66.462 28.4108C66.6311 28.5583 66.8763 28.632 67.2019 28.632C67.5275 28.632 67.8087 28.5625 68.0603 28.4214C68.3119 28.2803 68.4937 28.0886 68.6121 27.8464C68.7009 27.659 68.7474 27.381 68.7474 27.0145V26.7091L68.7453 26.7112Z" fill="white"/>
<path d="M70.6719 29.1753V24.2703H71.4224V24.9674C71.7839 24.4283 72.3061 24.1587 72.989 24.1587C73.285 24.1587 73.5577 24.2113 73.8072 24.3188C74.0567 24.4241 74.2427 24.5652 74.3653 24.7358C74.4879 24.9085 74.5746 25.1127 74.6254 25.3507C74.6571 25.5045 74.6719 25.774 74.6719 26.1595V29.1753H73.8368V26.191C73.8368 25.852 73.8051 25.5992 73.7395 25.4308C73.674 25.2623 73.5598 25.1296 73.3949 25.0285C73.23 24.9295 73.0355 24.879 72.8135 24.879C72.4583 24.879 72.1518 24.9906 71.8939 25.2159C71.6359 25.4413 71.507 25.8667 71.507 26.4943V29.1732H70.6719V29.1753Z" fill="white"/>
<path d="M75.705 31.0646L75.612 30.2832C75.7938 30.3317 75.9545 30.3569 76.0898 30.3569C76.2759 30.3569 76.4239 30.3253 76.5359 30.2643C76.648 30.2032 76.7389 30.1168 76.8086 30.0052C76.8615 29.9231 76.9461 29.7167 77.0645 29.386C77.0793 29.3397 77.1046 29.2723 77.1385 29.1838L75.2695 24.2704H76.1681L77.1934 27.1115C77.3266 27.4716 77.445 27.8507 77.5507 28.2466C77.6459 27.8654 77.76 27.4927 77.8932 27.1283L78.9461 24.2704H79.7812L77.908 29.2576C77.7072 29.7967 77.5507 30.1674 77.4408 30.3717C77.2928 30.6455 77.1215 30.8455 76.9313 30.974C76.7389 31.1025 76.5105 31.1657 76.2442 31.1657C76.0835 31.1657 75.9038 31.132 75.7072 31.0646H75.705Z" fill="white"/>
<path d="M37.1159 21.185L35.3125 14.4139H36.2343L37.2681 18.8535C37.3802 19.319 37.4753 19.7802 37.5556 20.2393C37.729 19.5148 37.8305 19.0978 37.8622 18.9883L39.1561 14.416H40.2406L41.2152 17.8426C41.4584 18.6935 41.636 19.4917 41.7438 20.2393C41.8305 19.8118 41.9425 19.3211 42.0821 18.7651L43.1476 14.4139H44.0525L42.1878 21.185H41.321L39.8876 16.0251C39.767 15.5933 39.6952 15.3301 39.674 15.2311C39.6021 15.5428 39.5366 15.8061 39.4753 16.0251L38.0334 21.185H37.1159Z" fill="white"/>
<path d="M47.7758 19.6053L48.6384 19.7107C48.5031 20.2119 48.2515 20.6015 47.8837 20.8795C47.5158 21.1575 47.0465 21.2944 46.4735 21.2944C45.7526 21.2944 45.1818 21.0733 44.761 20.631C44.3382 20.1887 44.1289 19.5695 44.1289 18.7713C44.1289 17.9731 44.3424 17.3055 44.7695 16.8506C45.1966 16.3957 45.7484 16.1661 46.4291 16.1661C47.1099 16.1661 47.6257 16.3894 48.0422 16.8359C48.4587 17.2824 48.668 17.91 48.668 18.7208C48.668 18.7692 48.668 18.843 48.6638 18.9419H44.9915C45.0232 19.4811 45.1754 19.8939 45.4503 20.1803C45.7251 20.4667 46.0676 20.6099 46.4799 20.6099C46.7864 20.6099 47.0465 20.5299 47.2642 20.3699C47.4799 20.2098 47.6511 19.955 47.778 19.6032L47.7758 19.6053ZM45.0359 18.2617H47.7864C47.7484 17.8489 47.6448 17.5393 47.4714 17.3329C47.205 17.0128 46.8604 16.8527 46.4376 16.8527C46.0549 16.8527 45.7314 16.9812 45.4714 17.236C45.2092 17.4909 45.0655 17.8341 45.038 18.2617H45.0359Z" fill="white"/>
<path d="M50.2464 21.185H49.4727V14.4139H50.3078V16.8296C50.6608 16.3894 51.109 16.1683 51.6566 16.1683C51.9589 16.1683 52.2464 16.2294 52.5171 16.3515C52.7877 16.4737 53.0097 16.6443 53.1851 16.8633C53.3606 17.0844 53.4959 17.3498 53.5953 17.6594C53.6946 17.969 53.7433 18.3038 53.7433 18.6577C53.7433 19.498 53.534 20.1488 53.1175 20.6058C52.701 21.0628 52.1999 21.2945 51.6143 21.2945C51.0287 21.2945 50.5763 21.0523 50.2464 20.57V21.185ZM50.238 18.6956C50.238 19.2832 50.3183 19.7086 50.479 19.9698C50.7412 20.3973 51.0963 20.6121 51.5445 20.6121C51.9103 20.6121 52.2253 20.4541 52.4896 20.1382C52.756 19.8223 52.8891 19.3527 52.8891 18.7272C52.8891 18.1017 52.7623 17.6131 52.5065 17.3098C52.2507 17.0044 51.942 16.8528 51.5805 16.8528C51.219 16.8528 50.8997 17.0107 50.6354 17.3266C50.3712 17.6425 50.2359 18.0996 50.2359 18.6956H50.238Z" fill="white"/>
<path d="M57.0859 21.185V14.4139H59.4284C59.957 14.4139 60.3608 14.4455 60.6377 14.5108C61.0267 14.5993 61.3587 14.7614 61.6335 14.9952C61.9929 15.2964 62.2593 15.6818 62.439 16.1514C62.6166 16.6211 62.7054 17.1581 62.7054 17.7605C62.7054 18.2744 62.6441 18.7314 62.5236 19.1273C62.4031 19.5254 62.2487 19.8539 62.0606 20.113C61.8724 20.3741 61.6652 20.5784 61.4411 20.7279C61.217 20.8775 60.9464 20.9912 60.6293 21.067C60.3121 21.1428 59.9485 21.1828 59.5384 21.1828H57.0859V21.185ZM57.9845 20.3868H59.4348C59.883 20.3868 60.2339 20.3446 60.4897 20.2625C60.7456 20.1804 60.9485 20.0624 61.0986 19.9108C61.3121 19.6981 61.4771 19.4116 61.5976 19.0536C61.716 18.6956 61.7752 18.2596 61.7752 17.7478C61.7752 17.0402 61.6589 16.4947 61.4242 16.1156C61.1916 15.7344 60.9062 15.4796 60.5743 15.3511C60.3333 15.2585 59.9443 15.2121 59.4115 15.2121H57.9845V20.3846V20.3868Z" fill="white"/>
<path d="M66.9985 19.6053L67.8611 19.7107C67.7258 20.2119 67.4742 20.6015 67.1063 20.8795C66.7385 21.1575 66.2691 21.2944 65.6962 21.2944C64.9752 21.2944 64.4044 21.0733 63.9837 20.631C63.5609 20.1887 63.3516 19.5695 63.3516 18.7713C63.3516 17.9731 63.5651 17.3055 63.9922 16.8506C64.4192 16.3957 64.971 16.1661 65.6518 16.1661C66.3325 16.1661 66.8484 16.3894 67.2649 16.8359C67.6814 17.2824 67.8907 17.91 67.8907 18.7208C67.8907 18.7692 67.8907 18.843 67.8864 18.9419H64.2141C64.2459 19.4811 64.3981 19.8939 64.6729 20.1803C64.9478 20.4667 65.2903 20.6099 65.7025 20.6099C66.0091 20.6099 66.2691 20.5299 66.4869 20.3699C66.7025 20.2098 66.8738 19.955 67.0006 19.6032L66.9985 19.6053ZM64.2585 18.2617H67.0091C66.971 17.8489 66.8674 17.5393 66.6941 17.3329C66.4277 17.0128 66.0831 16.8527 65.6602 16.8527C65.2776 16.8527 64.9541 16.9812 64.6941 17.236C64.4319 17.4909 64.2881 17.8341 64.2607 18.2617H64.2585Z" fill="white"/>
<path d="M68.3672 19.7212L69.1917 19.5927C69.2382 19.9213 69.3672 20.174 69.5786 20.3509C69.79 20.5257 70.086 20.6142 70.4666 20.6142C70.8471 20.6142 71.1346 20.5363 71.3207 20.3804C71.5067 20.2246 71.5997 20.0434 71.5997 19.8328C71.5997 19.6454 71.5173 19.498 71.3545 19.3885C71.2403 19.3147 70.9549 19.22 70.5004 19.1062C69.8873 18.9525 69.4644 18.8198 69.2277 18.7061C68.9909 18.5945 68.8112 18.4386 68.6907 18.2406C68.568 18.0427 68.5067 17.8236 68.5067 17.5836C68.5067 17.3645 68.5575 17.1623 68.6568 16.977C68.7583 16.7917 68.8936 16.6358 69.067 16.5137C69.1959 16.4189 69.3735 16.3368 69.5976 16.2715C69.8217 16.2062 70.0628 16.1725 70.3186 16.1725C70.7055 16.1725 71.0437 16.2272 71.3355 16.3389C71.6272 16.4505 71.8429 16.6 71.9824 16.7896C72.1219 16.9791 72.2171 17.2318 72.2699 17.5499L71.4539 17.6615C71.4158 17.4087 71.3101 17.2129 71.1325 17.0697C70.9549 16.9286 70.7033 16.857 70.3799 16.857C69.9972 16.857 69.7224 16.9201 69.5596 17.0465C69.3947 17.1729 69.3143 17.3203 69.3143 17.4888C69.3143 17.5962 69.3482 17.6931 69.4158 17.7794C69.4835 17.8679 69.5913 17.9437 69.7351 18.0006C69.8175 18.0321 70.0649 18.1016 70.4729 18.2133C71.0627 18.3712 71.475 18.4997 71.7076 18.5987C71.9401 18.6977 72.1241 18.8451 72.2573 19.0346C72.3904 19.2263 72.456 19.4622 72.456 19.7465C72.456 20.0308 72.3756 20.2856 72.2129 20.5299C72.0501 20.7742 71.8154 20.9638 71.511 21.0986C71.2044 21.2334 70.8598 21.2987 70.4729 21.2987C69.8323 21.2987 69.346 21.166 69.0099 20.9006C68.6737 20.6352 68.4602 20.2435 68.3672 19.7233V19.7212Z" fill="white"/>
<path d="M73.2422 15.3701V14.4139H74.0773V15.3701H73.2422ZM73.2422 21.185V16.2799H74.0773V21.185H73.2422Z" fill="white"/>
<path d="M74.9852 21.5914L75.7971 21.7115C75.8309 21.96 75.926 22.1432 76.0804 22.257C76.2875 22.4107 76.5708 22.4886 76.9281 22.4886C77.315 22.4886 77.6131 22.4107 77.8224 22.257C78.0317 22.1032 78.1755 21.8884 78.2495 21.6104C78.2918 21.4419 78.3129 21.086 78.3108 20.5426C77.9451 20.9701 77.4905 21.185 76.9472 21.185C76.2706 21.185 75.7463 20.9407 75.3763 20.4563C75.0064 19.9698 74.8203 19.3864 74.8203 18.7061C74.8203 18.2386 74.9049 17.8068 75.0761 17.4109C75.2453 17.0149 75.4926 16.7096 75.8161 16.4947C76.1395 16.2799 76.518 16.1704 76.9535 16.1704C77.5349 16.1704 78.0148 16.4042 78.3911 16.8717V16.2799H79.1607V20.5194C79.1607 21.2839 79.0825 21.8252 78.926 22.1432C78.7696 22.4612 78.5222 22.714 78.1839 22.8993C77.8457 23.0846 77.4292 23.1773 76.9345 23.1773C76.3467 23.1773 75.8732 23.0467 75.5116 22.7814C75.1501 22.5181 74.9746 22.1222 74.9873 21.5914H74.9852ZM75.6766 18.645C75.6766 19.2895 75.8055 19.7592 76.0613 20.054C76.3171 20.3489 76.6385 20.4984 77.0254 20.4984C77.4123 20.4984 77.7294 20.351 77.9894 20.0582C78.2495 19.7634 78.3785 19.3021 78.3785 18.6745C78.3785 18.0469 78.2453 17.6215 77.9768 17.3161C77.7104 17.0107 77.3869 16.8591 77.0106 16.8591C76.6343 16.8591 76.3235 17.0086 76.0656 17.3098C75.8055 17.611 75.6766 18.0553 75.6766 18.6471V18.645Z" fill="white"/>
<path d="M80.2109 21.185V16.28H80.9615V16.9771C81.323 16.4379 81.8452 16.1683 82.5281 16.1683C82.824 16.1683 83.0968 16.221 83.3462 16.3284C83.5957 16.4337 83.7818 16.5748 83.9044 16.7454C84.027 16.9181 84.1137 17.1224 84.1644 17.3604C84.1961 17.5141 84.2109 17.7837 84.2109 18.1691V21.185H83.3758V18.2007C83.3758 17.8616 83.3441 17.6089 83.2786 17.4404C83.2131 17.2719 83.0989 17.1392 82.934 17.0381C82.7691 16.9392 82.5746 16.8886 82.3526 16.8886C81.9974 16.8886 81.6909 17.0002 81.4329 17.2256C81.175 17.4509 81.046 17.8764 81.046 18.5061V21.185H80.2109Z" fill="white"/>
</svg>
