<svg width="101" height="110" viewBox="0 0 101 110" fill="none" xmlns="http://www.w3.org/2000/svg">
<path d="M100.728 27.7363V82.2637L50.6374 109.527L0.546875 82.2637V27.7363L50.6374 0.472595L100.728 27.7363Z" fill="white"/>
<path d="M50.5 110L50.3089 109.895L0 82.5132V27.5L0.215345 27.3849L50.5 0L50.6911 0.104907L101 27.5V82.5275L50.5 110ZM0.818919 82.0131L50.5 109.054L100.181 82.0131V27.9869L50.5 0.946204L0.818919 27.9869V82.0131Z" fill="#6A797D"/>
<path d="M98.271 29.2193V80.7807L50.5007 106.562L2.73047 80.7807V29.2193L50.5007 3.4375L98.271 29.2193Z" fill="#6A797D"/>
<path d="M98.271 39.875H2.73047V70.125H98.271V39.875Z" fill="#17313B"/>
<path d="M93.631 31.2807V78.7193L50.6378 102.438L7.64453 78.7193V31.2807L50.6378 7.5625L93.631 31.2807Z" fill="white" stroke="#17313B" stroke-width="2" stroke-miterlimit="10"/>
<path d="M96.9046 42.625H4.09375V67.375H96.9046V42.625Z" fill="#17313B"/>
<path d="M14.332 70.125H86.6699" stroke="#17313B" stroke-miterlimit="10"/>
<path d="M14.332 39.875H86.6699" stroke="#17313B" stroke-miterlimit="10"/>
<path d="M40.6989 48.4H38.2422V61.325H40.6989V48.4Z" fill="white"/>
<path d="M48.6148 57.475C48.6148 59.4876 46.7232 59.6475 46.1934 59.6475C44.867 59.6475 44.5202 58.4701 44.5202 57.7612V52.8H42.6094V57.75C42.6094 58.9987 42.9996 60.0294 43.7255 60.7149C44.4403 61.3504 45.3684 61.6876 46.3218 61.655C47.1347 61.6346 47.9273 61.3932 48.6148 60.9563V61.325H50.7986V52.8H48.6148V57.475Z" fill="white"/>
<path d="M55.4388 49.775H52.982V52.8H51.6172V54.45H52.982V61.325H55.4388V54.45H57.0766V52.8H55.4388V49.775Z" fill="white"/>
<path d="M64.1471 58.9549C63.6304 59.3796 62.9824 59.6068 62.3151 59.5955C60.7592 59.5955 59.6177 58.52 59.6177 57.0431C59.6177 55.5663 60.7096 54.5376 62.3151 54.5376C62.9844 54.5254 63.6365 54.7484 64.1602 55.167L64.4989 55.442L66.0053 54.0232L65.6282 53.7044C64.693 52.9273 63.5132 52.5087 62.301 52.525C59.5086 52.525 57.4805 54.4255 57.4805 57.035C57.4805 59.6444 59.5581 61.6 62.301 61.6C63.5192 61.6193 64.7041 61.1967 65.6393 60.4093L66.0023 60.0875L64.4736 58.6687L64.1461 58.9549H64.1471Z" fill="white"/>
<path d="M74.0381 53.6026C73.3101 52.9681 72.3719 52.633 71.4094 52.6645C70.5824 52.6543 69.7726 52.8978 69.0861 53.3632V48.4H66.9023V61.325H69.0861V56.8425C69.0861 54.8299 70.8412 54.6669 71.371 54.6669C72.6975 54.6669 72.9078 55.8464 72.9078 56.5563V61.325H75.0915V56.5675C75.0915 55.3188 74.7751 54.2901 74.0381 53.6026Z" fill="white"/>
<path d="M62.2308 58.5892C63.1219 58.5892 63.8443 57.9071 63.8443 57.0655C63.8443 56.224 63.1219 55.5418 62.2308 55.5418C61.3396 55.5418 60.6172 56.224 60.6172 57.0655C60.6172 57.9071 61.3396 58.5892 62.2308 58.5892Z" fill="#FF3D2E"/>
<path d="M35.5452 58.3245C34.6778 59.1515 33.5242 59.6078 32.3292 59.5946C29.8401 59.5946 28.0304 57.7521 28.0304 55.2221C28.0304 52.6921 29.8401 50.8383 32.3292 50.8383C33.5171 50.8322 34.6636 51.2834 35.5341 52.0983L35.8728 52.4201L37.3661 51.0125L37.0385 50.6907C35.7676 49.4796 34.0783 48.8156 32.3292 48.837C28.6633 48.837 25.9062 51.587 25.9062 55.2333C25.9062 58.8795 28.6744 61.6 32.3292 61.6C34.0843 61.6204 35.7788 60.9502 37.0516 59.7331L37.3792 59.4143L35.8971 57.9843L35.5452 58.3255V58.3245Z" fill="white"/>
<path d="M45.7444 22.4074V18.2916H44.2188V17.7406H47.8897V18.2916H46.357V22.4074H45.7444Z" fill="#17313B"/>
<path d="M48.8633 20.1351C48.8633 19.361 49.0695 18.754 49.482 18.316C49.8945 17.8781 50.4273 17.6591 51.0804 17.6591C51.5081 17.6591 51.8933 17.762 52.237 17.9677C52.5808 18.1734 52.8416 18.4607 53.0226 18.8283C53.2025 19.1971 53.2925 19.6136 53.2925 20.0811C53.2925 20.5486 53.1975 20.9774 53.0084 21.3512C52.8184 21.725 52.5504 22.0071 52.2027 22.1996C51.8549 22.3921 51.4798 22.4879 51.0784 22.4879C50.6427 22.4879 50.2524 22.382 49.9097 22.1701C49.5659 21.9583 49.3061 21.668 49.1292 21.3013C48.9523 20.9346 48.8643 20.5456 48.8643 20.1361L48.8633 20.1351ZM49.4952 20.1443C49.4952 20.7065 49.6448 21.1496 49.9451 21.4734C50.2453 21.7973 50.6214 21.9593 51.0744 21.9593C51.5273 21.9593 51.9155 21.7963 52.2138 21.4694C52.512 21.1424 52.6606 20.679 52.6606 20.0781C52.6606 19.6982 52.5969 19.3671 52.4696 19.083C52.3422 18.7998 52.1561 18.5798 51.9105 18.424C51.6648 18.2682 51.3898 18.1897 51.0845 18.1897C50.6507 18.1897 50.2777 18.3395 49.9643 18.6399C49.6519 18.9404 49.4952 19.4415 49.4952 20.1443Z" fill="#17313B"/>
<path d="M54.7266 22.4074V17.7416H56.4736C56.7809 17.7416 57.0155 17.7569 57.1783 17.7864C57.4057 17.8251 57.5968 17.8974 57.7505 18.0044C57.9042 18.1113 58.0285 18.262 58.1215 18.4545C58.2156 18.6481 58.2621 18.8599 58.2621 19.0911C58.2621 19.4883 58.1367 19.8234 57.886 20.0984C57.6352 20.3734 57.1823 20.5109 56.5272 20.5109H55.3392V22.4074H54.7266ZM55.3392 19.9599H56.5363C56.9326 19.9599 57.2136 19.8856 57.3795 19.7369C57.5463 19.5882 57.6292 19.3794 57.6292 19.1094C57.6292 18.9139 57.5806 18.7469 57.4826 18.6083C57.3845 18.4698 57.2551 18.3771 57.0954 18.3333C56.9922 18.3058 56.8012 18.2916 56.5231 18.2916H55.3382V19.9599H55.3392Z" fill="#17313B"/>
<path d="M35.1435 31.5741L33.9141 26.9082H34.5429L35.2476 29.9668C35.3234 30.2877 35.3891 30.6055 35.4437 30.9222C35.562 30.4231 35.6308 30.1359 35.652 30.0595L36.5336 26.9082H37.2726L37.9359 29.2702C38.1027 29.8558 38.222 30.4068 38.2958 30.9222C38.3544 30.6268 38.4313 30.2887 38.5263 29.9068L39.2532 26.9082H39.8689L38.5991 31.5741H38.0087L37.032 28.0184C36.9501 27.721 36.9016 27.5387 36.8864 27.4705C36.8379 27.6843 36.7924 27.8677 36.751 28.0184L35.7683 31.5741H35.1424H35.1435Z" fill="#17313B"/>
<path d="M41.1026 31.5741V26.9082H44.451V27.4593H41.7152V28.8882H44.2771V29.4362H41.7152V31.0241H44.5582V31.5751H41.1016L41.1026 31.5741Z" fill="#17313B"/>
<path d="M46.0273 31.5741V26.9082H47.7653C48.1191 26.9082 48.4032 26.9551 48.6165 27.0498C48.8299 27.1445 48.9977 27.2892 49.119 27.4857C49.2403 27.6823 49.301 27.887 49.301 28.1019C49.301 28.3016 49.2474 28.489 49.1402 28.6652C49.0331 28.8414 48.8703 28.983 48.6539 29.0919C48.934 29.1744 49.1493 29.316 49.3 29.5156C49.4506 29.7153 49.5254 29.9505 49.5254 30.2225C49.5254 30.4415 49.4799 30.6442 49.3879 30.8316C49.2959 31.019 49.1827 31.1646 49.0482 31.2665C48.9138 31.3683 48.7439 31.4457 48.5407 31.4977C48.3375 31.5496 48.0888 31.5761 47.7936 31.5761H46.0273V31.5741ZM46.64 28.8689H47.6419C47.9139 28.8689 48.108 28.8505 48.2263 28.8149C48.382 28.768 48.4993 28.6906 48.5781 28.5827C48.657 28.4747 48.6964 28.3382 48.6964 28.1753C48.6964 28.0205 48.66 27.884 48.5862 27.7658C48.5124 27.6477 48.4073 27.5672 48.2708 27.5234C48.1343 27.4796 47.8987 27.4582 47.5661 27.4582H46.64V28.8679V28.8689ZM46.64 31.0241H47.7936C47.9917 31.0241 48.1302 31.0169 48.2101 31.0017C48.3517 30.9762 48.4689 30.9334 48.564 30.8743C48.659 30.8153 48.7369 30.7287 48.7975 30.6146C48.8582 30.5016 48.8895 30.3702 48.8895 30.2215C48.8895 30.0473 48.845 29.8966 48.7571 29.7682C48.6681 29.6399 48.5458 29.5493 48.3891 29.4973C48.2324 29.4454 48.0059 29.4189 47.7117 29.4189H46.641V31.023L46.64 31.0241Z" fill="#17313B"/>
<path d="M51.0469 31.5741V26.9082H54.1719V27.4593H51.6606V28.9045H53.8342V29.4555H51.6606V31.5751H51.0479L51.0469 31.5741Z" fill="#17313B"/>
<path d="M55.5898 31.5741V26.9082H56.2025V31.0241H58.4834V31.5751H55.5898V31.5741Z" fill="#17313B"/>
<path d="M59.6719 29.3018C59.6719 28.5277 59.8781 27.9207 60.2906 27.4827C60.7031 27.0447 61.2359 26.8257 61.889 26.8257C62.3167 26.8257 62.7019 26.9286 63.0456 27.1344C63.3894 27.3401 63.6502 27.6273 63.8312 27.995C64.0111 28.3637 64.1011 28.7803 64.1011 29.2478C64.1011 29.7153 64.0061 30.1441 63.817 30.5179C63.6269 30.8917 63.359 31.1738 63.0112 31.3663C62.6635 31.5588 62.2884 31.6545 61.887 31.6545C61.4513 31.6545 61.061 31.5486 60.7183 31.3368C60.3745 31.1249 60.1147 30.8346 59.9378 30.468C59.7608 30.1013 59.6729 29.7122 59.6729 29.3028L59.6719 29.3018ZM60.3038 29.3109C60.3038 29.8732 60.4534 30.3162 60.7537 30.6401C61.0539 30.964 61.43 31.1259 61.883 31.1259C62.3359 31.1259 62.7241 30.963 63.0224 30.636C63.3206 30.3091 63.4692 29.8457 63.4692 29.2447C63.4692 28.8648 63.4055 28.5338 63.2781 28.2496C63.1508 27.9665 62.9647 27.7465 62.7191 27.5907C62.4734 27.4348 62.1984 27.3564 61.8931 27.3564C61.4593 27.3564 61.0863 27.5061 60.7729 27.8066C60.4605 28.107 60.3038 28.6082 60.3038 29.3109Z" fill="#17313B"/>
<path d="M66.3466 31.5741L65.1172 26.9082H65.746L66.4507 29.9668C66.5265 30.2877 66.5923 30.6055 66.6468 30.9222C66.7651 30.4231 66.8339 30.1359 66.8551 30.0595L67.7367 26.9082H68.4758L69.139 29.2702C69.3058 29.8558 69.4251 30.4068 69.4989 30.9222C69.5576 30.6268 69.6344 30.2887 69.7294 29.9068L70.4563 26.9082H71.072L69.8022 31.5741H69.2118L68.2351 28.0184C68.1533 27.721 68.1047 27.5387 68.0896 27.4705C68.041 27.6843 67.9955 27.8677 67.9541 28.0184L66.9714 31.5741H66.3456H66.3466Z" fill="#17313B"/>
<path d="M28.5212 76.3064H29.1338V79.0024C29.1338 79.4709 29.0813 79.8437 28.9761 80.1197C28.871 80.3957 28.6809 80.6198 28.4059 80.7929C28.1309 80.9661 27.77 81.0527 27.3241 81.0527C26.8783 81.0527 26.5356 80.9773 26.2595 80.8266C25.9835 80.6758 25.7864 80.4578 25.6691 80.1727C25.5508 79.8875 25.4922 79.4974 25.4922 79.0034V76.3074H26.1049V79.0003C26.1049 79.4057 26.1423 79.7041 26.2171 79.8966C26.2919 80.0891 26.4203 80.2368 26.6023 80.3407C26.7843 80.4446 27.0067 80.4966 27.2706 80.4966C27.7215 80.4966 28.043 80.3937 28.234 80.1879C28.4261 79.9822 28.5212 79.586 28.5212 79.0003V76.3074V76.3064Z" fill="#17313B"/>
<path d="M30.7969 80.9722V76.3064H31.4257L33.8582 79.97V76.3064H34.4456V80.9722H33.8168L31.3843 77.3055V80.9722H30.7969Z" fill="#17313B"/>
<path d="M36.2266 80.9722V76.3064H36.8392V80.9722H36.2266Z" fill="#17313B"/>
<path d="M39.7444 80.9722V76.8564H38.2188V76.3054H41.8897V76.8564H40.357V80.9722H39.7444Z" fill="#17313B"/>
<path d="M43.1768 80.9722V76.3064H46.5253V76.8574H43.7895V78.2864H46.3514V78.8343H43.7895V80.4222H46.6324V80.9732H43.1758L43.1768 80.9722Z" fill="#17313B"/>
<path d="M48.1289 80.9722V76.3064H49.7243C50.0842 76.3064 50.3592 76.3288 50.5493 76.3736C50.8142 76.4347 51.0406 76.5467 51.2287 76.7077C51.4733 76.9154 51.6553 77.1813 51.7766 77.5052C51.898 77.8291 51.9586 78.1988 51.9586 78.6143C51.9586 78.9688 51.9172 79.2825 51.8353 79.5565C51.7534 79.8304 51.6482 80.0566 51.5198 80.2358C51.3914 80.4151 51.2509 80.5566 51.0982 80.6595C50.9456 80.7624 50.7616 80.8408 50.5452 80.8938C50.3289 80.9467 50.0812 80.9732 49.8011 80.9732H48.1299L48.1289 80.9722ZM48.7416 80.4212H49.7304C50.0357 80.4212 50.2753 80.3927 50.4492 80.3356C50.6231 80.2786 50.7616 80.1981 50.8647 80.0932C51.0103 79.9466 51.1235 79.75 51.2044 79.5025C51.2853 79.255 51.3257 78.9555 51.3257 78.6031C51.3257 78.1153 51.2459 77.7404 51.0871 77.4777C50.9284 77.2159 50.7353 77.0397 50.5078 76.9511C50.344 76.8879 50.0791 76.8553 49.7152 76.8553H48.7426V80.4202L48.7416 80.4212Z" fill="#17313B"/>
<path d="M55.6836 79.473L56.2619 79.422C56.2892 79.6553 56.3529 79.8467 56.453 79.9965C56.5531 80.1462 56.7088 80.2674 56.9191 80.3591C57.1293 80.4517 57.3669 80.4976 57.6298 80.4976C57.8633 80.4976 58.0696 80.4629 58.2485 80.3927C58.4275 80.3224 58.5609 80.2267 58.6479 80.1044C58.7348 79.9822 58.7793 79.8498 58.7793 79.7052C58.7793 79.5605 58.7368 79.4312 58.6529 79.3212C58.569 79.2122 58.4295 79.1205 58.2364 79.0462C58.112 78.9973 57.837 78.9219 57.4114 78.8191C56.9858 78.7162 56.6875 78.6194 56.5177 78.5278C56.2963 78.4106 56.1315 78.266 56.0233 78.0929C55.9151 77.9197 55.8605 77.7262 55.8605 77.5123C55.8605 77.277 55.9273 77.057 56.0597 76.8523C56.1921 76.6476 56.3862 76.4917 56.641 76.3858C56.8958 76.2799 57.1789 76.2269 57.4913 76.2269C57.835 76.2269 58.1373 76.2829 58.3992 76.394C58.661 76.505 58.8632 76.669 59.0038 76.8859C59.1453 77.1018 59.2211 77.3473 59.2312 77.6213L58.6438 77.6661C58.6125 77.3707 58.5053 77.1487 58.3233 76.9979C58.1414 76.8472 57.8724 76.7718 57.5166 76.7718C57.1607 76.7718 56.8756 76.8401 56.7057 76.9776C56.5359 77.1141 56.451 77.2791 56.451 77.4726C56.451 77.6406 56.5106 77.7781 56.6309 77.8861C56.7492 77.9941 57.0565 78.1051 57.555 78.2192C58.0534 78.3332 58.3951 78.432 58.5801 78.5166C58.8501 78.6418 59.0482 78.8007 59.1776 78.9922C59.306 79.1847 59.3708 79.4057 59.3708 79.6563C59.3708 79.9068 59.3 80.138 59.1595 80.358C59.0179 80.578 58.8157 80.7481 58.5508 80.8704C58.2859 80.9926 57.9887 81.0537 57.6581 81.0537C57.2385 81.0537 56.8877 80.9926 56.6046 80.8693C56.3215 80.7461 56.0991 80.5607 55.9384 80.3142C55.7776 80.0667 55.6927 79.7877 55.6836 79.476V79.473Z" fill="#17313B"/>
<path d="M62.0334 80.9722V76.8564H60.5078V76.3054H64.1788V76.8564H62.6461V80.9722H62.0334Z" fill="#17313B"/>
<path d="M64.4659 80.9722L66.2442 76.3064H66.9044L68.8001 80.9722H68.1014L67.5616 79.5585H65.6245L65.1159 80.9722H64.4648H64.4659ZM65.8024 79.0564H67.3725L66.8892 77.7639C66.7416 77.3717 66.6324 77.0489 66.5607 76.7963C66.502 77.0957 66.4181 77.3921 66.311 77.6875L65.8024 79.0564Z" fill="#17313B"/>
<path d="M70.635 80.9722V76.8564H69.1094V76.3054H72.7804V76.8564H71.2477V80.9722H70.635Z" fill="#17313B"/>
<path d="M74.0674 80.9722V76.3064H77.4159V76.8574H74.6801V78.2864H77.242V78.8343H74.6801V80.4222H77.5231V80.9732H74.0664L74.0674 80.9722Z" fill="#17313B"/>
<path d="M78.8125 79.473L79.3908 79.422C79.4181 79.6553 79.4818 79.8467 79.5819 79.9965C79.682 80.1462 79.8377 80.2674 80.048 80.3591C80.2582 80.4517 80.4958 80.4976 80.7587 80.4976C80.9922 80.4976 81.1985 80.4629 81.3774 80.3927C81.5564 80.3224 81.6898 80.2267 81.7768 80.1044C81.8637 79.9822 81.9082 79.8498 81.9082 79.7052C81.9082 79.5605 81.8658 79.4312 81.7818 79.3212C81.6979 79.2122 81.5584 79.1205 81.3653 79.0462C81.2409 78.9973 80.966 78.9219 80.5403 78.8191C80.1147 78.7162 79.8164 78.6194 79.6466 78.5278C79.4252 78.4106 79.2604 78.266 79.1522 78.0929C79.044 77.9197 78.9894 77.7262 78.9894 77.5123C78.9894 77.277 79.0562 77.057 79.1886 76.8523C79.321 76.6476 79.5152 76.4917 79.7699 76.3858C80.0247 76.2799 80.3078 76.2269 80.6202 76.2269C80.9639 76.2269 81.2662 76.2829 81.5281 76.394C81.7899 76.505 81.9921 76.669 82.1327 76.8859C82.2742 77.1018 82.35 77.3473 82.3601 77.6213L81.7727 77.6661C81.7414 77.3707 81.6342 77.1487 81.4523 76.9979C81.2703 76.8472 81.0013 76.7718 80.6455 76.7718C80.2896 76.7718 80.0045 76.8401 79.8346 76.9776C79.6648 77.1141 79.5799 77.2791 79.5799 77.4726C79.5799 77.6406 79.6395 77.7781 79.7598 77.8861C79.8781 77.9941 80.1855 78.1051 80.6839 78.2192C81.1823 78.3332 81.524 78.432 81.709 78.5166C81.979 78.6418 82.1771 78.8007 82.3066 78.9922C82.435 79.1847 82.4997 79.4057 82.4997 79.6563C82.4997 79.9068 82.4289 80.138 82.2884 80.358C82.1468 80.578 81.9446 80.7481 81.6797 80.8704C81.4148 80.9926 81.1176 81.0537 80.787 81.0537C80.3674 81.0537 80.0166 80.9926 79.7335 80.8693C79.4505 80.7461 79.228 80.5607 79.0673 80.3142C78.9065 80.0667 78.8216 79.7877 78.8125 79.476V79.473Z" fill="#17313B"/>
<path d="M45.5774 89.5879V90.1389H42.5161C42.512 90.0014 42.5343 89.868 42.5828 89.7407C42.6607 89.5308 42.785 89.3241 42.9569 89.1204C43.1288 88.9167 43.3765 88.6814 43.701 88.4135C44.2045 87.998 44.5442 87.668 44.7211 87.4256C44.898 87.1831 44.986 86.953 44.986 86.736C44.986 86.5191 44.9051 86.3174 44.7444 86.1616C44.5836 86.0057 44.3733 85.9273 44.1145 85.9273C43.8405 85.9273 43.6211 86.0098 43.4573 86.1758C43.2936 86.3419 43.2096 86.571 43.2076 86.8633L42.6233 86.8032C42.6637 86.3643 42.8143 86.0292 43.0752 85.799C43.336 85.5688 43.6868 85.4537 44.1276 85.4537C44.5684 85.4537 44.9243 85.578 45.1831 85.8265C45.442 86.075 45.5714 86.3826 45.5714 86.7493C45.5714 86.9356 45.5329 87.12 45.4581 87.3003C45.3823 87.4806 45.2559 87.671 45.081 87.8696C44.9051 88.0693 44.6129 88.3432 44.2045 88.6906C43.8628 88.9788 43.6444 89.1754 43.5473 89.2782C43.4503 89.3811 43.3704 89.485 43.3067 89.5889H45.5784L45.5774 89.5879Z" fill="#17313B"/>
<path d="M46.833 87.838C46.833 87.286 46.8897 86.8419 47.0019 86.5058C47.1141 86.1697 47.2819 85.91 47.5044 85.7277C47.7268 85.5453 48.0058 85.4537 48.3435 85.4537C48.5922 85.4537 48.8096 85.5046 48.9976 85.6044C49.1847 85.7052 49.3403 85.8509 49.4617 86.0403C49.584 86.2308 49.68 86.462 49.7488 86.734C49.8186 87.0069 49.8529 87.3746 49.8529 87.837C49.8529 88.385 49.7973 88.826 49.6851 89.1631C49.5739 89.4992 49.4061 89.759 49.1847 89.9433C48.9622 90.1266 48.6822 90.2183 48.3425 90.2183C47.8956 90.2183 47.5448 90.0574 47.29 89.7345C46.9847 89.3465 46.832 88.7139 46.832 87.838H46.833ZM47.4174 87.838C47.4174 88.6039 47.5064 89.1142 47.6843 89.3678C47.8623 89.6215 48.0816 89.7477 48.3435 89.7477C48.6053 89.7477 48.8237 89.6204 49.0027 89.3658C49.1806 89.1112 49.2696 88.6019 49.2696 87.838C49.2696 87.0741 49.1806 86.5598 49.0027 86.3072C48.8247 86.0546 48.6033 85.9283 48.3374 85.9283C48.0715 85.9283 47.8673 86.0393 47.7116 86.2624C47.5155 86.5465 47.4174 87.0721 47.4174 87.838Z" fill="#17313B"/>
<path d="M54.0696 89.5878V90.1389H51.0083C51.0042 90.0014 51.0265 89.8679 51.075 89.7406C51.1529 89.5308 51.2772 89.324 51.4491 89.1203C51.621 88.9166 51.8686 88.6814 52.1932 88.4135C52.6967 87.9979 53.0364 87.6679 53.2133 87.4255C53.3902 87.1831 53.4782 86.9529 53.4782 86.736C53.4782 86.519 53.3973 86.3174 53.2365 86.1615C53.0758 86.0057 52.8655 85.9273 52.6067 85.9273C52.3327 85.9273 52.1133 86.0098 51.9495 86.1758C51.7857 86.3418 51.7018 86.571 51.6998 86.8633L51.1154 86.8032C51.1559 86.3642 51.3065 86.0291 51.5674 85.799C51.8282 85.5688 52.179 85.4537 52.6198 85.4537C53.0606 85.4537 53.4165 85.5779 53.6753 85.8264C53.9341 86.075 54.0636 86.3826 54.0636 86.7492C54.0636 86.9356 54.0251 87.12 53.9503 87.3002C53.8745 87.4805 53.7481 87.671 53.5732 87.8696C53.3973 88.0692 53.1051 88.3432 52.6967 88.6905C52.3549 88.9788 52.1366 89.1753 52.0395 89.2782C51.9425 89.3811 51.8626 89.485 51.7989 89.5889H54.0706L54.0696 89.5878Z" fill="#17313B"/>
<path d="M55.3291 88.9075L55.8973 88.8311C55.963 89.156 56.0732 89.3892 56.231 89.5329C56.3877 89.6765 56.5787 89.7478 56.8042 89.7478C57.0721 89.7478 57.2976 89.6541 57.4816 89.4677C57.6656 89.2813 57.7576 89.0501 57.7576 88.7741C57.7576 88.498 57.6727 88.2943 57.5018 88.1232C57.3309 87.9521 57.1146 87.8666 56.8507 87.8666C56.7435 87.8666 56.6091 87.8879 56.4493 87.9297L56.512 87.4266C56.5504 87.4306 56.5808 87.4327 56.604 87.4327C56.8467 87.4327 57.064 87.3695 57.2581 87.2412C57.4523 87.1139 57.5493 86.9173 57.5493 86.6525C57.5493 86.4427 57.4785 86.2685 57.338 86.131C57.1965 85.9935 57.0145 85.9242 56.7911 85.9242C56.5676 85.9242 56.3856 85.9945 56.238 86.1341C56.0904 86.2746 55.9954 86.4844 55.9539 86.7645L55.3857 86.6627C55.4555 86.2787 55.6132 85.9813 55.8599 85.7694C56.1066 85.5586 56.4129 85.4527 56.7789 85.4527C57.0317 85.4527 57.2642 85.5077 57.4775 85.6166C57.6898 85.7256 57.8526 85.8754 57.9658 86.0638C58.0781 86.2522 58.1347 86.4529 58.1347 86.6657C58.1347 86.8786 58.0811 87.0507 57.9739 87.2167C57.8668 87.3828 57.707 87.5141 57.4967 87.6119C57.7707 87.6751 57.983 87.8075 58.1347 88.0081C58.2863 88.2088 58.3622 88.4593 58.3622 88.7608C58.3622 89.1682 58.2146 89.5135 57.9193 89.7967C57.6241 90.0798 57.2521 90.2214 56.8012 90.2214C56.3947 90.2214 56.0571 90.0991 55.7881 89.8557C55.5192 89.6113 55.3665 89.2955 55.3281 88.9075H55.3291Z" fill="#17313B"/>
</svg>
