<svg width="131" height="110" viewBox="0 0 131 110" fill="none" xmlns="http://www.w3.org/2000/svg">
<path d="M67.1802 110C97.4123 110 121.919 85.3763 121.919 55C121.919 24.6238 97.4123 0 67.1802 0C36.9482 0 12.4414 24.6238 12.4414 55C12.4414 85.3763 36.9482 110 67.1802 110Z" fill="url(#paint0_linear_5795_20584)"/>
<path fill-rule="evenodd" clip-rule="evenodd" d="M23.886 69.125H0L7.11107 58.5325L0 47.375H23.886V69.125Z" fill="#17313B"/>
<path fill-rule="evenodd" clip-rule="evenodd" d="M107.113 69.125H130.999L123.888 58.5325L130.999 47.375H107.113V69.125Z" fill="#17313B"/>
<path d="M67.1787 103.75C93.9746 103.75 115.697 81.9238 115.697 55C115.697 28.0763 93.9746 6.25 67.1787 6.25C40.3828 6.25 18.6602 28.0763 18.6602 55C18.6602 81.9238 40.3828 103.75 67.1787 103.75Z" fill="white"/>
<path d="M67.1787 103.75C93.9746 103.75 115.697 81.9237 115.697 55C115.697 28.0763 93.9746 6.25 67.1787 6.25C40.3828 6.25 18.6602 28.0763 18.6602 55C18.6602 81.9237 40.3828 103.75 67.1787 103.75Z" stroke="#C1A072" stroke-width="2"/>
<path d="M52.8164 80.6275V78.2563C52.8164 76.7075 53.217 75.8063 54.7061 75.8063C56.0298 75.8063 56.5436 76.4713 56.5436 77.8713V78.1338H55.6205V77.915C55.6205 76.9963 55.516 76.5763 54.7236 76.5763C53.8527 76.5763 53.8005 77.2325 53.8005 78.1075V80.7325C53.8005 81.7563 53.9746 82.255 54.7497 82.255C55.5247 82.255 55.7076 81.7038 55.7076 80.6363V80.1463H54.8106V79.4463H56.5959V82.955H55.9776L55.8818 82.1413C55.6902 82.6663 55.3244 83.0425 54.6278 83.0425C53.3041 83.0425 52.8164 82.1588 52.8164 80.6275Z" fill="#17313B"/>
<path d="M58.4766 75.8662H59.4606V82.2462H61.2633V82.955H58.4766V75.8662Z" fill="#17313B"/>
<path d="M62.6211 80.7325V78.0463C62.6211 76.6463 63.1262 75.8063 64.5544 75.8063C65.9826 75.8063 66.4789 76.655 66.4789 78.0463V80.7413C66.4789 82.1325 65.9738 83.0338 64.5544 83.0338C63.1349 83.0338 62.6211 82.1413 62.6211 80.7325ZM65.4862 80.9513V77.845C65.4862 77.0575 65.3381 76.5763 64.5544 76.5763C63.7706 76.5763 63.6139 77.0575 63.6139 77.845V80.9513C63.6139 81.7388 63.7619 82.255 64.5544 82.255C65.3468 82.255 65.4862 81.7388 65.4862 80.9513Z" fill="#17313B"/>
<path d="M68.3164 75.8662H69.9362C71.2076 75.8662 71.8172 76.4262 71.8172 77.6425C71.8172 78.5175 71.495 79.0425 70.807 79.1387C71.6517 79.34 72.0088 79.9262 72.0088 80.9325C72.0088 82.1575 71.4602 82.9537 70.1974 82.9537H68.3164V75.865V75.8662ZM69.8839 78.8237C70.7112 78.8237 70.9638 78.4825 70.9638 77.6425C70.9638 76.6712 70.5371 76.6012 69.5356 76.6012H69.3005V78.8237H69.8839ZM69.9623 82.245C70.8419 82.245 71.0683 81.8512 71.0683 80.9325C71.0683 80.0137 70.7461 79.5762 69.8839 79.5762H69.3005V82.245H69.9623Z" fill="#17313B"/>
<path d="M74.865 75.8662H75.8143L77.3208 82.955H76.389L76.0668 81.17H74.6299L74.2903 82.955H73.3672L74.865 75.8662ZM75.9362 80.46L75.344 77.2662L74.7605 80.46H75.9362Z" fill="#17313B"/>
<path d="M78.9062 75.8662H79.8903V82.2462H81.693V82.955H78.9062V75.8662Z" fill="#17313B"/>
<path d="M59.0273 95.8825L60.565 93.475C60.9009 92.935 61.2144 92.5675 61.2144 91.885C61.2144 91.33 61.0577 90.985 60.6098 90.985C60.035 90.985 59.8932 91.525 59.8932 92.1025V92.305H59.0945V92.095C59.0945 91.0075 59.4976 90.325 60.5725 90.325C61.5428 90.325 62.0206 90.91 62.0206 91.8925C62.0206 92.6725 61.7071 93.1075 61.3562 93.6475L59.9679 95.7775H61.8787V96.4525H59.0273V95.8825Z" fill="#17313B"/>
<path d="M63.4688 94.7275V92.11C63.4688 91.045 63.9166 90.325 64.9691 90.325C66.0216 90.325 66.462 91.045 66.462 92.11V94.7275C66.462 95.7775 65.9992 96.52 64.9691 96.52C63.939 96.52 63.4688 95.77 63.4688 94.7275ZM65.6558 94.735V92.1025C65.6558 91.5175 65.5438 90.9775 64.9691 90.9775C64.3943 90.9775 64.2749 91.5175 64.2749 92.1025V94.735C64.2749 95.2975 64.4093 95.86 64.9691 95.86C65.5289 95.86 65.6558 95.2975 65.6558 94.735Z" fill="#17313B"/>
<path d="M67.9492 95.8825L69.4869 93.475C69.8228 92.935 70.1363 92.5675 70.1363 91.885C70.1363 91.33 69.9795 90.985 69.5317 90.985C68.9569 90.985 68.8151 91.525 68.8151 92.1025V92.305H68.0164V92.095C68.0164 91.0075 68.4195 90.325 69.4943 90.325C70.4647 90.325 70.9424 90.91 70.9424 91.8925C70.9424 92.6725 70.6289 93.1075 70.2781 93.6475L68.8897 95.7775H70.8006V96.4525H67.9492V95.8825Z" fill="#17313B"/>
<path d="M73.2322 91.4274C73.2098 91.4574 72.1946 91.6449 72.1797 91.6449V91.0374C72.523 90.9549 73.1202 90.7824 73.4262 90.3774H74.0309V96.4524H73.2322V91.4274Z" fill="#17313B"/>
<path d="M60.3802 19.2212H59.1523V18.465H62.5835V19.2212H61.3917V25.7562H60.379V19.2212H60.3802Z" fill="#17313B"/>
<path d="M64.043 23.4687V20.705C64.043 19.265 64.563 18.4012 66.0322 18.4012C67.5015 18.4012 68.0115 19.2737 68.0115 20.705V23.4775C68.0115 24.9087 67.4915 25.8362 66.0322 25.8362C64.5729 25.8362 64.043 24.9187 64.043 23.4687ZM66.9902 23.6937V20.4987C66.9902 19.6887 66.8384 19.1937 66.0322 19.1937C65.2261 19.1937 65.0643 19.6887 65.0643 20.4987V23.6937C65.0643 24.5037 65.2161 25.035 66.0322 25.035C66.8483 25.035 66.9902 24.5037 66.9902 23.6937Z" fill="#17313B"/>
<path d="M69.9036 18.465H71.7037C73.0026 18.465 73.4952 19.2125 73.4952 20.4812C73.4952 21.6425 72.8956 22.3625 71.7125 22.3625H70.915V25.7562H69.9023V18.465H69.9036ZM71.3815 21.6337C72.2499 21.6337 72.5373 21.3912 72.5373 20.49C72.5373 19.455 72.4029 19.1937 71.3902 19.1937H70.915V21.6325H71.3815V21.6337Z" fill="#17313B"/>
<path d="M34.4932 33.475C34.4658 33.5112 33.2479 33.7362 33.2305 33.7362V33.0075C33.6423 32.9087 34.3588 32.7012 34.7271 32.215H35.4524V39.5062H34.4944V33.4762L34.4932 33.475Z" fill="#17313B"/>
<path d="M37.9258 37.435V34.2937C37.9258 33.0162 38.4632 32.1512 39.7259 32.1512C40.9887 32.1512 41.5174 33.015 41.5174 34.2937V37.435C41.5174 38.695 40.9625 39.5862 39.7259 39.5862C38.4893 39.5862 37.9258 38.6862 37.9258 37.435ZM40.5508 37.4437V34.285C40.5508 33.5825 40.4164 32.935 39.7272 32.935C39.038 32.935 38.8937 33.5825 38.8937 34.285V37.4437C38.8937 38.1187 39.0554 38.7937 39.7272 38.7937C40.399 38.7937 40.5508 38.1187 40.5508 37.4437Z" fill="#17313B"/>
<path d="M43.4492 37.435V34.2937C43.4492 33.0162 43.9867 32.1512 45.2494 32.1512C46.5121 32.1512 47.0408 33.015 47.0408 34.2937V37.435C47.0408 38.695 46.486 39.5862 45.2494 39.5862C44.0128 39.5862 43.4492 38.6862 43.4492 37.435ZM46.0742 37.4437V34.285C46.0742 33.5825 45.9398 32.935 45.2506 32.935C44.5614 32.935 44.4171 33.5825 44.4171 34.285V37.4437C44.4171 38.1187 44.5788 38.7937 45.2506 38.7937C45.9224 38.7937 46.0742 38.1187 46.0742 37.4437Z" fill="#17313B"/>
<path d="M48.9766 37.435V34.2937C48.9766 33.0162 49.514 32.1512 50.7767 32.1512C52.0394 32.1512 52.5682 33.015 52.5682 34.2937V37.435C52.5682 38.695 52.0133 39.5862 50.7767 39.5862C49.5401 39.5862 48.9766 38.6862 48.9766 37.435ZM51.6015 37.4437V34.285C51.6015 33.5825 51.4672 32.935 50.778 32.935C50.0888 32.935 49.9444 33.5825 49.9444 34.285V37.4437C49.9444 38.1187 50.1062 38.7937 50.778 38.7937C51.4498 38.7937 51.6015 38.1187 51.6015 37.4437Z" fill="#17313B"/>
<path d="M57.3594 37.165V34.5912C57.3594 33.115 57.7712 32.1525 59.3126 32.1525C60.6649 32.1525 61.1401 32.935 61.1401 34.25V34.8262H60.1809V34.3137C60.1809 33.5037 60.1635 32.9462 59.3213 32.9462C58.479 32.9462 58.3808 33.54 58.3808 34.44V37.3287C58.3808 38.4275 58.6221 38.7875 59.3213 38.7875C60.1361 38.7875 60.1809 38.2025 60.1809 37.3387V36.7987H61.1401V37.3387C61.1401 38.68 60.737 39.5887 59.3126 39.5887C57.7724 39.5887 57.3594 38.5262 57.3594 37.1675V37.165Z" fill="#17313B"/>
<path d="M62.8672 37.2187V34.455C62.8672 33.015 63.3872 32.1512 64.8564 32.1512C66.3257 32.1512 66.8358 33.0237 66.8358 34.455V37.2275C66.8358 38.6587 66.3157 39.5862 64.8564 39.5862C63.3972 39.5862 62.8672 38.6687 62.8672 37.2187ZM65.8144 37.4437V34.2487C65.8144 33.4387 65.6626 32.9437 64.8564 32.9437C64.0503 32.9437 63.8886 33.4387 63.8886 34.2487V37.4437C63.8886 38.2537 64.0403 38.785 64.8564 38.785C65.6726 38.785 65.8144 38.2537 65.8144 37.4437Z" fill="#17313B"/>
<path d="M68.8441 32.215H69.8381L71.1194 38.1287L72.4095 32.215H73.3948L73.5292 39.5062H72.7143L72.6335 34.2137L71.4068 39.5062H70.8333L69.6154 34.2137L69.5345 39.5062H68.7109L68.8453 32.215H68.8441Z" fill="#17313B"/>
<path d="M75.5364 32.215H77.3366C78.6354 32.215 79.128 32.9625 79.128 34.2312C79.128 35.3925 78.5284 36.1125 77.3453 36.1125H76.5478V39.5062H75.5352V32.215H75.5364ZM77.0144 35.3837C77.884 35.3837 78.1701 35.1412 78.1701 34.24C78.1701 33.205 78.0357 32.9437 77.0231 32.9437H76.5478V35.3825H77.0131L77.0144 35.3837Z" fill="#17313B"/>
<path d="M81.535 32.215H82.5116L84.0617 39.5062H83.1038L82.7728 37.67H81.2949L80.9453 39.5062H79.9961L81.5362 32.215H81.535ZM82.6372 36.94L82.0276 33.655L81.4268 36.94H82.636H82.6372Z" fill="#17313B"/>
<path d="M85.6914 32.215H86.3806L88.4408 37.0575V32.215H89.283V39.5062H88.6386L86.5511 34.5287V39.5062H85.6914V32.215Z" fill="#17313B"/>
<path d="M91.3711 32.215H92.3651V39.5062H91.3711V32.215Z" fill="#17313B"/>
<path d="M94.4336 32.215H97.2464V32.9712H95.4463V35.3837H96.9068V36.1037H95.4463V38.7775H97.2651V39.5062H94.4348V32.215H94.4336Z" fill="#17313B"/>
<path d="M98.7617 37.4626L99.6574 37.2201C99.7109 38.0026 99.9087 38.7863 100.688 38.7863C101.208 38.7863 101.485 38.4888 101.485 37.9313C101.485 37.2738 101.154 36.9326 100.696 36.5276L99.4783 35.4476C98.9944 35.0251 98.7791 34.5651 98.7791 33.8363C98.7791 32.7651 99.4335 32.1538 100.481 32.1538C101.637 32.1538 102.192 32.7563 102.309 34.0351L101.449 34.2688C101.395 33.5488 101.234 32.9363 100.481 32.9363C99.9797 32.9363 99.6836 33.2063 99.6836 33.7376C99.6836 34.1788 99.8179 34.4301 100.159 34.7276L101.387 35.8076C101.933 36.2938 102.425 36.9413 102.425 37.8513C102.425 38.9313 101.7 39.5888 100.688 39.5888C99.4248 39.5888 98.8326 38.7251 98.7617 37.4651V37.4626Z" fill="#17313B"/>
<path d="M29.2344 47.3125H105.122" stroke="#6A797D"/>
<path d="M29.2344 69.0625H105.122" stroke="#6A797D"/>
<path d="M57.4776 51.625H55.2383V63.625H57.4776V51.625Z" fill="#17313B"/>
<path d="M64.4718 59.985C64.4718 61.86 62.7874 62 62.3022 62C61.1017 62 60.8019 60.8988 60.8019 60.2425V55.625H59.0938V60.2425C59.0938 61.3913 59.4396 62.3525 60.0865 63.0075C60.6638 63.57 61.4712 63.875 62.4179 63.875C63.1569 63.875 63.7565 63.64 64.4718 63.2188V63.5463H66.4337V55.6238H64.4718V59.9838V59.985Z" fill="#17313B"/>
<path d="M70.7781 52.875H68.5488V55.6587H67.3047V57.19H68.5488V63.5H70.7781V57.19H72.2809V55.6587H70.7781V52.875Z" fill="#17313B"/>
<path d="M78.5675 61.3063C78.1009 61.7013 77.5187 61.9113 76.9128 61.8875C75.5145 61.8875 74.4658 60.8875 74.4658 59.5375C74.4658 58.1875 75.4672 57.235 76.9128 57.235C77.5187 57.235 78.1246 57.445 78.5911 57.8163L78.8934 58.0725L80.2445 56.77L79.8949 56.4675C79.0788 55.77 78.0076 55.3738 76.8892 55.3738C74.3725 55.3738 72.5312 57.1188 72.5312 59.5375C72.5312 61.9563 74.4185 63.7475 76.8892 63.7475C78.0076 63.7713 79.08 63.375 79.9185 62.6538L80.2445 62.3513L78.8698 61.0488L78.5675 61.305V61.3063Z" fill="#17313B"/>
<path d="M87.4738 56.4437C86.8891 55.8825 86.0468 55.5787 85.0876 55.5787C84.3387 55.5787 83.5438 55.8125 82.9814 56.2337V51.6262H80.9922V63.6262H82.9814V59.4625C82.9814 57.5912 84.5726 57.4512 85.064 57.4512C86.2571 57.4512 86.4686 58.5512 86.4686 59.2062V63.6275H88.4578V59.2062C88.4342 58.0362 88.153 57.0775 87.475 56.4462L87.4738 56.4437Z" fill="#17313B"/>
<path d="M76.8835 61C77.7083 61 78.3764 60.385 78.3764 59.625C78.3764 58.865 77.7083 58.25 76.8835 58.25C76.0587 58.25 75.3906 58.865 75.3906 59.625C75.3906 60.385 76.0587 61 76.8835 61Z" fill="#FF3D2E"/>
<path d="M52.7427 60.7375C51.9776 61.4787 50.9326 61.92 49.8416 61.8963C47.591 61.8963 45.9663 60.2037 45.9663 57.8862C45.9663 55.5687 47.591 53.8537 49.8416 53.8537C50.9326 53.8537 51.9764 54.2713 52.7191 55.0125L53.0214 55.3138L54.3675 54.0163L54.0664 53.715C52.953 52.6025 51.4215 52 49.8204 52C46.5249 52 44.043 54.5262 44.043 57.8862C44.043 61.2462 46.5261 63.75 49.8204 63.75C51.4215 63.75 52.953 63.1475 54.0664 62.035L54.3675 61.7337L53.045 60.4125L52.744 60.7375H52.7427Z" fill="#17313B"/>
<defs>
<linearGradient id="paint0_linear_5795_20584" x1="-60.1995" y1="-66.2575" x2="140.162" y2="122.668" gradientUnits="userSpaceOnUse">
<stop stop-color="#D2AE73"/>
<stop offset="0.12" stop-color="#BD9155"/>
<stop offset="0.32" stop-color="#F9E2B2"/>
<stop offset="0.97" stop-color="#BD9155"/>
</linearGradient>
</defs>
</svg>
