<svg width="101" height="110" viewBox="0 0 101 110" fill="none" xmlns="http://www.w3.org/2000/svg">
<path d="M100.728 27.7363V82.2637L50.6374 109.527L0.546875 82.2637V27.7363L50.6374 0.472595L100.728 27.7363Z" fill="white"/>
<path d="M50.5 110L50.3089 109.895L0 82.5132V27.5L0.215345 27.3849L50.5 0L50.6911 0.104907L101 27.5V82.5275L50.5 110ZM0.818919 82.0131L50.5 109.054L100.181 82.0131V27.9869L50.5 0.946204L0.818919 27.9869V82.0131Z" fill="#6A797D"/>
<path d="M98.271 29.2193V80.7807L50.5007 106.562L2.73047 80.7807V29.2193L50.5007 3.4375L98.271 29.2193Z" fill="#6A797D"/>
<path d="M98.271 39.875H2.73047V70.125H98.271V39.875Z" fill="#17313B"/>
<path d="M93.631 31.2807V78.7193L50.6378 102.438L7.64453 78.7193V31.2807L50.6378 7.5625L93.631 31.2807Z" fill="white" stroke="#17313B" stroke-width="2" stroke-miterlimit="10"/>
<path d="M96.9046 42.625H4.09375V67.375H96.9046V42.625Z" fill="#17313B"/>
<path d="M14.332 70.125H86.6699" stroke="#17313B" stroke-miterlimit="10"/>
<path d="M14.332 39.875H86.6699" stroke="#17313B" stroke-miterlimit="10"/>
<path d="M40.6989 48.4H38.2422V61.325H40.6989V48.4Z" fill="white"/>
<path d="M48.6148 57.475C48.6148 59.4876 46.7232 59.6475 46.1934 59.6475C44.867 59.6475 44.5202 58.4701 44.5202 57.7612V52.8H42.6094V57.75C42.6094 58.9987 42.9996 60.0294 43.7255 60.7149C44.4403 61.3504 45.3684 61.6876 46.3218 61.655C47.1347 61.6346 47.9273 61.3932 48.6148 60.9563V61.325H50.7986V52.8H48.6148V57.475Z" fill="white"/>
<path d="M55.4388 49.775H52.982V52.8H51.6172V54.45H52.982V61.325H55.4388V54.45H57.0766V52.8H55.4388V49.775Z" fill="white"/>
<path d="M64.1471 58.9549C63.6304 59.3796 62.9824 59.6068 62.3151 59.5955C60.7592 59.5955 59.6177 58.52 59.6177 57.0431C59.6177 55.5663 60.7096 54.5376 62.3151 54.5376C62.9844 54.5254 63.6365 54.7484 64.1602 55.167L64.4989 55.442L66.0053 54.0232L65.6282 53.7044C64.693 52.9273 63.5132 52.5087 62.301 52.525C59.5086 52.525 57.4805 54.4255 57.4805 57.035C57.4805 59.6444 59.5581 61.6 62.301 61.6C63.5192 61.6193 64.7041 61.1967 65.6393 60.4093L66.0023 60.0875L64.4736 58.6687L64.1461 58.9549H64.1471Z" fill="white"/>
<path d="M74.0381 53.6026C73.3101 52.9681 72.3719 52.633 71.4094 52.6646C70.5824 52.6544 69.7726 52.8978 69.0861 53.3633V48.4H66.9023V61.325H69.0861V56.8425C69.0861 54.8299 70.8412 54.667 71.371 54.667C72.6975 54.667 72.9078 55.8464 72.9078 56.5563V61.325H75.0915V56.5675C75.0915 55.3188 74.7751 54.2901 74.0381 53.6026Z" fill="white"/>
<path d="M62.2308 58.5893C63.1219 58.5893 63.8443 57.9071 63.8443 57.0656C63.8443 56.2241 63.1219 55.5419 62.2308 55.5419C61.3396 55.5419 60.6172 56.2241 60.6172 57.0656C60.6172 57.9071 61.3396 58.5893 62.2308 58.5893Z" fill="#FF3D2E"/>
<path d="M35.5452 58.3244C34.6778 59.1515 33.5242 59.6078 32.3292 59.5945C29.8401 59.5945 28.0304 57.752 28.0304 55.222C28.0304 52.692 29.8401 50.8383 32.3292 50.8383C33.5171 50.8322 34.6636 51.2834 35.5341 52.0982L35.8728 52.4201L37.3661 51.0125L37.0385 50.6906C35.7676 49.4796 34.0783 48.8155 32.3292 48.8369C28.6633 48.8369 25.9062 51.5869 25.9062 55.2332C25.9062 58.8795 28.6744 61.6 32.3292 61.6C34.0843 61.6204 35.7788 60.9502 37.0516 59.733L37.3792 59.4142L35.8971 57.9842L35.5452 58.3254V58.3244Z" fill="white"/>
<path d="M46.1838 18.3333V14.6035H44.8008V14.1044H48.128V14.6035H46.7389V18.3333H46.1838Z" fill="#17313B"/>
<path d="M49.0078 16.2739C49.0078 15.5721 49.1948 15.0221 49.5689 14.6249C49.943 14.2277 50.4263 14.0291 51.0177 14.0291C51.4049 14.0291 51.7547 14.1228 52.0661 14.3091C52.3775 14.4955 52.6141 14.7553 52.7779 15.0893C52.9406 15.4234 53.0225 15.8013 53.0225 16.224C53.0225 16.6466 52.9366 17.0367 52.7647 17.3749C52.5929 17.713 52.3492 17.9697 52.0348 18.1439C51.7193 18.318 51.3796 18.4046 51.0157 18.4046C50.6204 18.4046 50.2675 18.3089 49.9561 18.1164C49.6447 17.9239 49.4092 17.6621 49.2484 17.3291C49.0877 16.996 49.0078 16.6446 49.0078 16.2728V16.2739ZM49.58 16.282C49.58 16.7913 49.7165 17.1926 49.9885 17.4859C50.2605 17.7792 50.6012 17.9259 51.0116 17.9259C51.4221 17.9259 51.7739 17.7782 52.0439 17.4818C52.3138 17.1854 52.4493 16.7658 52.4493 16.2209C52.4493 15.8766 52.3917 15.5762 52.2764 15.3195C52.1612 15.0628 51.9923 14.8642 51.7699 14.7227C51.5475 14.5811 51.2978 14.5108 51.0207 14.5108C50.6275 14.5108 50.2888 14.6473 50.0057 14.9192C49.7226 15.1912 49.58 15.6454 49.58 16.282Z" fill="#17313B"/>
<path d="M54.3242 18.3333V14.1044H55.9075C56.1865 14.1044 56.3988 14.1177 56.5464 14.1452C56.7527 14.1798 56.9256 14.246 57.0651 14.3428C57.2046 14.4395 57.3168 14.576 57.4017 14.7512C57.4867 14.9264 57.5291 15.1189 57.5291 15.3277C57.5291 15.6872 57.4159 15.9917 57.1884 16.2403C56.9609 16.4898 56.5505 16.6141 55.957 16.6141H54.8803V18.3333H54.3252H54.3242ZM54.8793 16.115H55.9641C56.323 16.115 56.5778 16.0478 56.7284 15.9133C56.879 15.7789 56.9549 15.5894 56.9549 15.345C56.9549 15.1678 56.9104 15.017 56.8214 14.8907C56.7324 14.7644 56.6162 14.6819 56.4706 14.6412C56.3766 14.6157 56.2047 14.6035 55.952 14.6035H54.8783V16.115H54.8793Z" fill="#17313B"/>
<path d="M32.8329 27.4999L31.7188 23.2711H32.289L32.9279 26.0435C32.9967 26.3337 33.0553 26.622 33.1059 26.9092C33.213 26.457 33.2757 26.1962 33.2949 26.128L34.0936 23.2721H34.7639L35.3655 25.412C35.5161 25.9426 35.6253 26.4417 35.692 26.9092C35.7456 26.6424 35.8154 26.3348 35.9013 25.9895L36.5595 23.2721H37.1175L35.967 27.501H35.4312L34.5465 24.2794C34.4717 24.0105 34.4283 23.8445 34.4151 23.7834C34.3716 23.9779 34.3302 24.1429 34.2918 24.2794L33.4011 27.501H32.8339L32.8329 27.4999Z" fill="#17313B"/>
<path d="M38.2344 27.4999V23.2711H41.2694V23.7701H38.7894V25.0657H41.1117V25.5617H38.7894V27.0009H41.3665V27.4999H38.2344Z" fill="#17313B"/>
<path d="M42.6953 27.4999V23.2711H44.2705C44.591 23.2711 44.8488 23.3138 45.0419 23.3994C45.236 23.4849 45.3876 23.6163 45.4968 23.7946C45.607 23.9728 45.6616 24.1582 45.6616 24.3527C45.6616 24.533 45.6131 24.7041 45.516 24.863C45.419 25.0219 45.2714 25.1512 45.0752 25.249C45.329 25.3244 45.5241 25.4517 45.6606 25.633C45.7971 25.8143 45.8658 26.0272 45.8658 26.2736C45.8658 26.4712 45.8244 26.6556 45.7415 26.8257C45.6586 26.9958 45.5555 27.1272 45.4341 27.2199C45.3118 27.3125 45.1591 27.3818 44.9741 27.4286C44.7901 27.4755 44.5647 27.4989 44.2968 27.4989H42.6963L42.6953 27.4999ZM43.2504 25.0484H44.1582C44.4049 25.0484 44.5809 25.0321 44.688 24.9995C44.8296 24.9567 44.9357 24.8874 45.0075 24.7887C45.0793 24.6899 45.1147 24.5676 45.1147 24.4199C45.1147 24.2794 45.0813 24.1561 45.0146 24.0492C44.9478 23.9423 44.8518 23.8689 44.7285 23.8302C44.6041 23.7905 44.3918 23.7712 44.0895 23.7712H43.2504V25.0494V25.0484ZM43.2504 27.0009H44.2957C44.4747 27.0009 44.6011 26.9937 44.6739 26.9805C44.8012 26.9571 44.9084 26.9194 44.9944 26.8654C45.0803 26.8114 45.1511 26.733 45.2067 26.6301C45.2623 26.5273 45.2896 26.4081 45.2896 26.2736C45.2896 26.1158 45.2491 25.9793 45.1693 25.8622C45.0894 25.7461 44.9782 25.6646 44.8356 25.6167C44.6931 25.5699 44.4888 25.5464 44.2219 25.5464H43.2514V26.9999L43.2504 27.0009Z" fill="#17313B"/>
<path d="M49.4336 27.4999V23.2711H50.8793C51.2059 23.2711 51.4546 23.2914 51.6265 23.3312C51.8671 23.3872 52.0723 23.488 52.2422 23.6336C52.4636 23.8221 52.6294 24.0624 52.7386 24.3558C52.8478 24.6491 52.9034 24.9842 52.9034 25.3611C52.9034 25.6819 52.866 25.9671 52.7922 26.2146C52.7184 26.4621 52.6223 26.6678 52.5061 26.8308C52.3898 26.9937 52.2624 27.1211 52.1239 27.2148C51.9854 27.3085 51.8186 27.3787 51.6224 27.4266C51.4263 27.4745 51.2019 27.4989 50.9481 27.4989H49.4336V27.4999ZM49.9886 27.0009H50.8844C51.1614 27.0009 51.3788 26.9754 51.5355 26.9235C51.6922 26.8715 51.8186 26.7982 51.9116 26.7045C52.043 26.5721 52.1461 26.3938 52.2189 26.1698C52.2927 25.9457 52.3291 25.6737 52.3291 25.3549C52.3291 24.9129 52.2573 24.5727 52.1128 24.3354C51.9682 24.0981 51.7933 23.9392 51.587 23.8577C51.4384 23.7997 51.1988 23.7712 50.8682 23.7712H49.9866V27.0019L49.9886 27.0009Z" fill="#17313B"/>
<path d="M54.2656 27.4999V23.2711H57.3007V23.7701H54.8207V25.0657H57.143V25.5617H54.8207V27.0009H57.3977V27.4999H54.2656Z" fill="#17313B"/>
<path d="M58.5596 26.1413L59.0833 26.0954C59.1086 26.3073 59.1662 26.4804 59.2562 26.6159C59.3472 26.7513 59.4877 26.8613 59.6788 26.9449C59.8699 27.0284 60.0842 27.0701 60.3228 27.0701C60.5351 27.0701 60.7222 27.0386 60.8839 26.9754C61.0457 26.9123 61.167 26.8247 61.2459 26.7147C61.3247 26.6037 61.3652 26.4835 61.3652 26.3531C61.3652 26.2227 61.3267 26.1046 61.2509 26.0058C61.1751 25.907 61.0487 25.8235 60.8728 25.7563C60.7606 25.7125 60.5109 25.6432 60.1257 25.5505C59.7405 25.4568 59.4695 25.3692 59.3158 25.2867C59.1157 25.1808 58.966 25.0494 58.868 24.8925C58.7699 24.7357 58.7204 24.5605 58.7204 24.366C58.7204 24.1521 58.78 23.9535 58.9003 23.7671C59.0206 23.5817 59.1965 23.4401 59.4271 23.3444C59.6576 23.2487 59.9144 23.1998 60.1974 23.1998C60.5088 23.1998 60.7828 23.2507 61.0204 23.3515C61.258 23.4524 61.441 23.6011 61.5684 23.7976C61.6958 23.9942 61.7645 24.2162 61.7746 24.4638L61.2418 24.5045C61.2135 24.2376 61.1165 24.035 60.9517 23.8985C60.7869 23.762 60.5422 23.6938 60.2197 23.6938C59.8972 23.6938 59.6394 23.7559 59.4857 23.8801C59.332 24.0044 59.2552 24.1541 59.2552 24.3283C59.2552 24.48 59.3098 24.6053 59.418 24.7031C59.5251 24.8009 59.8042 24.9017 60.2551 25.0046C60.707 25.1075 61.0164 25.1971 61.1842 25.2745C61.4289 25.3875 61.6088 25.5322 61.7251 25.7053C61.8413 25.8795 61.9 26.0801 61.9 26.3062C61.9 26.5324 61.8363 26.7432 61.7079 26.9418C61.5805 27.1414 61.3965 27.2952 61.1569 27.4062C60.9173 27.5162 60.6473 27.5723 60.3481 27.5723C59.9679 27.5723 59.6495 27.5163 59.3937 27.4052C59.1369 27.2942 58.9357 27.1262 58.7891 26.9021C58.6435 26.678 58.5667 26.4244 58.5586 26.1423L58.5596 26.1413Z" fill="#17313B"/>
<path d="M63.3438 27.4999V23.2711H63.8988V27.4999H63.3438Z" fill="#17313B"/>
<path d="M67.4291 25.8418V25.3458L69.2075 25.3428V26.9123C68.9345 27.1313 68.6535 27.2963 68.3633 27.4073C68.0732 27.5173 67.7749 27.5733 67.4696 27.5733C67.0571 27.5733 66.683 27.4847 66.3453 27.3065C66.0087 27.1282 65.7539 26.8715 65.582 26.5344C65.4102 26.1973 65.3242 25.8215 65.3242 25.4069C65.3242 24.9924 65.4091 24.6115 65.58 24.255C65.7509 23.8985 65.9965 23.6337 66.317 23.4605C66.6375 23.2874 67.0076 23.2008 67.4251 23.2008C67.7284 23.2008 68.0034 23.2507 68.2481 23.3495C68.4937 23.4483 68.6858 23.5868 68.8254 23.763C68.9649 23.9392 69.071 24.1704 69.1428 24.4556L68.6413 24.5941C68.5787 24.3792 68.4998 24.2091 68.4068 24.0869C68.3138 23.9647 68.1793 23.8649 68.0064 23.7915C67.8325 23.7172 67.6404 23.6805 67.4281 23.6805C67.1744 23.6805 66.955 23.7192 66.77 23.7977C66.5849 23.8751 66.4353 23.9779 66.3221 24.1053C66.2089 24.2326 66.1199 24.3721 66.0572 24.5239C65.95 24.7856 65.8965 25.0688 65.8965 25.3743C65.8965 25.7512 65.9612 26.0669 66.0896 26.3205C66.219 26.5741 66.406 26.7626 66.6527 26.8858C66.8994 27.009 67.1602 27.0702 67.4372 27.0702C67.6779 27.0702 67.9124 27.0233 68.1419 26.9306C68.3714 26.8369 68.5443 26.7381 68.6626 26.6322V25.8449H67.4281L67.4291 25.8418Z" fill="#17313B"/>
<path d="M70.6055 27.4999V23.2711H71.1757L73.3807 26.5914V23.2711H73.9135V27.4999H73.3433L71.1383 24.1775V27.4999H70.6055Z" fill="#17313B"/>
<path d="M39.1915 35.1837L39.7466 35.3252C39.6303 35.7846 39.421 36.135 39.1177 36.3763C38.8154 36.6177 38.4454 36.7379 38.0086 36.7379C37.5719 36.7379 37.1887 36.6452 36.9046 36.4599C36.6215 36.2745 36.4052 36.0056 36.2576 35.6532C36.11 35.3008 36.0352 34.9229 36.0352 34.5196C36.0352 34.0796 36.1191 33.6956 36.2859 33.3676C36.4527 33.0397 36.6903 32.7912 36.9986 32.6211C37.307 32.451 37.6467 32.3654 38.0167 32.3654C38.4363 32.3654 38.7902 32.4734 39.0763 32.6883C39.3624 32.9032 39.5616 33.2067 39.6748 33.5968L39.1278 33.7262C39.0308 33.4186 38.8892 33.1945 38.7042 33.0539C38.5192 32.9134 38.2867 32.8431 38.0056 32.8431C37.6831 32.8431 37.4132 32.9205 37.1968 33.0763C36.9805 33.2322 36.8278 33.441 36.7398 33.7038C36.6519 33.9665 36.6084 34.2364 36.6084 34.5155C36.6084 34.875 36.66 35.1888 36.7641 35.4576C36.8682 35.7255 37.03 35.9262 37.2494 36.0586C37.4688 36.191 37.7064 36.2572 37.9621 36.2572C38.2735 36.2572 38.5364 36.1665 38.7528 35.9863C38.9691 35.806 39.1147 35.5371 39.1905 35.1816L39.1915 35.1837Z" fill="#17313B"/>
<path d="M40.8477 34.6072C40.8477 33.9054 41.0347 33.3554 41.4088 32.9582C41.7828 32.561 42.2661 32.3624 42.8575 32.3624C43.2448 32.3624 43.5946 32.4561 43.906 32.6425C44.2174 32.8288 44.4539 33.0886 44.6177 33.4226C44.7805 33.7567 44.8624 34.1346 44.8624 34.5573C44.8624 34.98 44.7764 35.3701 44.6046 35.7082C44.4327 36.0463 44.189 36.303 43.8746 36.4772C43.5592 36.6513 43.2195 36.7379 42.8555 36.7379C42.4602 36.7379 42.1074 36.6422 41.796 36.4497C41.4846 36.2572 41.249 35.9954 41.0883 35.6624C40.9275 35.3293 40.8477 34.9779 40.8477 34.6062V34.6072ZM41.4199 34.6153C41.4199 35.1246 41.5554 35.5259 41.8283 35.8192C42.1003 36.1126 42.441 36.2592 42.8515 36.2592C43.262 36.2592 43.6138 36.1115 43.8837 35.8151C44.1537 35.5188 44.2891 35.0991 44.2891 34.5542C44.2891 34.21 44.2315 33.9095 44.1163 33.6528C44.001 33.3962 43.8322 33.1976 43.6097 33.056C43.3873 32.9144 43.1376 32.8441 42.8606 32.8441C42.4673 32.8441 42.1286 32.9806 41.8455 33.2526C41.5624 33.5245 41.4199 33.9788 41.4199 34.6153Z" fill="#17313B"/>
<path d="M46.1455 36.6666V32.4377H46.9816L47.9755 35.4322C48.0675 35.7113 48.1342 35.9201 48.1757 36.0586C48.2232 35.9048 48.298 35.6787 48.3991 35.3802L49.404 32.4377H50.1512V36.6666H49.6153V33.1273L48.3961 36.6666H47.8946L46.6804 33.0672V36.6666H46.1445H46.1455Z" fill="#17313B"/>
<path d="M51.6367 36.6666V32.4377H53.22C53.499 32.4377 53.7113 32.451 53.8589 32.4785C54.0652 32.5131 54.2381 32.5793 54.3766 32.6761C54.5161 32.7728 54.6283 32.9093 54.7132 33.0845C54.7982 33.2597 54.8406 33.4522 54.8406 33.661C54.8406 34.0205 54.7274 34.3251 54.4999 34.5736C54.2724 34.8231 53.862 34.9474 53.2685 34.9474H52.1918V36.6666H51.6367ZM52.1918 34.4483H53.2766C53.6355 34.4483 53.8903 34.3811 54.0409 34.2466C54.1915 34.1122 54.2674 33.9227 54.2674 33.6783C54.2674 33.5011 54.2229 33.3503 54.1339 33.224C54.0449 33.0977 53.9277 33.0152 53.7831 32.9745C53.6891 32.949 53.5172 32.9368 53.2644 32.9368H52.1908V34.4483H52.1918Z" fill="#17313B"/>
<path d="M55.2383 36.6666L56.8498 32.4377H57.4483L59.1661 36.6666H58.5332L58.0438 35.3864H56.2887L55.8277 36.6666H55.2383ZM56.4495 34.9301H57.873L57.4352 33.7588C57.3018 33.4033 57.2027 33.111 57.137 32.8818C57.0834 33.1527 57.0086 33.4226 56.9105 33.6895L56.4495 34.9301Z" fill="#17313B"/>
<path d="M60.1914 36.6666V32.4377H60.7616L62.9666 35.7581V32.4377H63.4994V36.6666H62.9292L60.7242 33.3442V36.6666H60.1914Z" fill="#17313B"/>
<path d="M66.1996 36.6666V34.8751L64.582 32.4377H65.2574L66.0844 33.7129C66.2371 33.9513 66.3796 34.1896 66.511 34.4279C66.6374 34.2069 66.7901 33.9574 66.969 33.6814L67.7819 32.4377H68.4289L66.7537 34.8751V36.6666H66.1986H66.1996Z" fill="#17313B"/>
<path d="M30.5789 74.7063H31.134V77.1497C31.134 77.5744 31.0865 77.9126 30.9904 78.1621C30.8944 78.4117 30.7225 78.6154 30.4738 78.7722C30.2251 78.9291 29.8975 79.0075 29.4931 79.0075C29.0887 79.0075 28.7783 78.9393 28.5286 78.8028C28.2789 78.6663 28.1 78.4687 27.9928 78.21C27.8856 77.9513 27.832 77.5979 27.832 77.1497V74.7063H28.3871V77.1467C28.3871 77.5144 28.4204 77.7843 28.4892 77.9584C28.5569 78.1326 28.6732 78.267 28.839 78.3607C29.0038 78.4544 29.206 78.5023 29.4446 78.5023C29.853 78.5023 30.1442 78.4086 30.3181 78.2222C30.492 78.0358 30.5789 77.6773 30.5789 77.1467V74.7063Z" fill="#17313B"/>
<path d="M32.6406 78.9352V74.7063H33.2108L35.4158 78.0267V74.7063H35.9487V78.9352H35.3784L33.1734 75.6128V78.9352H32.6406Z" fill="#17313B"/>
<path d="M37.5625 78.9352V74.7063H38.1175V78.9352H37.5625Z" fill="#17313B"/>
<path d="M40.7502 78.9352V75.2054H39.3672V74.7063H42.6944V75.2054H41.3053V78.9352H40.7502Z" fill="#17313B"/>
<path d="M43.8633 78.9352V74.7063H46.8983V75.2054H44.4183V76.5009H46.7406V76.9969H44.4183V78.4361H46.9954V78.9352H43.8633Z" fill="#17313B"/>
<path d="M48.3477 78.9352V74.7063H49.7934C50.12 74.7063 50.3687 74.7267 50.5405 74.7664C50.7812 74.8224 50.9864 74.9232 51.1562 75.0689C51.3777 75.2573 51.5435 75.4977 51.6527 75.791C51.7629 76.0844 51.8174 76.4194 51.8174 76.7963C51.8174 77.1171 51.78 77.4023 51.7062 77.6498C51.6324 77.8973 51.5364 78.1031 51.4201 78.266C51.3039 78.429 51.1765 78.5563 51.038 78.65C50.8994 78.7437 50.7326 78.814 50.5365 78.8619C50.3404 78.9097 50.1159 78.9342 49.8622 78.9342H48.3477V78.9352ZM48.9027 78.4361H49.7985C50.0755 78.4361 50.2928 78.4107 50.4495 78.3587C50.6063 78.3068 50.7326 78.2334 50.8256 78.1397C50.9571 78.0073 51.0602 77.8291 51.133 77.605C51.2068 77.3809 51.2432 77.109 51.2432 76.7902C51.2432 76.3482 51.1714 76.008 51.0268 75.7707C50.8823 75.5333 50.7074 75.3744 50.5011 75.293C50.3525 75.2349 50.1129 75.2064 49.7823 75.2064H48.9007V78.4371L48.9027 78.4361Z" fill="#17313B"/>
<path d="M55.1963 77.5765L55.72 77.5307C55.7453 77.7425 55.8029 77.9157 55.8929 78.0511C55.9839 78.1866 56.1244 78.2966 56.3155 78.3801C56.5066 78.4636 56.7209 78.5054 56.9595 78.5054C57.1718 78.5054 57.3589 78.4738 57.5206 78.4107C57.6824 78.3475 57.8037 78.2599 57.8826 78.1499C57.9614 78.0389 58.0019 77.9187 58.0019 77.7883C58.0019 77.658 57.9635 77.5398 57.8876 77.441C57.8118 77.3422 57.6854 77.2587 57.5095 77.1915C57.3973 77.1477 57.1476 77.0784 56.7624 76.9857C56.3772 76.892 56.1062 76.8045 55.9526 76.722C55.7524 76.616 55.6027 76.4846 55.5047 76.3278C55.4066 76.1709 55.3571 75.9957 55.3571 75.8012C55.3571 75.5873 55.4167 75.3887 55.537 75.2023C55.6573 75.0169 55.8333 74.8754 56.0638 74.7796C56.2943 74.6839 56.5511 74.635 56.8342 74.635C57.1456 74.635 57.4195 74.6859 57.6571 74.7868C57.8947 74.8876 58.0777 75.0363 58.2051 75.2329C58.3325 75.4295 58.4012 75.6515 58.4113 75.899L57.8785 75.9397C57.8502 75.6729 57.7532 75.4702 57.5884 75.3337C57.4236 75.1972 57.1789 75.129 56.8564 75.129C56.5339 75.129 56.2761 75.1911 56.1224 75.3154C55.9687 75.4396 55.8919 75.5894 55.8919 75.7635C55.8919 75.9153 55.9465 76.0406 56.0547 76.1383C56.1618 76.2361 56.4409 76.337 56.8918 76.4398C57.3437 76.5427 57.6531 76.6323 57.8209 76.7097C58.0656 76.8228 58.2455 76.9674 58.3618 77.1406C58.4781 77.3147 58.5367 77.5154 58.5367 77.7415C58.5367 77.9676 58.473 78.1784 58.3446 78.377C58.2172 78.5767 58.0332 78.7305 57.7936 78.8415C57.554 78.9515 57.2841 79.0075 56.9848 79.0075C56.6047 79.0075 56.2862 78.9515 56.0304 78.8405C55.7736 78.7295 55.5724 78.5614 55.4258 78.3373C55.2802 78.1132 55.2034 77.8596 55.1953 77.5775L55.1963 77.5765Z" fill="#17313B"/>
<path d="M60.9495 78.9352V75.2054H59.5664V74.7063H62.8936V75.2054H61.5045V78.9352H60.9495Z" fill="#17313B"/>
<path d="M63.1523 78.9352L64.7639 74.7063H65.3624L67.0801 78.9352H66.4472L65.9579 77.6549H64.2028L63.7418 78.9352H63.1523ZM64.3635 77.1986H65.787L65.3493 76.0273C65.2158 75.6719 65.1167 75.3795 65.051 75.1504C64.9974 75.4213 64.9226 75.6912 64.8246 75.9581L64.3635 77.1986Z" fill="#17313B"/>
<path d="M68.7463 78.9352V75.2054H67.3633V74.7063H70.6905V75.2054H69.3014V78.9352H68.7463Z" fill="#17313B"/>
<path d="M71.8555 78.9352V74.7063H74.8905V75.2054H72.4105V76.5009H74.7328V76.9969H72.4105V78.4361H74.9876V78.9352H71.8555Z" fill="#17313B"/>
<path d="M76.1534 77.5765L76.6771 77.5307C76.7023 77.7425 76.76 77.9157 76.8499 78.0511C76.9409 78.1866 77.0815 78.2966 77.2725 78.3801C77.4636 78.4636 77.678 78.5054 77.9166 78.5054C78.1289 78.5054 78.3159 78.4738 78.4777 78.4107C78.6394 78.3475 78.7608 78.2599 78.8396 78.1499C78.9185 78.0389 78.9589 77.9187 78.9589 77.7883C78.9589 77.658 78.9205 77.5398 78.8447 77.441C78.7688 77.3422 78.6425 77.2587 78.4665 77.1915C78.3543 77.1477 78.1046 77.0784 77.7194 76.9857C77.3342 76.892 77.0633 76.8045 76.9096 76.722C76.7094 76.616 76.5598 76.4846 76.4617 76.3278C76.3636 76.1709 76.3141 75.9957 76.3141 75.8012C76.3141 75.5873 76.3738 75.3887 76.4941 75.2023C76.6144 75.0169 76.7903 74.8754 77.0208 74.7796C77.2513 74.6839 77.5081 74.635 77.7912 74.635C78.1026 74.635 78.3766 74.6859 78.6142 74.7868C78.8517 74.8876 79.0347 75.0363 79.1621 75.2329C79.2895 75.4295 79.3583 75.6515 79.3684 75.899L78.8356 75.9397C78.8073 75.6729 78.7102 75.4702 78.5454 75.3337C78.3806 75.1972 78.1359 75.129 77.8134 75.129C77.4909 75.129 77.2331 75.1911 77.0794 75.3154C76.9258 75.4396 76.8489 75.5894 76.8489 75.7635C76.8489 75.9153 76.9035 76.0406 77.0117 76.1383C77.1189 76.2361 77.3979 76.337 77.8488 76.4398C78.3007 76.5427 78.6101 76.6323 78.7779 76.7097C79.0226 76.8228 79.2026 76.9674 79.3188 77.1406C79.4351 77.3147 79.4937 77.5154 79.4937 77.7415C79.4937 77.9676 79.43 78.1784 79.3016 78.377C79.1743 78.5767 78.9903 78.7305 78.7506 78.8415C78.511 78.9515 78.2411 79.0075 77.9418 79.0075C77.5617 79.0075 77.2432 78.9515 76.9874 78.8405C76.7306 78.7295 76.5295 78.5614 76.3829 78.3373C76.2373 78.1132 76.1604 77.8596 76.1523 77.5775L76.1534 77.5765Z" fill="#17313B"/>
<path d="M46.0325 87.6028V88.1019H43.2583C43.2543 87.9766 43.2745 87.8564 43.318 87.7413C43.3887 87.5509 43.502 87.3634 43.6577 87.1791C43.8134 86.9947 44.0378 86.7809 44.332 86.5385C44.788 86.1616 45.0963 85.8632 45.2571 85.6432C45.4178 85.4232 45.4977 85.2144 45.4977 85.0188C45.4977 84.8131 45.4249 84.6399 45.2783 84.4984C45.1327 84.3568 44.9417 84.2865 44.7071 84.2865C44.4584 84.2865 44.2602 84.3619 44.1116 84.5116C43.963 84.6613 43.8872 84.8691 43.8851 85.1349L43.3554 85.0799C43.3918 84.6817 43.5283 84.3782 43.7648 84.1694C44.0014 83.9606 44.3189 83.8567 44.7182 83.8567C45.1176 83.8567 45.4401 83.9687 45.6746 84.1938C45.9092 84.4189 46.0265 84.698 46.0265 85.03C46.0265 85.1991 45.9921 85.3651 45.9233 85.5291C45.8546 85.6931 45.7404 85.8642 45.5816 86.0455C45.4229 86.2268 45.157 86.4743 44.787 86.79C44.4776 87.0518 44.2794 87.229 44.1915 87.3227C44.1035 87.4164 44.0307 87.5101 43.9741 87.6038H46.0325V87.6028Z" fill="#17313B"/>
<path d="M47.17 86.0159C47.17 85.5158 47.2205 85.1135 47.3227 84.809C47.4248 84.5044 47.5764 84.2692 47.7776 84.1042C47.9788 83.9392 48.2326 83.8557 48.5379 83.8557C48.7633 83.8557 48.9605 83.9015 49.1303 83.9931C49.3002 84.0848 49.4407 84.2162 49.5509 84.3883C49.6611 84.5605 49.7481 84.7703 49.8118 85.0168C49.8744 85.2643 49.9058 85.5973 49.9058 86.0159C49.9058 86.512 49.8552 86.9122 49.7541 87.2178C49.653 87.5223 49.5014 87.7576 49.3002 87.9246C49.099 88.0907 48.8442 88.1742 48.5369 88.1742C48.1325 88.1742 47.814 88.0285 47.5835 87.7362C47.3065 87.3838 47.168 86.8114 47.168 86.017L47.17 86.0159ZM47.6998 86.0159C47.6998 86.7106 47.7806 87.1719 47.9414 87.4021C48.1032 87.6323 48.3013 87.7464 48.5389 87.7464C48.7765 87.7464 48.9746 87.6313 49.1354 87.4001C49.2961 87.1689 49.377 86.7075 49.377 86.0159C49.377 85.3244 49.2961 84.8569 49.1354 84.6287C48.9746 84.4006 48.7735 84.2855 48.5328 84.2855C48.2922 84.2855 48.1072 84.3863 47.9657 84.588C47.7877 84.8457 47.6998 85.3213 47.6998 86.0159Z" fill="#17313B"/>
<path d="M53.7278 87.6028V88.1019H50.9536C50.9496 87.9766 50.9698 87.8564 51.0133 87.7413C51.0841 87.5509 51.1973 87.3634 51.353 87.1791C51.5087 86.9947 51.7331 86.7809 52.0273 86.5385C52.4833 86.1616 52.7916 85.8632 52.9524 85.6432C53.1131 85.4232 53.193 85.2144 53.193 85.0188C53.193 84.8131 53.1202 84.6399 52.9736 84.4984C52.828 84.3568 52.637 84.2865 52.4024 84.2865C52.1547 84.2865 51.9555 84.3619 51.8069 84.5116C51.6583 84.6613 51.5825 84.8691 51.5805 85.1349L51.0507 85.0799C51.0871 84.6817 51.2236 84.3782 51.4601 84.1694C51.6967 83.9606 52.0142 83.8567 52.4135 83.8567C52.8129 83.8567 53.1354 83.9687 53.3699 84.1938C53.6045 84.4189 53.7218 84.698 53.7218 85.03C53.7218 85.1991 53.6874 85.3651 53.6187 85.5291C53.5499 85.6931 53.4357 85.8642 53.2769 86.0455C53.1172 86.2258 52.8523 86.4743 52.4823 86.79C52.1729 87.0518 51.9748 87.229 51.8868 87.3227C51.7988 87.4164 51.726 87.5101 51.6694 87.6038H53.7278V87.6028Z" fill="#17313B"/>
<path d="M54.8711 86.9856L55.3867 86.9163C55.4453 87.2106 55.5465 87.4225 55.689 87.5529C55.8316 87.6822 56.0044 87.7474 56.2087 87.7474C56.4513 87.7474 56.6555 87.6629 56.8234 87.4938C56.9902 87.3247 57.0741 87.1149 57.0741 86.8654C57.0741 86.6158 56.9972 86.4305 56.8426 86.2756C56.6879 86.1208 56.4917 86.0434 56.2531 86.0434C56.1561 86.0434 56.0348 86.0628 55.8892 86.1015L55.9468 85.6462C55.9812 85.6503 56.0085 85.6523 56.0297 85.6523C56.2491 85.6523 56.4462 85.5943 56.6222 85.4792C56.7981 85.3641 56.886 85.1858 56.886 84.9455C56.886 84.755 56.8223 84.5971 56.6939 84.4729C56.5656 84.3486 56.4008 84.2855 56.1986 84.2855C55.9963 84.2855 55.8316 84.3486 55.6971 84.4759C55.5626 84.6032 55.4777 84.7937 55.4393 85.0473L54.9237 84.9546C54.9864 84.6063 55.1299 84.3364 55.3533 84.1459C55.5768 83.9544 55.8548 83.8587 56.1864 83.8587C56.4159 83.8587 56.6262 83.9086 56.8193 84.0074C57.0124 84.1062 57.16 84.2417 57.2621 84.4128C57.3642 84.5839 57.4148 84.7652 57.4148 84.9577C57.4148 85.1502 57.3663 85.307 57.2692 85.4568C57.1722 85.6065 57.0276 85.7256 56.8365 85.8143C57.0842 85.8723 57.2773 85.9915 57.4148 86.1738C57.5523 86.3561 57.621 86.5832 57.621 86.8562C57.621 87.2249 57.4876 87.5386 57.2207 87.7953C56.9538 88.0519 56.6151 88.1803 56.2066 88.1803C55.8386 88.1803 55.5323 88.0693 55.2886 87.8482C55.045 87.6272 54.9065 87.341 54.8721 86.9886L54.8711 86.9856Z" fill="#17313B"/>
</svg>
