<svg width="82" height="110" viewBox="0 0 82 110" fill="none" xmlns="http://www.w3.org/2000/svg">
<path d="M0.30545 23.2269L40.2005 0.0838388C40.3901 -0.0263468 40.6238 -0.0273671 40.8145 0.0807781L81.6894 23.2279C81.8821 23.3371 82 23.5401 82 23.7605V86.5531C82 86.7745 81.8801 86.9785 81.6863 87.0867L40.8114 109.921C40.6228 110.027 40.3912 110.025 40.2036 109.918L0.308525 87.0877C0.117875 86.9785 0 86.7765 0 86.5572V23.7554C0 23.5381 0.115825 23.3361 0.30545 23.2269Z" fill="#B49F7C"/>
<path d="M1.84246 24.1623L40.2185 1.71809C40.4091 1.60688 40.6449 1.60586 40.8355 1.71503L80.1545 24.1633C80.3452 24.2725 80.4641 24.4745 80.4641 24.6938V85.6082C80.4641 85.8285 80.3452 86.0326 80.1525 86.1407L40.8335 108.286C40.6438 108.393 40.4112 108.391 40.2226 108.283L1.84554 86.1428C1.65591 86.0336 1.53906 85.8316 1.53906 85.6133V24.6898C1.53906 24.4725 1.65489 24.2715 1.84246 24.1623Z" fill="#17313B" stroke="#17313B"/>
<path fill-rule="evenodd" clip-rule="evenodd" d="M33.4258 21.7168H34.9028V12.8632H33.4258V21.7168Z" fill="white"/>
<path fill-rule="evenodd" clip-rule="evenodd" d="M39.895 18.9203C39.895 20.2721 38.7316 20.3802 38.3862 20.3802C37.5221 20.3802 37.3642 19.5896 37.3642 19.1121V15.731H35.918V19.1049C35.918 19.9426 36.1875 20.6333 36.659 21.0944C37.0752 21.5015 37.6994 21.7249 38.3759 21.7249C38.8556 21.7249 39.5342 21.579 39.896 21.2566V21.7392H41.3423V15.732H39.896V18.9213L39.895 18.9203Z" fill="white"/>
<path fill-rule="evenodd" clip-rule="evenodd" d="M44.226 13.6079H42.7798V15.729H41.6953V17.143H42.7798V21.7392H44.226V17.143H45.3105V15.729H44.226V13.6079Z" fill="white"/>
<path fill-rule="evenodd" clip-rule="evenodd" d="M49.8751 19.9395C49.5594 20.216 49.1422 20.3701 48.685 20.3701C47.6754 20.3701 46.9343 19.6478 46.9343 18.6551C46.9343 17.6624 47.6518 16.9717 48.685 16.9717C49.134 16.9717 49.5604 17.1176 49.8833 17.3951L50.1036 17.5797L51.0815 16.6258L50.8365 16.4105C50.2615 15.9035 49.4968 15.6188 48.685 15.6188C46.8718 15.6188 45.5547 16.8952 45.5547 18.6489C45.5547 20.4027 46.9026 21.7168 48.685 21.7168C49.5132 21.7168 50.2851 21.4322 50.8529 20.9169L51.0897 20.7017L50.0965 19.7477L49.8751 19.9395Z" fill="white"/>
<path fill-rule="evenodd" clip-rule="evenodd" d="M56.2362 16.2432C55.819 15.8351 55.3301 15.6117 54.6526 15.6117C54.1719 15.6117 53.6276 15.7576 53.2658 16.081V12.8846H51.8164V21.7382H53.2658V18.4214C53.2658 17.0665 54.2498 16.9584 54.5972 16.9584C55.4634 16.9584 55.4398 17.7521 55.4398 18.2286V21.7382H56.8891V18.2367C56.8891 17.3971 56.7098 16.7044 56.2372 16.2432" fill="white"/>
<path fill-rule="evenodd" clip-rule="evenodd" d="M48.6296 17.6511C49.2077 17.6511 49.6771 18.1113 49.6771 18.6785C49.6771 19.2458 49.2077 19.7059 48.6296 19.7059C48.0515 19.7059 47.582 19.2458 47.582 18.6785C47.582 18.1113 48.0505 17.6511 48.6296 17.6511Z" fill="#FF3D2E"/>
<path fill-rule="evenodd" clip-rule="evenodd" d="M31.3576 19.5253C30.8072 20.0803 30.0599 20.3813 29.2738 20.3813C27.6614 20.3813 26.4899 19.1397 26.4899 17.4359C26.4899 15.7321 27.6614 14.4823 29.2738 14.4823C30.0517 14.4823 30.7908 14.7833 31.3494 15.3301L31.5687 15.5464L32.5363 14.5986L32.3242 14.3823C31.5216 13.5733 30.4361 13.1335 29.2738 13.1335C26.8988 13.1335 25.1133 14.9843 25.1133 17.443C25.1133 19.9018 26.906 21.7382 29.2738 21.7382C30.4453 21.7382 31.5308 21.2903 32.3324 20.4813L32.5445 20.265L31.5851 19.3009L31.3566 19.5243L31.3576 19.5253Z" fill="white"/>
<path d="M3.89438 27.6566H78.5144C78.7409 27.6566 78.9244 27.8392 78.9244 28.0647V83.4514C78.9244 83.8197 78.7255 84.1594 78.4026 84.34L41.2423 105.214C40.9266 105.392 40.5392 105.39 40.2255 105.209L3.99585 84.342C3.67913 84.1594 3.48438 83.8227 3.48438 83.4595V28.0647C3.48438 27.8392 3.66785 27.6566 3.89438 27.6566Z" fill="#E8EEF0"/>
<path d="M3.89438 27.6566H78.5144C78.7409 27.6566 78.9244 27.8392 78.9244 28.0647V83.433C78.9244 83.732 78.6118 83.9299 78.3401 83.8023L42.6353 67.1123C42.3657 66.9868 42.0541 66.9827 41.7825 67.1041L4.06145 83.8197C3.78983 83.9401 3.48438 83.7421 3.48438 83.4473V28.0647C3.48438 27.8392 3.66785 27.6566 3.89438 27.6566Z" fill="white"/>
<path d="M22.7792 36.1379H21.7491V38.9854H21.3289V36.1379H20.3008V35.7941H22.7803V36.1379H22.7792Z" fill="#6A797D"/>
<path d="M26.6844 37.4917C26.6844 37.8049 26.6311 38.0773 26.5255 38.31C26.4199 38.5436 26.2703 38.7211 26.0765 38.8435C25.8828 38.966 25.6563 39.0272 25.398 39.0272C25.1397 39.0272 24.9214 38.966 24.7266 38.8415C24.5308 38.718 24.3802 38.5415 24.2715 38.313C24.1639 38.0845 24.1085 37.8192 24.1055 37.5182V37.2877C24.1055 36.9806 24.1588 36.7102 24.2664 36.4745C24.373 36.2389 24.5247 36.0593 24.7215 35.9338C24.9183 35.8083 25.1417 35.7461 25.3939 35.7461C25.646 35.7461 25.8777 35.8083 26.0735 35.9318C26.2692 36.0552 26.4199 36.2338 26.5265 36.4684C26.6331 36.7031 26.6854 36.9755 26.6854 37.2867V37.4887L26.6844 37.4917ZM26.2641 37.2856C26.2641 36.9071 26.1872 36.6164 26.0355 36.4144C25.8828 36.2123 25.6696 36.1103 25.3949 36.1103C25.1202 36.1103 24.9173 36.2113 24.7635 36.4144C24.6098 36.6164 24.5308 36.8979 24.5267 37.2571V37.4917C24.5267 37.859 24.6036 38.1467 24.7594 38.3569C24.9142 38.5671 25.1274 38.6711 25.399 38.6711C25.6706 38.6711 25.8838 38.5722 26.0335 38.3742C26.1831 38.1763 26.26 37.8927 26.2651 37.5223V37.2856H26.2641Z" fill="#6A797D"/>
<path d="M28.766 37.7356V38.9854H28.3438V35.7941H29.5266C29.8771 35.7941 30.1518 35.8828 30.3517 36.0614C30.5506 36.2399 30.65 36.4756 30.65 36.7694C30.65 37.0796 30.5526 37.3183 30.3579 37.4846C30.1631 37.6519 29.8843 37.7356 29.5225 37.7356H28.7671H28.766ZM28.766 37.3918H29.5256C29.7521 37.3918 29.9253 37.3387 30.0452 37.2326C30.1652 37.1265 30.2256 36.9735 30.2256 36.7725C30.2256 36.5715 30.1652 36.4297 30.0452 36.3154C29.9253 36.2011 29.7593 36.142 29.5502 36.1379H28.766V37.3918Z" fill="#6A797D"/>
<path d="M36.7104 37.9723C36.6704 38.31 36.5454 38.5701 36.3352 38.7538C36.1241 38.9374 35.8443 39.0292 35.4947 39.0292C35.1155 39.0292 34.8121 38.8946 34.5845 38.6242C34.356 38.3538 34.2422 37.9927 34.2422 37.5397V37.2326C34.2422 36.9357 34.2955 36.6756 34.4021 36.4501C34.5087 36.2246 34.6594 36.0522 34.8551 35.9318C35.0509 35.8114 35.2764 35.7512 35.5337 35.7512C35.874 35.7512 36.1477 35.8461 36.3527 36.0348C36.5577 36.2246 36.6776 36.4858 36.7114 36.8204H36.286C36.2491 36.5654 36.1702 36.3807 36.0472 36.2664C35.9242 36.1522 35.753 36.095 35.5327 36.095C35.2621 36.095 35.0509 36.194 34.8972 36.3929C34.7434 36.5919 34.6665 36.8745 34.6665 37.2418V37.5509C34.6665 37.8978 34.7393 38.1733 34.8849 38.3783C35.0304 38.5834 35.2334 38.6854 35.4947 38.6854C35.7295 38.6854 35.9099 38.6324 36.0349 38.5263C36.16 38.4202 36.244 38.2355 36.285 37.9733H36.7104V37.9723Z" fill="#6A797D"/>
<path d="M40.7781 37.4917C40.7781 37.8049 40.7248 38.0773 40.6192 38.31C40.5137 38.5436 40.364 38.7211 40.1703 38.8435C39.9766 38.966 39.75 39.0272 39.4917 39.0272C39.2334 39.0272 39.0151 38.966 38.8204 38.8415C38.6246 38.718 38.4739 38.5415 38.3653 38.313C38.2576 38.0845 38.2023 37.8192 38.1992 37.5182V37.2877C38.1992 36.9806 38.2525 36.7102 38.3601 36.4745C38.4667 36.2389 38.6184 36.0593 38.8152 35.9338C39.012 35.8083 39.2355 35.7461 39.4876 35.7461C39.7398 35.7461 39.9714 35.8083 40.1672 35.9318C40.363 36.0552 40.5137 36.2338 40.6203 36.4684C40.7269 36.7031 40.7791 36.9755 40.7791 37.2867V37.4887L40.7781 37.4917ZM40.3579 37.2856C40.3579 36.9071 40.281 36.6164 40.1293 36.4144C39.9766 36.2123 39.7634 36.1103 39.4887 36.1103C39.214 36.1103 39.011 36.2113 38.8573 36.4144C38.7035 36.6164 38.6246 36.8979 38.6205 37.2571V37.4917C38.6205 37.859 38.6974 38.1467 38.8532 38.3569C39.0079 38.5671 39.2211 38.6711 39.4928 38.6711C39.7644 38.6711 39.9776 38.5722 40.1272 38.3742C40.2769 38.1763 40.3538 37.8927 40.3589 37.5223V37.2856H40.3579Z" fill="#6A797D"/>
<path d="M42.9818 35.793L44.0304 38.3967L45.0789 35.793H45.6273V38.9843H45.205V37.7417L45.245 36.4001L44.1923 38.9843H43.8684L42.8178 36.4062L42.8598 37.7406V38.9833H42.4375V35.792H42.9838L42.9818 35.793Z" fill="#6A797D"/>
<path d="M47.8207 37.7356V38.9854H47.3984V35.7941H48.5813C48.9318 35.7941 49.2065 35.8828 49.4064 36.0614C49.6053 36.2399 49.7047 36.4756 49.7047 36.7694C49.7047 37.0796 49.6073 37.3183 49.4126 37.4846C49.2178 37.6519 48.939 37.7356 48.5772 37.7356H47.8218H47.8207ZM47.8207 37.3918H48.5803C48.8068 37.3918 48.98 37.3387 49.0999 37.2326C49.2199 37.1265 49.2803 36.9735 49.2803 36.7725C49.2803 36.5715 49.2199 36.4297 49.0999 36.3154C48.98 36.2011 48.814 36.142 48.6049 36.1379H47.8207V37.3918Z" fill="#6A797D"/>
<path d="M52.7331 38.1498H51.3893L51.088 38.9854H50.6523L51.8772 35.7941H52.2472L53.4742 38.9854H53.0406L52.7341 38.1498H52.7331ZM51.5174 37.806H52.607L52.0607 36.3134L51.5164 37.806H51.5174Z" fill="#6A797D"/>
<path d="M57.3909 38.9854H56.9655L55.3512 36.5256V38.9854H54.9258V35.7941H55.3512L56.9696 38.2641V35.7941H57.3899V38.9854H57.3909Z" fill="#6A797D"/>
<path d="M60.1424 37.3958L60.9788 35.793H61.4585L60.3525 37.7947V38.9854H59.9302V37.7947L58.8242 35.793H59.309L60.1413 37.3958H60.1424Z" fill="#6A797D"/>
<path d="M28.1875 79.3827H53.8125V88.5648H28.1875V79.3827Z" fill="#6A797D"/>
<path d="M0 59.9982H82V79.3827H0V59.9982Z" fill="#B49F7C"/>
<path d="M15.2643 70.5586L15.8137 67.6683H16.6522L15.7471 71.7298H14.9004L14.2362 69.0129L13.572 71.7298H12.7254L11.8203 67.6683H12.6588L13.2112 70.5525L13.8836 67.6683H14.596L15.2664 70.5586H15.2643Z" fill="white"/>
<path d="M18.5448 71.786C18.0999 71.786 17.7381 71.6503 17.4583 71.3789C17.1785 71.1075 17.0391 70.7453 17.0391 70.2934V70.2148C17.0391 69.9118 17.0975 69.6404 17.2154 69.4017C17.3332 69.1629 17.5003 68.9783 17.7156 68.8497C17.9318 68.7202 18.1778 68.6559 18.4546 68.6559C18.8697 68.6559 19.1957 68.7865 19.4345 69.0466C19.6723 69.3068 19.7922 69.6761 19.7922 70.1546V70.4841H17.8611C17.8867 70.6811 17.9667 70.8392 18.0979 70.9586C18.2301 71.0779 18.3962 71.1371 18.5981 71.1371C18.9097 71.1371 19.1536 71.0249 19.3299 70.7994L19.7276 71.2432C19.6067 71.4146 19.4417 71.5483 19.2346 71.6431C19.0276 71.738 18.7969 71.787 18.5448 71.787V71.786ZM18.4525 69.3058C18.2916 69.3058 18.1614 69.3599 18.062 69.468C17.9616 69.5761 17.898 69.7312 17.8703 69.9332H18.9968V69.8689C18.9927 69.6894 18.9445 69.5506 18.8513 69.4527C18.758 69.3547 18.6247 69.3058 18.4536 69.3058H18.4525Z" fill="white"/>
<path d="M23.0813 70.2495C23.0813 70.7331 22.9778 71.1106 22.7697 71.3809C22.5617 71.6513 22.2726 71.787 21.9005 71.787C21.5715 71.787 21.3091 71.6615 21.1133 71.4105L21.0764 71.7309H20.3477V67.4459H21.1574V68.9834C21.344 68.7661 21.59 68.6569 21.8944 68.6569C22.2644 68.6569 22.5545 68.7926 22.7646 69.0629C22.9747 69.3333 23.0803 69.7138 23.0803 70.2056V70.2505L23.0813 70.2495ZM22.2716 70.1913C22.2716 69.8863 22.2234 69.6639 22.126 69.5231C22.0287 69.3823 21.8841 69.3129 21.6914 69.3129C21.4331 69.3129 21.2558 69.418 21.1584 69.6281V70.8198C21.2579 71.032 21.4372 71.1381 21.6966 71.1381C21.9559 71.1381 22.1301 71.0096 22.2121 70.7535C22.2511 70.631 22.2706 70.4433 22.2706 70.1923L22.2716 70.1913Z" fill="white"/>
<path d="M25.2617 71.7309V67.6693H26.5173C26.8761 67.6693 27.1969 67.7499 27.4798 67.9111C27.7627 68.0723 27.9841 68.3008 28.143 68.5977C28.3019 68.8946 28.3808 69.2313 28.3808 69.6088V69.7955C28.3808 70.173 28.3029 70.5086 28.1471 70.8025C27.9913 71.0963 27.7709 71.3238 27.487 71.486C27.2031 71.6482 26.8822 71.7299 26.5255 71.7319H25.2617V71.7309ZM26.1022 68.3467V71.0585H26.5081C26.8371 71.0585 27.0883 70.9514 27.2625 70.7382C27.4368 70.5239 27.5249 70.2189 27.529 69.82V69.6047C27.529 69.1915 27.4429 68.8793 27.2707 68.6661C27.0985 68.4528 26.8474 68.3467 26.5163 68.3467H26.1012H26.1022Z" fill="white"/>
<path d="M30.4315 71.786C29.9867 71.786 29.6248 71.6503 29.345 71.3789C29.0652 71.1075 28.9258 70.7453 28.9258 70.2934V70.2148C28.9258 69.9118 28.9842 69.6404 29.1021 69.4017C29.22 69.1629 29.387 68.9783 29.6023 68.8497C29.8186 68.7202 30.0646 68.6559 30.3413 68.6559C30.7564 68.6559 31.0824 68.7865 31.3212 69.0466C31.559 69.3068 31.6789 69.6761 31.6789 70.1546V70.4841H29.7478C29.7735 70.6811 29.8534 70.8392 29.9846 70.9586C30.1168 71.0779 30.2829 71.1371 30.4848 71.1371C30.7964 71.1371 31.0404 71.0249 31.2167 70.7994L31.6144 71.2432C31.4934 71.4146 31.3284 71.5483 31.1213 71.6431C30.9143 71.738 30.6837 71.787 30.4315 71.787V71.786ZM30.3393 69.3058C30.1783 69.3058 30.0482 69.3599 29.9487 69.468C29.8483 69.5761 29.7847 69.7312 29.7571 69.9332H30.8835V69.8689C30.8794 69.6894 30.8313 69.5506 30.738 69.4527C30.6447 69.3547 30.5115 69.3058 30.3403 69.3058H30.3393Z" fill="white"/>
<path d="M33.8778 70.8963C33.8778 70.7974 33.8286 70.7198 33.7302 70.6637C33.6318 70.6066 33.475 70.5566 33.2577 70.5117C32.5361 70.3607 32.1763 70.0556 32.1763 69.5965C32.1763 69.3292 32.2881 69.1048 32.5115 68.9252C32.735 68.7457 33.0271 68.6559 33.3869 68.6559C33.7712 68.6559 34.0798 68.7457 34.3104 68.9262C34.541 69.1068 34.6568 69.3415 34.6568 69.6292H33.8471C33.8471 69.5139 33.8102 69.419 33.7354 69.3435C33.6605 69.268 33.5437 69.2303 33.3848 69.2303C33.2485 69.2303 33.1429 69.2609 33.0681 69.3221C32.9933 69.3833 32.9564 69.4619 32.9564 69.5568C32.9564 69.6465 32.9994 69.718 33.0835 69.773C33.1685 69.8281 33.312 69.8751 33.514 69.9149C33.7159 69.9546 33.886 69.9995 34.0244 70.0505C34.4518 70.2066 34.6661 70.477 34.6661 70.8627C34.6661 71.1381 34.5472 71.3605 34.3104 71.5309C34.0736 71.7013 33.7671 71.786 33.391 71.786C33.1368 71.786 32.9113 71.7411 32.7145 71.6503C32.5177 71.5595 32.3629 71.436 32.2501 71.2789C32.1384 71.1218 32.082 70.9524 32.082 70.7698H32.8498C32.8569 70.9126 32.9102 71.0228 33.0097 71.0994C33.1091 71.1759 33.2413 71.2136 33.4074 71.2136C33.5621 71.2136 33.68 71.184 33.7589 71.1259C33.8379 71.0677 33.8778 70.9902 33.8778 70.8953V70.8963Z" fill="white"/>
<path d="M35.2773 67.9305C35.2773 67.8101 35.3183 67.7101 35.3993 67.6316C35.4803 67.553 35.591 67.5142 35.7314 67.5142C35.8718 67.5142 35.9795 67.553 36.0625 67.6316C36.1455 67.7101 36.1855 67.8091 36.1855 67.9305C36.1855 68.0519 36.1435 68.1539 36.0604 68.2315C35.9774 68.309 35.8677 68.3488 35.7314 68.3488C35.5951 68.3488 35.4854 68.31 35.4024 68.2315C35.3194 68.1529 35.2773 68.0529 35.2773 67.9305ZM36.1373 71.7298H35.3245V68.711H36.1373V71.7298Z" fill="white"/>
<path d="M36.7852 70.1985C36.7852 69.7353 36.8959 69.3629 37.1173 69.0803C37.3387 68.7977 37.6369 68.6559 38.0131 68.6559C38.3452 68.6559 38.6045 68.7691 38.789 68.9966L38.8229 68.712H39.5568V71.6299C39.5568 71.8941 39.4963 72.1237 39.3764 72.3185C39.2564 72.5134 39.0863 72.6624 38.868 72.7654C38.6496 72.8674 38.3934 72.9184 38.1002 72.9184C37.8778 72.9184 37.6615 72.8746 37.4504 72.7858C37.2392 72.697 37.0793 72.5838 36.9707 72.444L37.3294 71.9533C37.5314 72.1788 37.7763 72.291 38.0633 72.291C38.2786 72.291 38.4457 72.2339 38.5646 72.1196C38.6845 72.0053 38.7439 71.8431 38.7439 71.6329V71.4707C38.5574 71.6809 38.3114 71.786 38.007 71.786C37.6431 71.786 37.3479 71.6442 37.1224 71.3605C36.8969 71.0769 36.7852 70.7004 36.7852 70.2322V70.1985ZM37.5949 70.2587C37.5949 70.5321 37.6503 70.7474 37.7599 70.9024C37.8706 71.0585 38.0213 71.1361 38.214 71.1361C38.461 71.1361 38.6373 71.0443 38.7439 70.8596V69.5884C38.6353 69.4037 38.461 69.3119 38.2202 69.3119C38.0254 69.3119 37.8727 69.3915 37.762 69.5496C37.6513 69.7077 37.5949 69.9444 37.5949 70.2597V70.2587Z" fill="white"/>
<path d="M41.0233 68.712L41.0489 69.0609C41.2652 68.7915 41.5563 68.6569 41.9202 68.6569C42.241 68.6569 42.4808 68.7507 42.6377 68.9384C42.7945 69.1262 42.8744 69.4067 42.8785 69.7812V71.7308H42.0688V69.8005C42.0688 69.6291 42.0309 69.5057 41.9571 69.4282C41.8822 69.3506 41.7582 69.3129 41.584 69.3129C41.3564 69.3129 41.1852 69.4098 41.0715 69.6026V71.7308H40.2617V68.712H41.0243H41.0233Z" fill="white"/>
<path d="M48.373 70.377C48.3412 70.8136 48.1793 71.1585 47.8871 71.4095C47.595 71.6604 47.2096 71.7859 46.7309 71.7859C46.2082 71.7859 45.7961 71.6105 45.4968 71.2605C45.1965 70.9095 45.0469 70.429 45.0469 69.8169V69.569C45.0469 69.1782 45.1155 68.8344 45.2539 68.5365C45.3923 68.2386 45.5901 68.0111 45.8464 67.8519C46.1036 67.6927 46.4019 67.6132 46.7422 67.6132C47.2127 67.6132 47.5919 67.7386 47.88 67.9896C48.168 68.2406 48.334 68.5936 48.3791 69.0466H47.5386C47.5181 68.7844 47.4444 68.5946 47.3183 68.4763C47.1922 68.3579 47.0005 68.2988 46.7422 68.2988C46.4624 68.2988 46.2523 68.3987 46.1129 68.5987C45.9735 68.7987 45.9017 69.1088 45.8986 69.5292V69.8363C45.8986 70.275 45.9653 70.5963 46.0995 70.7983C46.2328 71.0014 46.444 71.1024 46.732 71.1024C46.9913 71.1024 47.185 71.0432 47.3131 70.9249C47.4413 70.8065 47.514 70.6239 47.5335 70.377H48.374H48.373Z" fill="white"/>
<path d="M48.8438 70.1934C48.8438 69.8945 48.9012 69.6271 49.018 69.3925C49.1338 69.1578 49.3009 68.9773 49.5182 68.8487C49.7355 68.7202 49.9887 68.6559 50.2767 68.6559C50.6857 68.6559 51.0198 68.7804 51.2792 69.0293C51.5375 69.2782 51.682 69.6169 51.7117 70.0444L51.7168 70.2505C51.7168 70.7137 51.5867 71.0851 51.3273 71.3646C51.068 71.6442 50.7195 71.785 50.2818 71.785C49.8441 71.785 49.4957 71.6452 49.2353 71.3667C48.975 71.0881 48.8448 70.7086 48.8448 70.2281V70.1913L48.8438 70.1934ZM49.6535 70.2505C49.6535 70.5372 49.7078 70.7566 49.8165 70.9086C49.9251 71.0606 50.0799 71.1361 50.2818 71.1361C50.4837 71.1361 50.6314 71.0616 50.741 70.9106C50.8517 70.7606 50.9061 70.5209 50.9061 70.1913C50.9061 69.9098 50.8507 69.6924 50.741 69.5374C50.6303 69.3823 50.4756 69.3058 50.2757 69.3058C50.0758 69.3058 49.9241 69.3823 49.8165 69.5363C49.7078 69.6904 49.6535 69.9281 49.6535 70.2505Z" fill="white"/>
<path d="M53.071 68.712L53.0966 69.0497C53.3119 68.7875 53.602 68.6559 53.9679 68.6559C54.3584 68.6559 54.627 68.8089 54.7725 69.116C54.9857 68.8089 55.2891 68.6559 55.6837 68.6559C56.0128 68.6559 56.2577 68.7508 56.4176 68.9415C56.5785 69.1323 56.6585 69.419 56.6585 69.8026V71.7299H55.8457V69.8047C55.8457 69.6333 55.8118 69.5088 55.7452 69.4292C55.6776 69.3507 55.5597 69.3109 55.3896 69.3109C55.1466 69.3109 54.9785 69.4262 54.8852 69.6567L54.8883 71.7299H54.0786V69.8077C54.0786 69.6333 54.0437 69.5068 53.975 69.4282C53.9064 69.3496 53.7885 69.3109 53.6214 69.3109C53.3918 69.3109 53.2248 69.4058 53.1223 69.5955V71.7299H52.3125V68.711H53.072L53.071 68.712Z" fill="white"/>
<path d="M60.1085 70.2495C60.1085 70.7147 60.0019 71.0871 59.7907 71.3666C59.5786 71.6462 59.2926 71.7869 58.9318 71.7869C58.6253 71.7869 58.3773 71.6808 58.1887 71.4686V72.8919H57.3789V68.713H58.1302L58.1579 69.0088C58.3537 68.7742 58.6099 68.6569 58.9256 68.6569C59.2998 68.6569 59.5898 68.7946 59.7969 69.0701C60.0039 69.3455 60.1085 69.725 60.1085 70.2086V70.2505V70.2495ZM59.2987 70.1913C59.2987 69.9107 59.2485 69.6934 59.1491 69.5414C59.0486 69.3894 58.9041 69.3129 58.7135 69.3129C58.4593 69.3129 58.285 69.4098 58.1897 69.6026V70.8381C58.2891 71.0371 58.4654 71.1371 58.7196 71.1371C59.106 71.1371 59.2998 70.8218 59.2998 70.1913H59.2987Z" fill="white"/>
<path d="M62.4637 71.7308C62.4258 71.6584 62.3992 71.5686 62.3828 71.4605C62.187 71.6778 61.9318 71.7869 61.6181 71.7869C61.3209 71.7869 61.0749 71.7012 60.8791 71.5298C60.6833 71.3584 60.5859 71.1432 60.5859 70.883C60.5859 70.5637 60.7048 70.3178 60.9437 70.1464C61.1815 69.975 61.5259 69.8893 61.9769 69.8873H62.35V69.7138C62.35 69.5741 62.3141 69.4628 62.2423 69.3792C62.1706 69.2955 62.0568 69.2537 61.902 69.2537C61.7657 69.2537 61.6581 69.2863 61.5812 69.3516C61.5033 69.4169 61.4654 69.5057 61.4654 69.6189H60.6556C60.6556 69.4445 60.71 69.2823 60.8186 69.1333C60.9273 68.9844 61.08 68.868 61.2778 68.7834C61.4756 68.6987 61.6981 68.6569 61.9451 68.6569C62.3192 68.6569 62.6154 68.7507 62.8348 68.9374C63.0541 69.1241 63.1638 69.3873 63.1638 69.725V71.033C63.1659 71.3197 63.2058 71.536 63.2848 71.6829V71.7298H62.4668L62.4637 71.7308ZM61.7934 71.1697C61.9133 71.1697 62.023 71.1432 62.1245 71.0901C62.2259 71.0371 62.2997 70.9657 62.3489 70.8769V70.3576H62.0466C61.6407 70.3576 61.4254 70.4974 61.3988 70.7759L61.3957 70.8228C61.3957 70.9228 61.4316 71.0065 61.5023 71.0707C61.573 71.136 61.6704 71.1687 61.7934 71.1687V71.1697Z" fill="white"/>
<path d="M64.6288 68.712L64.6544 69.0609C64.8707 68.7915 65.1618 68.6569 65.5256 68.6569C65.8465 68.6569 66.0863 68.7507 66.2431 68.9384C66.4 69.1262 66.4799 69.4067 66.484 69.7812V71.7308H65.6743V69.8005C65.6743 69.6291 65.6363 69.5057 65.5625 69.4282C65.4877 69.3506 65.3637 69.3129 65.1894 69.3129C64.9619 69.3129 64.7907 69.4098 64.6769 69.6026V71.7308H63.8672V68.712H64.6298H64.6288Z" fill="white"/>
<path d="M68.3285 70.5892L68.8892 68.712H69.7584L68.5397 72.1991L68.472 72.3583C68.2906 72.7521 67.9913 72.95 67.5751 72.95C67.4573 72.95 67.3373 72.9327 67.2164 72.897V72.2859L67.3394 72.2889C67.4921 72.2889 67.6069 72.2655 67.6828 72.2196C67.7586 72.1726 67.8181 72.0961 67.8611 71.988L67.9564 71.74L66.8945 68.713H67.7658L68.3295 70.5902L68.3285 70.5892Z" fill="white"/>
<path d="M37.7085 85.2287H35.9896V84.9899L36.8977 83.986C37.032 83.834 37.1253 83.7105 37.1765 83.6157C37.2278 83.5208 37.2534 83.4218 37.2534 83.3208C37.2534 83.1841 37.2124 83.0729 37.1294 82.9851C37.0464 82.8974 36.9357 82.8546 36.7983 82.8546C36.6323 82.8546 36.5041 82.9015 36.4119 82.9953C36.3196 83.0892 36.2745 83.2198 36.2745 83.3871H35.9414C35.9414 83.1463 36.0193 82.9525 36.1751 82.8046C36.3309 82.6566 36.539 82.5822 36.7993 82.5822C37.0433 82.5822 37.236 82.6454 37.3774 82.7729C37.5189 82.9005 37.5896 83.0698 37.5896 83.281C37.5896 83.5381 37.4246 83.8442 37.0956 84.1992L36.3924 84.9583H37.7095V85.2287H37.7085Z" fill="white"/>
<path d="M40.5265 84.1156C40.5265 84.5043 40.4598 84.793 40.3266 84.9818C40.1933 85.1705 39.9853 85.2654 39.7013 85.2654C39.4174 85.2654 39.2145 85.1726 39.0802 84.9879C38.9459 84.8032 38.8762 84.5278 38.8711 84.1605V83.7177C38.8711 83.3341 38.9377 83.0484 39.071 82.8627C39.2042 82.6771 39.4133 82.5832 39.6983 82.5832C39.9832 82.5832 40.1882 82.673 40.3215 82.8536C40.4547 83.0341 40.5234 83.3116 40.5265 83.6871V84.1176V84.1156ZM40.1933 83.6616C40.1933 83.381 40.1534 83.1759 40.0744 83.0474C39.9955 82.9188 39.8694 82.8546 39.6983 82.8546C39.5271 82.8546 39.4031 82.9188 39.3252 83.0464C39.2473 83.1739 39.2073 83.3708 39.2042 83.6361V84.1666C39.2042 84.4492 39.2452 84.6573 39.3272 84.792C39.4092 84.9267 39.5343 84.994 39.7013 84.994C39.8684 84.994 39.9883 84.9308 40.0683 84.8042C40.1482 84.6777 40.1903 84.4778 40.1933 84.2054V83.6616Z" fill="white"/>
<path d="M43.4898 85.2287H41.7708V84.9899L42.679 83.986C42.8133 83.834 42.9065 83.7105 42.9578 83.6157C43.009 83.5208 43.0347 83.4218 43.0347 83.3208C43.0347 83.1841 42.9937 83.0729 42.9106 82.9851C42.8276 82.8974 42.7169 82.8546 42.5796 82.8546C42.4135 82.8546 42.2854 82.9015 42.1931 82.9953C42.1009 83.0892 42.0558 83.2198 42.0558 83.3871H41.7227C41.7227 83.1463 41.8006 82.9525 41.9564 82.8046C42.1122 82.6566 42.3202 82.5822 42.5806 82.5822C42.8245 82.5822 43.0172 82.6454 43.1587 82.7729C43.3001 82.9005 43.3709 83.0698 43.3709 83.281C43.3709 83.5381 43.2058 83.8442 42.8768 84.1992L42.1737 84.9583H43.4908V85.2287H43.4898Z" fill="white"/>
<path d="M45.7576 85.2286H45.4224V83.0178L44.75 83.2636V82.9627L45.7053 82.6056H45.7576V85.2296V85.2286Z" fill="white"/>
<path d="M46.6367 49.8978H76.8742" stroke="url(#paint0_linear_5795_20467)" stroke-width="2"/>
<path d="M5.53516 49.8978H35.7727" stroke="url(#paint1_linear_5795_20467)" stroke-width="2"/>
<path d="M41.2066 47.6349L41.9804 48.1042L41.7754 47.2187L42.4704 46.6259L41.5571 46.5474L41.2066 45.7148L40.8499 46.5474L39.9427 46.6259L40.6315 47.2187L40.4163 48.1042L41.2066 47.6349ZM38.6779 49.5265L39.4518 49.9968L39.2468 49.1102L39.9417 48.5174L39.0284 48.4389L38.6779 47.6064L38.3212 48.4389L37.4141 48.5174L38.1029 49.1102L37.8876 49.9968L38.6779 49.5265ZM43.7342 48.5807L44.5081 49.051L44.3031 48.1644L44.998 47.5717L44.0848 47.4931L43.7342 46.6606L43.3775 47.4931L42.4704 47.5717L43.1592 48.1644L42.9439 49.051L43.7342 48.5807ZM42.1537 52.6514H40.2574V48.5521H42.1537V52.6514ZM39.625 52.6514H37.7287V50.7589H39.625V52.6514ZM44.6813 52.6514H42.7851V49.4979H44.6813V52.6514Z" fill="url(#paint2_linear_5795_20467)"/>
<defs>
<linearGradient id="paint0_linear_5795_20467" x1="nan" y1="nan" x2="nan" y2="nan" gradientUnits="userSpaceOnUse">
<stop stop-color="#D2AE73"/>
<stop offset="0.12" stop-color="#BD9155"/>
<stop offset="0.32" stop-color="#F9E2B2"/>
<stop offset="0.97" stop-color="#BD9155"/>
</linearGradient>
<linearGradient id="paint1_linear_5795_20467" x1="nan" y1="nan" x2="nan" y2="nan" gradientUnits="userSpaceOnUse">
<stop stop-color="#D2AE73"/>
<stop offset="0.12" stop-color="#BD9155"/>
<stop offset="0.32" stop-color="#F9E2B2"/>
<stop offset="0.97" stop-color="#BD9155"/>
</linearGradient>
<linearGradient id="paint2_linear_5795_20467" x1="40.3886" y1="47.8135" x2="43.9723" y2="56.3322" gradientUnits="userSpaceOnUse">
<stop stop-color="#D2AE73"/>
<stop offset="0.12" stop-color="#BD9155"/>
<stop offset="0.32" stop-color="#F9E2B2"/>
<stop offset="0.97" stop-color="#BD9155"/>
</linearGradient>
</defs>
</svg>
