<svg width="105" height="110" viewBox="0 0 105 110" fill="none" xmlns="http://www.w3.org/2000/svg">
<path fill-rule="evenodd" clip-rule="evenodd" d="M52.5017 0L99.5347 29.2553V81.3298L52.5017 110L5.46875 81.3298V29.2553L52.5017 0Z" fill="black"/>
<path d="M52.5017 2.75994L7.8204 30.5525V80.0187L52.5017 107.255L97.183 80.0187V30.5525L52.5017 2.75994ZM52.5017 0L99.5347 29.2553V81.3298L52.5017 110L5.46875 81.3298V29.2553L52.5017 0Z" fill="#FFD409"/>
<path fill-rule="evenodd" clip-rule="evenodd" d="M52.5015 6.90427L11.3477 32.5027V78.0678L52.5015 103.154L93.6553 78.0678V32.5027L52.5015 6.90427Z" fill="#FFD409"/>
<path d="M105 36H0V75H105V36Z" fill="black"/>
<path fill-rule="evenodd" clip-rule="evenodd" d="M44.2695 17.3511H45.9249C46.0959 17.3511 46.2387 17.3897 46.3533 17.4671C46.4679 17.5444 46.5427 17.6469 46.5777 17.7745L47.7435 22.1832C47.7784 22.3263 47.8134 22.4791 47.8484 22.6415C47.8834 22.8039 47.9183 22.9741 47.9533 23.152C48.0232 22.7885 48.1087 22.4656 48.2098 22.1832L49.5853 17.7745C49.6203 17.6663 49.6951 17.5686 49.8097 17.4816C49.9244 17.3946 50.0633 17.3511 50.2265 17.3511H50.8094C50.9804 17.3511 51.1183 17.3907 51.2232 17.47C51.3281 17.5493 51.4078 17.6508 51.4622 17.7745L52.8261 22.1832C52.9272 22.454 53.0126 22.7614 53.0826 23.1056C53.1137 22.9354 53.1457 22.773 53.1788 22.6183C53.2118 22.4636 53.2458 22.3186 53.2808 22.1832L54.4465 17.7745C54.4776 17.6624 54.5514 17.5638 54.668 17.4787C54.7846 17.3936 54.9245 17.3511 55.0877 17.3511H56.6381L54.0152 25.803H52.2316L50.6345 20.5648C50.5762 20.3985 50.5199 20.2071 50.4655 19.9905C50.4111 20.2071 50.3547 20.3985 50.2964 20.5648L48.6761 25.803H46.8925L44.2695 17.3511ZM59.6222 17.3586H60.8326L58.4573 24.9816C58.3047 25.4713 57.8495 25.8052 57.3342 25.8052H56.1648L58.4974 18.1877C58.6483 17.6952 59.1048 17.3586 59.6222 17.3586Z" fill="black"/>
<path fill-rule="evenodd" clip-rule="evenodd" d="M31.6805 87.4362L30.2695 83.5464H31.2643L31.9839 85.9196L32.6329 83.5464H33.3667L34.0157 85.9196L34.7353 83.5464H35.7301L34.3191 87.4362H33.7406L32.9998 84.9155L32.259 87.4362H31.6805ZM40.1112 83.5464V87.4362H39.2505V86.9096H39.2364C39.0718 87.1296 38.8754 87.2922 38.6473 87.3975C38.4192 87.5029 38.1805 87.5579 37.9312 87.5625C37.4091 87.5625 36.96 87.3753 36.5837 87.0008C36.2074 86.6264 36.0193 86.1349 36.0193 85.5264C36.0193 84.9225 36.2063 84.4205 36.5802 84.0203C36.9541 83.6201 37.4138 83.42 37.9594 83.42C38.2322 83.42 38.478 83.4773 38.6967 83.592C38.9154 83.7067 39.0953 83.874 39.2364 84.094H39.2505V83.5464H40.1112ZM38.1076 84.3047C37.7689 84.3047 37.4926 84.4205 37.2786 84.6522C37.0646 84.8839 36.9576 85.1753 36.9576 85.5264C36.9529 85.8634 37.0576 86.1396 37.2716 86.3549C37.4856 86.5702 37.7642 86.6779 38.1076 86.6779C38.4415 86.6779 38.7119 86.5679 38.9189 86.3479C39.1258 86.1279 39.2293 85.84 39.2293 85.4842C39.2293 85.1472 39.1258 84.8664 38.9189 84.6417C38.7119 84.417 38.4415 84.3047 38.1076 84.3047ZM44.7745 82.2404V87.4362H43.9138V86.9096H43.8997C43.7445 87.1249 43.5575 87.2864 43.3388 87.394C43.1201 87.5017 42.8791 87.5579 42.6157 87.5625C42.0842 87.5625 41.6292 87.3659 41.2506 86.9728C40.8719 86.5796 40.6826 86.0904 40.6826 85.5053C40.6779 84.9062 40.8661 84.4088 41.247 84.0133C41.628 83.6178 42.0936 83.42 42.6439 83.42C42.8979 83.4247 43.1236 83.4727 43.3212 83.5639C43.5187 83.6552 43.6857 83.7828 43.8221 83.9466H43.8362V82.2404H44.7745ZM42.7497 84.3047C42.4252 84.3047 42.1559 84.4158 41.9419 84.6382C41.7279 84.8605 41.6209 85.1449 41.6209 85.4913C41.6209 85.833 41.7256 86.1162 41.9349 86.3408C42.1442 86.5655 42.4158 86.6779 42.7497 86.6779C43.079 86.6825 43.3518 86.5725 43.5681 86.3479C43.7845 86.1232 43.8926 85.8377 43.8926 85.4913C43.8926 85.1496 43.7833 84.8664 43.5646 84.6417C43.3459 84.417 43.0743 84.3047 42.7497 84.3047ZM45.5294 87.4362V82.2404H46.4677V87.4362H45.5294ZM47.2226 87.4362V83.5464H48.1609V87.4362H47.2226ZM47.2226 83.097V82.2404H48.1609V83.097H47.2226ZM48.9158 87.4362V83.5464H49.7765V83.9045H49.7906C49.9129 83.75 50.0645 83.6306 50.2456 83.5464C50.4267 83.4621 50.6325 83.42 50.8629 83.42C51.3191 83.42 51.6872 83.5756 51.967 83.8869C52.2469 84.1982 52.3868 84.623 52.3868 85.1613V87.4362H51.4485V85.3719C51.4438 85.0162 51.3732 84.7494 51.2368 84.5715C51.1004 84.3936 50.91 84.3047 50.6654 84.3047C50.3926 84.3047 50.188 84.3959 50.0516 84.5785C49.9152 84.7611 49.8494 85.0255 49.8541 85.3719V87.4362H48.9158ZM57.0501 85.9055H53.9883C54.0447 86.1442 54.1658 86.3326 54.3516 86.4707C54.5374 86.6088 54.7572 86.6779 55.0112 86.6779C55.1994 86.6825 55.3675 86.6533 55.5157 86.5901C55.6638 86.5269 55.7873 86.4345 55.886 86.3128H56.9443C56.7797 86.7013 56.5304 87.0067 56.1965 87.229C55.8625 87.4514 55.4792 87.5625 55.0465 87.5625C54.4586 87.5625 53.9671 87.3659 53.572 86.9728C53.1769 86.5796 52.9794 86.0951 52.9794 85.5194C52.9794 84.9436 53.1781 84.4498 53.5755 84.0379C53.973 83.6259 54.468 83.42 55.0606 83.42C55.6485 83.42 56.1294 83.6189 56.5033 84.0168C56.8773 84.4147 57.0666 84.9062 57.0713 85.4913C57.0713 85.5849 57.0689 85.6633 57.0642 85.7265C57.0595 85.7897 57.0548 85.8494 57.0501 85.9055ZM53.9741 85.077H56.0906C56.0248 84.8383 55.8978 84.6499 55.7097 84.5118C55.5215 84.3737 55.3052 84.3047 55.0606 84.3047C54.8019 84.3094 54.575 84.3807 54.3798 84.5188C54.1846 84.6569 54.0494 84.843 53.9741 85.077ZM57.7979 87.4362V86.5023H58.7362V87.4362H57.7979ZM62.5036 86.1723H63.5618C63.4066 86.5983 63.1632 86.9365 62.8316 87.1869C62.5 87.4373 62.0991 87.5625 61.6288 87.5625C61.0079 87.5625 60.4929 87.3659 60.0837 86.9728C59.6745 86.5796 59.4699 86.0764 59.4699 85.4632C59.4699 84.8828 59.671 84.3971 60.0731 84.0063C60.4753 83.6154 60.9821 83.42 61.5935 83.42C62.0779 83.42 62.4942 83.5487 62.8422 83.8062C63.1903 84.0636 63.4301 84.4076 63.5618 84.8383H62.5036C62.4095 84.6651 62.2837 84.534 62.1261 84.4451C61.9686 84.3562 61.7863 84.3094 61.5794 84.3047C61.2172 84.3047 60.9315 84.4182 60.7222 84.6452C60.5129 84.8722 60.4083 85.1496 60.4083 85.4772C60.4083 85.8236 60.5153 86.1115 60.7293 86.3408C60.9433 86.5702 61.2266 86.6825 61.5794 86.6779C61.7769 86.6779 61.9568 86.6369 62.1191 86.555C62.2813 86.4731 62.4095 86.3455 62.5036 86.1723ZM66.031 83.42C66.619 83.42 67.1116 83.6236 67.5091 84.0308C67.9065 84.4381 68.1052 84.9272 68.1052 85.4983C68.1052 86.074 67.9065 86.562 67.5091 86.9622C67.1116 87.3624 66.619 87.5625 66.031 87.5625C65.4384 87.5625 64.9446 87.3624 64.5495 86.9622C64.1544 86.562 63.9569 86.074 63.9569 85.4983C63.9569 84.9272 64.1544 84.4381 64.5495 84.0308C64.9446 83.6236 65.4384 83.42 66.031 83.42ZM66.031 84.3047C65.6924 84.3047 65.4184 84.4217 65.2091 84.6557C64.9999 84.8898 64.8952 85.1706 64.8952 85.4983C64.8905 85.826 64.994 86.1045 65.2056 86.3338C65.4173 86.5632 65.6924 86.6779 66.031 86.6779C66.365 86.6825 66.6378 86.569 66.8494 86.3373C67.0611 86.1056 67.1669 85.826 67.1669 85.4983C67.1669 85.1706 67.0611 84.8898 66.8494 84.6557C66.6378 84.4217 66.365 84.3047 66.031 84.3047ZM68.6696 87.4362V83.5464H69.5303V83.9045H69.5444C69.6526 83.75 69.7972 83.6306 69.9783 83.5464C70.1594 83.4621 70.3534 83.42 70.5603 83.42C70.8002 83.42 71.0212 83.475 71.2235 83.585C71.4257 83.695 71.5856 83.8413 71.7032 84.0238C71.849 83.8272 72.0266 83.6774 72.2359 83.5745C72.4452 83.4715 72.6839 83.42 72.9519 83.42C73.4317 83.42 73.8174 83.5756 74.109 83.8869C74.4006 84.1982 74.5464 84.623 74.5464 85.1613V87.4362H73.6081V85.3719C73.6081 85.0208 73.5446 84.7552 73.4176 84.575C73.2906 84.3948 73.0977 84.3047 72.8391 84.3047C72.5804 84.3094 72.3887 84.4006 72.2641 84.5785C72.1395 84.7564 72.0771 85.0208 72.0771 85.3719V87.4362H71.1388V85.3719C71.1388 85.0208 71.0753 84.7552 70.9483 84.575C70.8214 84.3948 70.6285 84.3047 70.3698 84.3047C70.1112 84.3047 69.9183 84.3948 69.7913 84.575C69.6643 84.7552 69.6032 85.0208 69.6079 85.3719V87.4362H68.6696Z" fill="black"/>
<path fill-rule="evenodd" clip-rule="evenodd" d="M32.2491 53.4787V47.0858H30.7993V45.6851H35.1487V47.0858H33.6989V53.4787H32.2491ZM39.4716 45.5482C40.6357 45.5482 41.6145 45.9449 42.4082 46.7383C43.2019 47.5317 43.5987 48.4936 43.5987 49.624C43.5987 50.7545 43.2001 51.7111 42.4029 52.494C41.6057 53.2769 40.6286 53.6683 39.4716 53.6683C38.3075 53.6683 37.3269 53.2769 36.5297 52.494C35.7325 51.7111 35.3374 50.7545 35.3444 49.624C35.3444 48.4936 35.7395 47.5317 36.5297 46.7383C37.3198 45.9449 38.3005 45.5482 39.4716 45.5482ZM39.461 52.2675C40.2229 52.2675 40.8614 52.006 41.3764 51.4829C41.8914 50.9598 42.1489 50.3297 42.1489 49.5924C42.1489 48.8622 41.8914 48.2391 41.3764 47.723C40.8614 47.207 40.2265 46.9489 39.4716 46.9489C38.7097 46.9489 38.073 47.207 37.5615 47.723C37.05 48.2391 36.7942 48.8622 36.7942 49.5924C36.7942 50.3367 37.05 50.9686 37.5615 51.4882C38.073 52.0078 38.7061 52.2675 39.461 52.2675ZM44.7575 53.4787V45.6851H46.9481C47.844 45.6921 48.5354 45.9115 49.0222 46.3433C49.509 46.7752 49.7524 47.3667 49.7524 48.118C49.7524 48.8271 49.5161 49.4064 49.0434 49.8557C48.5707 50.3051 47.8723 50.5298 46.9481 50.5298H46.2073V53.4787H44.7575ZM46.2073 47.0858V49.129H47.0645C47.4596 49.129 47.7629 49.0448 47.9746 48.8763C48.1862 48.7078 48.2956 48.4515 48.3026 48.1074C48.3026 47.7704 48.195 47.5159 47.9799 47.3439C47.7647 47.1719 47.4596 47.0858 47.0645 47.0858H46.2073ZM55.0225 53.4787L52.7472 45.6851H54.2288L55.5939 51.1406L56.9273 45.6851H57.9855L59.3189 51.1406L60.6841 45.6851H62.1656L59.8904 53.4787H58.7369L57.4564 48.3286L56.1759 53.4787H55.0225ZM63.0704 53.4787V45.6851H67.2716V47.0858H64.5202V48.8868H67.1552V50.2875H64.5202V52.078H67.2716V53.4787H63.0704ZM68.7055 53.4787V45.6851H70.5892C71.4993 45.6921 72.1801 45.8764 72.6316 46.238C73.0831 46.5996 73.3089 47.0999 73.3089 47.7388C73.3089 48.0899 73.2313 48.39 73.0761 48.6393C72.9208 48.8886 72.7127 49.0834 72.4517 49.2238C72.8679 49.3643 73.1942 49.603 73.4306 49.94C73.6669 50.277 73.7851 50.6667 73.7851 51.109C73.7851 51.8673 73.524 52.4519 73.002 52.8626C72.4799 53.2733 71.7004 53.4787 70.6633 53.4787H68.7055ZM70.1553 52.078H71.0971C71.4922 52.085 71.7973 52.0007 72.0125 51.8252C72.2277 51.6497 72.3353 51.4074 72.3353 51.0985C72.3353 50.7896 72.2295 50.5456 72.0178 50.3665C71.8062 50.1875 71.4993 50.0945 71.0971 50.0874H70.1553V52.078ZM70.1553 48.6867H70.8326C71.1642 48.6867 71.4164 48.6147 71.5892 48.4708C71.7621 48.3269 71.852 48.132 71.8591 47.8863C71.8591 47.6195 71.7709 47.4194 71.5945 47.286C71.4181 47.1525 71.1642 47.0858 70.8326 47.0858H70.1553V48.6867ZM21.5 65.1808V57.3872H23.6694C24.9746 57.3872 26.0011 57.719 26.7489 58.3825C27.4967 59.046 27.8706 60.0272 27.8706 61.3262C27.8706 62.4706 27.5249 63.3992 26.8335 64.1119C26.1422 64.8245 25.098 65.1808 23.7011 65.1808H21.5ZM22.9498 63.7801H23.6588C24.5477 63.7871 25.2285 63.5905 25.7012 63.1903C26.1739 62.7901 26.4138 62.1687 26.4208 61.3262C26.4208 60.4555 26.1757 59.8148 25.6853 59.4041C25.195 58.9933 24.4948 58.788 23.5847 58.788H22.9498V63.7801ZM29.04 65.1808V57.3872H33.2412V58.788H30.4898V60.5889H33.1248V61.9897H30.4898V63.7801H33.2412V65.1808H29.04ZM37.0562 65.1808L34.0296 57.3872H35.5534L37.6594 63.3167L39.7653 57.3872H41.2891L38.2625 65.1808H37.0562ZM42.2151 65.1808V57.3872H46.4163V58.788H43.6649V60.5889H46.2999V61.9897H43.6649V63.7801H46.4163V65.1808H42.2151ZM47.8502 65.1808V57.3872H49.3V63.7801H51.6916V65.1808H47.8502ZM56.0569 57.2503C57.221 57.2503 58.1998 57.647 58.9935 58.4404C59.7872 59.2338 60.184 60.1957 60.184 61.3262C60.184 62.4566 59.7854 63.4132 58.9882 64.1961C58.191 64.979 57.2139 65.3704 56.0569 65.3704C54.8928 65.3704 53.9122 64.979 53.115 64.1961C52.3178 63.4132 51.9227 62.4566 51.9297 61.3262C51.9297 60.1957 52.3248 59.2338 53.115 58.4404C53.9051 57.647 54.8858 57.2503 56.0569 57.2503ZM56.0463 63.9697C56.8082 63.9697 57.4467 63.7081 57.9617 63.1851C58.4767 62.662 58.7342 62.0318 58.7342 61.2946C58.7342 60.5644 58.4767 59.9412 57.9617 59.4252C57.4467 58.9091 56.8118 58.6511 56.0569 58.6511C55.2949 58.6511 54.6582 58.9091 54.1468 59.4252C53.6353 59.9412 53.3795 60.5644 53.3795 61.2946C53.3795 62.0388 53.6353 62.6707 54.1468 63.1903C54.6582 63.7099 55.2914 63.9697 56.0463 63.9697ZM61.3428 65.1808V57.3872H63.5334C64.4293 57.3943 65.1207 57.6137 65.6075 58.0455C66.0943 58.4773 66.3377 59.0688 66.3377 59.8201C66.3377 60.5293 66.1014 61.1085 65.6287 61.5579C65.156 62.0072 64.4576 62.2319 63.5334 62.2319H62.7926V65.1808H61.3428ZM62.7926 58.788V60.8312H63.6498C64.0448 60.8312 64.3482 60.7469 64.5599 60.5784C64.7715 60.4099 64.8809 60.1536 64.8879 59.8096C64.8879 59.4725 64.7803 59.218 64.5651 59.046C64.35 58.874 64.0448 58.788 63.6498 58.788H62.7926ZM67.4012 65.1808V57.3872H71.6025V58.788H68.851V60.5889H71.4861V61.9897H68.851V63.7801H71.6025V65.1808H67.4012ZM73.0364 65.1808V57.3872H75.301C76.2464 57.3872 76.973 57.6084 77.481 58.0507C77.9889 58.4931 78.2429 59.0969 78.2429 59.8622C78.2429 60.5012 78.0471 61.0541 77.6556 61.521C77.264 61.9879 76.7543 62.2495 76.1264 62.3056L78.3276 65.1808H76.5392L74.5073 62.3056H74.4862V65.1808H73.0364ZM74.4862 58.788V61.105H75.3433C75.7878 61.105 76.1405 61.012 76.4016 60.8259C76.6626 60.6398 76.7931 60.3467 76.7931 59.9465C76.7861 59.5533 76.6538 59.2619 76.3963 59.0723C76.1388 58.8828 75.7878 58.788 75.3433 58.788H74.4862ZM78.735 62.9902H80.2483C80.2553 63.2921 80.3594 63.5308 80.5605 63.7064C80.7615 63.8819 81.0067 63.9697 81.296 63.9697C81.6064 63.9697 81.8603 63.8784 82.0579 63.6958C82.2554 63.5133 82.3542 63.2781 82.3542 62.9902C82.3542 62.7094 82.2625 62.4654 82.079 62.2582C81.8956 62.0511 81.6064 61.8808 81.2113 61.7474C80.8092 61.6211 80.5905 61.5508 80.5552 61.5368C80.5199 61.5228 80.4846 61.5052 80.4494 61.4841C79.9626 61.2875 79.6028 61.0102 79.37 60.6521C79.1371 60.294 79.0207 59.8973 79.0207 59.462C79.0207 58.8301 79.2447 58.3035 79.6927 57.8822C80.1407 57.461 80.6928 57.2503 81.3489 57.2503C81.9768 57.2503 82.5023 57.4539 82.9256 57.8612C83.3489 58.2684 83.5782 58.802 83.6135 59.462H82.1214C82.1143 59.2233 82.0367 59.0285 81.8886 58.8775C81.7404 58.7265 81.5464 58.6511 81.3065 58.6511C81.0596 58.6581 80.8568 58.7336 80.698 58.8775C80.5393 59.0214 80.4635 59.2198 80.4705 59.4726C80.4705 59.6972 80.5428 59.8833 80.6875 60.0307C80.8321 60.1782 81.0949 60.3081 81.4758 60.4204C81.7016 60.4977 81.8603 60.5521 81.9521 60.5837C82.0438 60.6153 82.132 60.6451 82.2166 60.6732C82.6964 60.8698 83.0809 61.1541 83.3701 61.5263C83.6594 61.8984 83.804 62.3583 83.804 62.906C83.804 63.6081 83.5641 64.1944 83.0844 64.6648C82.6046 65.1352 81.9979 65.3704 81.2642 65.3704C80.5375 65.3704 79.9343 65.1422 79.4546 64.6858C78.9749 64.2295 78.735 63.6643 78.735 62.9902Z" fill="white"/>
</svg>
