<svg width="80" height="80" viewBox="0 0 80 80" fill="none" xmlns="http://www.w3.org/2000/svg">
<path fill-rule="evenodd" clip-rule="evenodd" d="M70.1729 52.6287C70.0955 52.6437 70.0181 52.8136 70.0181 52.9065C70.0031 53.5232 69.987 55.1561 69.987 56.2653C69.987 56.2963 70.0332 56.3572 70.0794 56.3572C70.3115 56.3722 70.8693 56.3882 71.3497 56.3882C72.0161 56.3882 72.4041 56.2963 72.6201 56.2033C73.1779 55.9255 73.4412 55.3249 73.4412 54.6623C73.4412 53.1673 72.3869 52.5977 70.822 52.5977C70.7135 52.5827 70.404 52.5827 70.1707 52.6287H70.1729ZM74.171 59.5162C74.171 57.9912 73.0393 57.1427 70.994 57.1427C70.9016 57.1427 70.2503 57.1277 70.0955 57.1576C70.0493 57.1726 69.987 57.2036 69.987 57.2506C69.987 58.3449 69.9719 60.0858 70.0181 60.7633C70.0493 61.0561 70.2664 61.4718 70.5297 61.5958C70.8081 61.7497 71.4443 61.7806 71.8775 61.7806C73.1016 61.7806 74.171 61.1031 74.171 59.5151V59.5162ZM67.011 51.7812C67.1657 51.7812 67.6311 51.8272 68.8241 51.8272C69.9558 51.8272 70.8543 51.7962 71.9548 51.7962C73.3026 51.7962 75.163 52.2739 75.163 54.2766C75.163 55.2629 74.4655 56.0484 73.5508 56.4342C73.5046 56.4491 73.5046 56.4801 73.5508 56.4962C74.8524 56.82 75.9991 57.6214 75.9991 59.1315C75.9991 60.6415 75.0695 61.5509 73.7207 62.1365C72.8995 62.4913 71.8764 62.6142 70.8382 62.6142C70.0482 62.6142 67.9245 62.5223 66.7466 62.5522C66.623 62.5063 66.8551 61.9516 66.9637 61.8587C67.2431 61.8437 67.4591 61.8277 67.7536 61.7358C68.1717 61.6278 68.219 61.5049 68.2802 60.8734C68.3114 60.3337 68.3114 58.4229 68.3114 57.0668C68.3114 55.202 68.3265 53.9389 68.3114 53.3222C68.2964 52.8446 68.1255 52.6907 67.7848 52.5977C67.5215 52.5517 67.0873 52.4898 66.7304 52.4438C66.6531 52.3669 66.9164 51.8432 67.0099 51.7812H67.011ZM58.069 61.366C58.4409 61.6588 59.1695 61.7817 59.8198 61.7817C60.657 61.7817 61.4932 61.6278 62.2992 60.9033C63.1203 60.1638 63.6943 59.0235 63.6943 57.2047C63.6943 55.3858 63.0279 54.0457 61.6641 53.2132C60.8892 52.7356 59.8972 52.5357 58.7504 52.5357C58.4097 52.5357 58.084 52.5507 57.8831 52.6437C57.8368 52.6746 57.7283 52.8136 57.7283 52.8905C57.6971 53.1983 57.6971 55.5718 57.6971 56.9589C57.6971 58.346 57.6971 60.3946 57.7283 60.6265C57.7283 60.8573 57.8369 61.2121 58.069 61.366ZM54.5513 51.7812C54.8458 51.7812 55.9775 51.8272 56.5192 51.8272C57.4951 51.8272 58.1926 51.7812 60.0369 51.7812C61.5867 51.7812 62.8882 52.197 63.8179 52.9835C64.9496 53.9538 65.5385 55.295 65.5385 56.9279C65.5385 59.2543 64.4692 60.5955 63.3998 61.366C62.3304 62.1515 60.9354 62.6142 58.9524 62.6142C57.8981 62.6142 56.085 62.5832 54.5825 62.5682H54.5674C54.4901 62.4293 54.691 61.8907 54.8157 61.8747C55.2187 61.8287 55.3273 61.8127 55.5283 61.7358C55.8539 61.6129 55.9152 61.443 55.9625 60.8734C56.0087 59.8101 55.9936 58.5309 55.9936 57.0828C55.9936 56.0505 56.0087 54.0318 55.9786 53.3842C55.9324 52.8446 55.7002 52.7067 55.2349 52.6137C55.0027 52.5678 54.6921 52.5058 54.259 52.4598C54.1967 52.3519 54.4761 51.8742 54.5535 51.7823L54.5513 51.7812Z" fill="#8E714E"/>
<path fill-rule="evenodd" clip-rule="evenodd" d="M35.8015 61.9701C35.4145 61.9241 35.1351 61.8621 34.7944 61.7083C34.7482 61.6773 34.6708 61.5234 34.6708 61.4614C34.6396 60.9217 34.6396 59.3807 34.6396 58.3484C34.6396 57.5159 34.4999 56.7924 34.1442 56.2838C33.7261 55.6981 33.121 55.3594 32.3461 55.3594C31.6647 55.3594 30.7501 55.8221 29.9903 56.4686C29.9752 56.4836 29.8505 56.5915 29.8667 56.4227C29.8667 56.2528 29.8978 55.914 29.9129 55.6832C29.9279 55.4673 29.8043 55.3594 29.8043 55.3594C29.3078 55.6062 27.9138 55.93 27.4022 55.976C27.0304 56.0529 26.9369 56.4077 27.3249 56.5306H27.3399C27.758 56.6535 28.0374 56.7924 28.2545 56.9314C28.4093 57.0543 28.3942 57.2242 28.3942 57.3631C28.4093 58.5183 28.4093 60.2912 28.3631 61.2616C28.348 61.6463 28.2395 61.7852 27.96 61.8472L27.9912 61.8322C27.7741 61.8782 27.6043 61.9241 27.3399 61.9551C27.2475 62.047 27.2475 62.5407 27.3399 62.6487C27.5108 62.6487 28.4093 62.6027 29.153 62.6027C30.1762 62.6027 30.7028 62.6487 30.9661 62.6487C31.0747 62.5258 31.1059 62.063 31.0435 61.9551C30.749 61.9401 30.5319 61.9092 30.331 61.8472C30.0515 61.7852 29.9741 61.6473 29.9591 61.3235C29.9279 60.5071 29.9279 58.7812 29.9279 57.61C29.9279 57.2862 30.0203 57.1323 30.1139 57.0393C30.4707 56.7315 31.0435 56.5157 31.5551 56.5157C32.0667 56.5157 32.3762 56.6695 32.6245 56.8705C32.9652 57.1472 33.0737 57.548 33.1199 57.8408C33.1973 58.5034 33.1662 59.8135 33.1662 60.9538C33.1662 61.5704 33.1199 61.7243 32.8867 61.8012C32.7782 61.8472 32.4998 61.9092 32.1742 61.9401C32.0656 62.0481 32.0968 62.5258 32.1742 62.6337C32.6234 62.6337 33.15 62.5878 33.9249 62.5878C34.8858 62.5878 35.5059 62.6337 35.7531 62.6337C35.8305 62.5418 35.8616 62.094 35.7993 61.9711L35.8015 61.9701ZM40.094 56.0839C39.2729 56.0839 38.7613 56.7155 38.7613 57.7019C38.7613 58.6882 39.2106 59.8595 40.482 59.8595C40.6991 59.8595 41.1021 59.7676 41.2881 59.5517C41.5826 59.2739 41.7846 58.7192 41.7846 58.1336C41.7846 56.8544 41.1494 56.0839 40.0951 56.0839H40.094ZM39.9855 62.8945C39.6759 62.8945 39.4588 62.9864 39.3191 63.0644C38.6678 63.4801 38.3733 63.8808 38.3733 64.3585C38.3733 64.8052 38.5442 65.16 38.9161 65.4678C39.3653 65.8525 39.9855 66.0384 40.7754 66.0384C42.3564 66.0384 43.0539 65.191 43.0539 64.3585C43.0539 63.7729 42.7594 63.3882 42.1554 63.1723C41.7212 62.9874 40.9313 62.8945 39.9855 62.8945ZM40.094 66.9008C39.1482 66.9008 38.4668 66.6999 37.8779 66.2532C37.304 65.8215 37.0568 65.175 37.0568 64.7283C37.0568 64.6054 37.0879 64.2655 37.3663 63.9578C37.5372 63.7729 37.909 63.4181 38.7925 62.8175C38.8237 62.8026 38.8387 62.7865 38.8387 62.7555C38.8387 62.7245 38.8075 62.6935 38.7764 62.6786C38.0477 62.4007 37.8306 61.954 37.7693 61.7083V61.6773C37.7543 61.5854 37.7231 61.4924 37.8628 61.3994C37.9714 61.3225 38.1261 61.2295 38.297 61.1226C38.5604 60.9687 38.8398 60.7988 39.0096 60.6599C39.0408 60.6289 39.0408 60.5979 39.0408 60.568C39.0408 60.5381 39.0096 60.506 38.9784 60.4911C37.894 60.1363 37.3513 59.3348 37.3513 58.1336C37.3513 57.3481 37.7081 56.6386 38.3433 56.1919C38.7775 55.8531 39.8619 55.4363 40.5744 55.4363H40.6207C41.3493 55.4513 41.7524 55.6062 42.3252 55.8061C42.6348 55.914 42.9292 55.96 43.3323 55.96C43.9363 55.96 44.1996 55.7751 44.4167 55.5592C44.4317 55.5902 44.4629 55.6671 44.479 55.867C44.4941 56.0679 44.4328 56.3596 44.277 56.5755C44.1534 56.7454 43.8739 56.8683 43.5956 56.8683H43.5182C43.2388 56.8373 43.1152 56.8063 43.1152 56.8063L43.0528 56.8373C43.0378 56.8683 43.0528 56.8993 43.0679 56.9453L43.0829 56.9762C43.1141 57.1152 43.1754 57.5309 43.1754 57.6388C43.1754 58.902 42.6638 59.4566 42.121 59.8734C41.5944 60.2581 40.9893 60.5049 40.3079 60.5669C40.2929 60.5669 40.2305 60.5669 40.0908 60.5819C40.0134 60.5819 39.9049 60.5969 39.8888 60.5969H39.8737C39.7501 60.6278 39.4395 60.7817 39.4395 61.0435C39.4395 61.2744 39.5792 61.5522 40.2456 61.5982C40.3853 61.6131 40.525 61.6131 40.6798 61.6292C41.5632 61.6912 42.6638 61.7681 43.1743 61.9369C43.8868 62.1988 44.3361 62.8303 44.3361 63.5859C44.3361 64.7261 43.515 65.7894 42.1511 66.452C41.4848 66.7448 40.8184 66.8987 40.0897 66.8987L40.094 66.9008ZM48.9274 56.1609C48.6018 56.1609 48.3073 56.2378 48.0902 56.3917C47.4862 56.7615 47.1756 57.501 47.1756 58.5792C47.1756 60.5979 48.1988 62.016 49.6551 62.016C50.0893 62.016 50.4299 61.8931 50.7244 61.6463C51.1737 61.2765 51.4058 60.537 51.4058 59.5047C51.4058 57.502 50.3988 56.1609 48.9264 56.1609H48.9274ZM49.2069 62.7555C46.5727 62.7555 45.6269 60.8298 45.6269 59.027C45.6269 57.7638 46.1385 56.7924 47.1605 56.0989C47.8892 55.6522 48.7566 55.4053 49.5315 55.4053C51.5455 55.4053 52.9567 56.8384 52.9567 58.903C52.9567 60.3051 52.3989 61.4144 51.3295 62.093C50.8179 62.4317 49.9345 62.7555 49.2069 62.7555ZM21.591 56.1609C21.2654 56.1609 20.9709 56.2378 20.7538 56.3917C20.1498 56.7615 19.8392 57.501 19.8392 58.5792C19.8392 60.5979 20.8624 62.016 22.3187 62.016C22.7529 62.016 23.0936 61.8931 23.388 61.6463C23.8373 61.2765 24.0694 60.537 24.0694 59.5047C24.0694 57.502 23.0774 56.1609 21.59 56.1609H21.591ZM21.8705 62.7555C19.2363 62.7555 18.2905 60.8298 18.2905 59.027C18.2905 57.7638 18.8021 56.7924 19.8241 56.0989C20.5528 55.6522 21.4202 55.4053 22.1951 55.4053C24.2102 55.4053 25.6203 56.8384 25.6203 58.903C25.6203 60.3051 25.0625 61.4144 23.9931 62.093C23.4977 62.4317 22.6142 62.7555 21.8705 62.7555ZM4.15744 62.6016C4.12627 62.5557 4.0951 62.4168 4.11123 62.2469C4.11123 62.124 4.14239 62.0459 4.15744 62.016C4.48309 61.9701 4.6529 61.923 4.83884 61.8771C5.14837 61.8002 5.27304 61.6302 5.28808 61.2455C5.3343 60.3211 5.3343 58.5643 5.31925 57.3471V57.3161C5.31925 57.1772 5.31925 57.0083 5.14837 56.8843C4.9001 56.7305 4.60561 56.5915 4.2187 56.4836C4.07898 56.4376 3.98655 56.3607 4.0016 56.2677C4.0016 56.1758 4.09403 56.0679 4.29608 56.0369C4.80767 55.9909 6.14036 55.6671 6.66699 55.4363C6.69816 55.4673 6.74438 55.5592 6.74438 55.6832L6.72933 55.8531C6.71428 56.023 6.69816 56.2228 6.69816 56.4238C6.69816 56.4857 6.7605 56.5317 6.82176 56.5317C6.85293 56.5317 6.88409 56.5167 6.91526 56.5007C7.90726 55.7302 8.80576 55.4523 9.27113 55.4523C10.031 55.4523 10.6199 55.8071 11.0692 56.5466C11.1004 56.5926 11.1315 56.6086 11.1777 56.6086C11.2089 56.6086 11.2551 56.5937 11.2702 56.5627C12.1848 55.8691 13.0983 55.4534 13.7034 55.4534C15.1447 55.4534 15.9969 56.5167 15.9969 58.3195C15.9969 58.8282 15.9969 59.4908 15.9819 60.0914C15.9819 60.631 15.9669 61.1237 15.9669 61.4785C15.9669 61.5554 16.0754 61.8023 16.2463 61.8482C16.4634 61.9562 16.7579 62.0021 17.1448 62.0641H17.1598C17.191 62.172 17.1287 62.5728 17.0674 62.6497C16.9739 62.6497 16.8353 62.6497 16.6805 62.6348C16.386 62.6198 15.9679 62.6038 15.5026 62.6038C14.5417 62.6038 14.0463 62.6187 13.5658 62.6497C13.5347 62.5268 13.5196 62.1571 13.5658 62.0641C13.8453 62.0182 13.9839 61.9722 14.1548 61.9252C14.4643 61.8333 14.5417 61.6944 14.5578 61.2936C14.5578 61.0008 14.6202 58.5044 14.5267 57.9038C14.4342 57.2872 13.9689 56.5637 12.9457 56.5637C12.5588 56.5637 11.9537 56.7176 11.3647 57.1643C11.3336 57.1953 11.3024 57.2723 11.3024 57.3182V57.3332C11.3647 57.657 11.3647 58.0267 11.3647 58.5963V59.5977C11.3647 60.2912 11.3497 60.9388 11.3647 61.4315C11.3647 61.7702 11.5668 61.8472 11.7366 61.9092C11.829 61.9241 11.8914 61.9401 11.9688 61.9551C12.1085 61.9861 12.2482 62.0171 12.4642 62.063C12.4954 62.125 12.4954 62.3249 12.4492 62.4948C12.4341 62.5867 12.403 62.6337 12.3868 62.6487C11.8602 62.6337 11.3175 62.6177 10.5275 62.6177C10.2954 62.6177 9.89233 62.6326 9.55164 62.6326C9.2722 62.6326 9.00889 62.6476 8.85412 62.6476C8.83907 62.6166 8.80791 62.5087 8.80791 62.3398C8.80791 62.2009 8.83907 62.093 8.87024 62.062C8.94762 62.047 9.00996 62.031 9.08734 62.031C9.27328 62 9.42804 61.969 9.5828 61.938C9.84612 61.8611 9.93962 61.7221 9.95467 61.3834C10.0009 60.6129 10.0471 58.4093 9.93962 57.8547C9.75369 56.9613 9.24211 56.5135 8.42099 56.5135C7.94058 56.5135 7.33657 56.7443 6.84003 57.1141C6.76265 57.1761 6.70031 57.33 6.70031 57.4689V58.3783C6.70031 59.4876 6.70031 60.8747 6.71536 61.4753C6.7304 61.6602 6.79274 61.876 7.14956 61.953C7.22694 61.9679 7.35054 61.9989 7.50638 62.015L7.78581 62.0609C7.81698 62.1539 7.80086 62.5236 7.7396 62.6465C7.58484 62.6465 7.3989 62.6316 7.1818 62.6316C6.85615 62.6166 6.43807 62.6006 5.9727 62.6006C5.42995 62.6006 5.04304 62.6155 4.73243 62.6316C4.51533 62.6006 4.34552 62.6006 4.15959 62.6006L4.15744 62.6016Z" fill="#442D22"/>
<path fill-rule="evenodd" clip-rule="evenodd" d="M40.8101 48.5355L39.8589 48.2123C39.8589 48.2123 39.9748 43.3889 38.235 43.0433C37.0746 41.7054 38.4201 -13.7214 42.5982 42.8592C42.5982 42.8592 41.1594 43.5746 40.9035 44.7972C40.625 45.9974 40.8101 48.5355 40.8101 48.5355Z" fill="white"/>
<path fill-rule="evenodd" clip-rule="evenodd" d="M40.8101 48.5355L39.8589 48.2123C39.8589 48.2123 39.9748 43.3889 38.235 43.0433C37.0746 41.7054 38.4201 -13.7214 42.5982 42.8592C42.5982 42.8592 41.1594 43.5746 40.9035 44.7972C40.625 45.9974 40.8101 48.5355 40.8101 48.5355Z" fill="#A6A385"/>
<path fill-rule="evenodd" clip-rule="evenodd" d="M41.3224 43.8757C41.3224 43.8757 49.6529 38.4299 47.7038 27.0997C45.824 18.8613 41.3916 16.1615 40.9039 15.1245C40.3696 14.3868 39.8594 13.0938 39.8594 13.0938L40.207 36.007C40.207 36.0294 39.4876 43.0212 41.3208 43.8757" fill="#499D4A"/>
<path fill-rule="evenodd" clip-rule="evenodd" d="M39.3766 44.1741C39.3766 44.1741 31.5563 38.8674 32.0198 29.5216C32.4608 20.1758 37.9844 15.5845 39.0515 14.7539C39.7484 14.0162 39.7709 13.7393 39.8176 13C40.3053 14.0386 40.2119 28.5294 40.2811 30.2369C40.4903 36.8126 39.9093 42.929 39.3766 44.1741Z" fill="#58AA50"/>
</svg>
