<svg width="80" height="80" viewBox="0 0 80 80" fill="none" xmlns="http://www.w3.org/2000/svg">
<path fill-rule="evenodd" clip-rule="evenodd" d="M3 55.5321H5.46114V45.6951L9.25624 54.274C9.70685 55.3028 10.3084 55.6652 11.5106 55.6652C12.7127 55.6652 13.3143 55.3028 13.7649 54.274L17.56 45.6951V55.5321H20.002V45.7139C20.002 44.7612 19.6261 44.3026 18.856 44.0549C16.9961 43.4639 15.7371 43.9788 15.1739 45.2563L11.4544 53.7018L7.84761 45.2563C7.30285 43.9788 6.02537 43.4639 4.16548 44.0549C3.37594 44.3026 3.00032 44.7605 3.00032 45.7139V55.5321H3ZM22.0495 47.5245H24.4915V52.9388C24.473 53.2435 24.5853 53.9301 25.9381 53.9492C26.6144 53.9676 31.2169 53.9492 31.2545 53.9492V47.5051H33.7157C33.7342 47.5051 33.7157 56.2931 33.7157 56.3316C33.7342 58.5046 31.0669 58.9619 29.8456 59.0004H22.1057V57.3229C22.1057 57.3229 29.8271 57.342 29.8456 57.3229C31.4237 57.1704 31.236 56.3702 31.236 56.103V55.4544H26.0323C23.6088 55.4168 22.068 54.3484 22.0495 53.1094C22.0495 52.9954 22.106 47.5818 22.0495 47.5242V47.5245ZM74.8207 41.2906C73.3182 41.2527 72.1719 41.3858 71.1759 41.8243C70.8947 41.9389 70.4623 41.9389 70.4061 42.301C70.5564 42.4525 70.5935 42.7009 70.7064 42.9111C70.9506 43.2926 71.3456 43.8065 71.7021 44.0737C72.078 44.379 72.4725 44.6838 72.8858 44.9509C73.6373 45.4082 74.4639 45.6559 75.1586 46.1145C75.591 46.3807 76.004 46.7246 76.4176 47.0294C76.6049 47.1819 76.7555 47.4108 77 47.5057V47.4682C76.8685 47.2965 76.8309 47.0485 76.7179 46.8571L76.1546 46.2855C75.6102 45.5614 74.9145 44.9127 74.1814 44.3794C73.599 43.9597 72.2842 43.369 72.0401 42.6828C72.0212 42.6637 72.0021 42.6637 72.0021 42.6442C72.4157 42.5866 72.9043 42.4347 73.2799 42.3388C73.9191 42.1679 74.5009 42.2054 75.1583 42.0341C75.4592 41.9382 75.7595 41.8625 76.0605 41.7669V41.5953C75.7225 41.2524 75.4972 40.7757 75.1216 40.4706C74.1636 39.6319 73.1111 38.8119 72.0404 38.1257C71.4391 37.7254 70.7064 37.4773 70.0682 37.1535C69.861 37.0583 69.4851 37.001 69.3354 36.8106C68.9965 36.3909 68.828 35.8381 68.5651 35.3426C68.0138 34.2551 67.5002 33.1489 67.0249 32.0252C66.7058 31.2816 66.4795 30.5384 66.0861 29.8516C64.132 26.6106 62.0465 24.6474 58.7968 22.7216C58.1021 22.3213 57.2755 22.15 56.3922 21.9401C55.9227 21.9016 55.4533 21.8828 54.9832 21.8443C54.7011 21.7296 54.4008 21.3679 54.1187 21.1959C53.048 20.5097 50.2862 19.0035 49.4967 20.9861C48.9893 22.2251 50.2482 23.4453 50.6989 24.0749C51.019 24.5134 51.4124 25.0092 51.6387 25.5046C51.788 25.8285 51.8072 26.153 51.939 26.4959C52.2581 27.3538 52.5214 28.288 52.9159 29.0695C53.1223 29.4697 53.3473 29.8894 53.6106 30.2518C53.7609 30.4617 54.043 30.5569 54.08 30.9001C53.8167 31.2813 53.7989 31.8535 53.6486 32.3299C52.9908 34.4841 53.235 37.1341 54.2118 38.7351C54.5128 39.2115 55.2075 40.2601 56.185 39.8602C57.0304 39.4978 56.8424 38.4301 57.0866 37.4579C57.1434 37.2481 57.1054 37.0955 57.2181 36.943V36.9809C57.4622 37.5146 57.7255 38.0295 57.9884 38.5437C58.5517 39.478 59.5665 40.4693 60.4311 41.1173C60.8625 41.4602 61.2196 42.0516 61.8021 42.242V42.2034H61.7462C61.6332 42.0325 61.4641 41.956 61.3326 41.8223C60.9947 41.4793 60.619 41.0596 60.3369 40.6785C59.5672 39.6108 58.8721 38.4288 58.2332 37.2085C57.9323 36.6175 57.669 35.9695 57.4255 35.3785C57.3307 35.1499 57.3307 34.8069 57.1246 34.6732C56.8424 35.1117 56.4486 35.474 56.2224 35.9886C55.8844 36.8086 55.8283 37.8186 55.7159 38.8485C55.6403 38.8863 55.6591 38.8672 55.6211 38.9058C55.0209 38.7533 54.8134 38.124 54.5884 37.5903C54.044 36.2367 53.9307 34.0637 54.4193 32.5002C54.5508 32.1 55.1338 30.8415 54.8897 30.4604C54.7761 30.098 54.4193 29.8693 54.2131 29.5837C53.9499 29.2408 53.7057 28.7829 53.5184 28.3826C53.0678 27.3149 52.8607 26.1329 52.3717 25.0658C52.1276 24.5509 51.7523 24.036 51.4329 23.5979C51.0758 23.083 50.6813 22.7212 50.4002 22.1111C50.3064 21.9013 50.1749 21.5583 50.3064 21.3294C50.3625 21.1768 50.4193 21.1195 50.5687 21.0622C50.8128 20.8718 51.5085 21.1386 51.7708 21.2335C52.4474 21.5386 53.0298 21.8057 53.6122 22.206C53.8943 22.3964 54.1765 22.7585 54.5144 22.8543H54.8904C55.4916 22.9877 56.1675 22.8922 56.7308 23.0642C57.7265 23.3689 58.628 23.8456 59.4364 24.3796C61.916 25.9619 63.9265 28.2113 65.3163 30.8995C65.5416 31.338 65.6355 31.7382 65.8238 32.1958C66.2189 33.1301 66.7253 34.0832 67.1197 34.9792C67.4957 35.8944 67.8901 36.8096 68.4346 37.5528C68.7355 37.9531 69.8623 38.1629 70.3698 38.3724C70.7269 38.525 71.3086 38.6963 71.6476 38.9064C72.305 39.2876 72.9247 39.7643 73.5448 40.2028C73.8444 40.4146 74.7836 40.891 74.8213 41.2916L74.8207 41.2906Z" fill="#00678C"/>
<path fill-rule="evenodd" clip-rule="evenodd" d="M55.6604 24.7266C55.401 24.7266 55.1425 24.7588 54.8906 24.8224V24.8603H54.9465C55.0968 25.1654 55.3601 25.3752 55.5477 25.6417C55.6792 25.9468 55.8298 26.2519 55.9613 26.5569L56.0171 26.4996C56.2804 26.3283 56.3931 26.0232 56.3931 25.5469C56.2993 25.4322 56.2801 25.2991 56.1866 25.1654C56.0548 24.9743 55.8295 24.8791 55.6597 24.7266H55.6604Z" fill="#00678C"/>
<path fill-rule="evenodd" clip-rule="evenodd" d="M35.6172 55.5344H42.662C43.4885 55.5344 44.2963 55.3628 44.9348 55.0571C45.9867 54.5623 46.5129 53.8945 46.5129 53.0179V51.1878C46.5129 50.4828 45.9117 49.7966 44.7663 49.3578C44.1463 49.1101 43.3944 48.9954 42.662 48.9954H39.6941C38.6984 48.9954 38.229 48.69 38.116 48.0233C38.0972 47.9472 38.0972 47.8707 38.0972 47.7946V46.6696C38.0972 46.5935 38.0972 46.5362 38.116 46.4601C38.229 45.9452 38.4916 45.7927 39.3561 45.7166C39.4311 45.7166 39.5249 45.6974 39.6003 45.6974H46.6074V44.0391H39.7129C38.7172 44.0391 38.2098 44.1152 37.7404 44.2486C36.2752 44.7249 35.6363 45.4497 35.6363 46.7273V48.1761C35.6363 49.3012 36.895 50.2539 38.9805 50.4825C39.2246 50.4825 39.45 50.5016 39.6941 50.5016H42.2305C42.3244 50.5016 42.4179 50.5016 42.4929 50.5207C43.2824 50.5968 43.6015 50.7302 43.8457 51.0155C43.9771 51.1681 44.0339 51.3018 44.0339 51.4735V52.9223C44.0339 53.094 43.921 53.3232 43.6768 53.5133C43.4697 53.7044 43.1126 53.8187 42.6432 53.8563C42.5493 53.8563 42.4747 53.8754 42.3799 53.8754H35.6172V55.5338V55.5344ZM61.8054 52.6357C61.8054 54.3517 63.0455 55.3045 65.582 55.4955C65.8073 55.5147 66.0514 55.5341 66.2767 55.5341H72.6641V53.875H66.2387C64.7921 53.875 64.2477 53.5127 64.2477 52.636V44.0391H61.805V52.636H61.8054V52.6357ZM48.0725 52.7309V46.8218C48.0725 45.3156 49.1052 44.4008 51.1719 44.1145C51.379 44.076 51.6232 44.076 51.8297 44.076H56.4883C56.7136 44.076 56.9207 44.076 57.1649 44.1145C59.2124 44.4008 60.2643 45.3156 60.2643 46.8218V52.7309C60.2643 53.9515 59.8137 54.5995 58.7991 55.0188L61.2226 57.2304H58.3674L56.4133 55.4573L54.4401 55.572H51.829C51.3784 55.572 50.9086 55.5153 50.3824 55.3624C48.8241 54.9424 48.0725 54.1037 48.0725 52.7309ZM50.7213 52.5794C50.7213 52.6746 50.7401 52.7503 50.7593 52.8465C50.9096 53.5324 51.5479 53.9139 52.5059 53.9139H54.742L52.6945 52.0454H55.5498L57.3343 53.6659C57.6544 53.4942 57.8797 53.227 57.9544 52.8841C57.9732 52.7889 57.9732 52.7131 57.9732 52.6364V46.9559C57.9732 46.8982 57.9732 46.8225 57.9544 46.7457C57.8041 46.098 57.1659 45.736 56.226 45.736H52.5065C51.4167 45.736 50.722 46.2124 50.722 46.9559V52.5797H50.7216L50.7213 52.5794ZM73.7916 55.5344H74.1487V54.1617H74.637V53.8754H73.303V54.1617H73.7913V55.5344H73.7916ZM76.5342 55.5344H76.8533V53.8754H76.3651L75.9336 55.0195L75.5021 53.8754H74.9947V55.5344H75.3327V54.276L75.8021 55.5344H76.0462L76.5157 54.276H76.5345V55.5344H76.5342Z" fill="#CE8B2C"/>
</svg>
