<svg width="80" height="80" viewBox="0 0 80 80" fill="none" xmlns="http://www.w3.org/2000/svg">
<g clip-path="url(#clip0_6814_20595)">
<path d="M71.0867 19.9744C61.7487 14.9014 52.4065 9.83882 43.0665 4.76796C41.2096 3.74144 38.7898 3.74659 36.9318 4.76796C27.6263 9.81722 18.3208 14.8675 9.01314 19.9147C7.20225 20.8507 5.98138 22.7628 6.00021 24.748V55.2554C5.98766 57.2786 7.27129 59.2092 9.12926 60.1329C11.8022 61.5317 14.3998 63.0715 17.1219 64.3768C20.2656 65.896 24.1991 66.2313 27.3815 64.6473C29.9645 63.3348 31.1121 60.4147 31.109 57.7312C31.1299 47.6625 31.1121 37.5948 31.1173 27.5261C31.179 27.0787 30.837 26.6004 30.3411 26.6107C29.1516 26.5922 27.9611 26.6004 26.7716 26.6076C26.3228 26.5665 25.8834 26.9326 25.9179 27.377C25.9022 37.3809 25.9211 47.3868 25.9085 57.3917C25.9347 58.7762 24.9837 60.1051 23.6269 60.5731C20.4936 61.6531 11.5511 55.9435 11.5511 55.9435C11.2226 55.7944 11.0144 55.4446 11.0469 55.097C11.0469 45.0314 11.049 34.9668 11.0469 24.9033C11.0019 24.498 11.2561 24.1318 11.6348 23.9662C20.91 18.9468 30.18 13.915 39.4552 8.89253C39.7774 8.68064 40.2262 8.68167 40.5484 8.89459C49.8236 13.915 59.0957 18.9427 68.3719 23.9621C68.7517 24.1277 68.9954 24.499 68.9567 24.9033C68.9546 34.9668 68.9598 45.0324 68.9536 55.096C68.9808 55.4518 68.7935 55.7974 68.4556 55.9538C59.2672 60.9465 49.9742 65.7777 40.8685 70.9144C40.471 71.1386 40.0211 71.3916 39.5765 71.1448C37.1819 69.8426 34.8165 68.49 32.4302 67.1745C32.1708 67.0151 31.8402 66.9472 31.5693 67.1251C30.499 67.6795 29.4926 68.129 28.2645 68.6062C26.5383 69.2779 26.8145 69.5525 28.3712 70.4443C31.1623 71.9975 33.9576 73.5444 36.7488 75.0986C38.5858 76.2259 41.0547 76.3061 42.9514 75.2642C52.258 70.2211 61.5625 65.1729 70.8712 60.1298C72.7239 59.201 74.0149 57.2776 74.0023 55.2523V24.748C74.0201 22.804 72.8453 20.9258 71.0888 19.9744H71.0867Z" fill="#8CC84B"/>
<path d="M56.0004 48.8032C52.8735 51.2368 44.1747 50.8635 41.0854 48.9483C39.8363 48.1326 39.2975 46.6885 39.0789 45.3112C39.0548 44.8823 38.7033 44.4894 38.2294 44.5213C37.0431 44.5069 35.8578 44.51 34.6715 44.5192C34.2572 44.4853 33.8272 44.7743 33.8042 45.1899C33.5604 51.494 39.4492 54.2423 44.975 54.8482C48.1313 55.1444 51.3576 55.1269 54.4657 54.4604C56.8028 53.9368 59.1452 52.9741 60.7531 51.205C62.7366 49.0542 63.1268 45.8533 62.2366 43.1739C61.5566 41.1754 59.6128 39.8927 57.6262 39.2334C54.9239 38.3231 51.7227 37.8335 49.2758 37.6042C45.7188 37.2709 41.4924 37.4077 40.486 35.1088C40.0843 33.9054 40.4263 32.4119 41.551 31.6714C44.5262 29.6872 50.5824 29.9506 53.6633 31.4327C55.0777 32.1291 55.8979 33.5598 56.2369 35.005C56.2996 35.4287 56.5905 35.872 57.0895 35.8535C58.2675 35.8762 59.4454 35.8597 60.6234 35.8618C61.0282 35.8895 61.4708 35.6653 61.5503 35.258C61.5001 32.2391 59.9319 29.1483 57.1041 27.6764C53.451 25.755 49.1052 25.6532 45.0462 25.9042C42.1138 26.1891 39.0287 26.9852 36.8924 29.0516C34.7007 31.1293 34.2237 34.4845 35.2646 37.1968C36.0105 39.1141 37.8884 40.3597 39.83 41.019C42.3314 41.8871 44.9583 42.1556 47.5862 42.424C49.983 42.6688 52.3807 42.9136 54.6844 43.6141C55.6249 43.9206 56.7212 44.3896 57.01 45.3966C57.2757 46.5887 56.9849 47.9742 55.9994 48.8032H56.0004Z" fill="#8CC84B"/>
</g>
<defs>
<clipPath id="clip0_6814_20595">
<rect width="68" height="72" fill="white" transform="translate(6 4)"/>
</clipPath>
</defs>
</svg>
