<svg width="80" height="80" viewBox="0 0 80 80" fill="none" xmlns="http://www.w3.org/2000/svg">
<g clip-path="url(#clip0_6203_47346)">
<path d="M29.7561 38.4458C29.7561 36.596 28.2331 35.0938 26.3572 35.0938H17.9062V44.9992H19.8375V36.8413H26.2292C27.1269 36.8413 27.8483 37.5607 27.8483 38.4461C27.8483 39.3314 27.1269 40.0505 26.2292 40.0505L20.7833 40.0428L26.5498 44.9992H29.3553L25.4757 41.7898H26.3575C28.2331 41.7898 29.7564 40.2955 29.7564 38.4458H29.7561Z" fill="#EA1B22"/>
<path d="M11.8606 35.0938H6.02297C3.25023 35.0938 1 37.3151 1 40.0505C1 42.7859 3.25023 44.9992 6.02266 44.9989H11.8603C14.6337 44.9989 16.8821 42.7856 16.8821 40.0505C16.8821 37.3154 14.6337 35.0938 11.8606 35.0938ZM11.7308 43.2517H6.15189C4.35645 43.2517 2.90063 41.8209 2.90063 40.0502C2.90063 38.2795 4.35614 36.8407 6.15189 36.8407H11.7308C13.5272 36.8407 14.982 38.2795 14.982 40.0499C14.982 41.8202 13.5272 43.2517 11.7308 43.2517Z" fill="#EA1B22"/>
<path d="M37.0985 35C36.6094 35 36.1686 35.2293 35.9043 35.6086L29.8203 45H32.0968L37.0985 37.1819L39.8238 41.5061H34.6697L35.8081 43.253H41.0265L42.1006 45H44.377L38.2687 35.5929C38.0121 35.2213 37.5714 35 37.0985 35Z" fill="#EA1B22"/>
<path d="M58.3225 43.2517V35.0938H56.3906V44.0502C56.3906 44.2952 56.4868 44.5326 56.6712 44.7142C56.8557 44.8961 57.1042 44.9986 57.3767 44.9986H66.1859L67.3243 43.2517H58.3225Z" fill="#EA1B22"/>
<path d="M72.0369 43.252C70.5539 43.252 69.2953 42.2718 68.9108 40.9198H77.1669L78.305 39.1729H68.9108C69.2953 37.8289 70.5539 36.841 72.0369 36.841H77.7041L78.85 35.0938H71.9086C69.1352 35.0938 66.8828 37.3151 66.8828 40.0502C66.8828 42.7853 69.1352 44.9989 71.9086 44.9989H77.8642L79.0023 43.252H72.0369Z" fill="#EA1B22"/>
<path d="M45.2828 40.0502C45.2828 38.2795 46.7418 36.8407 48.5372 36.8407H54.2122L55.3425 35.0938H48.4086C45.6352 35.0938 43.3828 37.3148 43.3828 40.0502C43.3828 42.7856 45.6352 44.9986 48.4086 44.9986H54.3642L55.5026 43.2517H48.5369C46.7415 43.2517 45.2825 41.8209 45.2825 40.0502H45.2828Z" fill="#EA1B22"/>
</g>
<defs>
<clipPath id="clip0_6203_47346">
<rect width="78" height="10" fill="white" transform="translate(1 35)"/>
</clipPath>
</defs>
</svg>
