<svg width="80" height="80" viewBox="0 0 80 80" fill="none" xmlns="http://www.w3.org/2000/svg">
<g clip-path="url(#clip0_6814_20587)">
<path fill-rule="evenodd" clip-rule="evenodd" d="M28.1626 36.9999C27.9164 41.25 25.9436 42.0001 23.7245 42.2501H20.7656L21.9986 34.75H25.204C26.93 34.75 28.1626 35.4999 28.1626 36.9999Z" fill="#8993BE"/>
<path fill-rule="evenodd" clip-rule="evenodd" d="M40 21C20.1176 21 4 29.5066 4 40C4 50.4934 20.1176 59 40 59C59.8824 59 76 50.4934 76 40C76 29.5066 59.8821 21 40 21ZM24.2188 46.0001H19.781L18.7946 51.25H14.1094L18.055 30.9999H27.1777C31.123 31.2499 33.0955 33.2498 33.0955 36.75C33.0955 42.7501 28.4109 46.25 24.2188 46.0001ZM42.7818 34.7501H39.083L36.864 46.0001H32.1791L36.1241 25.75H40.809L39.8229 30.9999H44.261C48.2063 31.2499 49.6857 33.2498 49.1927 35.7499L47.4667 46.0001H42.5353L44.2612 36.75C44.5075 35.5 44.5075 34.7501 42.7818 34.7501ZM57.2604 46.0001H52.8218L51.8356 51.25H47.1508L51.0958 30.9999H60.219C64.1644 31.2499 66.1372 33.2498 66.1372 36.75C66.1372 42.7501 61.452 46.25 57.2604 46.0001ZM58.2465 34.7501H55.0408L53.8079 42.2502H56.7674C58.9864 42.0002 60.9589 41.2501 61.2054 37C61.2054 35.5 59.9725 34.7501 58.2465 34.7501Z" fill="#8993BE"/>
</g>
<defs>
<clipPath id="clip0_6814_20587">
<rect width="72" height="38" fill="white" transform="translate(4 21)"/>
</clipPath>
</defs>
</svg>
