<svg width="80" height="80" viewBox="0 0 80 80" fill="none" xmlns="http://www.w3.org/2000/svg">
<g clip-path="url(#clip0_6203_47342)">
<path d="M28.617 45.837C27.629 46.8926 25.482 49.2266 23.1966 51.9693C21.5796 53.9092 20.4628 53.5375 20.0955 53.4153C17.7027 52.6191 14.9261 47.5733 12.4783 39.5721C10.3599 32.6488 9.12215 25.6868 9.02402 23.7348C8.71487 17.5606 10.2149 13.2578 13.4831 10.9454C18.8015 7.18268 27.5456 9.435 31.0593 10.5772C31.0089 10.6269 30.9562 10.6734 30.9064 10.7239C25.1407 16.5333 25.2773 26.4584 25.2915 27.0652C25.2909 27.2994 25.3109 27.631 25.3375 28.0867C25.4368 29.7562 25.6215 32.8631 25.1283 36.3818C24.67 39.6513 25.6803 42.8517 27.8997 45.1621C28.1275 45.3986 28.3669 45.6239 28.617 45.837Z" fill="black"/>
<path d="M37.2133 27.78C36.8917 26.2956 36.1176 25.4327 34.8474 25.1425C32.0636 24.5062 28.1603 26.5925 27.318 27.3379C27.3255 27.506 27.3382 27.7194 27.3527 27.9626C27.456 29.7017 27.6483 32.9388 27.1275 36.6556C26.7555 39.3106 27.5681 41.9002 29.3567 43.7627C30.7633 45.2271 32.6133 46.0378 34.5148 46.0433C34.7334 45.1483 35.086 44.2062 35.4646 43.1926L35.6143 42.7917C35.8073 42.2733 36.0334 41.772 36.2728 41.2417C37.4339 38.668 38.8789 35.4649 37.2133 27.78ZM36.2853 27.3804C36.214 27.8904 35.4053 28.5815 34.5157 28.5815C34.4393 28.5815 34.3623 28.5765 34.285 28.5656C33.7515 28.4916 33.2128 28.1566 32.8437 27.6686C32.7134 27.4964 32.5013 27.1623 32.5432 26.8599C32.5592 26.7462 32.6179 26.5804 32.8069 26.4374C33.1436 26.183 33.8088 26.0886 34.5435 26.1905C35.4449 26.3158 36.3744 26.7415 36.2853 27.3804Z" fill="black"/>
<path d="M38.7969 49.9871C38.88 50.2759 38.9729 50.8237 38.6681 51.2503C36.0927 54.8481 32.3397 54.8016 29.6444 54.1287C29.0892 53.9904 28.5898 53.7501 28.2969 53.5509C28.5415 53.4359 28.9771 53.2794 29.7324 53.124C33.3881 52.3734 33.9526 51.8435 35.1857 50.282C35.4683 49.9236 35.7887 49.5178 36.2325 49.0234L36.2331 49.0228C36.8936 48.2846 37.1961 48.4097 37.7444 48.6367C38.1884 48.8201 38.6215 49.3757 38.7969 49.9871Z" fill="black"/>
<path d="M57.1108 51.2964C56.96 53.1999 55.888 62.1107 55.3436 65.2589C54.6245 69.4182 53.0903 70.9673 48.7769 71.8903C44.3048 72.8459 42.7214 70.5693 41.6778 67.967C41.0045 66.2867 40.6734 58.7104 40.9084 50.3437C40.9113 50.2322 40.8954 50.1248 40.8647 50.0237C40.8372 49.8239 40.7955 49.6263 40.7397 49.4325C40.3905 48.215 39.5395 47.1967 38.5185 46.7744C38.1127 46.6067 37.3685 46.2991 36.4737 46.5275C36.6645 45.7432 36.9953 44.8574 37.354 43.8986L37.5045 43.4952C37.6739 43.0403 37.8866 42.5693 38.1115 42.0705C39.3265 39.3775 40.9906 35.689 39.1846 27.3557C38.5081 24.2347 36.2491 22.7104 32.8243 23.0645C30.7714 23.2765 28.893 24.1027 27.9563 24.5766C27.7548 24.6786 27.5707 24.7768 27.3984 24.8727C27.6598 21.7279 28.6478 15.8509 32.3432 12.1324C34.67 9.79167 37.7685 8.63533 41.5438 8.69771C48.983 8.81929 53.7532 12.6279 56.4453 15.8018C58.7654 18.5367 60.0214 21.2919 60.5228 22.7777C56.7527 22.3951 54.1886 23.1376 52.8888 24.9916C50.061 29.0244 54.4358 36.852 56.5382 40.6138C56.9238 41.3032 57.2567 41.899 57.3615 42.1522C58.0461 43.8076 58.9324 44.9132 59.5797 45.7198C59.778 45.967 59.9705 46.2067 60.117 46.4163C58.975 46.7447 56.9238 47.5034 57.1108 51.2964Z" fill="black"/>
<path d="M60.0913 31.0246C60.1321 29.749 60.2945 28.6981 60.4514 27.6818C60.5973 26.7366 60.7348 25.8312 60.7516 24.834C56.7617 24.3398 55.1723 25.2576 54.5461 26.15C52.4434 29.1489 56.5507 36.4976 58.3046 39.6357C58.7556 40.442 59.0813 41.0245 59.2312 41.387C59.3867 41.763 59.5653 42.1292 59.7656 42.4832C60.9718 39.9222 60.6604 37.3265 60.3567 34.8053C60.2065 33.5568 60.051 32.2662 60.0913 31.0246ZM58.4418 27.0979C58.247 27.3017 57.8377 27.6552 57.2796 27.7323C57.2078 27.7424 57.1366 27.7471 57.0657 27.7471C56.2297 27.7471 55.5234 27.0811 55.4687 26.6906C55.4001 26.189 56.2207 25.8078 57.0671 25.6903C57.9147 25.5727 58.8077 25.7154 58.8778 26.2162C58.9093 26.4411 58.7377 26.7874 58.4418 27.0979Z" fill="black"/>
<path d="M50.0391 8.48687C51.5466 8.17526 53.6083 7.88444 55.9162 7.93556C61.7639 8.06436 66.3894 10.2468 69.6644 14.4219C72.1762 17.6244 69.4103 32.196 61.4032 44.767C61.3227 44.6648 61.2417 44.5631 61.1603 44.4615L61.059 44.3353C63.1282 40.926 62.7235 37.5531 62.3634 34.5627C62.2152 33.3353 62.0756 32.176 62.1112 31.0873C62.148 29.9332 62.3008 28.9432 62.4488 27.9862C62.6305 26.8067 62.8155 25.5863 62.7646 24.1478C62.8028 23.9967 62.8181 23.8185 62.7982 23.6068C62.6679 22.2273 61.0891 18.0983 57.871 14.3613C56.111 12.3172 53.544 10.0299 50.0391 8.48687Z" fill="black"/>
<path d="M70.2746 48.7339L70.3201 48.7249C69.7605 49.2468 68.8026 49.9474 67.4447 50.5767C66.2773 51.1173 64.3231 51.5228 62.467 51.61C60.4169 51.7059 59.3731 51.381 59.1273 51.1812C59.0124 48.8174 59.8941 48.5704 60.8274 48.3091C60.9742 48.2681 61.1172 48.2276 61.2552 48.1797C61.3409 48.2493 61.435 48.3186 61.538 48.3865C63.186 49.4715 66.125 49.5884 70.2746 48.7339Z" fill="black"/>
<path d="M74.8148 47.1296C74.3942 45.8583 73.2918 44.9728 71.8665 44.7603C71.1946 44.6604 70.4249 44.7031 69.5139 44.8902C67.9265 45.2172 66.7486 45.3416 65.8892 45.3656C69.1336 39.9007 71.7718 33.6684 73.2904 27.8021C75.7463 18.3163 74.4341 13.9947 72.9005 12.0401C68.8421 6.86635 62.9206 4.08697 55.7773 4.00206C51.9664 3.95556 48.6213 4.70615 46.876 5.24591C45.2512 4.96 43.5042 4.80029 41.671 4.77055C38.2347 4.71597 35.1984 5.46337 32.6041 6.9992C31.1681 6.51488 28.8627 5.83159 26.2007 5.39579C19.94 4.37028 14.8939 5.16938 11.2028 7.77086C6.73368 10.9205 4.66163 16.3929 5.0449 24.0359C5.16648 26.4624 6.52729 33.8458 8.66938 40.8479C9.9008 44.8726 11.2136 48.2146 12.5718 50.7826C14.4979 54.4234 16.5587 56.5677 18.8724 57.3377C20.169 57.7686 22.5253 58.0706 25.0032 56.0115C25.3175 56.391 25.7364 56.7682 26.2928 57.1185C26.9991 57.5627 27.8626 57.926 28.7252 58.1411C31.8339 58.9162 34.7454 58.7225 37.2296 57.6357C37.245 58.0764 37.2568 58.4978 37.2667 58.8614C37.2829 59.4511 37.2994 60.0296 37.3211 60.5705C37.4684 64.2275 37.7177 67.0713 38.4567 69.0608C38.4972 69.1703 38.5519 69.3372 38.6093 69.5139C38.978 70.6402 39.5943 72.5252 41.1627 74.0018C42.7869 75.531 44.7513 76 46.5504 76C47.4526 76 48.3135 75.8819 49.0688 75.7208C51.7603 75.1452 54.8174 74.2684 57.0287 71.1269C59.1196 68.1572 60.1359 63.6843 60.3197 56.6365C60.3437 56.4372 60.3657 56.2469 60.3866 56.0655L60.4306 55.6933L60.9233 55.7363L61.0501 55.7447C63.7916 55.8694 67.1437 55.2895 69.2025 54.3353C70.8293 53.5825 76.0421 50.8366 74.8148 47.1296ZM68.2958 52.407C66.6629 53.1631 64.0594 53.6414 61.803 53.6414C60.7212 53.6417 59.7205 53.531 58.943 53.289C58.5748 56.6671 57.7915 62.9652 57.3352 65.6025C56.4825 70.5377 54.2778 72.7762 49.2014 73.8618C48.3373 74.0466 47.5517 74.1295 46.8378 74.1295C41.9738 74.1295 40.4341 70.2885 39.8036 68.7166C39.0339 66.7966 38.7667 60.4954 38.8206 54.1003C37.0658 55.6832 34.8701 56.5013 32.3752 56.5013C31.3493 56.5013 30.2733 56.3639 29.1565 56.0849C28.8364 56.0052 26.0239 55.2517 26.0609 53.458C26.0956 51.8162 28.4433 51.3333 29.327 51.1514C32.4345 50.5131 32.6354 50.2584 33.6008 49.0359C33.8306 48.7425 34.0654 48.4528 34.3054 48.1678C34.3019 48.1317 34.2984 48.0953 34.2955 48.0589C32.9023 48.0217 31.54 47.6508 30.3002 46.9869C28.3888 49.0229 26.5371 51.1135 24.7467 53.2561C23.2791 55.0166 21.8682 55.5339 20.7175 55.5339C20.248 55.5339 19.8225 55.4481 19.4531 55.3253C16.299 54.2756 13.3009 49.1725 10.5429 40.1583C8.44765 33.3098 7.12013 26.1583 7.00347 23.8338C6.65726 16.924 8.44446 12.0329 12.3156 9.29687C15.5597 7.00411 20.1059 6.30782 25.8267 7.22648C29.136 7.75844 31.8417 8.68519 32.8887 9.07391C35.2991 7.43412 38.2107 6.62954 41.5787 6.68412C43.4154 6.71415 45.1024 6.94981 46.6499 7.33362C47.3846 7.01161 51.1756 5.86624 55.6621 5.9165C62.1883 5.98523 67.5797 8.49719 71.2531 13.1803C72.1644 14.3419 72.6061 16.2436 72.5659 18.8312C72.5294 21.1889 72.0839 24.0815 71.2777 27.1962C69.5753 33.7713 66.4195 40.8188 62.5837 46.649C63.1638 47.0753 64.9313 47.7791 69.8662 46.7628C71.5284 46.4206 72.5288 46.7221 72.8397 47.6598C73.4398 49.4717 70.1299 51.5571 68.2958 52.407Z" fill="black"/>
<path d="M28.617 45.837C27.629 46.8926 25.482 49.2266 23.1966 51.9693C21.5796 53.9092 20.4628 53.5375 20.0955 53.4153C17.7027 52.6191 14.9261 47.5733 12.4783 39.5721C10.3599 32.6488 9.12215 25.6868 9.02402 23.7348C8.71487 17.5606 10.2149 13.2578 13.4831 10.9454C18.8015 7.18268 27.5456 9.435 31.0593 10.5772C31.0089 10.6269 30.9562 10.6734 30.9064 10.7239C25.1407 16.5333 25.2773 26.4584 25.2915 27.0652C25.2909 27.2994 25.3109 27.631 25.3375 28.0867C25.4368 29.7562 25.6215 32.8631 25.1283 36.3818C24.67 39.6513 25.6803 42.8517 27.8997 45.1621C28.1275 45.3986 28.3669 45.6239 28.617 45.837Z" fill="#336791"/>
<path d="M37.2133 27.78C36.8917 26.2956 36.1176 25.4327 34.8474 25.1425C32.0636 24.5062 28.1603 26.5925 27.318 27.3379C27.3255 27.506 27.3382 27.7194 27.3527 27.9626C27.456 29.7017 27.6483 32.9388 27.1275 36.6556C26.7555 39.3106 27.5681 41.9002 29.3567 43.7627C30.7633 45.2271 32.6133 46.0378 34.5148 46.0433C34.7334 45.1483 35.086 44.2062 35.4646 43.1926L35.6143 42.7917C35.8073 42.2733 36.0334 41.772 36.2728 41.2417C37.4339 38.668 38.8789 35.4649 37.2133 27.78ZM36.2853 27.3804C36.214 27.8904 35.4053 28.5815 34.5157 28.5815C34.4393 28.5815 34.3623 28.5765 34.285 28.5656C33.7515 28.4916 33.2128 28.1566 32.8437 27.6686C32.7134 27.4964 32.5013 27.1623 32.5432 26.8599C32.5592 26.7462 32.6179 26.5804 32.8069 26.4374C33.1436 26.183 33.8088 26.0886 34.5435 26.1905C35.4449 26.3158 36.3744 26.7415 36.2853 27.3804Z" fill="#336791"/>
<path d="M38.7969 49.9871C38.88 50.2759 38.9729 50.8237 38.6681 51.2503C36.0927 54.8481 32.3397 54.8016 29.6444 54.1287C29.0892 53.9904 28.5898 53.7501 28.2969 53.5509C28.5415 53.4359 28.9771 53.2794 29.7324 53.124C33.3881 52.3734 33.9526 51.8435 35.1857 50.282C35.4683 49.9236 35.7887 49.5178 36.2325 49.0234L36.2331 49.0228C36.8936 48.2846 37.1961 48.4097 37.7444 48.6367C38.1884 48.8201 38.6215 49.3757 38.7969 49.9871Z" fill="#336791"/>
<path d="M57.1108 51.2964C56.96 53.1999 55.888 62.1107 55.3436 65.2589C54.6245 69.4182 53.0903 70.9673 48.7769 71.8903C44.3048 72.8459 42.7214 70.5693 41.6778 67.967C41.0045 66.2867 40.6734 58.7104 40.9084 50.3437C40.9113 50.2322 40.8954 50.1248 40.8647 50.0237C40.8372 49.8239 40.7955 49.6263 40.7397 49.4325C40.3905 48.215 39.5395 47.1967 38.5185 46.7744C38.1127 46.6067 37.3685 46.2991 36.4737 46.5275C36.6645 45.7432 36.9953 44.8574 37.354 43.8986L37.5045 43.4952C37.6739 43.0403 37.8866 42.5693 38.1115 42.0705C39.3265 39.3775 40.9906 35.689 39.1846 27.3557C38.5081 24.2347 36.2491 22.7104 32.8243 23.0645C30.7714 23.2765 28.893 24.1027 27.9563 24.5766C27.7548 24.6786 27.5707 24.7768 27.3984 24.8727C27.6598 21.7279 28.6478 15.8509 32.3432 12.1324C34.67 9.79167 37.7685 8.63533 41.5438 8.69771C48.983 8.81929 53.7532 12.6279 56.4453 15.8018C58.7654 18.5367 60.0214 21.2919 60.5228 22.7777C56.7527 22.3951 54.1886 23.1376 52.8888 24.9916C50.061 29.0244 54.4358 36.852 56.5382 40.6138C56.9238 41.3032 57.2567 41.899 57.3615 42.1522C58.0461 43.8076 58.9324 44.9132 59.5797 45.7198C59.778 45.967 59.9705 46.2067 60.117 46.4163C58.975 46.7447 56.9238 47.5034 57.1108 51.2964Z" fill="#336791"/>
<path d="M60.0913 31.0246C60.1321 29.749 60.2945 28.6981 60.4514 27.6818C60.5973 26.7366 60.7348 25.8312 60.7516 24.834C56.7617 24.3398 55.1723 25.2576 54.5461 26.15C52.4434 29.1489 56.5507 36.4976 58.3046 39.6357C58.7556 40.442 59.0813 41.0245 59.2312 41.387C59.3867 41.763 59.5653 42.1292 59.7656 42.4832C60.9718 39.9222 60.6604 37.3265 60.3567 34.8053C60.2065 33.5568 60.051 32.2662 60.0913 31.0246ZM58.4418 27.0979C58.247 27.3017 57.8377 27.6552 57.2796 27.7323C57.2078 27.7424 57.1366 27.7471 57.0657 27.7471C56.2297 27.7471 55.5234 27.0811 55.4687 26.6906C55.4001 26.189 56.2207 25.8078 57.0671 25.6903C57.9147 25.5727 58.8077 25.7154 58.8778 26.2162C58.9093 26.4411 58.7377 26.7874 58.4418 27.0979Z" fill="#336791"/>
<path d="M50.0391 8.48687C51.5466 8.17526 53.6083 7.88444 55.9162 7.93556C61.7639 8.06436 66.3894 10.2468 69.6644 14.4219C72.1762 17.6244 69.4103 32.196 61.4032 44.767C61.3227 44.6648 61.2417 44.5631 61.1603 44.4615L61.059 44.3353C63.1282 40.926 62.7235 37.5531 62.3634 34.5627C62.2152 33.3353 62.0756 32.176 62.1112 31.0873C62.148 29.9332 62.3008 28.9432 62.4488 27.9862C62.6305 26.8067 62.8155 25.5863 62.7646 24.1478C62.8028 23.9967 62.8181 23.8185 62.7982 23.6068C62.6679 22.2273 61.0891 18.0983 57.871 14.3613C56.111 12.3172 53.544 10.0299 50.0391 8.48687Z" fill="#336791"/>
<path d="M70.2746 48.7339L70.3201 48.7249C69.7605 49.2468 68.8026 49.9474 67.4447 50.5767C66.2773 51.1173 64.3231 51.5228 62.467 51.61C60.4169 51.7059 59.3731 51.381 59.1273 51.1812C59.0124 48.8174 59.8941 48.5704 60.8274 48.3091C60.9742 48.2681 61.1172 48.2276 61.2552 48.1797C61.3409 48.2493 61.435 48.3186 61.538 48.3865C63.186 49.4715 66.125 49.5884 70.2746 48.7339Z" fill="#336791"/>
</g>
<defs>
<clipPath id="clip0_6203_47342">
<rect width="70" height="72" fill="white" transform="translate(5 4)"/>
</clipPath>
</defs>
</svg>
