<svg width="80" height="80" viewBox="0 0 80 80" fill="none" xmlns="http://www.w3.org/2000/svg">
<g clip-path="url(#clip0_6814_20625)">
<path d="M39.7406 4C21.4623 4 22.6037 11.9678 22.6037 11.9678L22.6239 20.2229H40.0663V22.7012H15.6962C15.6962 22.7012 4 21.3679 4 39.9068C4 58.4458 14.2087 57.7887 14.2087 57.7887H20.3014V49.1856C20.3014 49.1856 19.9728 38.9235 30.3472 38.9235H47.647C47.647 38.9235 57.3666 39.0814 57.3666 29.4808V13.6067C57.3666 13.6067 58.8426 4 39.7406 4ZM30.1229 9.5513C31.8544 9.54985 33.2593 10.9595 33.2607 12.7C33.2607 12.7021 33.2607 12.7038 33.2607 12.7058C33.2622 14.4464 31.8599 15.8587 30.1284 15.8601C30.1264 15.8601 30.1246 15.8601 30.1226 15.8601C28.3911 15.8616 26.9862 14.4519 26.9848 12.7114C26.9848 12.7093 26.9848 12.7076 26.9848 12.7056C26.9833 10.965 28.3856 9.55275 30.1171 9.5513C30.1191 9.5513 30.1209 9.5513 30.1229 9.5513Z" fill="url(#paint0_linear_6814_20625)"/>
<path d="M40.2618 76.0022C58.5401 76.0022 57.3988 68.0345 57.3988 68.0345L57.3786 59.7796H39.9359V57.3013H64.3062C64.3062 57.3013 76.0024 58.6347 76.0024 40.0954C76.0024 21.5562 65.7937 22.2138 65.7937 22.2138H59.7011V30.8166C59.7011 30.8166 60.0296 41.0787 49.6552 41.0787H32.3554C32.3554 41.0787 22.6358 40.9208 22.6358 50.5218V66.3961C22.6358 66.3961 21.1599 76.0025 40.2616 76.0025L40.2618 76.0022ZM49.8795 70.4515C48.1481 70.453 46.7431 69.0433 46.7417 67.3028V67.297C46.74 65.5564 48.1423 64.1442 49.8738 64.1424H49.8798C51.6113 64.141 53.0162 65.5506 53.0177 67.2912V67.297C53.0191 69.0375 51.6168 70.4498 49.8853 70.4512H49.8795V70.4515Z" fill="url(#paint1_linear_6814_20625)"/>
</g>
<defs>
<linearGradient id="paint0_linear_6814_20625" x1="10.5425" y1="10.6793" x2="46.5779" y2="45.9137" gradientUnits="userSpaceOnUse">
<stop stop-color="#387EB8"/>
<stop offset="1" stop-color="#366994"/>
</linearGradient>
<linearGradient id="paint1_linear_6814_20625" x1="32.3441" y1="33.2006" x2="71.0566" y2="69.4913" gradientUnits="userSpaceOnUse">
<stop stop-color="#FFE052"/>
<stop offset="1" stop-color="#FFC331"/>
</linearGradient>
<clipPath id="clip0_6814_20625">
<rect width="72" height="72" fill="white" transform="translate(4 4)"/>
</clipPath>
</defs>
</svg>
