<svg width="80" height="80" viewBox="0 0 80 80" fill="none" xmlns="http://www.w3.org/2000/svg">
<path d="M37.8794 44.2931C37.8794 40.0719 33.8097 39.6797 33.8097 39.6797H26.4766V52.9971H30.1623V49.7845L33.3489 52.9971H38.8009L34.5199 48.7945C34.5199 48.7945 37.8794 48.5144 37.8794 44.2931ZM33.0996 46.0676H30.1626V43.023H33.119C33.119 43.023 33.9444 43.3218 33.9444 44.536C33.9444 45.7502 33.0999 46.0676 33.0999 46.0676H33.0996Z" fill="#CC0000"/>
<path d="M46.9781 39.7737H43.2346C40.5663 39.7737 39.6641 42.127 39.6641 43.2478V52.9976H43.4076V50.663H46.9206V52.9976H50.5489V43.2475C50.5489 40.4085 47.8998 39.7734 46.9784 39.7734L46.9781 39.7737ZM46.9206 46.8902H43.3884V43.6589C43.3884 43.6589 43.3884 42.9304 44.5594 42.9304H45.8457C46.8823 42.9304 46.9015 43.6589 46.9015 43.6589V46.8902H46.9206Z" fill="#CC0000"/>
<path d="M74.4301 44.7418H71.301V43.173H77.5015V39.7734H71.5506C70.0148 39.7734 67.9609 41.0063 67.9609 43.3037V44.4804C67.9609 46.7778 69.9959 47.9544 71.5506 47.9544C72.6803 47.9594 73.1481 47.9615 73.2944 47.9624C73.0475 47.9609 72.1538 47.9544 74.507 47.9544V49.5981L68.1531 49.6168V52.9976H74.4304C75.7167 52.9976 77.9244 52.0825 78.001 49.5236V48.2162C78.001 46.0309 76.1581 44.7421 74.4304 44.7421L74.4301 44.7418Z" fill="#CC0000"/>
<path d="M61.6276 39.7734H57.75V52.9976H66.8683V49.5795H61.6276V39.7734Z" fill="#CC0000"/>
<path d="M56.1548 39.7734H52.2578V52.9976H56.1548V39.7734Z" fill="#CC0000"/>
<path d="M35.0171 28.7553C34.8444 28.6618 34.3644 28.4379 33.155 28.1016L33.0781 29.3344C33.7117 29.54 34.3261 29.7639 34.9401 30.0068L35.0171 28.7553Z" fill="#CC0000"/>
<path d="M44.8664 38.0745C45.212 37.7944 45.5382 37.5702 45.5382 37.5702C45.5382 37.5702 35.556 27.8763 24.441 28.9595C18.8355 29.4451 11.9632 34.3949 7.93177 40.9322C3.90068 47.4697 3.34375 52.9984 3.34375 52.9984H18.5093C18.5093 52.9984 15.6106 40.1291 25.2089 34.9179C27.3014 33.9279 33.9627 30.2296 44.8664 38.0745Z" fill="#CC0000"/>
<path d="M18.2206 30.1013L17.3566 28.8125C16.8766 29.0553 16.3777 29.3168 15.8594 29.6156L16.7425 30.923C17.2417 30.6242 17.7214 30.3438 18.2206 30.1013Z" fill="#CC0000"/>
<path d="M26.0116 28.1394H26.2034L25.8194 27C25.2242 27 24.6101 27.0373 23.9766 27.1121L24.3414 28.2142C24.898 28.1583 25.4546 28.1394 26.0116 28.1394Z" fill="#CC0000"/>
<path d="M10.9631 35.6502L9.6003 34.4922C9.10112 34.9592 8.6214 35.426 8.17969 35.8931L9.65775 37.1259C10.0609 36.6216 10.5023 36.1173 10.9631 35.6502Z" fill="#CC0000"/>
<path d="M27.3789 36.3006C27.9355 36.0391 28.4925 35.8149 29.0491 35.6469L28.6268 34.4141C27.9742 34.6007 27.4175 34.8063 26.9375 35.0119L27.3789 36.3006Z" fill="#CC0000"/>
<path d="M5.16741 43.9954L2.95974 43.2109C2.59494 44.014 2.19183 44.9481 2 45.4524L4.20767 46.2369C4.45726 45.6018 4.86037 44.6866 5.16741 43.9954Z" fill="#CC0000"/>
<path d="M21.3331 43.5333L19.9508 42.4688C19.7012 43.1597 19.5285 43.851 19.375 44.5233L20.93 45.7186C21.0069 44.9901 21.1413 44.2618 21.3331 43.5333Z" fill="#CC0000"/>
<path d="M22.1562 38.509L23.0777 39.854C23.4039 39.3869 23.7878 38.9574 24.2104 38.5279L23.3464 37.2578C22.905 37.65 22.5019 38.0795 22.1562 38.5093V38.509Z" fill="#CC0000"/>
<path d="M19.0859 49.2659C19.1242 50.2559 19.2203 51.059 19.3164 51.6192L21.6201 52.4223C21.4474 51.6938 21.2745 50.8721 21.1592 49.9942L19.0859 49.2656V49.2659Z" fill="#CC0000"/>
<path d="M34.9397 35.3696L35.0166 34.2116C34.3639 34.0809 33.7304 34.006 33.116 33.9688L33.0391 35.1454C33.6726 35.164 34.3061 35.2389 34.9394 35.3696H34.9397Z" fill="#CC0000"/>
</svg>
