<svg width="80" height="80" viewBox="0 0 80 80" fill="none" xmlns="http://www.w3.org/2000/svg">
<path d="M77 40.0076C77 35.0981 70.8611 30.4453 61.4489 27.5599C63.621 17.9523 62.6557 10.3084 58.4018 7.86104C57.4254 7.28915 56.2844 7.01757 55.0381 7.0152V7C50.8902 7 45.4599 9.96077 39.9696 15.0969C34.4793 9.99117 29.0494 7.06047 24.9015 7.06047V7.07567C23.6343 7.07567 22.4882 7.34759 21.4926 7.9215C17.2539 10.3688 16.3038 17.9976 18.4911 27.5751C9.10888 30.4754 3 35.113 3 40.0076C3 44.9022 9.1389 49.5699 18.5511 52.4553C16.379 62.0629 17.3443 69.7068 21.5981 72.1542C22.5786 72.7281 23.7251 73 24.9919 73C29.1398 73 34.5701 70.0392 40.0604 64.9031C45.5507 70.0092 50.9809 72.9395 55.1289 72.9395C56.396 72.9395 57.5421 72.6676 58.5378 72.0937C62.7764 69.6464 63.7265 62.0176 61.5393 52.4401C70.8911 49.5547 77 44.9019 77 40.0076ZM55.0233 10.3688V10.3837C55.7171 10.3837 56.2753 10.5195 56.7428 10.7765C58.7941 11.9548 59.6842 16.4414 58.9901 22.2122C58.8241 23.6323 58.5526 25.1277 58.2207 26.6536C55.2644 25.9283 52.0366 25.3696 48.6426 25.0068C46.6064 22.2122 44.4946 19.6744 42.3677 17.4537C47.2772 12.8837 51.8859 10.3769 55.0229 10.3692L55.0233 10.3688ZM46.8178 51.7906C44.5705 51.9868 42.2929 52.0925 40 52.0925C37.7071 52.0925 35.4446 51.9868 33.2125 51.8054C31.9605 50.0077 30.7389 48.0893 29.5624 46.0649C28.416 44.0861 27.3751 42.0769 26.425 40.0525C27.3603 38.0281 28.416 36.0041 29.5472 34.0249C30.7237 31.9857 31.9305 30.0518 33.1825 28.2544C35.4298 28.0581 37.7075 27.9524 40.0003 27.9524C42.2932 27.9524 44.5557 28.0581 46.7878 28.2395C48.0398 30.0373 49.2615 31.9556 50.4379 33.98C51.5843 35.9588 52.6252 37.968 53.5753 39.9924C52.6252 42.0168 51.5843 44.0409 50.4531 46.02C49.2766 48.0593 48.0698 49.9931 46.8178 51.7906ZM26.6362 47.7421C27.3451 48.9507 28.0689 50.1289 28.8083 51.2771C26.6665 50.9599 24.6 50.5671 22.6238 50.0837C23.182 48.1349 23.8758 46.1257 24.66 44.1165C25.2786 45.3252 25.9272 46.5335 26.6358 47.7421H26.6362ZM22.5786 29.9315C24.5544 29.4633 26.6362 29.0553 28.7931 28.7381C28.0541 29.9015 27.3148 31.0946 26.621 32.3184C25.9272 33.527 25.2786 34.7353 24.66 35.9439C23.8455 33.9195 23.1517 31.8955 22.5786 29.9315ZM53.3642 47.6968C54.058 46.4882 54.7066 45.2647 55.3252 44.0561C56.1397 46.0805 56.8335 48.1045 57.4065 50.0685C55.4307 50.5519 53.349 50.9599 51.1921 51.2771C51.9311 50.1137 52.6704 48.9206 53.3642 47.6968ZM53.349 32.2731C52.6552 31.0645 51.9162 29.8863 51.1769 28.7381C53.3187 29.0553 55.3852 29.4481 57.3613 29.9315C56.8031 31.8803 56.1093 33.8895 55.3252 35.8987C54.7066 34.69 54.058 33.4817 53.3493 32.2731H53.349ZM44.1479 24.6744C42.7903 24.614 41.4028 24.5687 40 24.5687C38.5972 24.5687 37.1793 24.5988 35.8069 24.6744C37.1645 22.9071 38.5672 21.2907 39.9548 19.8402C41.3576 21.2904 42.7603 22.9067 44.1479 24.6744ZM23.1669 10.837C23.6195 10.5651 24.2077 10.4442 24.9015 10.4442V10.429C28.0237 10.429 32.6543 12.9215 37.5716 17.4686C35.4598 19.6893 33.3481 22.2119 31.3419 25.0068C27.933 25.3693 24.7052 25.9283 21.7489 26.6684C21.4019 25.1578 21.1455 23.6925 20.9647 22.2876C20.2558 16.517 21.1307 12.0304 23.1669 10.837ZM19.3657 49.1922C17.8725 48.7241 16.4546 48.2103 15.1422 47.6512C9.80267 45.3701 6.34855 42.3789 6.34855 40.0073C6.34855 37.6356 9.80267 34.6292 15.1422 32.3633C16.4394 31.8043 17.8573 31.306 19.3205 30.8375C20.1802 33.7983 21.3115 36.88 22.7142 40.0373C21.3266 43.1795 20.2102 46.246 19.3657 49.1919V49.1922ZM24.9615 69.6464C24.2829 69.6312 23.7095 69.4954 23.2572 69.2387C21.2059 68.0604 20.3158 63.5738 21.0099 57.803C21.1759 56.3829 21.4474 54.8875 21.7793 53.3616C24.7356 54.0869 27.9637 54.6456 31.3574 55.0084C33.3936 57.803 35.5054 60.3408 37.6323 62.5615C32.715 67.1386 28.0993 69.6464 24.9622 69.6464H24.9615ZM40.03 60.1746C38.6273 58.7245 37.2245 57.1081 35.8369 55.3404C37.1945 55.4009 38.5821 55.4462 39.9848 55.4462C41.3876 55.4462 42.8055 55.4161 44.1779 55.3404C42.8204 57.1078 41.4176 58.7241 40.03 60.1746ZM56.8331 69.1782C56.3805 69.4501 55.7923 69.571 55.0985 69.571C51.9763 69.571 47.3457 67.0785 42.4284 62.5314C44.5402 60.3107 46.6519 57.7881 48.6581 54.9932C52.067 54.6307 55.2948 54.0717 58.2511 53.3316C58.5981 54.8574 58.8697 56.3227 59.0353 57.7276C59.7442 63.4982 58.8693 67.9848 56.8331 69.1782ZM64.8426 47.6516C63.5454 48.2106 62.1275 48.7089 60.6643 49.1774C59.8046 46.2166 58.6734 43.1349 57.2706 39.9775C58.6582 36.8354 59.7746 33.7689 60.6192 30.823C62.1123 31.2911 63.5302 31.8049 64.8578 32.364C70.1973 34.6451 73.6514 37.6363 73.6514 40.0079C73.6363 42.3796 70.1822 45.386 64.8426 47.6519V47.6516Z" fill="#61DAFB"/>
<path d="M39.9868 46.9086C43.7937 46.9086 46.8799 43.8178 46.8799 40.0051C46.8799 36.1924 43.7937 33.1016 39.9868 33.1016C36.1799 33.1016 33.0938 36.1924 33.0938 40.0051C33.0938 43.8178 36.1799 46.9086 39.9868 46.9086Z" fill="#61DAFB"/>
</svg>
