<svg width="80" height="80" viewBox="0 0 80 80" fill="none" xmlns="http://www.w3.org/2000/svg">
<g clip-path="url(#clip0_6215_21557)">
<path d="M24.6705 39.2347C24.6705 39.2347 24.1511 39.149 23.5699 39.1409C22.7422 39.13 22.3902 39.4352 22.3933 39.4341C22.1488 39.6066 22.0312 39.8628 22.0312 40.2198C22.0312 40.4452 22.0721 40.6227 22.1519 40.7473C22.2057 40.829 22.2278 40.861 22.3863 40.9875C22.3832 40.9867 22.7503 41.2748 23.576 41.2247C24.1564 41.1897 24.6719 41.0791 24.6719 41.0791H24.6708V39.2344L24.6705 39.2347Z" fill="#00A1E0"/>
<path d="M32.6442 36.7891C32.1116 36.7891 31.7328 36.9974 31.4844 37.3773C31.3198 37.6277 31.2142 37.9488 31.1562 38.3347H34.0501C34.0212 37.9628 33.9484 37.6277 33.7818 37.3773C33.5287 36.9985 33.1764 36.7891 32.6442 36.7891Z" fill="#00A1E0"/>
<path d="M48.9624 36.8125C48.429 36.8125 48.0491 36.997 47.8007 37.3759C47.5493 37.7589 47.4219 38.3052 47.4219 38.9993C47.4219 39.6934 47.5493 40.2428 47.8007 40.6286C48.0491 41.0125 48.429 41.1981 48.9624 41.1981C49.4958 41.1981 49.8766 41.0117 50.1289 40.6286C50.3843 40.2417 50.5139 39.6943 50.5139 38.9993C50.5139 38.3052 50.3843 37.7589 50.13 37.3759C49.8766 36.997 49.4947 36.8125 48.9624 36.8125Z" fill="#00A1E0"/>
<path d="M65.1364 36.7891C64.6038 36.7891 64.225 36.9974 63.9766 37.3773C63.812 37.6277 63.7053 37.9488 63.6484 38.3347H66.5422C66.5134 37.9628 66.4406 37.6277 66.2729 37.3773C66.0206 36.9985 65.6686 36.7891 65.1361 36.7891H65.1364Z" fill="#00A1E0"/>
<path d="M59.9091 22.6368C57.7363 22.6368 55.6713 23.1005 53.8057 23.9341C51.6586 20.109 47.6272 17.5324 43.0064 17.5324C39.5304 17.5324 36.3874 18.9912 34.1298 21.3435C31.6459 18.0961 27.7282 16 23.3196 16C15.8111 16 9.7236 22.0785 9.7236 29.5772C9.7236 31.4969 10.1234 33.3225 10.8425 34.9767C7.35032 37.0179 5 40.8329 5 45.2026C5 51.723 10.231 57.008 16.6836 57.0077C17.5073 57.0077 18.3101 56.922 19.0848 56.7574C20.8578 61.5666 25.4767 64.9958 30.8961 64.9958C36.3155 64.9958 40.5656 61.8349 42.4819 57.3269C43.9396 58.0378 45.577 58.4376 47.308 58.4376C51.4433 58.4376 55.0458 56.159 56.9364 52.7867C57.915 52.9844 58.9106 53.0835 59.9088 53.0829C68.243 53.0829 74.9997 46.2674 74.9997 37.8593C74.9997 29.4512 68.243 22.6368 59.9088 22.6368H59.9091ZM19.989 40.3043C19.989 41.5338 19.0974 42.2976 17.6616 42.2976C16.9566 42.2976 16.2826 42.187 15.5686 41.8082C15.4339 41.7314 15.3004 41.6626 15.1688 41.5668C15.1548 41.5469 15.0948 41.5228 15.1388 41.4083L15.4222 40.6224C15.467 40.4868 15.5697 40.5316 15.6106 40.5577C15.6884 40.6044 15.7472 40.6473 15.848 40.7064C16.6827 41.2339 17.4555 41.2389 17.6977 41.2389C18.3218 41.2389 18.7088 40.908 18.7088 40.463V40.439C18.7088 39.9523 18.1135 39.7698 17.4225 39.5575L17.2699 39.5108C16.3215 39.2394 15.3096 38.8505 15.3096 37.651V37.6269C15.3096 36.4893 16.2269 35.6955 17.5412 35.6955L17.6848 35.6944C18.4565 35.6944 19.2024 35.9186 19.742 36.2468C19.7907 36.2768 19.8386 36.3325 19.8117 36.4084C19.7868 36.4781 19.5474 37.1224 19.5194 37.194C19.4684 37.3287 19.3298 37.2388 19.3298 37.2388C18.8572 36.9776 18.1233 36.7721 17.5051 36.7721C16.9487 36.7721 16.5898 37.0672 16.5898 37.4682V37.4931C16.5898 37.9618 17.2041 38.1612 17.9158 38.3924L18.0385 38.4322C18.9829 38.7304 19.989 39.1431 19.989 40.2799V40.3037V40.3043ZM25.8684 41.902C25.774 41.9277 25.6794 41.9518 25.5842 41.9748C25.4487 42.0056 24.9601 42.1044 24.5622 42.1722C24.1604 42.241 23.7454 42.2749 23.3296 42.2749C22.9138 42.2749 22.5739 42.238 22.2556 42.1652C21.9324 42.0924 21.6544 41.9717 21.429 41.8073C21.2016 41.6427 21.0233 41.4293 20.8995 41.1731C20.7758 40.9178 20.7142 40.6056 20.7142 40.2466C20.7142 39.8876 20.787 39.5785 20.9306 39.3111C21.0726 39.0457 21.2739 38.8169 21.5189 38.6419C21.7642 38.4666 22.0495 38.3339 22.3664 38.2491C22.6814 38.1642 23.0177 38.1206 23.3655 38.1206C23.6208 38.1206 23.8342 38.1276 23.9988 38.1396C23.9988 38.1396 24.3189 38.1684 24.668 38.2183V38.0466C24.668 37.5062 24.5555 37.25 24.334 37.0804C24.1066 36.9059 23.7695 36.8183 23.3308 36.8183C23.3308 36.8183 22.3435 36.8054 21.5628 37.2302C21.527 37.2512 21.4959 37.2632 21.4959 37.2632C21.4959 37.2632 21.399 37.2971 21.3632 37.1974L21.0759 36.4254C21.032 36.3137 21.1118 36.2639 21.1118 36.2639C21.4769 35.9786 22.3631 35.8072 22.3631 35.8072C22.6562 35.7484 23.146 35.7064 23.45 35.7064C24.2606 35.7064 24.8878 35.8948 25.3137 36.2678C25.7416 36.6416 25.9588 37.245 25.9588 38.0587L25.9608 41.769C25.9608 41.769 25.9689 41.8768 25.8681 41.9017L25.8684 41.902ZM28.5922 42.0193C28.5922 42.087 28.5435 42.1419 28.4755 42.1419H27.3994C27.3317 42.1419 27.2838 42.087 27.2838 42.0193V33.36C27.2838 33.2922 27.3317 33.2374 27.3994 33.2374H28.4755C28.5432 33.2374 28.5922 33.2922 28.5922 33.36V42.0193ZM35.3108 39.2333C35.2999 39.3372 35.1932 39.3391 35.1932 39.3391L31.1358 39.3352C31.1618 39.9515 31.3082 40.3883 31.6084 40.6854C31.9007 40.9757 32.3672 41.1611 32.9955 41.1619C33.9598 41.1639 34.3717 40.9704 34.6618 40.8626C34.6618 40.8626 34.7744 40.8217 34.8152 40.9323L35.0796 41.6752C35.1333 41.8009 35.0905 41.8446 35.0457 41.8695C34.7914 42.01 34.174 42.2713 33.0025 42.2752C32.433 42.2763 31.9377 42.1946 31.5297 42.0369C31.119 41.8784 30.776 41.6511 30.5097 41.361C30.2426 41.0729 30.0452 40.7248 29.9214 40.33C29.7988 39.9383 29.7369 39.5024 29.7369 39.0348C29.7369 38.5672 29.7976 38.1393 29.9152 37.7395C30.0328 37.3377 30.2185 36.9838 30.4646 36.6864C30.711 36.3882 31.0249 36.1488 31.399 35.9732C31.7719 35.7977 32.2325 35.7131 32.7382 35.7131C33.173 35.7131 33.5698 35.8069 33.9008 35.9483C34.1539 36.0581 34.4092 36.2544 34.6705 36.5358C34.836 36.7133 35.0871 37.1011 35.189 37.485C35.4503 38.3994 35.3148 39.189 35.3108 39.2327V39.2333ZM36.5896 41.8079C36.4552 41.7312 36.3214 41.6623 36.1898 41.5665C36.1758 41.5466 36.1158 41.5226 36.1598 41.408L36.4429 40.6221C36.4849 40.4936 36.6064 40.5403 36.6324 40.5574C36.7083 40.6061 36.768 40.647 36.8688 40.7061C37.7034 41.2336 38.4762 41.2386 38.7184 41.2386C39.3426 41.2386 39.7306 40.9077 39.7306 40.4628V40.4387C39.7306 39.952 39.1342 39.7695 38.4432 39.5572L38.2906 39.5105C37.3422 39.2392 36.33 38.8502 36.33 37.6507V37.6266C36.33 36.489 37.2473 35.6952 38.5616 35.6952L38.7053 35.6941C39.477 35.6941 40.2229 35.9184 40.7624 36.2465C40.8112 36.2765 40.8593 36.3322 40.8322 36.4081C40.8072 36.4778 40.5678 37.1221 40.5398 37.1938C40.4892 37.3284 40.3506 37.2386 40.3506 37.2386C39.8779 36.9773 39.144 36.7718 38.5258 36.7718C37.9694 36.7718 37.6105 37.0669 37.6105 37.4679V37.4928C37.6105 37.9615 38.2248 38.1609 38.9368 38.3922L39.0595 38.4319C40.0039 38.7301 41.01 39.1428 41.01 40.2796V40.3034C41.01 41.5329 40.1184 42.2968 38.6826 42.2968C37.9776 42.2968 37.3036 42.1862 36.5896 41.8073V41.8079ZM45.9212 35.9685L45.7697 36.8121C45.7467 36.9348 45.6342 36.9308 45.6342 36.9308H44.298L43.3835 42.103C43.2878 42.6375 43.1671 43.0962 43.0265 43.4652C42.8848 43.839 42.7362 44.1123 42.4998 44.3735C42.2803 44.6149 42.0334 44.7932 41.75 44.896C41.4678 44.9976 41.1267 45.0506 40.7538 45.0506C40.5754 45.0506 40.385 45.0475 40.1596 44.9948C39.9969 44.9559 39.9084 44.9282 39.7886 44.8862C39.7379 44.8672 39.6979 44.8044 39.7259 44.7238C39.7547 44.6429 39.9941 43.986 40.0272 43.8992C40.0692 43.7945 40.1739 43.8342 40.1739 43.8342C40.2467 43.8653 40.2976 43.886 40.3934 43.9051C40.4903 43.925 40.6208 43.9409 40.7185 43.9409C40.8949 43.9409 41.0564 43.9191 41.1962 43.872C41.3658 43.8152 41.4636 43.7175 41.5672 43.5859C41.675 43.4484 41.7615 43.26 41.8502 43.0085C41.941 42.7534 42.0227 42.4172 42.0936 42.0084L43.003 36.9308H42.1064C41.9989 36.9308 41.9639 36.8802 41.9748 36.8004L42.1255 35.9559C42.1496 35.8341 42.261 35.8383 42.261 35.8383H43.1822L43.232 35.5642C43.3698 34.7494 43.6439 34.1303 44.0477 33.7234C44.4534 33.3146 45.0319 33.1072 45.7658 33.1072C45.976 33.1072 46.1614 33.1212 46.3171 33.1492C46.4708 33.178 46.5884 33.2049 46.718 33.2449C46.746 33.2558 46.8247 33.2948 46.7928 33.3866L46.4826 34.2381C46.4565 34.3019 46.4386 34.3408 46.3062 34.3008C46.2731 34.2907 46.2244 34.2767 46.0987 34.2498C46.008 34.2308 45.8873 34.2171 45.7658 34.2171C45.6053 34.2171 45.4586 34.237 45.3301 34.279C45.2044 34.3198 45.0898 34.3907 44.9899 34.4904C44.8891 34.592 44.7695 34.7407 44.7057 34.9232C44.557 35.353 44.4982 35.8097 44.4912 35.8386H45.7884C45.8971 35.8386 45.9312 35.8884 45.9212 35.969V35.9685ZM51.709 40.2878C51.5914 40.6856 51.4078 41.0365 51.1636 41.3288C50.9192 41.622 50.6092 41.8563 50.2432 42.0226C49.8764 42.1892 49.4447 42.2738 48.9589 42.2738C48.4731 42.2738 48.0405 42.189 47.6734 42.0226C47.3074 41.856 46.9972 41.622 46.753 41.3288C46.5078 41.0356 46.3252 40.6845 46.2065 40.2878C46.0897 39.893 46.0309 39.4592 46.0309 38.9995C46.0309 38.5397 46.0897 38.1071 46.2065 37.7112C46.3252 37.3144 46.5086 36.9633 46.7519 36.6702C46.9972 36.377 47.3063 36.1418 47.6734 35.9702C48.0394 35.7996 48.4722 35.7128 48.9589 35.7128C49.4455 35.7128 49.8773 35.7996 50.2432 35.9702C50.6103 36.1418 50.9194 36.377 51.1636 36.6702C51.4078 36.9622 51.5914 37.3133 51.709 37.7112C51.8266 38.1071 51.8857 38.5408 51.8857 38.9995C51.8857 39.4581 51.8269 39.8918 51.7093 40.2878H51.709ZM56.7238 36.0488C56.686 36.1594 56.4884 36.715 56.4186 36.9003C56.3929 36.9712 56.3489 37.019 56.2711 37.0101C56.2711 37.0101 56.0378 36.9552 55.8253 36.9552C55.6778 36.9552 55.4692 36.9742 55.281 37.0319C55.0965 37.0888 54.9279 37.1896 54.7795 37.3329C54.632 37.4777 54.5124 37.679 54.4245 37.9302C54.3346 38.1844 54.2898 38.5893 54.2898 38.995V42.0184C54.2898 42.0865 54.2352 42.1416 54.1672 42.1422H53.1012C53.0334 42.1422 52.9777 42.0865 52.9777 42.0184V35.9668C52.9777 35.8979 53.0264 35.843 53.0942 35.843H54.1341C54.2019 35.843 54.2509 35.8979 54.2509 35.9668V36.4604C54.4066 36.2521 54.6857 36.0684 54.9369 35.9548C55.1903 35.8411 55.4734 35.7554 55.983 35.7862C56.2492 35.8033 56.5942 35.8761 56.6631 35.903C56.69 35.913 56.7549 35.9567 56.7238 36.0486V36.0488ZM61.7969 41.9678C61.3441 42.1464 60.7138 42.271 60.0998 42.271C59.0607 42.271 58.2638 41.9708 57.7335 41.3806C57.204 40.7923 56.9358 39.9887 56.9358 38.9944C56.9358 38.5347 57.0016 38.0998 57.1312 37.7042C57.2617 37.3074 57.4572 36.9563 57.7145 36.6632C57.9718 36.37 58.2969 36.1345 58.6796 35.964C59.0635 35.7924 59.5121 35.7067 60.0158 35.7067C60.3529 35.7067 60.6559 35.7277 60.9152 35.7674C61.1924 35.8094 61.5594 35.908 61.7148 35.9688C61.7428 35.9797 61.8207 36.0186 61.7888 36.1093C61.677 36.4294 61.5992 36.6377 61.4945 36.9289C61.4497 37.0524 61.355 37.0118 61.355 37.0118C60.9602 36.8872 60.5834 36.8303 60.0886 36.8303C59.4953 36.8303 59.0506 37.0288 58.7583 37.4158C58.464 37.8047 58.3005 38.3152 58.2986 38.9942C58.2966 39.7401 58.482 40.2914 58.8132 40.6324C59.1433 40.9735 59.6039 41.146 60.1841 41.146C60.4204 41.146 60.6408 41.13 60.8412 41.0992C61.0386 41.0684 61.2243 41.0065 61.3987 40.9396C61.3987 40.9396 61.5113 40.8956 61.5513 41.0124L61.8456 41.8252C61.8834 41.9258 61.7969 41.9678 61.7969 41.9678ZM67.8048 39.2327C67.7936 39.3366 67.6872 39.3386 67.6872 39.3386L63.6298 39.3346C63.6558 39.9509 63.8022 40.3877 64.1024 40.6848C64.3947 40.9752 64.8612 41.1605 65.4904 41.1614C66.4527 41.1633 66.8654 40.9698 67.1555 40.862C67.1555 40.862 67.2684 40.8212 67.3081 40.9318L67.5733 41.6746C67.6273 41.8003 67.5845 41.844 67.5394 41.8689C67.2852 42.0095 66.668 42.2707 65.4962 42.2746C64.927 42.2758 64.4314 42.194 64.0234 42.0364C63.6127 41.8779 63.2697 41.6505 63.0034 41.3604C62.7363 41.0723 62.5389 40.7243 62.4151 40.3295C62.2925 39.9378 62.2306 39.5018 62.2306 39.0342C62.2306 38.5666 62.2905 38.1388 62.409 37.7389C62.5266 37.3371 62.7122 36.9832 62.9583 36.6858C63.2047 36.3876 63.5186 36.1482 63.8927 35.9727C64.2656 35.7971 64.7254 35.7126 65.2319 35.7126C65.6668 35.7126 66.0635 35.8064 66.3945 35.9478C66.6479 36.0575 66.903 36.2538 67.1642 36.5352C67.3297 36.7127 67.582 37.1005 67.6836 37.4844C67.944 38.3989 67.8082 39.1885 67.8043 39.2322L67.8048 39.2327Z" fill="#00A1E0"/>
</g>
<defs>
<clipPath id="clip0_6215_21557">
<rect width="70" height="48.9958" fill="white" transform="translate(5 16)"/>
</clipPath>
</defs>
</svg>
