<svg width="80" height="80" viewBox="0 0 80 80" fill="none" xmlns="http://www.w3.org/2000/svg">
<path d="M37.9375 7C28.3249 7 20.3293 13.922 18.6628 23.0534C18.6559 23.091 18.649 23.1285 18.6426 23.166C18.6378 23.1926 18.6333 23.2195 18.6285 23.2461C18.6141 23.3305 18.6 23.4151 18.5867 23.5C18.4268 24.5078 18.3438 25.5412 18.3438 26.5938C18.3438 27.6463 18.4252 28.6584 18.5819 29.6564C18.5886 29.6995 18.5955 29.7426 18.6027 29.7857C18.6722 30.2115 18.7557 30.6325 18.8523 31.0485C18.8523 31.0485 18.8545 31.0472 18.8555 31.0464C18.864 31.0408 18.8728 31.0354 18.8813 31.0299C18.9008 31.0173 18.9202 31.0048 18.9399 30.9926C18.9537 30.9838 18.9678 30.9753 18.9819 30.9668C18.9984 30.9567 19.0147 30.9466 19.0312 30.9364C19.0487 30.9258 19.0663 30.9157 19.0839 30.9053C19.0972 30.8976 19.1105 30.8896 19.1238 30.8819C19.1448 30.8696 19.1658 30.8579 19.1868 30.846C19.197 30.8401 19.2073 30.8342 19.2175 30.8287C19.2419 30.8151 19.2664 30.8015 19.2909 30.7882C19.2981 30.7845 19.305 30.7805 19.3122 30.7768C19.3401 30.7616 19.3683 30.747 19.3966 30.7323C19.4003 30.7305 19.4043 30.7283 19.408 30.7262C19.4399 30.7097 19.4719 30.6935 19.5041 30.6775C19.5041 30.6775 19.5046 30.6775 19.5049 30.6772C19.8011 30.5306 20.1092 30.4063 20.4267 30.3062C20.4864 30.2866 20.5462 30.2679 20.6061 30.2493C21.8391 29.8639 23.1253 29.6739 24.4179 29.6875C26.1999 29.622 27.9797 29.8711 29.6753 30.4239V34.1364C29.5079 34.0352 29.3373 33.9402 29.1635 33.8511C28.5722 33.5482 27.9457 33.3172 27.2974 33.165C26.4511 32.9569 25.5843 32.8454 24.7133 32.8323C24.6473 32.8313 24.581 32.8307 24.515 32.831C23.9825 32.8119 23.4521 32.8637 22.9369 32.983C22.6199 33.0562 22.3088 33.1549 22.0065 33.2786C22.0022 33.2802 21.998 33.2818 21.9937 33.2837C21.9852 33.2872 21.9767 33.2912 21.9679 33.2949C21.8628 33.3388 21.7587 33.3854 21.656 33.4354C21.5703 33.4724 21.4883 33.5152 21.4106 33.5637C21.4056 33.5669 21.4005 33.5703 21.3955 33.5735C21.3813 33.5826 21.367 33.5916 21.3531 33.6009C21.3345 33.6134 21.3161 33.6262 21.298 33.6395C21.2978 33.6395 21.2975 33.6398 21.2972 33.64C21.2653 33.6632 21.2344 33.6877 21.2041 33.7127C21.1996 33.7164 21.1948 33.7202 21.1903 33.7239C21.1871 33.7265 21.1839 33.7295 21.1807 33.7321C20.7722 34.0818 20.5255 34.5976 20.5239 35.1533C20.5239 35.1666 20.5241 35.1799 20.5244 35.1932C20.5244 35.207 20.5244 35.2211 20.5249 35.235C20.5252 35.2456 20.5263 35.2562 20.5268 35.2669C20.5279 35.2837 20.5287 35.3007 20.53 35.3175C20.5308 35.3278 20.5321 35.3382 20.5332 35.3486C20.5351 35.3654 20.5367 35.3824 20.5388 35.3992C20.5401 35.4098 20.542 35.4204 20.5436 35.4314C20.546 35.4476 20.5484 35.4638 20.5513 35.4798C20.5534 35.491 20.5558 35.5022 20.5579 35.5133C20.5611 35.5285 20.5641 35.5439 20.5675 35.5591C20.5702 35.5708 20.5731 35.5825 20.5763 35.5942C20.58 35.6086 20.5835 35.6227 20.5875 35.6371C20.5909 35.6496 20.5947 35.6618 20.5984 35.6741C20.6024 35.6874 20.6064 35.7004 20.6109 35.7137C20.6152 35.7268 20.6197 35.7395 20.6242 35.7526C20.6354 35.7837 20.6474 35.8146 20.6601 35.8449C20.7168 35.9511 20.7748 36.0562 20.8337 36.1611C20.8504 36.1853 20.868 36.2093 20.8861 36.2327C20.8954 36.2449 20.9052 36.2566 20.9148 36.2686C20.9247 36.2806 20.9343 36.2926 20.9441 36.3043C20.9571 36.3194 20.9707 36.3341 20.984 36.3487C20.9904 36.3559 20.9968 36.3631 21.0034 36.37C21.0865 36.456 21.173 36.5382 21.2624 36.6167C21.573 36.8897 21.9211 37.1181 22.2966 37.294C22.3258 37.3086 22.3559 37.3233 22.3865 37.3384C22.864 37.5718 23.5285 37.8672 24.3798 38.2241C24.4908 38.2707 24.6047 38.3181 24.7218 38.3668C24.7292 38.3692 24.7364 38.3718 24.7436 38.3742C24.853 38.4096 24.9602 38.4522 25.0638 38.5022C25.0659 38.5033 25.0678 38.5041 25.0699 38.5051C26.1307 38.9203 27.154 39.4254 28.1288 40.0149C28.6368 40.3279 29.0884 40.7207 29.4674 41.1766C29.6396 41.3839 29.7969 41.6042 29.9377 41.836C30.0878 42.108 30.2131 42.3917 30.3124 42.6834C30.4862 43.1927 30.5814 43.7271 30.5934 44.2676C30.5958 44.3728 30.5953 44.4779 30.5913 44.5833C30.5913 44.5883 30.5915 44.5934 30.5918 44.5984C30.5931 44.6272 30.5939 44.6562 30.5947 44.6849C30.5947 44.6958 30.595 44.7065 30.5953 44.7174C30.5953 44.7312 30.5958 44.7451 30.5961 44.7589C30.5961 44.7589 30.5961 44.7589 30.5958 44.7589C30.5958 44.7616 30.5958 44.764 30.5958 44.7666C32.476 45.5267 34.5018 46.0031 36.6188 46.1431C36.6779 46.147 36.7373 46.1508 36.7966 46.1542C36.7977 46.1545 36.7985 46.1545 36.7995 46.1545C36.9076 46.1609 37.0156 46.1662 37.1239 46.1707C37.1742 46.1729 37.2245 46.1747 37.2748 46.1763C37.281 46.1769 37.2871 46.1771 37.2935 46.1771C37.3368 46.1784 37.3802 46.1798 37.4236 46.1808C37.4428 46.1816 37.4619 46.1822 37.4814 46.1824C37.504 46.183 37.5269 46.1835 37.5495 46.184C37.5697 46.1846 37.5899 46.1851 37.6104 46.1851H37.6107C37.6197 46.1854 37.6288 46.1854 37.6378 46.1856C37.6714 46.1864 37.7049 46.1867 37.7384 46.187H37.7517C37.7547 46.1872 37.7576 46.1872 37.7603 46.187C37.7645 46.1872 37.7688 46.1872 37.773 46.1872H37.7831C37.834 46.1878 37.8848 46.188 37.9356 46.188C37.978 46.188 38.0203 46.1878 38.0623 46.1875C38.0916 46.1875 38.1206 46.1872 38.1496 46.1867C38.1797 46.1864 38.21 46.1859 38.2401 46.1856C38.2811 46.1848 38.3221 46.184 38.363 46.1832C38.7899 46.1742 39.2136 46.1516 39.6333 46.1154C39.7552 46.105 39.8768 46.0936 39.9981 46.0808C40.6973 46.0076 41.3855 45.8977 42.0606 45.7529C42.763 45.6025 43.4512 45.4144 44.1231 45.1908C51.9125 42.6006 57.5294 35.2533 57.5294 26.5943C57.5312 15.7724 48.7588 7 37.9375 7Z" fill="#036C70"/>
<path d="M56.2423 60.6251C65.4974 60.6251 73.0001 53.1224 73.0001 43.8673C73.0001 34.6121 65.4974 27.1094 56.2423 27.1094C46.9871 27.1094 39.4844 34.6121 39.4844 43.8673C39.4844 53.1224 46.9871 60.6251 56.2423 60.6251Z" fill="#1A9BA1"/>
<path d="M40 73C47.4041 73 53.4062 66.9978 53.4062 59.5938C53.4062 52.1897 47.4041 46.1875 40 46.1875C32.5959 46.1875 26.5938 52.1897 26.5938 59.5938C26.5938 66.9978 32.5959 73 40 73Z" fill="#37C6D0"/>
<path opacity="0.2" d="M37.2474 23.5H18.582C18.5543 23.6743 18.5287 23.8486 18.5061 24.0227C18.4989 24.0764 18.492 24.1302 18.4854 24.184C18.4787 24.2372 18.4723 24.2901 18.4662 24.3434C18.4468 24.5097 18.4297 24.6758 18.4148 24.8416C18.4114 24.878 18.4082 24.9145 18.4052 24.9512C18.4034 24.9722 18.4015 24.993 18.4002 25.014C18.3978 25.0412 18.3957 25.068 18.3938 25.0952C18.3903 25.1364 18.3872 25.1779 18.3845 25.2192C18.3826 25.2418 18.3813 25.2644 18.3797 25.2871C18.3744 25.3642 18.3696 25.4417 18.3656 25.5189C18.3608 25.6024 18.3571 25.6863 18.3534 25.7695C18.3531 25.777 18.3528 25.7842 18.3526 25.7914C18.3451 25.9699 18.34 26.148 18.3377 26.3258C18.3371 26.3761 18.3366 26.4264 18.3363 26.4764C18.3361 26.5067 18.3361 26.5371 18.3361 26.5674C18.3358 26.6001 18.3361 26.6326 18.3361 26.6653C18.3361 26.6848 18.3361 26.7042 18.3363 26.7236C18.3366 26.7367 18.3366 26.7502 18.3369 26.7635V26.7768C18.3374 26.8303 18.3379 26.8836 18.339 26.9371C18.3392 26.9642 18.3398 26.9916 18.3406 27.019C18.3691 28.3941 18.542 29.7437 18.8481 31.0493C18.8494 31.0485 18.851 31.0474 18.8523 31.0466C18.8569 31.0434 18.8617 31.0405 18.8665 31.0376C18.8736 31.033 18.8808 31.0285 18.888 31.024C18.9367 30.9929 18.9859 30.9623 19.0357 30.9325C19.049 30.9245 19.0626 30.9165 19.0762 30.9085C19.099 30.8949 19.1219 30.8816 19.1448 30.8683C19.1509 30.8649 19.1568 30.8611 19.1629 30.8577C19.177 30.8497 19.1911 30.8417 19.2055 30.8337C19.2071 30.8327 19.209 30.8319 19.2106 30.8308C19.2143 30.8287 19.218 30.8265 19.2217 30.8244C19.2441 30.8122 19.2664 30.7999 19.2888 30.7877C19.2992 30.7821 19.3098 30.7765 19.3202 30.7706C19.3378 30.7611 19.3556 30.7515 19.3734 30.7424C19.3764 30.7408 19.3793 30.7395 19.3822 30.7379C19.4224 30.7172 19.4626 30.6964 19.5033 30.6764C19.5044 30.6759 19.5057 30.6754 19.5068 30.6746C19.5448 30.6557 19.5831 30.6373 19.6217 30.6195C19.6337 30.6139 19.6457 30.6083 19.6577 30.6027C19.6872 30.5891 19.717 30.5756 19.7471 30.5623C19.7585 30.5572 19.77 30.5519 19.7817 30.5471C19.8266 30.5274 19.8716 30.5082 19.9171 30.4899C19.981 30.4635 20.0449 30.4385 20.1095 30.4143C20.1167 30.4116 20.1242 30.4092 20.1314 30.4063C20.1694 30.3922 20.2075 30.3786 20.2458 30.3653C20.2588 30.3608 20.2716 30.3563 20.2847 30.352C20.3291 30.3369 20.3735 30.322 20.4185 30.3078C20.4201 30.3073 20.422 30.3068 20.4236 30.3063C20.4832 30.2866 20.5431 30.2679 20.6029 30.2493C21.8359 29.8639 23.1221 29.6739 24.4147 29.6875C26.1967 29.622 27.9766 29.8711 29.6721 30.4239V34.1364C29.5047 34.0353 29.3341 33.9402 29.1603 33.8511C28.569 33.5482 27.9425 33.3172 27.2942 33.165C26.4479 32.9569 25.5812 32.8454 24.7101 32.8323C24.6441 32.8313 24.5778 32.8308 24.5118 32.831C23.9793 32.8119 23.4489 32.8638 22.9337 32.983C22.6167 33.0562 22.3056 33.1549 22.0033 33.2786C21.9991 33.2802 21.9948 33.2818 21.9905 33.2837C21.982 33.2872 21.9735 33.2912 21.9647 33.2949C21.8596 33.3388 21.7555 33.3854 21.6528 33.4354C21.5671 33.4724 21.4852 33.5152 21.4075 33.5637C21.4024 33.5669 21.3973 33.5703 21.3923 33.5735C21.3782 33.5826 21.3638 33.5916 21.35 33.6009C21.3313 33.6134 21.313 33.6262 21.2949 33.6395C21.2946 33.6395 21.2943 33.6398 21.2941 33.64C21.2621 33.6632 21.2313 33.6877 21.2009 33.7127C21.1964 33.7164 21.1916 33.7202 21.1871 33.7239C21.1839 33.7265 21.1807 33.7295 21.1775 33.7321C20.769 34.0818 20.5223 34.5976 20.5207 35.1533C20.5207 35.1639 20.521 35.1743 20.521 35.1849C20.521 35.1966 20.521 35.2083 20.5215 35.2198C20.522 35.2363 20.5228 35.2528 20.5239 35.2693C20.5244 35.2805 20.5252 35.2916 20.526 35.3028C20.5268 35.3132 20.5276 35.3236 20.5287 35.334C20.5308 35.355 20.533 35.376 20.5359 35.3968C20.5364 35.401 20.5369 35.4053 20.5375 35.4093C20.5388 35.4194 20.5407 35.4292 20.5423 35.4391C20.5452 35.4569 20.5479 35.4747 20.551 35.4926C20.5532 35.5045 20.5561 35.5163 20.5585 35.528C20.562 35.5439 20.5652 35.5596 20.5689 35.5756C20.5734 35.594 20.5782 35.6123 20.5832 35.6307C20.5872 35.6456 20.5918 35.6605 20.5963 35.6751C20.6 35.6874 20.6037 35.6999 20.608 35.7121C20.6128 35.7265 20.6178 35.7409 20.6229 35.7552C20.629 35.772 20.6349 35.789 20.6415 35.8055C20.7105 35.9351 20.7812 36.064 20.8536 36.192C20.8656 36.2082 20.8773 36.2244 20.8898 36.2404C20.8904 36.2412 20.8909 36.2417 20.8914 36.2425C20.9079 36.2638 20.9252 36.2846 20.9428 36.3048C20.9436 36.3056 20.9441 36.3064 20.9449 36.3072C20.9455 36.308 20.9462 36.3088 20.947 36.3093C20.9646 36.3295 20.9827 36.3495 21.0013 36.3692C21.0844 36.4552 21.1709 36.5374 21.2603 36.6159C21.5709 36.889 21.919 37.1173 22.2945 37.2932C22.3237 37.3078 22.3538 37.3225 22.3844 37.3376C22.8618 37.571 23.5264 37.8664 24.3777 38.2233C24.4887 38.2699 24.6026 38.3173 24.7197 38.366C24.7271 38.3684 24.7343 38.371 24.7415 38.3734C24.8509 38.4088 24.9581 38.4514 25.0617 38.5014C25.0638 38.5025 25.0657 38.5033 25.0678 38.5044C26.1286 38.9195 27.1518 39.4246 28.1267 40.0141C28.6347 40.3271 29.0863 40.7199 29.4653 41.1758C29.6375 41.3831 29.7948 41.6034 29.9356 41.8352C30.0857 42.1072 30.211 42.3909 30.3103 42.6826C30.484 43.192 30.5793 43.7263 30.5913 44.2668C30.5937 44.372 30.5932 44.4771 30.5892 44.5825C30.5892 44.5867 30.5892 44.591 30.5897 44.595C30.5905 44.6123 30.5913 44.6298 30.5916 44.6471C30.5918 44.6549 30.5918 44.6628 30.5921 44.6706C30.5926 44.6879 30.5929 44.7049 30.5932 44.7222C30.5932 44.7342 30.5937 44.7461 30.594 44.7581C30.594 44.7581 30.594 44.7581 30.5937 44.7581C30.5937 44.7597 30.5937 44.761 30.5937 44.7626C31.9384 45.3048 33.3649 45.7053 34.8576 45.9429C34.9364 45.9554 35.0152 45.9674 35.0942 45.9786C35.1293 45.9836 35.1642 45.9887 35.1993 45.9938C35.2294 45.998 35.2595 46.0023 35.2895 46.0063C35.3068 46.0087 35.3241 46.0108 35.3414 46.0132C35.4402 46.0262 35.5389 46.0387 35.6376 46.0504C35.6776 46.0552 35.7177 46.06 35.7579 46.0646C35.8016 46.0693 35.8455 46.0741 35.8894 46.0787C35.9312 46.0832 35.973 46.0874 36.0147 46.0917C36.06 46.0962 36.1052 46.1005 36.1505 46.1047C36.2045 46.1095 36.2583 46.1143 36.312 46.1188C36.366 46.1234 36.4198 46.1276 36.4738 46.1316C36.5805 46.1401 36.6875 46.1473 36.7945 46.1532C36.7956 46.1534 36.7964 46.1534 36.7974 46.1534C36.9055 46.1598 37.0135 46.1651 37.1218 46.1697C37.1721 46.1718 37.2224 46.1737 37.2727 46.1753C37.2789 46.1758 37.285 46.1761 37.2914 46.1761C37.3347 46.1774 37.3781 46.1787 37.4215 46.1798C37.4407 46.1806 37.4598 46.1811 37.4792 46.1814C37.5019 46.1819 37.5248 46.1824 37.5474 46.183C37.5604 46.1832 37.5735 46.1835 37.5865 46.1835C37.5937 46.1838 37.6011 46.1838 37.6083 46.184H37.6086C37.6176 46.1843 37.6267 46.1843 37.6357 46.1846C37.6488 46.1848 37.6618 46.1848 37.6746 46.1848C37.6953 46.1854 37.7158 46.1856 37.7363 46.1859H37.7496C37.7526 46.1862 37.7555 46.1862 37.7582 46.1859C37.7624 46.1862 37.7667 46.1862 37.7709 46.1862H37.781C37.8319 46.1867 37.8827 46.187 37.9335 46.187C37.9758 46.187 38.0182 46.1867 38.0602 46.1864C38.0895 46.1864 38.1185 46.1862 38.1475 46.1856C38.1776 46.1854 38.2079 46.1848 38.238 46.1846C38.279 46.1838 38.32 46.183 38.3609 46.1822C38.7873 46.1723 39.2102 46.1481 39.6309 46.1127V46.1143L39.6413 46.191C39.5846 46.1926 39.5276 46.1944 39.4712 46.1966H39.471C39.4427 46.1976 39.4145 46.1987 39.3863 46.2C39.3621 46.2011 39.3382 46.2024 39.3142 46.2037C39.3099 46.2037 39.306 46.2037 39.302 46.2043C39.2463 46.2069 39.191 46.2101 39.1356 46.2136C39.0861 46.2168 39.0369 46.2202 38.9877 46.224C38.9672 46.2256 38.9467 46.2269 38.9262 46.2288C38.8831 46.2322 38.84 46.2357 38.7971 46.2397C38.7511 46.2437 38.705 46.2479 38.6593 46.2527C38.6348 46.2548 38.6103 46.2575 38.5858 46.2602C38.5472 46.2641 38.5086 46.2681 38.4703 46.2727C38.4655 46.2732 38.4607 46.2737 38.4559 46.2743C38.4054 46.2801 38.3551 46.286 38.3048 46.2926C38.2989 46.2932 38.2928 46.294 38.287 46.2948C38.2476 46.2998 38.2082 46.3049 38.1691 46.3105C38.1411 46.3139 38.1134 46.3179 38.0858 46.3222C38.0645 46.3248 38.0432 46.328 38.0222 46.3312C37.9908 46.3357 37.9593 46.3405 37.9279 46.3456C37.908 46.3485 37.888 46.3517 37.8681 46.3549C37.8327 46.3605 37.7975 46.3661 37.7621 46.3722C37.7409 46.3757 37.7193 46.3794 37.698 46.3831C37.673 46.3874 37.6482 46.3916 37.6232 46.3961C37.594 46.4015 37.5649 46.4065 37.5362 46.4121C37.5053 46.4177 37.4745 46.4236 37.4436 46.4297C37.3994 46.4382 37.3552 46.447 37.3111 46.4558C37.2834 46.4613 37.2557 46.4672 37.228 46.4731C37.1961 46.4797 37.1642 46.4864 37.1322 46.4936C37.075 46.5058 37.018 46.5188 36.9614 46.5319C36.8951 46.5473 36.8291 46.563 36.7631 46.5792C36.6974 46.5957 36.6316 46.6125 36.5662 46.6298C36.4536 46.6593 36.3418 46.6905 36.2306 46.723C36.1811 46.7373 36.1318 46.752 36.0826 46.7671C36.0334 46.782 35.9844 46.7972 35.9354 46.8129C35.8923 46.8265 35.8492 46.8403 35.8064 46.8547C35.7973 46.8576 35.788 46.8605 35.779 46.8637C35.7438 46.8752 35.7087 46.8869 35.6738 46.8989C35.6587 46.9039 35.6432 46.9092 35.6278 46.9146C35.5956 46.9255 35.5637 46.9367 35.5317 46.9481C35.5104 46.9555 35.4894 46.963 35.4684 46.9707C35.4396 46.9808 35.4109 46.9912 35.3824 47.0019C35.3657 47.008 35.3489 47.0141 35.3321 47.0205C35.2999 47.0322 35.268 47.0442 35.2363 47.0564C35.2188 47.0631 35.2012 47.0697 35.1836 47.0766C35.1525 47.0884 35.1213 47.1003 35.0902 47.1128C35.0702 47.1206 35.05 47.1285 35.0301 47.1365C35.0064 47.1458 34.9827 47.1554 34.9593 47.165C34.9305 47.1767 34.9018 47.1884 34.873 47.2004C34.8486 47.2105 34.8238 47.2206 34.7993 47.2313C34.7866 47.2366 34.7735 47.2419 34.7605 47.2475C34.7256 47.2621 34.6908 47.2773 34.6559 47.2925C34.6165 47.3095 34.5771 47.3268 34.538 47.3444C34.4904 47.3654 34.443 47.3869 34.3956 47.4088C34.3938 47.4096 34.3922 47.4104 34.3903 47.4114C34.3421 47.4333 34.2942 47.4559 34.2466 47.4785C34.15 47.5243 34.0542 47.5711 33.9589 47.6195C33.9578 47.6198 33.9568 47.6203 33.956 47.6209C33.9081 47.6451 33.8602 47.6696 33.8128 47.6946C33.8008 47.7004 33.7891 47.7066 33.7774 47.713C33.7311 47.7369 33.685 47.7614 33.6393 47.7861C33.6044 47.805 33.5698 47.8239 33.535 47.8431C33.5001 47.8625 33.4652 47.8817 33.4304 47.9014C33.3609 47.9405 33.292 47.9801 33.223 48.0203C33.1887 48.0406 33.1544 48.0608 33.1203 48.0813C33.069 48.1121 33.0176 48.1433 32.9668 48.1747C32.9157 48.2061 32.8648 48.2378 32.8145 48.27C32.7658 48.3008 32.7174 48.3322 32.6692 48.3636C32.6674 48.365 32.6655 48.366 32.6636 48.3674C32.6259 48.3918 32.5883 48.4169 32.5511 48.4419C32.5431 48.4472 32.5351 48.4525 32.5271 48.4579C32.5213 48.4618 32.5154 48.4658 32.5096 48.4696C32.471 48.4956 32.4324 48.522 32.3941 48.5486C32.3925 48.5494 32.3911 48.5505 32.3895 48.5515C32.3821 48.5566 32.3746 48.5619 32.3672 48.567C32.3664 48.5675 32.3658 48.568 32.365 48.5686C32.3161 48.6024 32.2676 48.6364 32.2195 48.671C32.1708 48.7056 32.1223 48.7407 32.0742 48.7759C32.026 48.8113 31.9781 48.8469 31.9305 48.8829C31.8895 48.914 31.8485 48.9451 31.8078 48.9765C31.7695 49.0061 31.7317 49.0356 31.6939 49.0657C31.692 49.067 31.6904 49.0683 31.6888 49.0697C28.8418 51.3171 26.9248 54.6994 26.6268 58.562H37.2467C38.7633 58.5574 39.9915 57.3293 39.996 55.8126V26.2494C39.9915 24.7327 38.7633 23.5045 37.2467 23.5H37.2474Z" fill="black"/>
<path opacity="0.2" d="M39.3178 23.5H18.5898C18.5621 23.6743 18.5365 23.8486 18.5139 24.0227C18.5067 24.0764 18.4998 24.1302 18.4932 24.184C18.4865 24.2372 18.4801 24.2901 18.474 24.3434C18.4546 24.5097 18.4375 24.6758 18.4226 24.8416C18.4192 24.878 18.416 24.9145 18.4131 24.9512C18.4112 24.9722 18.4093 24.993 18.408 25.014C18.4056 25.0412 18.4035 25.068 18.4016 25.0952C18.3982 25.1364 18.395 25.1779 18.3923 25.2192C18.3904 25.2418 18.3891 25.2644 18.3875 25.2871C18.3822 25.3642 18.3774 25.4417 18.3734 25.5189C18.3686 25.6024 18.3649 25.6863 18.3612 25.7695C18.3609 25.777 18.3606 25.7842 18.3604 25.7914C18.3529 25.9699 18.3479 26.148 18.3455 26.3258C18.3449 26.3761 18.3444 26.4264 18.3441 26.4764C18.3439 26.5067 18.3439 26.5371 18.3439 26.5674C18.3436 26.6001 18.3439 26.6326 18.3439 26.6653C18.3439 26.6848 18.3439 26.7042 18.3441 26.7236C18.3444 26.7367 18.3444 26.7502 18.3447 26.7635V26.7768C18.3452 26.8303 18.3457 26.8836 18.3468 26.9371C18.3471 26.9642 18.3476 26.9916 18.3484 27.019C18.3769 28.3941 18.5499 29.7437 18.8559 31.0493C18.8572 31.0485 18.8588 31.0474 18.8602 31.0466C18.8687 31.041 18.8775 31.0357 18.886 31.0301C18.9054 31.0176 18.9248 31.0051 18.9445 30.9929C18.9584 30.9841 18.9725 30.9756 18.9866 30.967C19.0031 30.9569 19.0193 30.9468 19.0358 30.9367C19.0534 30.9261 19.0709 30.916 19.0885 30.9056C19.1018 30.8979 19.1151 30.8899 19.1284 30.8822C19.1494 30.8699 19.1705 30.8582 19.1915 30.8462C19.2016 30.8404 19.212 30.8345 19.2221 30.8289C19.2466 30.8154 19.2711 30.8018 19.2955 30.7885C19.3027 30.7847 19.3097 30.7808 19.3168 30.777C19.3448 30.7619 19.373 30.7472 19.4012 30.7326C19.4049 30.7307 19.4089 30.7286 19.4126 30.7265C19.4446 30.71 19.4765 30.6937 19.5087 30.6778C19.5087 30.6778 19.5092 30.6778 19.5095 30.6775C19.8057 30.5309 20.1139 30.4066 20.4314 30.3065C20.491 30.2868 20.5509 30.2682 20.6108 30.2496C21.8437 29.8642 23.1299 29.6742 24.4225 29.6878C26.2045 29.6223 27.9844 29.8714 29.6799 30.4241V34.1366C29.5125 34.0355 29.3419 33.9405 29.1681 33.8514C28.5768 33.5485 27.9503 33.3175 27.302 33.1653C26.4557 32.9572 25.589 32.8457 24.7179 32.8326C24.6519 32.8315 24.5857 32.831 24.5197 32.8313C23.9871 32.8121 23.4567 32.864 22.9415 32.9832C22.6243 33.0567 22.3129 33.1552 22.0103 33.2794C22.0063 33.281 22.0023 33.2826 21.9984 33.2842C21.9898 33.2877 21.9813 33.2917 21.9725 33.2954C21.8674 33.3393 21.7634 33.3859 21.6606 33.4359C21.5749 33.4729 21.493 33.5158 21.4153 33.5642C21.4102 33.5674 21.4051 33.5709 21.4001 33.574C21.386 33.5831 21.3716 33.5921 21.3578 33.6015C21.3392 33.614 21.3208 33.6267 21.3027 33.64C21.3024 33.64 21.3022 33.6403 21.3019 33.6406C21.27 33.6637 21.2391 33.6882 21.2087 33.7132C21.2042 33.717 21.1994 33.7207 21.1949 33.7244C21.1917 33.7271 21.1885 33.73 21.1853 33.7327C20.7768 34.0824 20.5301 34.5981 20.5285 35.1538C20.5285 35.1671 20.5288 35.1804 20.5291 35.1937C20.5291 35.2075 20.5291 35.2217 20.5296 35.2355C20.5299 35.2461 20.5309 35.2568 20.5314 35.2674C20.5325 35.2842 20.5333 35.3012 20.5346 35.318C20.5354 35.3284 20.5368 35.3387 20.5378 35.3491C20.5397 35.3659 20.5413 35.3829 20.5434 35.3997C20.5448 35.4103 20.5466 35.421 20.5482 35.4319C20.5506 35.4481 20.553 35.4644 20.5559 35.4803C20.5581 35.4915 20.5605 35.5027 20.5626 35.5139C20.5658 35.529 20.5687 35.5445 20.5722 35.5596C20.5748 35.5713 20.5778 35.5831 20.5809 35.5948C20.5847 35.6091 20.5881 35.6232 20.5921 35.6376C20.5956 35.6501 20.5993 35.6624 20.603 35.6746C20.607 35.6879 20.6113 35.7009 20.6155 35.7143C20.6198 35.7273 20.6243 35.7401 20.6289 35.7531C20.6352 35.7709 20.6416 35.789 20.6485 35.8066C20.7177 35.9362 20.7885 36.0653 20.8609 36.1933C20.8708 36.2069 20.8806 36.2202 20.8907 36.2332C20.9 36.2455 20.9099 36.2572 20.9195 36.2691C20.9293 36.2811 20.9389 36.2931 20.9487 36.3048C20.9618 36.32 20.9754 36.3346 20.9887 36.3492C20.9953 36.3564 21.0014 36.3636 21.0081 36.3705C21.0911 36.4565 21.1776 36.5387 21.267 36.6172C21.5776 36.8903 21.9257 37.1186 22.3012 37.2945C22.3305 37.3092 22.3606 37.3238 22.3912 37.339C22.8686 37.5724 23.5331 37.8678 24.3845 38.2247C24.4954 38.2712 24.6093 38.3186 24.7264 38.3673C24.7339 38.3697 24.7411 38.3724 24.7483 38.3748C24.8576 38.4101 24.9649 38.4527 25.0684 38.5028C25.0705 38.5038 25.0724 38.5046 25.0745 38.5057C26.1353 38.9208 27.1586 39.426 28.1334 40.0154C28.6415 40.3284 29.0931 40.7212 29.4721 41.1771C29.6442 41.3844 29.8015 41.6048 29.9423 41.8366C30.0924 42.1085 30.2175 42.3922 30.317 42.6839C30.4908 43.1933 30.5861 43.7277 30.598 44.2682C30.6004 44.3733 30.5999 44.4784 30.5959 44.5838C30.5959 44.5889 30.5962 44.5939 30.5964 44.599C30.5978 44.6277 30.5986 44.6567 30.5994 44.6855C30.5996 44.6964 30.5996 44.707 30.5999 44.7179C30.5999 44.7318 30.6004 44.7456 30.6007 44.7594C30.6007 44.7594 30.6007 44.7594 30.6004 44.7594C30.6004 44.761 30.6004 44.7624 30.6004 44.764C31.9452 45.3061 33.3716 45.7066 34.8644 45.9443C34.9431 45.9568 35.0219 45.9687 35.1009 45.9799C35.1361 45.985 35.1709 45.99 35.2061 45.9951C35.2361 45.9993 35.2662 46.0036 35.2963 46.0076C35.3136 46.01 35.3309 46.0121 35.3482 46.0145C35.4469 46.0276 35.5456 46.0401 35.6444 46.0518C35.6843 46.0566 35.7245 46.0614 35.7647 46.0659C35.8083 46.0707 35.8522 46.0755 35.8961 46.08C35.9379 46.0845 35.9797 46.0888 36.0215 46.093C36.0667 46.0975 36.112 46.1018 36.1572 46.1061C36.2112 46.1109 36.265 46.1156 36.3188 46.1202C36.3728 46.1247 36.4265 46.129 36.4806 46.1329C36.5873 46.1415 36.6943 46.1486 36.8012 46.1545C36.8023 46.1548 36.8031 46.1548 36.8042 46.1548C36.9122 46.1612 37.0203 46.1665 37.1286 46.171C37.1789 46.1731 37.2292 46.175 37.2795 46.1766C37.2856 46.1771 37.2917 46.1774 37.2981 46.1774C37.3415 46.1787 37.3849 46.18 37.4282 46.1811C37.4474 46.1819 37.4666 46.1824 37.486 46.1827C37.5086 46.1832 37.5315 46.1838 37.5541 46.1843C37.5672 46.1846 37.5802 46.1848 37.5932 46.1848C37.6004 46.1851 37.6079 46.1851 37.6151 46.1854H37.6153C37.6244 46.1856 37.6334 46.1856 37.6425 46.1859C37.6555 46.1862 37.6686 46.1862 37.6813 46.1862C37.7021 46.1867 37.7226 46.187 37.7431 46.1872H37.7564C37.7593 46.1875 37.7622 46.1875 37.7649 46.1872C37.7692 46.1875 37.7734 46.1875 37.7777 46.1875H37.7878C37.8386 46.188 37.8894 46.1883 37.9403 46.1883C37.9826 46.1883 38.0249 46.188 38.067 46.1878C38.0962 46.1878 38.1252 46.1875 38.1542 46.187C38.1843 46.1867 38.2147 46.1862 38.2447 46.1859C38.2857 46.1851 38.3267 46.1843 38.3677 46.1835C38.794 46.1737 39.2169 46.1494 39.6376 46.114V46.1156L39.648 46.1923C39.5913 46.1939 39.5344 46.1957 39.478 46.1979H39.4777C39.4495 46.1989 39.4213 46.2 39.3931 46.2013C39.3689 46.2024 39.3449 46.2037 39.321 46.2051C39.3167 46.2051 39.3127 46.2051 39.3087 46.2056C39.2531 46.2083 39.1977 46.2115 39.1424 46.2149C39.0929 46.2181 39.0436 46.2216 38.9944 46.2253C38.9739 46.2269 38.9534 46.2282 38.9329 46.2301C38.8898 46.2335 38.8467 46.237 38.8039 46.241C38.7578 46.245 38.7118 46.2492 38.666 46.254C38.6415 46.2562 38.617 46.2588 38.5926 46.2615C38.554 46.2655 38.5154 46.2695 38.4771 46.274C38.4723 46.2745 38.4675 46.2751 38.4627 46.2756C38.4121 46.2814 38.3618 46.2873 38.3115 46.294C38.3057 46.2945 38.2996 46.2953 38.2937 46.2961C38.2543 46.3011 38.2149 46.3062 38.1758 46.3118C38.1479 46.3152 38.1202 46.3192 38.0925 46.3235C38.0712 46.3262 38.0499 46.3293 38.0289 46.3325C37.9975 46.3371 37.9661 46.3419 37.9347 46.3469C37.9147 46.3498 37.8948 46.353 37.8748 46.3562C37.8394 46.3618 37.8043 46.3674 37.7689 46.3735C37.7476 46.377 37.726 46.3807 37.7048 46.3844C37.6797 46.3887 37.655 46.393 37.63 46.3975C37.6007 46.4028 37.5717 46.4079 37.5429 46.4134C37.5121 46.419 37.4812 46.4249 37.4503 46.431C37.4062 46.4395 37.362 46.4483 37.3178 46.4571C37.2901 46.4627 37.2624 46.4685 37.2348 46.4744C37.2028 46.481 37.1709 46.4877 37.139 46.4949C37.0817 46.5071 37.0248 46.5202 36.9681 46.5332C36.9018 46.5486 36.8358 46.5643 36.7698 46.5806C36.7041 46.5971 36.6384 46.6138 36.5729 46.6311C36.4603 46.6607 36.3486 46.6918 36.2373 46.7243C36.1878 46.7387 36.1386 46.7533 36.0894 46.7685C36.0401 46.7834 35.9911 46.7985 35.9422 46.8142C35.8991 46.8278 35.856 46.8416 35.8131 46.856C35.8041 46.8589 35.7947 46.8619 35.7857 46.8651C35.7506 46.8765 35.7154 46.8882 35.6806 46.9002C35.6654 46.9053 35.65 46.9106 35.6345 46.9159C35.6023 46.9268 35.5704 46.938 35.5385 46.9494C35.5172 46.9569 35.4961 46.9643 35.4751 46.972C35.4464 46.9822 35.4176 46.9925 35.3892 47.0032C35.3724 47.0093 35.3556 47.0154 35.3389 47.0218C35.3067 47.0335 35.2747 47.0455 35.2431 47.0577C35.2255 47.0644 35.2079 47.071 35.1904 47.078C35.1592 47.0897 35.1281 47.1017 35.097 47.1142C35.077 47.1219 35.0568 47.1299 35.0368 47.1378C35.0131 47.1472 34.9894 47.1567 34.966 47.1663C34.9373 47.178 34.9085 47.1897 34.8798 47.2017C34.8553 47.2118 34.8306 47.2219 34.8061 47.2326C34.7933 47.2379 34.7803 47.2432 34.7672 47.2488C34.7324 47.2635 34.6975 47.2786 34.6626 47.2938C34.6232 47.3108 34.5839 47.3281 34.5447 47.3457C34.4971 47.3667 34.4497 47.3883 34.4024 47.4101C34.4005 47.4109 34.3989 47.4117 34.397 47.4128C34.3489 47.4346 34.301 47.4572 34.2533 47.4798C34.1567 47.5256 34.0609 47.5724 33.9656 47.6209C33.9646 47.6211 33.9635 47.6217 33.9627 47.6222C33.9148 47.6464 33.8669 47.6709 33.8195 47.6959C33.8076 47.7018 33.7959 47.7079 33.7841 47.7143C33.7378 47.7382 33.6918 47.7627 33.646 47.7875C33.6112 47.8064 33.5766 47.8253 33.5417 47.8444C33.5068 47.8638 33.472 47.883 33.4371 47.9027C33.3676 47.9418 33.2987 47.9815 33.2298 48.0217C33.1955 48.0419 33.1611 48.0621 33.1271 48.0826C33.0757 48.1135 33.0243 48.1446 32.9735 48.176C32.9224 48.2074 32.8716 48.2391 32.8213 48.2713C32.7726 48.3022 32.7241 48.3336 32.676 48.365C32.6741 48.3663 32.6723 48.3674 32.6704 48.3687C32.6326 48.3932 32.5951 48.4182 32.5578 48.4432C32.5498 48.4485 32.5419 48.4539 32.5339 48.4592C32.528 48.4632 32.5222 48.4672 32.5163 48.4709C32.4777 48.497 32.4391 48.5233 32.4008 48.5499C32.3992 48.5507 32.3979 48.5518 32.3963 48.5529C32.3888 48.5579 32.3814 48.5632 32.3739 48.5683C32.3731 48.5688 32.3726 48.5694 32.3718 48.5699C32.3228 48.6037 32.2744 48.6377 32.2262 48.6723C32.1775 48.7069 32.1291 48.7421 32.0809 48.7772C32.0327 48.8126 31.9848 48.8483 31.9372 48.8842C31.8962 48.9153 31.8552 48.9465 31.8145 48.9779C31.7765 49.0074 31.7384 49.0369 31.7006 49.0667C31.699 49.0681 31.6972 49.0694 31.6956 49.0707C28.8488 51.3182 26.9316 54.7007 26.6335 58.563H39.3159C40.8326 58.5585 42.0608 57.3303 42.0653 55.8137V26.2494C42.0608 24.7327 40.8326 23.5045 39.3159 23.5H39.3178Z" fill="black"/>
<path opacity="0.2" d="M39.3176 23.5H18.5897C18.562 23.6743 18.5364 23.8486 18.5138 24.0227C18.5066 24.0764 18.4997 24.1302 18.493 24.184C18.4864 24.2372 18.48 24.2901 18.4739 24.3434C18.4545 24.5097 18.4374 24.6758 18.4225 24.8416C18.4191 24.878 18.4159 24.9145 18.4129 24.9512C18.4111 24.9722 18.4092 24.993 18.4079 25.014C18.4055 25.0412 18.4034 25.068 18.4015 25.0952C18.398 25.1364 18.3948 25.1779 18.3922 25.2192C18.3903 25.2418 18.389 25.2644 18.3874 25.2871C18.3821 25.3642 18.3773 25.4417 18.3733 25.5189C18.3685 25.6024 18.3648 25.6863 18.361 25.7695C18.3608 25.777 18.3605 25.7842 18.3602 25.7914C18.3528 25.9699 18.3477 26.148 18.3453 26.3258C18.3448 26.3761 18.3443 26.4264 18.344 26.4764C18.3437 26.5067 18.3438 26.5371 18.3438 26.5674C18.3438 26.6001 18.3438 26.6326 18.3438 26.6653C18.3438 26.6848 18.3437 26.7042 18.344 26.7236C18.3443 26.7367 18.3443 26.7502 18.3445 26.7635V26.7768C18.3451 26.8303 18.3456 26.8836 18.3467 26.9371C18.3467 26.9642 18.3475 26.9916 18.3483 27.019C18.3767 28.3941 18.5497 29.7437 18.8558 31.0493C18.8571 31.0485 18.8587 31.0474 18.86 31.0466C18.8686 31.041 18.8773 31.0357 18.8859 31.0301C18.9053 31.0176 18.9247 31.0051 18.9444 30.9929C18.9582 30.9841 18.9723 30.9756 18.9865 30.967C19.003 30.9569 19.0192 30.9468 19.0357 30.9367C19.0533 30.9261 19.0708 30.916 19.0884 30.9056C19.1017 30.8979 19.115 30.8899 19.1283 30.8822C19.1493 30.8699 19.1703 30.8582 19.1914 30.8462C19.2017 30.8404 19.2119 30.8345 19.222 30.8289C19.2465 30.8154 19.2709 30.8018 19.2954 30.7885C19.3026 30.7847 19.3095 30.7808 19.3167 30.777C19.3447 30.7619 19.3729 30.7472 19.4011 30.7326C19.4048 30.7307 19.4088 30.7286 19.4125 30.7265C19.4445 30.71 19.4764 30.6937 19.5086 30.6778C19.5086 30.6778 19.5091 30.6778 19.5094 30.6775C19.8056 30.5309 20.1138 30.4066 20.4313 30.3065C20.4909 30.2868 20.5508 30.2682 20.6106 30.2496C21.8436 29.8642 23.1298 29.6742 24.4224 29.6878C26.2044 29.6223 27.9843 29.8714 29.6798 30.4241V34.1366C29.5124 34.0355 29.3418 33.9405 29.168 33.8514C28.5767 33.5485 27.9502 33.3175 27.3019 33.1653C26.4559 32.9572 25.5891 32.8457 24.7186 32.8326C24.6523 32.8315 24.5861 32.831 24.5198 32.8313C23.9873 32.8121 23.4569 32.864 22.9417 32.9832C22.6244 33.0567 22.3131 33.1552 22.0105 33.2794C22.0065 33.281 22.0025 33.2826 21.9985 33.2842C21.99 33.2877 21.9815 33.2917 21.9727 33.2954C21.8676 33.3393 21.7635 33.3859 21.6608 33.4359C21.5751 33.4729 21.4931 33.5158 21.4154 33.5642C21.4104 33.5674 21.4053 33.5709 21.4002 33.574C21.3861 33.5831 21.3718 33.5921 21.3579 33.6015C21.3393 33.614 21.3209 33.6267 21.3028 33.64C21.3026 33.64 21.3023 33.6403 21.302 33.6406C21.2701 33.6637 21.2392 33.6882 21.2089 33.7132C21.2044 33.717 21.1996 33.7207 21.1951 33.7244C21.1919 33.7271 21.1887 33.73 21.1855 33.7327C20.777 34.0824 20.5303 34.5981 20.5287 35.1538C20.5287 35.1671 20.5289 35.1804 20.5292 35.1937C20.5292 35.2075 20.5292 35.2217 20.5297 35.2355C20.53 35.2461 20.5311 35.2568 20.5316 35.2674C20.5327 35.2842 20.5335 35.3012 20.5348 35.318C20.5356 35.3284 20.5369 35.3387 20.538 35.3491C20.5398 35.3659 20.5414 35.3829 20.5436 35.3997C20.5449 35.4103 20.5468 35.421 20.5484 35.4319C20.5508 35.4481 20.5532 35.4644 20.5561 35.4803C20.5582 35.4915 20.5606 35.5027 20.5627 35.5139C20.5659 35.529 20.5689 35.5445 20.5723 35.5596C20.575 35.5713 20.5779 35.5831 20.5811 35.5948C20.5848 35.6091 20.5883 35.6232 20.5923 35.6376C20.5957 35.6501 20.5995 35.6624 20.6032 35.6746C20.6072 35.6879 20.6112 35.7009 20.6157 35.7143C20.62 35.7273 20.6245 35.7401 20.629 35.7531C20.6354 35.7709 20.6418 35.789 20.6487 35.8066C20.7179 35.9362 20.7887 36.0653 20.8611 36.1933C20.8709 36.2069 20.8808 36.2202 20.8909 36.2332C20.9002 36.2455 20.91 36.2572 20.9196 36.2691C20.9295 36.2811 20.939 36.2931 20.9489 36.3048C20.9619 36.32 20.9755 36.3346 20.9888 36.3492C20.9955 36.3564 21.0016 36.3636 21.0082 36.3705C21.0918 36.457 21.1788 36.5398 21.269 36.6188C21.5793 36.8911 21.9266 37.1189 22.3014 37.2945C22.3296 37.3086 22.3586 37.323 22.3884 37.3374C22.8661 37.571 23.5317 37.867 24.3849 38.2244C24.4959 38.271 24.6098 38.3183 24.7269 38.367C24.7343 38.3694 24.7415 38.3721 24.7487 38.3745C24.8583 38.4099 24.9653 38.4525 25.0688 38.5025C25.071 38.5036 25.0728 38.5044 25.075 38.5054C26.1357 38.9206 27.159 39.4257 28.1338 40.0152C28.6419 40.3281 29.0935 40.7209 29.4725 41.1768C29.6447 41.3841 29.8019 41.6045 29.9427 41.8363C30.0928 42.1083 30.2182 42.392 30.3174 42.6836C30.4912 43.193 30.5865 43.7274 30.5985 44.2679C30.6009 44.373 30.6003 44.4782 30.5963 44.5835C30.5963 44.5886 30.5966 44.5937 30.5969 44.5987C30.5982 44.6275 30.599 44.6565 30.5998 44.6852C30.5998 44.6961 30.6001 44.7068 30.6003 44.7177C30.6003 44.7315 30.6009 44.7453 30.6011 44.7592C30.6011 44.7592 30.6011 44.7592 30.6009 44.7592C30.6009 44.7608 30.6009 44.7621 30.6009 44.7637C31.9456 45.3058 33.3721 45.7063 34.8648 45.944C34.9436 45.9565 35.0223 45.9685 35.1014 45.9797C35.1365 45.9847 35.1714 45.9898 35.2065 45.9948C35.2366 45.9991 35.2666 46.0033 35.2967 46.0073C35.314 46.0097 35.3313 46.0119 35.3486 46.0142C35.4473 46.0273 35.5461 46.0398 35.6448 46.0515C35.6847 46.0563 35.7249 46.0611 35.7651 46.0656C35.8087 46.0704 35.8526 46.0752 35.8966 46.0797C35.9383 46.0842 35.9801 46.0885 36.0219 46.0928C36.0671 46.0973 36.1124 46.1015 36.1576 46.1058C36.2117 46.1106 36.2654 46.1154 36.3192 46.1199C36.3732 46.1244 36.427 46.1287 36.481 46.1327C36.5877 46.1412 36.6947 46.1484 36.8017 46.1542C36.8027 46.1545 36.8035 46.1545 36.8046 46.1545C36.9126 46.1609 37.0207 46.1662 37.129 46.1707C37.1793 46.1729 37.2296 46.1747 37.2799 46.1763C37.286 46.1769 37.2921 46.1771 37.2985 46.1771C37.3419 46.1784 37.3853 46.1798 37.4287 46.1808C37.4478 46.1816 37.467 46.1822 37.4864 46.1824C37.509 46.183 37.5319 46.1835 37.5545 46.184C37.5676 46.1843 37.5806 46.1846 37.5937 46.1846C37.6008 46.1848 37.6083 46.1848 37.6155 46.1851H37.6158C37.6248 46.1854 37.6338 46.1854 37.6429 46.1856C37.6559 46.1859 37.669 46.1859 37.6818 46.1859C37.7025 46.1864 37.723 46.1867 37.7435 46.187H37.7568C37.7597 46.1872 37.7627 46.1872 37.7653 46.187C37.7696 46.1872 37.7738 46.1872 37.7781 46.1872H37.7882C37.839 46.1878 37.8899 46.188 37.9407 46.188C37.983 46.188 38.0253 46.1878 38.0674 46.1875C38.0966 46.1875 38.1257 46.1872 38.1547 46.1867C38.1847 46.1864 38.2151 46.1859 38.2451 46.1856C38.2861 46.1848 38.3271 46.184 38.3681 46.1832C38.7944 46.1734 39.2173 46.1492 39.6381 46.1138V46.1154L39.6484 46.192C39.5918 46.1936 39.5348 46.1955 39.4784 46.1976C39.4752 46.1976 39.4723 46.1976 39.4693 46.1981C39.4201 46.2 39.3709 46.2024 39.3216 46.2048C33.0745 46.5247 28.0034 51.0925 26.8452 57.0179C26.8405 57.0421 26.8357 57.0663 26.8311 57.0908C26.8266 57.115 26.8221 57.1392 26.8176 57.1637C26.8112 57.1996 26.8045 57.2356 26.7984 57.2718C26.7976 57.2755 26.7968 57.2792 26.7963 57.283C26.7941 57.2952 26.792 57.3072 26.7899 57.3194C26.7838 57.3551 26.7779 57.391 26.7721 57.4267C26.7683 57.4487 26.7646 57.4711 26.7614 57.4932C26.7564 57.5254 26.7513 57.5573 26.7465 57.5895C26.7446 57.6004 26.743 57.6116 26.7415 57.6225C26.7409 57.6271 26.7401 57.6313 26.7396 57.6358C26.7337 57.6747 26.7284 57.7138 26.7228 57.7527C26.6999 57.9193 26.68 58.0869 26.6632 58.2551C26.6592 58.2969 26.6552 58.339 26.6515 58.3807C26.6507 58.3879 26.6499 58.3948 26.6494 58.402C26.647 58.43 26.6446 58.4579 26.6425 58.4859C26.6401 58.5117 26.6382 58.5372 26.6361 58.563C26.6007 59.0256 26.589 59.4945 26.6017 59.9685C26.6265 60.8847 26.7454 61.796 26.956 62.688H39.3166C40.6214 62.684 41.7128 61.7744 41.9949 60.5545C42.0407 60.3565 42.0652 60.1505 42.066 59.9387V26.2494C42.0614 24.7327 40.8333 23.5045 39.3166 23.5H39.3176Z" fill="black"/>
<path opacity="0.1" d="M41.3723 21.4375H19.0273C18.881 21.9756 18.7586 22.5148 18.6596 23.0534C18.6526 23.091 18.6457 23.1285 18.6393 23.166C18.6345 23.1926 18.63 23.2195 18.6252 23.2461C18.6103 23.3307 18.5962 23.4154 18.5826 23.5C18.5547 23.6743 18.5291 23.8484 18.506 24.0227C18.4988 24.0764 18.4919 24.1302 18.4852 24.184C18.4786 24.2372 18.4722 24.2901 18.4661 24.3434C18.4466 24.5097 18.4296 24.6758 18.4147 24.8416C18.4113 24.878 18.4081 24.9145 18.4051 24.9512C18.4033 24.9722 18.4014 24.993 18.4001 25.014C18.3977 25.0412 18.3956 25.068 18.3937 25.0952C18.3902 25.1364 18.387 25.1779 18.3844 25.2192C18.3825 25.2418 18.3812 25.2644 18.3796 25.2871C18.3743 25.3642 18.3695 25.4417 18.3655 25.5189C18.3607 25.6024 18.357 25.6863 18.3532 25.7695C18.353 25.777 18.3527 25.7842 18.3524 25.7914C18.345 25.9699 18.3399 26.148 18.3375 26.3258C18.337 26.3761 18.3365 26.4264 18.3362 26.4764C18.3359 26.5067 18.3359 26.5371 18.3359 26.5674C18.3359 26.6001 18.3359 26.6326 18.3359 26.6653C18.3359 26.6981 18.3362 26.7308 18.3367 26.7635V26.7768C18.3373 26.8303 18.3378 26.8836 18.3389 26.9371C18.3389 26.9642 18.3397 26.9916 18.3405 27.019C18.3583 27.8358 18.4283 28.6453 18.5464 29.4437C18.5568 29.5148 18.5675 29.5856 18.5786 29.6564C18.5853 29.6995 18.5922 29.7426 18.5994 29.7857C18.6699 30.2096 18.754 30.6301 18.8522 31.0464C18.8607 31.0408 18.8695 31.0354 18.878 31.0299C18.8975 31.0173 18.9169 31.0048 18.9366 30.9926C18.9504 30.9838 18.9645 30.9753 18.9786 30.9668C18.9951 30.9567 19.0114 30.9466 19.0279 30.9364C19.0454 30.9258 19.063 30.9157 19.0806 30.9053C19.0939 30.8976 19.1072 30.8896 19.1205 30.8819C19.1415 30.8696 19.1625 30.8579 19.1836 30.846C19.1937 30.8401 19.2041 30.8343 19.2142 30.8287C19.2384 30.8151 19.2629 30.8018 19.2876 30.7885C19.2948 30.7845 19.302 30.7805 19.3092 30.7768C19.3371 30.7619 19.3653 30.747 19.3935 30.7323C19.3973 30.7305 19.4013 30.7283 19.405 30.7262C19.4369 30.7097 19.4688 30.6935 19.5011 30.6775C19.5011 30.6775 19.5016 30.6775 19.5018 30.6772C19.7981 30.5306 20.1062 30.4063 20.4237 30.3063C20.482 30.2871 20.5406 30.2687 20.5991 30.2506C21.8334 29.8645 23.1209 29.6739 24.4149 29.6875C26.1969 29.622 27.9767 29.8711 29.6722 30.4239V34.1364C29.5064 34.036 29.3369 33.9418 29.1647 33.8532C28.5721 33.5493 27.9443 33.3178 27.2944 33.165C26.4481 32.9569 25.5813 32.8454 24.7103 32.8323C24.6443 32.8313 24.578 32.8308 24.512 32.831C23.976 32.8116 23.4422 32.8643 22.924 32.9851C22.614 33.0575 22.3095 33.1538 22.0136 33.2747C22.0061 33.2778 21.9984 33.2805 21.9907 33.2837C21.9851 33.2861 21.9795 33.2888 21.9739 33.2909C21.8659 33.3359 21.7589 33.3838 21.6532 33.4354C21.5463 33.4817 21.4449 33.5373 21.3504 33.6007C21.3405 33.6073 21.331 33.6142 21.3214 33.6209C21.3123 33.6273 21.3033 33.6334 21.2942 33.6398C21.2836 33.6475 21.2732 33.6557 21.2626 33.6637C21.2551 33.6693 21.2474 33.6749 21.2399 33.6808C21.2338 33.6856 21.228 33.6906 21.2218 33.6954C20.787 34.0451 20.5225 34.5776 20.5211 35.153C20.5211 35.1663 20.5214 35.1796 20.5217 35.1929C20.5217 35.2067 20.5217 35.2209 20.5222 35.2347C20.5227 35.2453 20.5235 35.256 20.5241 35.2666C20.5251 35.2834 20.5259 35.3004 20.5272 35.3172C20.528 35.3276 20.5294 35.338 20.5304 35.3483C20.5323 35.3651 20.5339 35.3821 20.536 35.3989C20.5374 35.4095 20.5392 35.4202 20.5408 35.4311C20.5432 35.4473 20.5459 35.4636 20.5485 35.4795C20.5507 35.4907 20.5531 35.5019 20.5552 35.5131C20.5584 35.5282 20.5613 35.5437 20.5648 35.5588C20.5674 35.5705 20.5704 35.5823 20.5736 35.594C20.5773 35.6083 20.5807 35.6224 20.5847 35.6368C20.5882 35.6493 20.5919 35.6616 20.5956 35.6738C20.5996 35.6871 20.6036 35.7002 20.6081 35.7135C20.6124 35.7265 20.6169 35.7395 20.6215 35.7523C20.6241 35.7598 20.627 35.7675 20.6297 35.7749C20.7082 35.9232 20.7888 36.0703 20.8713 36.2164C20.8753 36.2218 20.8793 36.2274 20.8833 36.2327C20.8926 36.2449 20.9025 36.2566 20.9121 36.2686C20.9219 36.2806 20.9315 36.2926 20.9413 36.3043C20.9544 36.3194 20.968 36.3341 20.9813 36.3487C20.9876 36.3559 20.994 36.3631 21.0007 36.37C21.0837 36.456 21.1702 36.5382 21.2596 36.6167C21.5702 36.8898 21.9183 37.1181 22.2938 37.294C22.3231 37.3086 22.3532 37.3233 22.3838 37.3384C22.8591 37.5708 23.5196 37.8643 24.3654 38.2191C24.4801 38.2672 24.598 38.3162 24.7193 38.3665C24.7268 38.3689 24.7342 38.3716 24.7419 38.374C24.8505 38.4091 24.9564 38.4511 25.0592 38.5006C25.0621 38.502 25.0647 38.5033 25.0677 38.5046C26.1285 38.9198 27.1517 39.4249 28.1266 40.0144C28.6346 40.3273 29.0862 40.7201 29.4652 41.1763C29.6374 41.3836 29.7947 41.604 29.9354 41.8358C30.0797 42.0968 30.2008 42.3685 30.2982 42.648C30.2987 42.6493 30.299 42.6504 30.2995 42.6517C30.3011 42.656 30.3024 42.6605 30.304 42.665C30.4831 43.184 30.5805 43.729 30.5917 44.2802C30.5938 44.381 30.593 44.4819 30.5893 44.583C30.5893 44.5881 30.5896 44.5931 30.5898 44.5982C30.5912 44.6269 30.592 44.6559 30.5928 44.6847C30.5928 44.6956 30.593 44.7062 30.5933 44.7171C30.5933 44.731 30.5938 44.7448 30.5941 44.7587C31.3065 45.0458 32.0432 45.2941 32.8024 45.5006C33.5572 45.7058 34.3226 45.8655 35.0946 45.9791C35.1297 45.9842 35.1646 45.9892 35.1997 45.9943C35.2298 45.9985 35.2599 46.0028 35.29 46.0068C35.3073 46.0092 35.3246 46.0113 35.3418 46.0137C35.4393 46.0268 35.5367 46.039 35.6343 46.0504C35.6357 46.0504 35.6367 46.0507 35.6381 46.051C35.678 46.0558 35.7182 46.0606 35.7583 46.0651C35.802 46.0699 35.8459 46.0747 35.8898 46.0792C35.9316 46.0837 35.9734 46.088 36.0152 46.0922C36.0604 46.0968 36.1056 46.101 36.1509 46.1053C36.2049 46.1101 36.2587 46.1148 36.3124 46.1194C36.3664 46.1239 36.4202 46.1282 36.4742 46.1321C36.5809 46.1407 36.6879 46.1478 36.7949 46.1537C36.796 46.154 36.7968 46.154 36.7978 46.154C36.9059 46.1604 37.0139 46.1657 37.1223 46.1702C37.1726 46.1723 37.2229 46.1742 37.2731 46.1758C37.2793 46.1763 37.2854 46.1766 37.2918 46.1766C37.3352 46.1779 37.3785 46.1793 37.4219 46.1803C37.4411 46.1811 37.4602 46.1816 37.4797 46.1819C37.5153 46.1827 37.5513 46.1835 37.5869 46.184C37.5941 46.1843 37.6016 46.1843 37.6087 46.1846C37.6308 46.1851 37.6526 46.1854 37.6747 46.1854C37.6998 46.1859 37.7248 46.1862 37.7498 46.1864C37.7527 46.1867 37.7556 46.1867 37.7583 46.1864C37.7626 46.1867 37.7668 46.1867 37.7711 46.1867H37.7812C37.832 46.1872 37.8828 46.1875 37.9337 46.1875C37.976 46.1875 38.0183 46.1872 38.0604 46.187C38.0896 46.187 38.1186 46.1867 38.1476 46.1862C38.1777 46.1859 38.2081 46.1854 38.2381 46.1851C38.2791 46.1843 38.3201 46.1835 38.3611 46.1827C38.7874 46.1729 39.2103 46.1486 39.6311 46.1132V46.1148L39.6414 46.1915C39.5847 46.1931 39.5278 46.195 39.4714 46.1971C39.4682 46.1971 39.4653 46.1971 39.4623 46.1976C39.437 46.1984 39.412 46.1995 39.3867 46.2005C39.3625 46.2016 39.3386 46.2029 39.3146 46.2043C39.3104 46.2043 39.3064 46.2043 39.3024 46.2048C39.2468 46.2075 39.1914 46.2107 39.1361 46.2141C39.0866 46.2173 39.0373 46.2208 38.9881 46.2245C38.9676 46.2261 38.9471 46.2274 38.9266 46.2293C38.8835 46.2327 38.8404 46.2362 38.7975 46.2402C38.7515 46.2442 38.7055 46.2484 38.6597 46.2532C38.6352 46.2554 38.6107 46.258 38.5862 46.2607C38.5476 46.2647 38.5091 46.2687 38.4707 46.2732C38.4659 46.2737 38.4611 46.2743 38.4564 46.2748C38.4058 46.2806 38.3555 46.2865 38.3052 46.2932C38.2993 46.2937 38.2932 46.2945 38.2874 46.2953C38.248 46.3003 38.2086 46.3054 38.1695 46.311C38.1415 46.3144 38.1138 46.3184 38.0862 46.3227C38.0649 46.3254 38.0436 46.3286 38.0226 46.3317C37.9912 46.3363 37.9598 46.3411 37.9284 46.3461C37.9084 46.349 37.8884 46.3522 37.8685 46.3554C37.8331 46.361 37.798 46.3666 37.7626 46.3727C37.7413 46.3762 37.7197 46.3799 37.6984 46.3836C37.6734 46.3879 37.6487 46.3922 37.6236 46.3967C37.5944 46.402 37.5654 46.4071 37.5366 46.4126C37.5057 46.4182 37.4749 46.4241 37.444 46.4302C37.3998 46.4387 37.3556 46.4475 37.3115 46.4563C37.2838 46.4619 37.2561 46.4677 37.2284 46.4736C37.1965 46.4802 37.1646 46.4869 37.1326 46.4941C37.0754 46.5063 37.0185 46.5194 36.9618 46.5324C36.8955 46.5478 36.8295 46.5635 36.7635 46.5798C36.6978 46.596 36.632 46.6128 36.5666 46.6303C36.454 46.6599 36.3422 46.691 36.231 46.7235C36.1815 46.7379 36.1323 46.7525 36.083 46.7677C36.0338 46.7826 35.9848 46.7977 35.9359 46.8134C35.8927 46.827 35.8496 46.8408 35.8068 46.8552C35.7977 46.8581 35.7884 46.8611 35.7794 46.8643C35.7442 46.8757 35.7091 46.8874 35.6742 46.8994C35.6591 46.9045 35.6436 46.9098 35.6282 46.9151C35.596 46.926 35.5641 46.9372 35.5321 46.9486C35.5108 46.9561 35.4898 46.9635 35.4688 46.9712C35.4401 46.9814 35.4113 46.9917 35.3828 47.0024C35.3661 47.0085 35.3493 47.0146 35.3325 47.021C35.3003 47.0327 35.2684 47.0447 35.2367 47.0569C35.2192 47.0636 35.2016 47.0703 35.184 47.0772C35.1529 47.0889 35.1218 47.1009 35.0906 47.1134C35.0707 47.1211 35.0504 47.1291 35.0305 47.1371C35.0068 47.1464 34.9831 47.1559 34.9597 47.1655C34.9309 47.1772 34.9022 47.1889 34.8735 47.2009C34.849 47.211 34.8242 47.2211 34.7997 47.2318C34.787 47.2371 34.7739 47.2424 34.7609 47.248C34.726 47.2627 34.6912 47.2778 34.6563 47.293C34.6169 47.31 34.5775 47.3273 34.5384 47.3449C34.4908 47.3659 34.4434 47.3875 34.396 47.4093C34.3942 47.4101 34.3926 47.4109 34.3907 47.412C34.3425 47.4338 34.2946 47.4564 34.247 47.479C34.1504 47.5248 34.0546 47.5719 33.9593 47.6201C33.9582 47.6203 33.9572 47.6209 33.9564 47.6214C33.9085 47.6456 33.8606 47.6701 33.8132 47.6951C33.8012 47.701 33.7895 47.7071 33.7778 47.7135C33.7315 47.7374 33.6855 47.7619 33.6397 47.7867C33.6048 47.8056 33.5702 47.8245 33.5354 47.8436C33.5005 47.863 33.4656 47.8822 33.4308 47.9019C33.3613 47.941 33.2924 47.9807 33.2235 48.0209C33.1891 48.0411 33.1548 48.0613 33.1207 48.0818C33.0694 48.1127 33.018 48.1438 32.9672 48.1752C32.9161 48.2066 32.8653 48.2383 32.815 48.2705C32.7663 48.3014 32.7178 48.3328 32.6696 48.3642C32.6678 48.3655 32.6659 48.3666 32.6641 48.3679C32.6263 48.3924 32.5887 48.4174 32.5515 48.4424C32.5435 48.4477 32.5355 48.4531 32.5275 48.4584C32.5217 48.4624 32.5158 48.4664 32.51 48.4701C32.4714 48.4962 32.4328 48.5225 32.3945 48.5491C32.3854 48.5553 32.3764 48.5614 32.3676 48.5675C32.3668 48.568 32.3663 48.5686 32.3655 48.5691C32.3165 48.6029 32.2681 48.637 32.2199 48.6715C32.1712 48.7061 32.1228 48.7413 32.0746 48.7764C32.0264 48.8118 31.9785 48.8475 31.9309 48.8834C29.3377 50.8394 27.4812 53.7142 26.8382 57.0174C26.8334 57.0416 26.8286 57.0658 26.8241 57.0903C26.8196 57.1145 26.8151 57.1387 26.8106 57.1632C26.8042 57.1991 26.7975 57.2351 26.7914 57.2712C26.7906 57.275 26.7898 57.2787 26.7893 57.2824C26.7871 57.2947 26.785 57.3066 26.7829 57.3189C26.7768 57.3545 26.7709 57.3905 26.765 57.4261C26.7613 57.4482 26.7576 57.4706 26.7544 57.4927C26.7493 57.5249 26.7443 57.5568 26.7395 57.589C26.7376 57.5999 26.736 57.6111 26.7344 57.622C26.7339 57.6265 26.7331 57.6308 26.7326 57.6353C26.7267 57.6742 26.7214 57.7133 26.7158 57.7521C26.6929 57.9187 26.673 58.0864 26.6562 58.2546C26.6522 58.2964 26.6482 58.3384 26.6445 58.3802C26.6437 58.3874 26.6429 58.3943 26.6424 58.4015C26.64 58.4294 26.6376 58.4574 26.6354 58.4853C26.6333 58.5111 26.6314 58.5367 26.6296 58.5625C26.6032 58.9029 26.5902 59.2467 26.5902 59.5938C26.5902 59.9408 26.6032 60.2841 26.6293 60.625H41.3721C41.5839 60.6245 41.7902 60.6 41.9879 60.5539C43.2078 60.2718 44.1175 59.1805 44.1214 57.8756V24.1869C44.1169 22.6702 42.8887 21.442 41.3721 21.4375H41.3723Z" fill="black"/>
<path d="M37.2506 23.5H9.74911C8.23085 23.5 7 24.7308 7 26.2494V53.7506C7 55.2692 8.23085 56.5 9.74911 56.5H37.2506C38.7689 56.5 40 55.2692 40 53.7506V26.2494C40 24.7308 38.7689 23.5 37.2506 23.5ZM29.5637 47.8931C28.8471 48.766 27.8895 49.4087 26.8101 49.7411C25.5415 50.1395 24.217 50.3325 22.8874 50.3125C21.6972 50.3173 20.509 50.2194 19.3356 50.0195C18.3427 49.8619 17.3726 49.5822 16.4481 49.1862V45.2635C17.3327 45.895 18.3211 46.3661 19.3686 46.6556C20.4097 46.9808 21.4918 47.1543 22.5821 47.1714C23.5918 47.2358 24.5999 47.0215 25.4965 46.5526C26.1195 46.1947 26.4958 45.5238 26.4761 44.8055C26.4804 44.3044 26.2826 43.8227 25.9274 43.469C25.4845 43.0352 24.972 42.6783 24.4115 42.413C23.7667 42.0886 22.8139 41.6622 21.553 41.1342C20.5526 40.7321 19.5951 40.2313 18.6942 39.6391C17.9994 39.1782 17.4195 38.5645 16.999 37.8446C16.5892 37.0928 16.385 36.2463 16.4069 35.3904C16.3709 34.2319 16.7624 33.1006 17.5062 32.212C18.2873 31.3218 19.2976 30.6626 20.4267 30.3063C21.714 29.8823 23.0625 29.6731 24.4176 29.6875C26.1999 29.622 27.9795 29.8711 29.675 30.4239V34.1364C28.9381 33.6898 28.1357 33.3619 27.2969 33.1647C26.3864 32.9409 25.4523 32.8286 24.5148 32.8307C23.5266 32.7951 22.5451 33.0024 21.656 33.4351C20.9704 33.7313 20.5257 34.4062 20.5236 35.153C20.5196 35.6057 20.6921 36.0424 21.0042 36.37C21.3752 36.7543 21.8135 37.0675 22.2974 37.294C22.8392 37.5636 23.6477 37.921 24.7229 38.3665C24.8424 38.404 24.9589 38.4501 25.0715 38.5046C26.1323 38.9198 27.1555 39.4249 28.1301 40.0144C28.8689 40.4695 29.489 41.0938 29.939 41.8355C30.4026 42.6749 30.6285 43.6247 30.5929 44.5827C30.6456 45.7723 30.2815 46.943 29.5637 47.8931Z" fill="#03787C"/>
</svg>
