<svg width="80" height="80" viewBox="0 0 80 80" fill="none" xmlns="http://www.w3.org/2000/svg">
<g clip-path="url(#clip0_6203_47336)">
<path d="M52.8255 29.4531L44.8719 32.0476L37.9446 35.0942L36.0104 35.6052C35.517 36.0769 35.0038 36.5487 34.4314 37.0204C33.8196 37.5511 33.2472 38.0228 32.813 38.3766C32.3196 38.7697 31.609 39.4773 31.234 39.9294C30.6814 40.6173 30.2472 41.3445 30.0696 41.8949C29.734 42.8973 29.8919 43.9194 30.5432 44.8628C31.3525 46.0618 32.9906 47.2804 34.885 48.1059C35.8521 48.5383 37.4903 49.069 38.7136 49.3835C40.7465 49.8946 44.6935 50.4646 46.8646 50.5432C47.2988 50.5628 47.8909 50.5628 47.9107 50.5432C47.9501 50.5039 48.3054 49.8749 48.6804 49.069C50.0225 46.3566 50.9699 43.8018 51.5028 41.6397C51.8186 40.3228 52.0554 38.5735 52.233 36.4904C52.2725 35.9008 52.2923 33.9549 52.2528 33.3063C52.1936 32.2252 52.0949 31.3604 51.9567 30.4956C51.937 30.3776 51.9173 30.2597 51.937 30.2597C51.9567 30.2401 52.0357 30.2204 53.0225 29.9452L52.8252 29.4539L52.8255 29.4531ZM51.0097 30.5145C51.0887 30.5145 51.2663 32.3621 51.3255 33.5218C51.3453 33.7576 51.3255 33.9345 51.3255 33.9345C51.286 33.9345 50.3189 33.3645 49.6084 32.9321C49.0163 32.5586 47.8715 31.7921 47.6939 31.6545C47.6544 31.6283 47.7992 31.5562 48.1281 31.4383C48.9571 31.1435 50.9308 30.5145 51.0097 30.5145ZM46.9443 31.8511C47.0035 31.8511 47.1416 31.9297 47.4772 32.1262C48.7206 32.8928 50.3982 33.8362 51.1281 34.1507C51.3453 34.249 51.365 34.2097 50.8716 34.5635C49.786 35.3104 48.4044 36.0376 46.7469 36.7649C46.4509 36.9025 46.214 37.0007 46.1943 37.0007C46.1745 37.0007 46.214 36.8435 46.2732 36.6666C46.668 35.1728 46.9048 33.6593 46.9245 32.4607C46.8982 32.0545 46.9048 31.8514 46.9443 31.8514V31.8511ZM46.1153 32.1655C46.1548 32.2049 46.1351 33.5414 46.0759 33.9149C45.9772 34.7797 45.7995 35.6052 45.5232 36.529C45.464 36.7452 45.4048 36.9418 45.3851 36.9418C45.3653 36.9811 44.5364 36.1752 44.2601 35.8607C43.7864 35.33 43.4311 34.7797 43.1548 34.249C43.0166 33.9738 42.7995 33.4431 42.8193 33.4431C42.9179 33.3645 46.0956 32.1459 46.1153 32.1655ZM42.188 33.6987C42.2275 33.7183 42.267 33.8166 42.2867 33.9149C42.4841 34.4455 42.9183 35.2121 43.2933 35.6838C43.7078 36.2145 44.2407 36.8042 44.6749 37.1776C44.8131 37.2956 44.9512 37.4135 44.9709 37.4331C44.9973 37.4594 44.6881 37.5904 44.0433 37.8262C42.8986 38.2587 41.6749 38.6911 40.2542 39.1431C39.9187 39.2611 39.5831 39.3594 39.2476 39.4773C39.1884 39.4969 39.2081 39.4576 39.366 39.2218C40.0766 38.1211 41.1423 35.9787 41.7345 34.4459C41.8331 34.1904 41.9318 33.9152 41.9516 33.8563C41.9713 33.7776 42.0108 33.7383 42.0897 33.699C42.1292 33.7187 42.1687 33.699 42.1884 33.699L42.188 33.6987ZM40.9841 34.19C41.0038 34.2097 40.688 34.8387 40.392 35.4283C39.7999 36.5683 39.1683 37.669 38.3196 39.0252C38.1814 39.2611 38.0433 39.4773 38.0235 39.4969C37.9972 39.5231 37.9512 39.4707 37.8854 39.3397C37.688 38.9466 37.5104 38.4159 37.4314 37.9442C37.3328 37.4725 37.3525 36.6666 37.4709 36.1556C37.5235 35.9066 37.6091 35.7559 37.7275 35.7035C38.4578 35.33 40.9446 34.1704 40.9841 34.19ZM51.3456 34.6224V34.878C51.3456 36.2145 51.2075 38.0425 50.9904 39.3786C50.9509 39.6145 50.9311 39.8111 50.9114 39.8111C50.9114 39.8111 50.7338 39.7717 50.5364 39.7128C49.6285 39.4376 48.6614 39.0249 47.7732 38.5335C47.1811 38.219 46.3324 37.6883 46.3719 37.6686C46.3719 37.6686 46.6285 37.5311 46.9245 37.3738C48.1088 36.7645 49.2338 36.0962 50.2206 35.4476C50.5956 35.2117 51.1482 34.799 51.2667 34.7007L51.3456 34.6221V34.6224ZM36.445 36.3914C36.4647 36.3914 36.4647 36.4307 36.4252 36.6469C36.4055 36.8042 36.366 37.099 36.366 37.2956C36.3265 38.1604 36.4647 38.809 36.8989 39.6935C37.0173 39.9294 37.116 40.1456 37.116 40.1456C37.0765 40.1849 33.09 41.3445 31.8466 41.6787C31.4716 41.7769 31.1558 41.8752 31.1163 41.8752C31.0769 41.8949 31.0769 41.8752 31.0769 41.7769C31.215 40.8925 31.8861 39.7525 32.8335 38.7697C33.465 38.1211 33.9585 37.7476 34.8072 37.2562C35.419 36.9418 36.3466 36.4111 36.4453 36.3914C36.4322 36.3914 36.4322 36.3914 36.4453 36.3914H36.445ZM45.8196 38.0621C45.8196 38.0621 45.9775 38.1407 46.1354 38.239C47.4183 38.9859 49.2144 39.6738 50.7338 40.0276L50.8719 40.0669L50.6746 40.1652C49.8653 40.6173 47.2403 41.6983 44.5565 42.7007C44.1617 42.8383 43.7867 42.9956 43.7078 43.0152C43.6288 43.0545 43.5696 43.0545 43.5696 43.0545C43.5696 43.0545 43.6683 42.8383 43.8065 42.5828C44.5565 41.1873 45.3065 39.4773 45.7012 38.2983C45.7802 38.1608 45.8196 38.0625 45.8196 38.0625V38.0621ZM44.8723 38.3766C44.8723 38.3766 44.8328 38.5142 44.7736 38.6518C44.2407 39.9097 43.5696 41.2856 42.6815 42.838C42.4644 43.2311 42.267 43.5456 42.267 43.5456C42.267 43.5456 42.0894 43.4473 41.8722 43.3097C40.5893 42.5235 39.4643 41.58 38.7341 40.6366L38.6354 40.499L39.188 40.3418C41.142 39.8111 42.8196 39.2411 44.4772 38.5335C44.6548 38.4549 44.8522 38.3762 44.8719 38.3762L44.8723 38.3766ZM50.8127 40.4404C50.8127 40.578 50.5167 41.8163 50.2601 42.7007C50.043 43.4476 49.8653 44.0373 49.5298 45.079C49.3917 45.5311 49.2535 45.9045 49.2535 45.9045C49.2535 45.9045 49.214 45.9045 49.1746 45.8849C47.3982 45.5704 45.7798 45.1183 44.2802 44.509C43.8657 44.3321 43.2538 44.0766 43.2144 44.0373C43.1946 44.0176 43.5696 43.8604 44.0236 43.6638C46.767 42.4649 49.589 41.1283 50.5759 40.5387C50.6943 40.4797 50.793 40.4404 50.8127 40.4404ZM37.0963 40.9121C37.116 40.9318 36.3463 42.0128 35.2805 43.5066C34.9055 44.0373 34.4713 44.6466 34.3134 44.8628C34.1555 45.0987 33.8989 45.4525 33.7607 45.6687L33.5042 46.0618L33.2278 45.8259C32.912 45.5704 32.3594 45.0004 32.1028 44.6859C31.5897 44.0373 31.2344 43.369 31.0962 42.7597C31.037 42.4649 31.037 42.3273 31.0962 42.3076C31.1949 42.288 32.7936 41.9145 34.2936 41.5607C35.1226 41.3642 36.0897 41.148 36.445 41.0497C36.8002 40.9711 37.0765 40.9121 37.0963 40.9121ZM37.866 41.2069L38.0634 41.4232C38.9318 42.3863 39.82 43.0938 40.8858 43.7228C41.0831 43.8211 41.2213 43.9194 41.2016 43.939C41.1621 43.9783 37.4914 45.2756 35.7743 45.8456C34.8269 46.1797 34.0374 46.4549 34.0177 46.4549L33.8993 46.3763L33.8006 46.2976L33.9782 46.0421C34.5506 45.2363 35.2611 44.3321 36.8006 42.4845L37.8664 41.2069H37.866ZM42.6617 44.627C42.6617 44.627 42.938 44.7252 43.2538 44.8432C44.0433 45.138 44.6552 45.3149 45.4841 45.5311C46.5104 45.7866 47.9907 46.0421 48.8591 46.1208C48.9973 46.1404 49.0565 46.1404 49.0368 46.1601C48.9973 46.1797 48.1091 46.4745 47.4578 46.6908C46.4315 47.0052 43.2739 47.9487 40.6884 48.6759C40.2147 48.8135 39.8002 48.9314 39.7805 48.9314C39.7213 48.9511 39.5239 48.8921 39.5239 48.8725C39.5239 48.8528 39.6621 48.6759 39.8397 48.4794C40.7081 47.4573 41.5568 46.2976 42.2871 45.2166C42.4845 44.8628 42.6621 44.627 42.6621 44.627H42.6617ZM41.5959 44.6466C41.5959 44.6466 41.1815 45.3345 40.4315 46.5139C40.1157 47.0052 39.7604 47.5752 39.6222 47.7718C39.5038 47.9683 39.3262 48.2632 39.2275 48.4401L39.0499 48.7545L38.9512 48.7349C38.7341 48.6759 37.2143 48.1452 36.8196 47.988C36.3262 47.7914 35.813 47.5556 35.4183 47.3394C34.9446 47.0839 34.3327 46.6908 34.3919 46.6908C34.4117 46.6908 35.2209 46.4549 36.2275 46.1994C38.8525 45.4918 40.3127 45.079 41.2798 44.7645C41.4377 44.6859 41.5956 44.6466 41.5956 44.6466H41.5959ZM49.0759 46.3959C49.1153 46.4549 48.1285 49.1477 47.7732 49.9925C47.6943 50.189 47.6745 50.2283 47.6153 50.2283C47.5166 50.2283 46.0956 50.0318 45.2469 49.8942C43.7469 49.6583 41.2407 49.2259 40.6091 49.0883L40.4709 49.049L41.3591 48.8525C43.2933 48.42 44.2012 48.1842 45.1482 47.909C46.3324 47.5552 47.4969 47.1031 48.6811 46.5528C48.8785 46.4742 49.0364 46.3956 49.0759 46.3956V46.3959Z" fill="url(#paint0_linear_6203_47336)"/>
<path d="M44.621 11.0004C44.4829 10.9807 42.3513 11.7473 40.9701 12.2976C39.1148 13.0445 37.674 13.7718 36.7862 14.4007C36.4507 14.6366 36.0362 15.0493 35.977 15.2066C35.9572 15.2656 35.9375 15.3442 35.9375 15.4031L36.7467 16.1697L38.6612 16.779L43.2201 17.5849L48.4303 18.4694L48.4895 18.0173H48.45L47.7592 17.919L47.621 17.6831C46.9105 16.4449 46.121 14.8921 45.6671 13.8507C45.3118 13.0449 44.9763 12.1014 44.7987 11.4331C44.7 11.0204 44.6802 11.0007 44.621 11.0007V11.0004ZM44.5223 11.2952C44.5421 11.2952 44.5618 11.4721 44.5815 11.6686C44.6802 12.5138 44.8776 13.3197 45.1737 14.1845C45.3908 14.8528 45.3908 14.8135 45.1342 14.7349C44.5223 14.558 41.7789 14.0862 39.7858 13.8111C39.47 13.7718 39.1937 13.7324 39.1937 13.7128C39.174 13.6931 40.6345 12.9266 41.2661 12.6318C42.0951 12.2583 44.3648 11.3345 44.5227 11.2952H44.5223ZM38.72 13.988L38.9569 14.0666C40.2398 14.499 43.4368 15.1083 45.2131 15.2459C45.4105 15.2656 45.5881 15.2852 45.5881 15.2852C45.5881 15.2852 45.4302 15.3835 45.2131 15.4818C44.3644 15.9142 43.4171 16.4252 42.7658 16.838C42.5684 16.9559 42.3907 17.0542 42.371 17.0542C42.3513 17.0542 42.2131 17.0345 42.0947 17.0149L41.8579 16.9756L41.2657 16.3859C40.1999 15.3638 39.371 14.5776 39.0552 14.2631L38.7197 13.988H38.72ZM38.4832 14.1649L39.3319 15.2262C39.7858 15.8159 40.2595 16.3662 40.3582 16.5038C40.4569 16.6218 40.5358 16.7397 40.5358 16.7397C40.5161 16.7593 39.3122 16.5235 38.6806 16.3859C38.0292 16.2287 37.7529 16.1697 37.3582 16.0321L37.0227 15.9338V15.8552C37.0227 15.4621 37.5358 14.8528 38.4043 14.2435L38.4832 14.1649ZM45.6868 15.5997C45.7066 15.5997 45.746 15.6587 45.8052 15.8159C46.0026 16.268 46.6539 17.4669 46.8118 17.7028C46.8513 17.7814 46.95 17.7814 46.1013 17.6438C44.0684 17.3097 43.4171 17.2114 43.4171 17.1918C43.4171 17.1918 43.4763 17.1525 43.5552 17.0935C44.1868 16.7397 44.8184 16.3073 45.3908 15.8356C45.5289 15.7176 45.6473 15.6193 45.6868 15.5997Z" fill="url(#paint1_linear_6203_47336)"/>
<path d="M36.0128 15.1097C36.0128 15.1097 35.8746 15.3259 36.0128 15.6404C36.0918 15.837 36.3286 16.0728 36.5852 16.3087C36.5852 16.3087 39.2694 18.9032 39.5852 19.2766C41.0655 20.9866 41.7168 22.6573 41.776 24.9566C41.8155 26.4504 41.5392 27.7477 40.8286 29.2608C39.5852 31.9732 36.9408 34.9801 32.875 38.3018L33.4671 38.1053C33.8421 37.8104 34.375 37.5156 35.5987 36.8473C38.4408 35.2946 41.6181 33.8794 45.526 32.4253C51.1507 30.3222 60.4069 27.846 65.6763 27.0401L66.229 26.9615L66.15 26.8239C65.6763 26.077 65.3408 25.6249 64.9461 25.1335C63.8013 23.6987 62.4 22.5587 60.6833 21.5956C58.3346 20.2787 55.2757 19.2566 51.4073 18.4901C50.677 18.3525 49.0783 18.0773 47.776 17.8808C45.0129 17.4483 43.2369 17.1535 41.2829 16.8194C40.5724 16.7014 39.5264 16.5246 38.8356 16.3673C38.4803 16.2887 37.7895 16.1314 37.2369 15.9349C36.7632 15.7973 36.1513 15.6204 36.0132 15.1094L36.0128 15.1097ZM37.572 16.6232C37.572 16.6232 37.6707 16.6625 37.8089 16.7018C38.0457 16.7804 38.3418 16.8787 38.6773 16.9573C38.9339 17.036 39.2102 17.0949 39.4668 17.1735C39.822 17.2718 40.1378 17.3504 40.1378 17.3504C40.1773 17.3897 40.7891 19.3356 40.9865 20.0629C41.0655 20.338 41.1247 20.5935 41.1247 20.5935C41.1247 20.5935 41.0457 20.4953 40.9668 20.3577C40.2563 19.1194 39.151 17.8811 37.8681 16.8591C37.6904 16.7215 37.572 16.6232 37.572 16.6232ZM40.5326 17.4291C40.572 17.4291 40.6905 17.4487 40.8484 17.488C41.8747 17.7239 43.7102 18.058 44.8743 18.2546C45.0717 18.2939 45.2296 18.3135 45.2296 18.3332C45.2296 18.3528 45.1506 18.3922 45.0717 18.4315C44.8743 18.5297 44.0651 19.0015 43.8085 19.1784C43.1375 19.6304 42.5454 20.1022 42.1112 20.5346L41.7954 20.8491C41.7954 20.8491 41.7559 20.7508 41.7362 20.6132C41.519 19.7877 41.0651 18.5494 40.6506 17.6846C40.5717 17.5666 40.5125 17.4291 40.5322 17.4291C40.519 17.4291 40.519 17.4291 40.5322 17.4291H40.5326ZM45.723 18.4118C45.7625 18.4315 45.8217 18.628 45.9401 19.0801C46.1572 19.9449 46.2559 20.9277 46.2362 21.8318C46.2164 22.0873 46.2164 22.3232 46.1967 22.3429L46.177 22.4018L45.8612 22.3035C45.2099 22.107 44.1638 21.7925 43.2756 21.537C42.7625 21.3994 42.348 21.2815 42.348 21.2618C42.348 21.2225 43.098 20.4756 43.4138 20.2004C44.0256 19.6697 45.6835 18.3922 45.723 18.4118ZM46.1375 18.4708C46.1572 18.4511 48.6244 18.8835 49.749 19.0997C50.5779 19.257 51.8016 19.5125 51.8806 19.5518C51.9201 19.5715 51.7819 19.6304 51.3872 19.8073C49.8082 20.5149 48.624 21.1635 47.4401 21.9301C47.1243 22.1267 46.8678 22.3035 46.8678 22.3035C46.8678 22.3035 46.848 22.1267 46.848 21.9301C46.848 20.7901 46.6112 19.6501 46.1967 18.6673C46.177 18.5691 46.1375 18.4904 46.1375 18.4708ZM52.5319 19.7287C52.5516 19.7484 52.4727 20.2398 52.3937 20.5149C52.1766 21.3994 51.5845 22.736 50.874 23.9742C50.7556 24.1904 50.6372 24.3673 50.6174 24.387C50.5977 24.387 50.4398 24.3084 50.2621 24.1904C49.5714 23.7777 48.7621 23.4042 47.9135 23.0504C47.6766 22.9522 47.4595 22.8735 47.4595 22.8539C47.42 22.8146 49.3542 21.537 50.3806 20.9277C51.1898 20.4363 52.5122 19.7091 52.5319 19.7287ZM52.9858 19.8073C53.0451 19.8073 54.1306 20.1022 54.703 20.2791C56.124 20.6918 57.7424 21.2815 58.7881 21.7729L59.2224 21.9694L58.9066 22.048C56.321 22.6377 54.1109 23.3256 51.9793 24.1904C51.8016 24.2691 51.6437 24.328 51.6437 24.328C51.624 24.328 51.6832 24.1904 51.7622 24.0136C52.4135 22.6573 52.828 21.2422 52.9266 20.0239C52.9661 19.906 52.9858 19.8077 52.9858 19.8077V19.8073ZM42.0918 22.3035C42.1115 22.2839 42.9405 22.4804 43.3944 22.618C44.0852 22.8146 45.526 23.2863 45.526 23.3256C45.526 23.3256 45.3681 23.4632 45.1708 23.6401C44.3813 24.2887 43.6313 24.9767 42.7234 25.8611C42.447 26.1167 42.2299 26.3329 42.2102 26.3329C42.1905 26.3329 42.1905 26.2936 42.1905 26.2542C42.3286 25.2518 42.2892 23.9546 42.1115 22.6381C42.1115 22.4415 42.0918 22.3039 42.0918 22.3039V22.3035ZM59.6569 22.3232C59.6767 22.3429 59.2622 22.9522 59.0254 23.306C58.6701 23.817 58.1372 24.5049 56.9332 25.9987C56.3017 26.7849 55.5911 27.6891 55.3543 27.9839C55.1174 28.2787 54.9201 28.5343 54.9003 28.5343C54.9003 28.5343 54.8214 28.436 54.7227 28.2984C54.0516 27.296 53.2424 26.4115 52.2951 25.6253C52.1174 25.468 51.9201 25.3108 51.8411 25.2715C51.7819 25.2322 51.7227 25.1732 51.7227 25.1732C51.7227 25.1536 52.749 24.7211 53.5187 24.4067C54.8806 23.8563 56.7359 23.188 58.1171 22.7753C58.8671 22.5198 59.6566 22.3035 59.6566 22.3232H59.6569ZM60.1306 22.4411C60.1504 22.4411 60.3083 22.5001 60.4661 22.618C61.9267 23.4436 63.3675 24.5246 64.4921 25.6253C64.8079 25.9398 65.5974 26.7456 65.5777 26.7653C65.5777 26.7653 65.3013 26.7849 64.9855 26.8046C62.4592 27.0011 59.2227 27.5318 56.1043 28.2787C55.8872 28.318 55.7095 28.377 55.6898 28.377C55.6701 28.377 55.9069 28.1411 56.203 27.866C58.0385 26.1167 58.8675 24.9963 59.8539 23.0312C59.9921 22.697 60.1105 22.4612 60.1303 22.4415C60.1171 22.4415 60.1171 22.4415 60.1303 22.4415L60.1306 22.4411ZM46.73 23.7973C46.8089 23.817 47.5984 24.1904 48.1905 24.4656C48.7234 24.7408 49.5524 25.1732 49.5918 25.1929C49.5918 25.1929 49.3155 25.3501 48.9602 25.527C47.8352 26.097 46.8681 26.6277 45.8418 27.237C45.5458 27.4139 45.3089 27.5515 45.3089 27.5515C45.2892 27.5515 45.2892 27.5318 45.4471 27.237C45.98 26.2542 46.4142 25.0749 46.6708 23.9349C46.6905 23.8563 46.7102 23.7973 46.73 23.7973ZM45.9602 23.9546C45.98 23.9742 45.7826 24.7015 45.6444 25.1142C45.4076 25.8808 44.9734 26.8242 44.5786 27.5515C44.48 27.7284 44.3418 27.9643 44.2628 28.1018L44.105 28.3377L43.7694 28.0232C43.3747 27.6498 43.0589 27.4139 42.6444 27.1977C42.4865 27.1191 42.3484 27.0405 42.3484 27.0208C42.3484 26.9815 43.3747 26.038 44.1642 25.3698C44.7365 24.8784 45.9405 23.9349 45.9602 23.9546ZM50.7362 25.9005L51.0323 26.097C51.7033 26.5294 52.4928 27.1191 53.1046 27.6301C53.4402 27.9053 54.1112 28.4949 54.2494 28.6522L54.3283 28.7308L53.8349 28.8684C51.0717 29.6349 48.9602 30.3032 46.4734 31.2074C46.1971 31.3056 45.9602 31.3843 45.9405 31.3843C45.901 31.3843 45.8813 31.4236 46.4931 30.8536C48.0721 29.3991 49.4931 27.7874 50.5388 26.235L50.7362 25.9008V25.9005ZM49.473 26.2149C49.4928 26.2346 48.6638 27.3746 48.1704 28.0429C47.5783 28.8291 46.5322 30.1263 45.8217 30.9715C45.5256 31.3253 45.2691 31.6201 45.2493 31.6201C45.2296 31.6201 45.2296 31.5415 45.2296 31.4039C45.2296 30.6767 45.052 29.9101 44.7164 29.2418C44.5783 28.9667 44.5585 28.9077 44.5783 28.8684C44.6967 28.7701 46.4335 27.7677 47.5586 27.178C48.2888 26.7849 49.4533 26.1953 49.473 26.2149ZM41.8747 28.0625C41.8944 28.0625 42.0326 28.1411 42.1905 28.2198C42.5655 28.436 42.9207 28.6718 43.2168 28.9077C43.2365 28.9274 43.0786 29.0453 42.8615 29.2025C42.2892 29.6153 41.4207 30.2639 40.9273 30.657C40.3944 31.0698 40.3747 31.0894 40.4339 30.9912C40.8286 30.3818 41.026 30.0477 41.2431 29.6153C41.4207 29.2222 41.6181 28.7701 41.7563 28.3574C41.7957 28.2001 41.8549 28.0625 41.8747 28.0625ZM43.9076 29.6546C43.9471 29.6546 43.9668 29.6939 44.1444 29.9494C44.48 30.4605 44.7563 31.1484 44.8155 31.6987L44.8352 31.8167L44.0063 32.1312C42.526 32.7012 41.1642 33.2712 40.2566 33.6839C40 33.8019 39.5461 34.0181 39.25 34.1556C38.954 34.3129 38.7171 34.4112 38.7171 34.4112C38.7171 34.4112 38.8948 34.2736 39.1316 34.0967C40.9277 32.7994 42.4869 31.3646 43.651 29.9498C43.7694 29.7926 43.8878 29.655 43.9076 29.655V29.6546ZM42.9799 29.8708C42.9997 29.8905 42.3089 30.6767 41.8549 31.1484C40.6905 32.3277 39.5457 33.2515 38.125 34.1556C37.9474 34.2736 37.7895 34.3719 37.7698 34.3915C37.7303 34.4112 37.7895 34.3522 38.4013 33.6839C38.7961 33.2515 39.0921 32.8977 39.4474 32.4653C39.6842 32.1705 39.7237 32.1312 40.0395 31.8953C40.9079 31.227 42.9408 29.8512 42.9803 29.8708H42.9799Z" fill="url(#paint2_radial_6203_47336)"/>
<path d="M16.9283 54.6706C16.8099 54.6706 16.7112 54.6902 16.5928 54.6902C14.3428 54.8081 12.8431 55.7909 11.955 57.7171C11.205 59.4468 11.2839 61.7264 11.955 63.4561C12.7445 65.1661 14.0274 66.0702 16.1586 66.4044C16.6125 66.483 16.9086 66.7188 17.7967 67.7409L18.8823 68.9988H20.8362L19.5336 67.7016C18.8231 66.994 18.231 66.3651 18.231 66.3061C18.231 66.2471 18.5073 66.1292 18.8428 66.0309C19.9481 65.6968 20.856 64.8516 21.4876 63.5544C22.0007 62.5126 22.0797 62.1981 22.1586 60.9009C22.356 57.0488 20.3231 54.6509 16.9287 54.6706H16.9283ZM18.6454 64.7337C17.6981 65.1857 16.3165 65.284 15.4086 64.9499C14.4809 64.6157 13.573 63.6526 13.1586 62.5519C12.7046 61.353 12.7638 59.1516 13.2967 58.1692C14.1257 56.5968 15.2309 55.8695 16.8296 55.8695C19.1981 55.8695 20.5595 57.324 20.7372 60.0361C20.8753 62.3161 20.1056 64.0257 18.6451 64.7333L18.6454 64.7337ZM52.4135 57.953C51.5846 57.953 50.9727 58.2871 50.5385 58.9357L50.203 59.4468V58.1102H48.7819V66.1488H50.203V63.574C50.203 61.2154 50.2227 60.9402 50.5582 60.3112C51.0122 59.4268 51.8017 58.9943 52.5517 59.1909L53.0648 59.3285V57.933L52.4135 57.9526V57.953ZM44.0849 57.8744C43.8086 57.8744 43.5125 57.9137 43.2165 57.9726C41.3217 58.464 40.2559 60.2723 40.3151 62.1392C40.3151 63.6919 40.6112 64.4781 41.3809 65.3037C42.9204 66.5616 44.3217 66.6599 46.2161 65.9916C46.5319 65.854 46.8872 65.6968 46.8872 65.6968V64.4388L46.2161 64.7926C44.6964 65.4609 43.5319 65.4609 42.6046 64.6747C42.0125 64.085 41.7559 63.3578 41.6375 62.5519H47.3609V61.4709C47.3609 59.2499 46.0187 57.8547 44.0845 57.8744H44.0849ZM41.7757 61.4119C41.7757 61.4119 41.9928 60.0361 42.7625 59.4857C43.1375 59.2302 43.5717 59.0926 44.0059 59.0926C44.4402 59.0926 44.8546 59.2302 45.2099 59.5054C45.9204 60.0557 46.0586 61.4119 46.0586 61.4119H41.776H41.7757ZM7.55364 59.9574C6.01415 59.0337 5.32336 58.3654 5.42205 57.5792C5.65889 55.3974 8.36285 55.6923 9.86249 56.5178L9.88223 55.0436C9.88223 55.0436 9.05328 54.6899 7.86906 54.6702C6.05326 54.6505 4.86905 55.2402 4.31641 56.4588C3.5072 58.2474 4.21773 59.6037 6.823 61.0971C8.28354 61.9423 8.93486 62.6695 8.93486 63.4754C8.93486 65.1264 6.94142 65.6964 4.86941 64.6743C4.4352 64.4581 4.07993 64.2812 4.0602 64.2812C3.98125 64.753 4.02072 65.8733 4.02072 65.8733C4.02072 65.8733 4.6523 66.1288 5.59968 66.3254C7.96811 66.7971 10.0993 65.6964 10.3164 63.9078C10.4743 62.2174 9.86249 61.333 7.55327 59.9574H7.55364ZM64.9852 57.874C64.7089 57.874 64.4128 57.9133 64.1168 57.9723C62.222 58.4637 61.1562 60.2719 61.2155 62.1388C61.2155 63.6916 61.5115 64.4778 62.2813 65.2837C63.8207 66.5416 65.2221 66.6595 67.1362 65.9716C67.452 65.834 67.8072 65.6768 67.8072 65.6768V64.4188L67.1362 64.7726C65.5967 65.4409 64.4519 65.4409 63.5247 64.6547C62.9326 64.065 62.676 63.3574 62.5576 62.5319H68.2612V61.4509C68.2612 59.2298 66.9191 57.8347 64.9848 57.8736L64.9852 57.874ZM62.6563 61.3923C62.6563 61.3923 62.8734 60.0164 63.6431 59.4661C64.0181 59.1909 64.4523 59.073 64.8668 59.073C65.2813 59.073 65.7155 59.2106 66.0707 59.4857C66.7813 60.0361 66.9194 61.3923 66.9194 61.3923H62.6566H62.6563ZM36.6444 59.9771C35.1049 59.0533 34.4339 58.385 34.5128 57.5988C34.7497 55.4171 37.4536 55.7119 38.9533 56.5374L38.973 55.0633C38.973 55.0633 38.1441 54.7095 36.9599 54.6899C35.1441 54.6702 33.9598 55.2599 33.4072 56.4785C32.598 58.2671 33.3283 59.6233 35.9138 61.1167C37.3743 61.9619 38.0059 62.6892 38.0059 63.4754C38.0059 65.1264 36.0125 65.7161 33.9405 64.6743C33.526 64.4581 33.151 64.2812 33.1313 64.2812C33.0523 64.753 33.0918 65.8733 33.0918 65.8733C33.0918 65.8733 33.7234 66.1288 34.6707 66.3254C37.0392 66.7971 39.1704 65.6964 39.3875 63.9078C39.5651 62.2371 38.9533 61.3526 36.6441 59.9771H36.6444ZM73.3138 57.933C72.4849 57.933 71.8533 58.2671 71.4388 58.9157L71.1033 59.4268V58.0902H69.6822V66.1288H71.1033V63.5736C71.1033 61.215 71.123 60.9398 71.4586 60.3109C71.9125 59.4264 72.702 58.994 73.452 59.2102L73.9652 59.3478V57.9523L73.3138 57.9326V57.933ZM25.3556 59.9378V54.8081H23.9346V66.1485H29.954V64.8119H25.3754L25.3556 59.9378ZM58.4527 61.5299L57.2684 64.5764L56.1434 61.5102L54.9987 58.1099H53.5382C54.4855 60.783 55.5118 63.5147 56.5579 66.1485C57.0119 66.1681 57.4658 66.1485 57.9198 66.1485L59.5184 62.1588L61.1369 58.0906H59.7355C59.7158 58.1102 59.104 59.722 58.4527 61.5302V61.5299ZM28.6711 51.7223C28.9079 51.7223 29.0855 51.6437 29.2434 51.4864C29.4013 51.3292 29.4803 51.1523 29.4803 50.9164C29.4803 50.6805 29.4013 50.5037 29.2434 50.3464C29.0855 50.2088 28.9079 50.1302 28.6711 50.1302C28.4342 50.1302 28.2369 50.2088 28.0987 50.3661C27.9408 50.5233 27.8619 50.7199 27.8619 50.9361C27.8619 51.1719 27.9408 51.3685 28.0987 51.5061C28.2369 51.6437 28.4342 51.7223 28.6711 51.7223ZM28.1579 50.4054C28.2961 50.2678 28.454 50.2088 28.6711 50.2088C28.8684 50.2088 29.0461 50.2678 29.1842 50.4054C29.3224 50.543 29.4013 50.7002 29.4013 50.9164C29.4013 51.113 29.3224 51.2899 29.1842 51.4274C29.0461 51.565 28.8684 51.624 28.6711 51.624C28.4737 51.624 28.2961 51.565 28.1579 51.4274C28.0197 51.2899 27.9408 51.113 27.9408 50.9164C27.9605 50.7199 28.0197 50.543 28.1579 50.4054ZM28.4934 50.995H28.5921C28.6513 50.995 28.7303 51.054 28.7698 51.1719L28.8882 51.4274H29.0658L28.9276 51.1523C28.8684 51.0343 28.8092 50.9754 28.75 50.9557C28.829 50.9361 28.8882 50.9164 28.9474 50.8574C28.9869 50.8181 29.0066 50.7395 29.0066 50.6806C29.0066 50.6019 28.9869 50.543 28.9276 50.484C28.8684 50.425 28.7698 50.4054 28.6316 50.4054H28.3355V51.4274H28.4737L28.4934 50.995ZM28.4934 50.5233H28.6316C28.7303 50.5233 28.7895 50.543 28.829 50.5626C28.8684 50.5823 28.8684 50.6216 28.8684 50.7002C28.8684 50.8181 28.7895 50.8771 28.6513 50.8771H28.4934V50.5233ZM4.86941 50.8968C4.86941 50.543 4.84967 50.2678 4.84967 50.1106C4.88915 50.2874 4.92862 50.425 4.9681 50.5233L6.34968 53.5699H6.58652L7.96811 50.484C8.00759 50.4054 8.04706 50.2678 8.08653 50.0909H8.10627C8.08653 50.4054 8.0668 50.6609 8.0668 50.8771V53.5699H8.54048V49.5606H7.94837L6.66547 52.3713C6.626 52.4892 6.54705 52.6464 6.4681 52.8626H6.44837C6.42863 52.7447 6.34968 52.5875 6.27073 52.3909L5.02731 49.5802H4.39609V53.5895H4.85004L4.86978 50.8968H4.86941ZM9.5467 50.9164H9.96118V53.4126H9.5467V50.9164ZM9.74407 49.9926C9.82302 49.9926 9.90197 49.973 9.96118 49.914C10.0204 49.855 10.0599 49.7961 10.0599 49.6978C10.0599 49.6192 10.0401 49.5405 9.96118 49.4816C9.90197 49.4226 9.82302 49.403 9.74407 49.403C9.66512 49.403 9.58617 49.4226 9.52696 49.4816C9.46775 49.5405 9.42828 49.6192 9.42828 49.6978C9.42828 49.7961 9.44802 49.855 9.52696 49.914C9.58617 49.973 9.66512 49.9926 9.74407 49.9926ZM12.8428 53.4519V53.0195C12.6257 53.1768 12.3888 53.275 12.1322 53.275C11.8362 53.275 11.5993 53.1768 11.4217 52.9802C11.2441 52.7837 11.1454 52.5281 11.1454 52.194C11.1454 51.8402 11.2441 51.565 11.4217 51.3685C11.5993 51.1719 11.8559 51.0737 12.1322 51.0737C12.3691 51.0737 12.6059 51.1523 12.823 51.2899V50.7985C12.6257 50.7002 12.4086 50.6609 12.152 50.6609C11.698 50.6609 11.323 50.7985 11.0664 51.0933C10.8099 51.3685 10.6717 51.7616 10.6717 52.2333C10.6717 52.6461 10.7901 52.9999 11.0467 53.2554C11.3033 53.5306 11.6388 53.6681 12.0336 53.6681C12.3691 53.6485 12.6257 53.5895 12.8428 53.4519ZM14.0072 52.135C14.0072 51.8009 14.0862 51.5454 14.2244 51.3488C14.3625 51.1916 14.5007 51.0933 14.698 51.0933C14.8559 51.0933 14.9744 51.113 15.0533 51.1916V50.7199C14.9941 50.7002 14.8954 50.6806 14.777 50.6806C14.6191 50.6806 14.4612 50.7395 14.3428 50.8378C14.2046 50.9557 14.0862 51.113 14.027 51.3292H14.0072V50.7395H13.5533V53.6092H14.0072V52.135ZM16.652 53.6485C17.0862 53.6485 17.4415 53.5109 17.6981 53.2357C17.9546 52.9606 18.0928 52.5871 18.0928 52.135C18.0928 51.683 17.9744 51.3095 17.7375 51.0343C17.5007 50.7592 17.1652 50.6412 16.7309 50.6412C16.2967 50.6412 15.9415 50.7788 15.6849 51.0147C15.4086 51.2899 15.2704 51.683 15.2704 52.1743C15.2704 52.6068 15.3888 52.9606 15.6454 53.2357C15.8823 53.5109 16.2178 53.6485 16.652 53.6485ZM16.0007 51.3292C16.1783 51.1523 16.4152 51.054 16.6915 51.054C16.9875 51.054 17.2046 51.1523 17.3823 51.3292C17.5402 51.5257 17.6388 51.8009 17.6388 52.1547C17.6388 52.5085 17.5599 52.7837 17.402 52.9606C17.2441 53.1571 17.0073 53.2554 16.7112 53.2554C16.4152 53.2554 16.1783 53.1571 16.0007 52.9606C15.823 52.764 15.7441 52.5085 15.7441 52.1547C15.7244 51.8009 15.8033 51.5257 16.0007 51.3292ZM20.0859 53.4126C20.2635 53.2554 20.3622 53.0588 20.3622 52.823C20.3622 52.6068 20.2832 52.4299 20.1451 52.2923C20.0267 52.1743 19.8688 52.0761 19.6122 51.9778C19.3951 51.8795 19.2569 51.8009 19.178 51.7419C19.099 51.6633 19.0595 51.5847 19.0595 51.4471C19.0595 51.3292 19.099 51.2309 19.1977 51.1719C19.2964 51.0933 19.4148 51.054 19.5727 51.054C19.8293 51.054 20.0267 51.113 20.224 51.2506V50.7985C20.0464 50.7002 19.8293 50.6609 19.6122 50.6609C19.3161 50.6609 19.0595 50.7395 18.8819 50.8968C18.6845 51.054 18.6056 51.2506 18.6056 51.4864C18.6056 51.7026 18.6648 51.8795 18.7832 51.9975C18.8819 52.1154 19.0595 52.2137 19.2964 52.3119C19.5332 52.4102 19.6911 52.5085 19.7701 52.5871C19.849 52.6657 19.8885 52.7444 19.8885 52.8623C19.8885 53.1375 19.7109 53.275 19.3359 53.275C19.0595 53.275 18.803 53.1768 18.5859 52.9999V53.4912C18.7832 53.6092 19.0201 53.6681 19.2964 53.6681C19.6319 53.6485 19.9082 53.5699 20.0859 53.4126ZM22.2767 50.6609C21.8424 50.6609 21.4872 50.7985 21.2306 51.0343C20.9543 51.3095 20.8161 51.7026 20.8161 52.194C20.8161 52.6264 20.9345 52.9802 21.1911 53.2554C21.4477 53.5306 21.7832 53.6681 22.2175 53.6681C22.6517 53.6681 23.0069 53.5306 23.2635 53.2554C23.5201 52.9802 23.6582 52.6068 23.6582 52.1547C23.6582 51.7026 23.5398 51.3292 23.303 51.054C23.0464 50.7788 22.7109 50.6609 22.2767 50.6609ZM23.1846 52.1547C23.1846 52.5085 23.1056 52.7837 22.9477 52.9606C22.7898 53.1571 22.553 53.2554 22.2569 53.2554C21.9609 53.2554 21.724 53.1571 21.5464 52.9606C21.3688 52.764 21.2898 52.5085 21.2898 52.1547C21.2898 51.7812 21.3885 51.5061 21.5661 51.3095C21.7438 51.1326 21.9806 51.0343 22.2569 51.0343C22.5332 51.0343 22.7701 51.1326 22.928 51.3095C23.1056 51.5061 23.1846 51.7812 23.1846 52.1547ZM24.428 53.5895H24.8819V51.113H25.553V50.7199H24.8819V50.2874C24.8819 49.8943 25.0398 49.6781 25.3556 49.6781C25.474 49.6781 25.5727 49.6978 25.6517 49.7568V49.344C25.5727 49.3047 25.4543 49.3047 25.3162 49.3047C25.0596 49.3047 24.8622 49.3833 24.7043 49.5405C24.5069 49.7174 24.4083 49.9533 24.4083 50.2874V50.7592H23.9148V51.1523H24.4083L24.428 53.5895ZM26.3227 52.8033C26.3227 53.3537 26.5793 53.6485 27.0727 53.6485C27.2504 53.6485 27.3885 53.6288 27.507 53.5502V53.1571C27.428 53.2161 27.3293 53.2554 27.2109 53.2554C27.053 53.2554 26.9543 53.2161 26.8754 53.1375C26.8162 53.0588 26.7767 52.9212 26.7767 52.7247V51.113H27.507V50.7199H26.7767V49.8747C26.6188 49.9337 26.4609 49.973 26.3227 50.0123V50.7002H25.8293V51.0933H26.3227V52.8033ZM75.7612 58.0902C75.6033 57.9526 75.4257 57.874 75.1888 57.874C74.952 57.874 74.7546 57.9526 74.6165 58.1099C74.4586 58.2671 74.3796 58.4637 74.3796 58.6799C74.3796 58.9157 74.4586 59.0926 74.6165 59.2499C74.7744 59.3875 74.9717 59.4661 75.1888 59.4661C75.4257 59.4661 75.6033 59.3874 75.7612 59.2302C75.9191 59.073 75.9981 58.8961 75.9981 58.6602C76.0178 58.4243 75.9191 58.2278 75.7612 58.0902ZM75.702 59.1712C75.5639 59.3088 75.406 59.3678 75.1888 59.3678C74.9915 59.3678 74.8138 59.3088 74.6757 59.1712C74.5375 59.0337 74.4586 58.8568 74.4586 58.6602C74.4586 58.4637 74.5178 58.2868 74.6559 58.1492C74.7941 58.0116 74.952 57.9526 75.1691 57.9526C75.3665 57.9526 75.5441 58.0116 75.6823 58.1492C75.8204 58.2868 75.8994 58.4637 75.8994 58.6602C75.8994 58.8568 75.8402 59.0337 75.702 59.1712ZM75.2875 58.6995C75.3665 58.6799 75.4257 58.6405 75.4849 58.6012C75.5244 58.5619 75.5441 58.4833 75.5441 58.4243C75.5441 58.3457 75.5244 58.2868 75.4652 58.2278C75.406 58.1688 75.3073 58.1492 75.1691 58.1492H74.8731V59.1712H75.0112V58.7388H75.1099C75.1691 58.7388 75.2283 58.7978 75.2875 58.9157L75.406 59.1712H75.5836L75.4454 58.8961C75.3862 58.7781 75.327 58.7192 75.2875 58.6995ZM75.1888 58.6012H75.031V58.2671H75.1691C75.2678 58.2671 75.327 58.2868 75.3665 58.3064C75.406 58.3261 75.406 58.3654 75.406 58.444C75.3862 58.5619 75.327 58.6012 75.1888 58.6012ZM49.4731 50.6019H49.6112V49.5799H49.9468V49.4423H49.1375V49.5799H49.4731V50.6019ZM50.2428 49.8354V49.5995C50.2428 49.6585 50.2626 49.6978 50.2823 49.7174L50.677 50.6019H50.7362L51.131 49.7174C51.1507 49.6978 51.1507 49.6585 51.1705 49.5995V50.6019H51.3086V49.4423H51.1507L50.7954 50.2481C50.7954 50.2678 50.756 50.3268 50.7362 50.4054H50.7165C50.7165 50.3661 50.6968 50.3268 50.6573 50.2678L50.302 49.4619H50.1244V50.6216H50.2626L50.2428 49.8354Z" fill="#231F1F"/>
</g>
<defs>
<linearGradient id="paint0_linear_6203_47336" x1="36.1174" y1="45.6937" x2="39.0661" y2="43.9439" gradientUnits="userSpaceOnUse">
<stop stop-color="#909CA9"/>
<stop offset="1" stop-color="#EDEDEE"/>
</linearGradient>
<linearGradient id="paint1_linear_6203_47336" x1="35.7636" y1="14.6621" x2="38.1413" y2="14.6621" gradientUnits="userSpaceOnUse">
<stop stop-color="#939FAB"/>
<stop offset="1" stop-color="#DCDEE1"/>
</linearGradient>
<radialGradient id="paint2_radial_6203_47336" cx="0" cy="0" r="1" gradientUnits="userSpaceOnUse" gradientTransform="translate(-8.28266 17.7042) rotate(-171.495) scale(3.06536 6.10792)">
<stop stop-color="#EE352C"/>
<stop offset="1" stop-color="#A91D22"/>
</radialGradient>
<clipPath id="clip0_6203_47336">
<rect width="72" height="58" fill="white" transform="translate(4 11)"/>
</clipPath>
</defs>
</svg>
