<svg width="34" height="34" viewBox="0 0 34 34" fill="none" xmlns="http://www.w3.org/2000/svg">
<path d="M17 1C8.17375 1 1 8.17375 1 17C1 25.8262 8.17375 33 17 33C25.8262 33 33 25.8262 33 17C33 8.17375 25.8165 1 17 1ZM17.5444 31.8919V28.2953C17.5444 27.9939 17.3013 27.7509 17 27.7509C16.6987 27.7509 16.4557 27.9939 16.4557 28.2953V31.8919C8.65978 31.61 2.39004 25.3305 2.10814 17.5444V16.4654C2.39004 8.6695 8.6695 2.39004 16.4557 2.10814V7.35723C16.4557 7.65857 16.6987 7.90158 17 7.90158C17.3013 7.90158 17.5444 7.65857 17.5444 7.35723V2.10814C25.3402 2.39004 31.61 8.6695 31.8919 16.4557V17.5346C31.61 25.3305 25.3305 31.6002 17.5444 31.8821V31.8919Z" fill="#1A1A1A"/>
<path d="M28.1524 18.7982C27.6858 18.4288 27.1317 18.1566 26.5096 17.9817L24.8377 17.5151V17.2623C25.9264 16.8444 26.704 15.7945 26.704 14.5698V12.2952C26.704 12.1202 26.6846 11.9452 26.6554 11.78C26.6554 11.7702 26.6554 11.7605 26.6554 11.7411C26.4027 10.4094 25.2265 9.39844 23.817 9.39844C22.2229 9.39844 20.9203 10.701 20.9203 12.2952V14.5698C20.9203 15.7751 21.6591 16.8055 22.7089 17.2429V17.5054L20.9787 17.9914C20.3565 18.1664 19.8025 18.4385 19.3359 18.8079C19.3359 18.8079 19.3164 18.8176 19.3067 18.8274L18.7429 18.6718L18.1986 18.5163V18.1664C19.4136 17.7095 20.2885 16.543 20.2885 15.1724V12.6159C20.2885 12.4215 20.2691 12.2271 20.2302 12.0424C20.2302 12.0327 20.2302 12.0133 20.2302 12.0035C19.9483 10.526 18.6457 9.40816 17.0807 9.40816C15.3116 9.40816 13.8729 10.8468 13.8729 12.6159V15.1724C13.8729 16.5139 14.7089 17.6706 15.8851 18.1469V18.5066L15.2727 18.6815L14.7089 18.8371C14.7089 18.8371 14.6895 18.8274 14.6895 18.8176C14.2229 18.4483 13.6688 18.1761 13.0467 18.0011L11.3748 17.5345V17.2818C12.4635 16.8638 13.2411 15.814 13.2411 14.5892V12.3146C13.2411 12.1396 13.2217 11.9744 13.1925 11.7994C13.1925 11.7897 13.1925 11.78 13.1925 11.7605C12.9398 10.4288 11.7636 9.41788 10.3541 9.41788C8.75994 9.41788 7.45739 10.7204 7.45739 12.3146V14.5892C7.45739 15.7945 8.19615 16.8249 9.24597 17.2623V17.5248L7.51571 18.0108C6.8936 18.1858 6.33953 18.458 5.87294 18.8274C5.29943 19.2842 5.00781 19.7508 5.00781 20.2271V22.5795C5.00781 23.7265 5.94098 24.6597 7.08801 24.6597H11.1998C11.4234 25.6803 12.3371 26.458 13.4355 26.458H20.6287C21.7174 26.458 22.6311 25.6901 22.8644 24.6597H26.9762C28.1232 24.6597 29.0564 23.7265 29.0564 22.5795V20.2271C29.0564 19.7508 28.7648 19.2842 28.1913 18.8274L28.1524 18.7982ZM23.8073 10.0983C24.7794 10.0983 25.6056 10.7399 25.8875 11.6244C24.9932 12.0813 24.5461 12.0035 24.2545 11.8675C24.0698 11.78 23.9531 11.6633 23.817 11.5175C23.6324 11.3231 23.4282 11.1093 23.0686 11.0218C22.6797 10.9343 22.2715 11.0509 21.8438 11.3231C22.2034 10.5941 22.9422 10.0886 23.8073 10.0886V10.0983ZM21.6105 14.5698V12.4312C22.1354 11.8966 22.5825 11.6439 22.913 11.7119C23.0588 11.7411 23.1561 11.8383 23.3116 12.0035C23.4671 12.1688 23.6518 12.3632 23.9629 12.509C24.2059 12.6257 24.4683 12.6743 24.7405 12.6743C25.1196 12.6743 25.5376 12.5673 26.0042 12.3535V14.5698C26.0042 15.7848 25.0224 16.7666 23.8073 16.7666C22.5923 16.7666 21.6105 15.7848 21.6105 14.5698ZM22.602 18.2538L23.1366 18.0983C23.1366 18.0983 23.1463 18.0983 23.1561 18.0886C23.1755 18.0886 23.1949 18.0692 23.2144 18.0594C23.2338 18.0497 23.2533 18.04 23.2727 18.0206C23.2921 18.0011 23.3019 17.9914 23.3116 17.9719C23.3213 17.9525 23.3407 17.9331 23.3505 17.9136C23.3505 17.8942 23.3602 17.8747 23.3699 17.8553C23.3699 17.8359 23.3796 17.8067 23.3796 17.7873C23.3796 17.7873 23.3796 17.7775 23.3796 17.7678V17.4276C23.5157 17.447 23.6518 17.4665 23.7879 17.4665C23.9045 17.4665 24.0115 17.447 24.1184 17.4373V17.7873C24.1184 17.7873 24.1184 17.797 24.1184 17.8067C24.1184 17.8359 24.1184 17.8553 24.1281 17.8747C24.1281 17.8942 24.1378 17.9136 24.1475 17.9331C24.1573 17.9525 24.167 17.9719 24.1864 17.9914C24.1961 18.0108 24.2156 18.0303 24.2253 18.04C24.2448 18.0497 24.2642 18.0692 24.2739 18.0789C24.2934 18.0886 24.3128 18.108 24.342 18.108C24.342 18.108 24.3517 18.108 24.3614 18.1178L24.8474 18.2538C24.8474 18.2538 24.8474 18.3316 24.8474 18.3705C24.8474 19.2842 24.3225 20.0619 23.7004 20.0619C23.0783 20.0619 22.5534 19.2842 22.5534 18.3705C22.5534 18.3316 22.5534 18.2927 22.5534 18.2538H22.602ZM17.071 10.0983C18.1986 10.0983 19.1415 10.8565 19.4622 11.8772C18.4222 12.4118 17.8972 12.3243 17.557 12.1688C17.3432 12.0716 17.2071 11.9258 17.0516 11.7702C16.8474 11.5564 16.6239 11.3231 16.2253 11.2259C15.7684 11.119 15.2727 11.2745 14.7478 11.6536C15.1269 10.7399 16.0212 10.0983 17.071 10.0983ZM14.5631 15.1627V12.7423C15.1658 12.1202 15.6907 11.8188 16.0795 11.9161C16.2545 11.9549 16.3711 12.0619 16.5461 12.2563C16.7113 12.4312 16.9252 12.6548 17.2654 12.8103C17.5376 12.9367 17.8195 12.995 18.1305 12.995C18.568 12.995 19.0443 12.8687 19.5886 12.6062V15.1627C19.5886 16.543 18.461 17.6706 17.0807 17.6706C15.7004 17.6706 14.5728 16.543 14.5728 15.1627H14.5631ZM10.3249 10.0983C11.297 10.0983 12.1232 10.7399 12.4051 11.6244C11.5108 12.0813 11.0637 12.0035 10.7721 11.8675C10.5874 11.78 10.4708 11.6633 10.3347 11.5175C10.15 11.3231 9.94584 11.1093 9.58618 11.0218C9.19736 10.9343 8.7891 11.0509 8.3614 11.3231C8.72106 10.5941 9.45982 10.0886 10.3249 10.0886V10.0983ZM8.1281 14.5698V12.4312C8.65301 11.8966 9.10016 11.6439 9.43066 11.7119C9.57646 11.7411 9.67367 11.8383 9.8292 12.0035C9.98473 12.1688 10.1694 12.3632 10.4805 12.509C10.7235 12.6257 10.9859 12.6743 11.2581 12.6743C11.6372 12.6743 12.0552 12.5673 12.5218 12.3535V14.5698C12.5218 15.7848 11.54 16.7666 10.3249 16.7666C9.10988 16.7666 8.1281 15.7848 8.1281 14.5698ZM9.1196 18.2538L9.65423 18.0983C9.65423 18.0983 9.66395 18.0983 9.67367 18.0886C9.69311 18.0886 9.71255 18.0692 9.73199 18.0594C9.75143 18.0497 9.77087 18.04 9.79032 18.0206C9.80976 18.0011 9.81948 17.9914 9.8292 17.9719C9.83892 17.9525 9.85836 17.9331 9.86808 17.9136C9.86808 17.8942 9.8778 17.8747 9.88752 17.8553C9.88752 17.8359 9.89724 17.8067 9.89724 17.7873C9.89724 17.7873 9.89724 17.7775 9.89724 17.7678V17.4276C10.0333 17.447 10.1694 17.4665 10.3055 17.4665C10.4222 17.4665 10.5291 17.447 10.636 17.4373V17.7873C10.636 17.7873 10.636 17.797 10.636 17.8067C10.636 17.8359 10.636 17.8553 10.6457 17.8747C10.6457 17.8942 10.6554 17.9136 10.6652 17.9331C10.6749 17.9525 10.6846 17.9719 10.704 17.9914C10.7138 18.0108 10.7332 18.0303 10.7429 18.04C10.7624 18.0497 10.7818 18.0692 10.7915 18.0789C10.811 18.0886 10.8304 18.108 10.8596 18.108C10.8596 18.108 10.8693 18.108 10.879 18.1178L11.365 18.2538C11.365 18.2538 11.365 18.3316 11.365 18.3705C11.365 19.2842 10.8401 20.0619 10.218 20.0619C9.5959 20.0619 9.071 19.2842 9.071 18.3705C9.071 18.3316 9.071 18.2927 9.071 18.2538H9.1196ZM11.1026 21.4908V23.9306H7.04912C6.29092 23.9306 5.66881 23.3085 5.66881 22.5503V20.198C5.66881 19.9549 5.88266 19.6536 6.27148 19.3523C6.6603 19.0412 7.13661 18.8079 7.67124 18.6621L8.41972 18.4483C8.44888 19.7314 9.26541 20.7617 10.2569 20.7617C11.2484 20.7617 12.0649 19.7314 12.0941 18.4483L12.8426 18.6621C13.2022 18.7593 13.5133 18.9148 13.8049 19.0801C13.1439 19.2745 12.5607 19.5661 12.0649 19.9549C11.4331 20.4507 11.1026 20.9756 11.1026 21.4908ZM28.3177 22.5503C28.3177 23.3085 27.6955 23.9306 26.9373 23.9306H22.8839V21.4908C22.8839 20.9756 22.5631 20.4507 21.9215 19.9549C21.4258 19.5661 20.8426 19.2745 20.1816 19.0801C20.4732 18.9051 20.794 18.7593 21.1439 18.6621L21.8924 18.4483C21.9215 19.7314 22.7381 20.7617 23.7296 20.7617C24.7211 20.7617 25.5376 19.7314 25.5667 18.4483L26.3152 18.6621C26.8499 18.8079 27.3262 19.0412 27.715 19.3523C28.1038 19.6536 28.3177 19.9549 28.3177 20.198V22.5503Z" fill="#1A1A1A"/>
</svg>
