<svg width="34" height="34" viewBox="0 0 34 34" fill="none" xmlns="http://www.w3.org/2000/svg">
<path d="M28.9864 15.6564C28.9864 15.5592 28.9864 15.462 28.9864 15.3649C28.9864 14.4222 28.8795 13.4893 28.656 12.5758L31.1632 10.2533L31.0369 9.96175C30.7162 9.20376 30.3178 8.45548 29.8513 7.73636L29.6861 7.47398L26.4889 8.08621C25.8184 7.22132 25.0215 6.45361 24.1372 5.80252L24.5259 2.70253L24.2538 2.55676C23.5056 2.15833 22.7087 1.8182 21.8827 1.5461L21.5814 1.44893L19.6767 3.79092C18.5398 3.53826 17.3639 3.46052 16.1978 3.54798L14.5554 0.992188L14.2542 1.05049C13.4282 1.20598 12.6119 1.43921 11.8344 1.73074L11.5332 1.84736L11.5818 4.88904C10.5128 5.45267 9.55076 6.17179 8.69559 7.03668L5.62475 6.08433L5.4304 6.31756C4.93479 6.92007 4.48777 7.57116 4.07962 8.26113L3.91441 8.54294L6.08149 11.0501C5.64419 12.1677 5.38181 13.3338 5.29435 14.5388L2 15.9188V16.2298C2.01944 16.9683 2.08746 17.6971 2.21379 18.4163L2.2721 18.737L5.94544 19.32C6.32444 20.3987 6.86864 21.4191 7.53917 22.352L5.74137 25.8601L5.95516 26.0934C6.42161 26.5987 6.92694 27.0846 7.46142 27.5316L8.04449 26.8319C7.62663 26.4821 7.21848 26.1031 6.8492 25.7144L8.61785 22.2645L8.44292 22.0313C7.68493 21.0498 7.11158 19.9517 6.72287 18.7758L6.63541 18.5134L3.06896 17.9401C3.00094 17.4736 2.96207 16.9975 2.94263 16.5213L6.18839 15.1608V14.8693C6.25641 13.5768 6.53823 12.3232 7.03384 11.1376L7.14073 10.8752L5.03196 8.44577C5.31378 7.98903 5.61503 7.55173 5.93572 7.14358L8.95797 8.07649L9.15233 7.87241C10.0464 6.92978 11.0765 6.15236 12.2329 5.57901L12.4855 5.45267L12.437 2.48873C12.9812 2.3041 13.5351 2.13889 14.1084 2.02228L15.7119 4.51976L15.9937 4.49061C17.2376 4.36428 18.5009 4.45174 19.7253 4.75299L20.0071 4.82101L21.873 2.52761C22.4366 2.73168 22.9905 2.96491 23.525 3.23701L23.146 6.24954L23.3695 6.40502C24.351 7.08527 25.2062 7.921 25.9156 8.87335L26.0905 9.10658L29.2391 8.50407C29.5501 9.0094 29.8222 9.52445 30.0554 10.0395L27.6162 12.294L27.6842 12.5564C27.9272 13.4796 28.0535 14.4222 28.0535 15.3746C28.0535 15.5495 28.0535 15.7244 28.0438 15.8993V16.1812L31.1729 17.9304C31.0952 18.4649 30.9883 18.9896 30.8522 19.5047L27.1692 19.6796L27.0526 19.9322C26.5958 20.9332 25.9836 21.8564 25.2548 22.6727L25.0701 22.8768L26.4792 26.5695C26.1488 26.8611 25.799 27.1429 25.4394 27.3955L25.9739 28.1341C26.4404 27.794 26.8874 27.4247 27.315 27.036L27.5385 26.8222L26.1002 23.0614C26.7513 22.2937 27.3052 21.4579 27.7523 20.5542L31.5422 20.3695L31.6297 20.0586C31.8435 19.3006 32.0087 18.5134 32.1059 17.7263L32.1447 17.425L28.9573 15.6467L28.9864 15.6564Z" fill="#1A1A1A"/>
<path d="M17.0965 7.625C12.8012 7.625 9.3125 11.1137 9.3125 15.409C9.3125 17.2457 9.9636 19.024 11.1492 20.4331L11.8489 19.8403C10.809 18.6062 10.226 17.0319 10.226 15.409C10.226 11.619 13.3065 8.53848 17.0965 8.53848C20.8864 8.53848 23.967 11.619 23.967 15.409C23.967 16.993 23.4422 18.4895 22.4413 19.7237L23.1507 20.2971C24.2585 18.9171 24.8708 17.1873 24.8708 15.409C24.8708 11.1137 21.3821 7.625 17.0868 7.625H17.0965Z" fill="#1A1A1A"/>
<path d="M23.5127 24.5613C22.8422 24.0269 22.0356 23.6381 21.1319 23.3758L19.3535 22.8801L18.6441 22.6858V22.2291C20.2281 21.6363 21.3748 20.1203 21.3748 18.3225V14.9893C21.3748 14.7366 21.3457 14.4839 21.2971 14.2507C21.2971 14.2313 21.2971 14.2216 21.2971 14.2021C20.9278 12.278 19.2272 10.8203 17.1961 10.8203C14.893 10.8203 13.0175 12.6959 13.0175 14.999V18.3322C13.0175 20.0814 14.1059 21.578 15.6316 22.1999V22.6664L13.0563 23.3855C12.1526 23.6381 11.346 24.0366 10.6755 24.571C9.84946 25.2221 9.42188 25.8927 9.42188 26.5729V30.013C9.42188 31.6553 10.7629 32.9964 12.4053 32.9964H21.783C23.4253 32.9964 24.7663 31.6553 24.7663 30.013V26.5729C24.7663 25.8927 24.3485 25.2221 23.5127 24.571V24.5613ZM17.1864 11.7241C18.6538 11.7241 19.888 12.7056 20.2961 14.0466C18.9454 14.7463 18.2554 14.6297 17.8084 14.4256C17.5265 14.2993 17.3516 14.1049 17.1573 13.9009C16.8949 13.6288 16.6034 13.3178 16.0883 13.2012C15.4858 13.0651 14.8541 13.2401 14.1642 13.7357C14.6598 12.5598 15.8259 11.7338 17.1767 11.7338L17.1864 11.7241ZM13.9212 18.3225V15.1642C14.7084 14.3479 15.3886 13.9689 15.894 14.0855C16.1272 14.1341 16.2729 14.2799 16.5062 14.5325C16.7297 14.7658 17.0018 15.0573 17.4391 15.2516C17.7889 15.4168 18.1582 15.4946 18.5566 15.4946C19.1203 15.4946 19.7519 15.3197 20.4516 14.9893V18.3225C20.4516 20.1203 18.9842 21.5877 17.1864 21.5877C15.3886 21.5877 13.9212 20.1203 13.9212 18.3225Z" fill="#1A1A1A"/>
</svg>
