<svg width="34" height="34" viewBox="0 0 34 34" fill="none" xmlns="http://www.w3.org/2000/svg">
<path d="M15.4342 1H5.50426C5.22304 1 5 1.22304 5 1.50426V32.5257C5 32.807 5.22304 33.03 5.50426 33.03H15.4342C15.7155 33.03 15.9385 32.807 15.9385 32.5257V1.50426C15.9385 1.22304 15.7155 1 15.4342 1ZM14.93 4.8789H11.3032C11.022 4.8789 10.799 5.10193 10.799 5.38315C10.799 5.66437 11.022 5.88741 11.3032 5.88741H14.93V8.7578H11.3032C11.022 8.7578 10.799 8.98083 10.799 9.26205C10.799 9.54327 11.022 9.76631 11.3032 9.76631H14.93V12.6367H11.3032C11.022 12.6367 10.799 12.8597 10.799 13.141C10.799 13.4222 11.022 13.6452 11.3032 13.6452H14.93V16.5156H11.3032C11.022 16.5156 10.799 16.7386 10.799 17.0198C10.799 17.3011 11.022 17.5241 11.3032 17.5241H14.93V20.3945H11.3032C11.022 20.3945 10.799 20.6175 10.799 20.8987C10.799 21.18 11.022 21.403 11.3032 21.403H14.93V24.2734H11.3032C11.022 24.2734 10.799 24.4964 10.799 24.7776C10.799 25.0589 11.022 25.2819 11.3032 25.2819H14.93V28.1523H11.3032C11.022 28.1523 10.799 28.3753 10.799 28.6565C10.799 28.9378 11.022 29.1608 11.3032 29.1608H14.93V32.0312H6.00851V2.00851H14.93V4.8789Z" fill="#1A1A1A"/>
<path d="M28.0809 5.16793C28.0809 5.16793 28.0809 5.11944 28.0809 5.10005C28.0809 5.08066 28.0809 5.06126 28.0615 5.05156C28.0615 5.02247 28.0421 5.00308 28.0324 4.98368C28.0324 4.97399 28.0324 4.95459 28.013 4.94489C28.013 4.94489 28.0033 4.9352 27.9936 4.9255C27.9936 4.9255 27.9936 4.90611 27.9839 4.90611L24.9196 1.18236C24.7256 0.949629 24.3377 0.949629 24.1438 1.18236L21.0892 4.89641C21.0892 4.89641 21.0892 4.9158 21.0795 4.9158C21.0795 4.9158 21.0698 4.9255 21.0601 4.9352C21.0601 4.94489 21.0601 4.96429 21.0407 4.97399C21.031 4.99338 21.0213 5.01277 21.0116 5.04187C21.0116 5.06126 21.0019 5.08066 20.9922 5.09035C20.9922 5.10975 20.9922 5.13884 20.9922 5.15823C20.9922 5.17763 20.9922 5.18733 20.9922 5.20672V32.5142C20.9922 32.7954 21.2152 33.0184 21.4964 33.0184H27.6057C27.8869 33.0184 28.11 32.7954 28.11 32.5142V5.21642C28.11 5.21642 28.11 5.18733 28.11 5.16793H28.0809ZM24.5317 2.29755L26.8396 5.10005L26.0541 5.614L24.8032 4.78974C24.6384 4.68307 24.4153 4.68307 24.2505 4.78974L22.9995 5.614L22.214 5.10005L24.522 2.29755H24.5317ZM27.0821 32.0196H21.9813V29.8765H27.0821V32.0196ZM27.0821 28.868H21.9813V27.9177H27.0821V28.868Z" fill="#1A1A1A"/>
</svg>
