<svg width="34" height="34" viewBox="0 0 34 34" fill="none" xmlns="http://www.w3.org/2000/svg">
<path d="M30.9 1H3.24032C2.00863 1 1 2.00863 1 3.24032V24.8288C1 26.0605 2.00863 27.0691 3.24032 27.0691H13.9279V29.0767H11.2608C9.85459 29.0767 8.71018 30.2211 8.71018 31.6274C8.71018 31.928 8.95264 32.1608 9.24359 32.1608C9.53454 32.1608 9.777 31.9183 9.777 31.6274C9.777 30.8127 10.4365 30.1435 11.2608 30.1435H22.8892C23.7038 30.1435 24.373 30.8127 24.373 31.6274C24.373 31.928 24.6155 32.1608 24.9064 32.1608C25.1974 32.1608 25.4398 31.9183 25.4398 31.6274C25.4398 30.2211 24.2954 29.0767 22.8892 29.0767H20.2221V27.0691H30.9097C32.1414 27.0691 33.15 26.0605 33.15 24.8288V3.24032C33.15 2.00863 32.1414 1 30.9097 1H30.9ZM19.1456 29.0767H14.9947V27.0691H19.1456V29.0767ZM32.0735 24.8288C32.0735 25.4689 31.5498 25.9926 30.9097 25.9926H3.24032C2.60023 25.9926 2.07652 25.4689 2.07652 24.8288V3.24032C2.07652 2.60023 2.60023 2.07652 3.24032 2.07652H30.9C31.5401 2.07652 32.0638 2.60023 32.0638 3.24032V24.8288H32.0735Z" fill="#231F20"/>
<path d="M17.0655 3.21094C11.0914 3.21094 6.24219 8.06011 6.24219 14.0343C6.24219 20.0085 11.0914 24.8576 17.0655 24.8576C23.0397 24.8576 27.8889 20.0085 27.8889 14.0343C27.8889 8.06011 23.0494 3.21094 17.0655 3.21094ZM13.4287 12.531L10.8877 13.9761L13.4287 15.4018V17.2347L8.63768 14.1798V13.8112L13.4287 10.6981V12.531ZM16.2121 18.5731H14.5052L17.8996 9.17542H19.6065L16.2121 18.5731ZM25.4934 14.1895L20.6927 17.2444V15.4115L23.2337 13.9858L20.6927 12.5407V10.7078L25.4934 13.8209V14.1895Z" fill="#231F20"/>
</svg>
