<svg width="80" height="80" viewBox="0 0 80 80" fill="none" xmlns="http://www.w3.org/2000/svg">
<path d="M40 77C60.4345 77 77 60.4345 77 40C77 19.5655 60.4345 3 40 3C19.5655 3 3 19.5655 3 40C3 60.4345 19.5655 77 40 77Z" fill="#1976D2"/>
<path d="M51.2867 35.242C51.2867 35.242 48.0862 45.269 47.8457 46.12C47.7532 45.269 45.4222 27.25 45.4222 27.25C39.9648 27.25 37.0602 31.1165 35.5247 35.242C35.5247 35.242 31.6397 45.306 31.3252 46.157C31.3067 45.3615 30.7332 35.353 30.7332 35.353C30.4002 30.321 25.8122 27.2685 22.0938 27.2685L26.5707 54.5745C32.2872 54.556 35.3583 50.6895 36.9678 46.5825C36.9678 46.5825 40.3903 37.7025 40.5383 37.2955C40.5753 37.684 42.9988 54.5745 42.9988 54.5745C48.7153 54.5745 51.8048 50.9485 53.4698 46.9895L61.4617 27.25C55.8007 27.25 52.8222 31.1165 51.2867 35.242Z" fill="white"/>
</svg>
