<svg width="80" height="80" viewBox="0 0 80 80" fill="none" xmlns="http://www.w3.org/2000/svg">
<g clip-path="url(#clip0_6203_47405)">
<mask id="mask0_6203_47405" style="mask-type:luminance" maskUnits="userSpaceOnUse" x="6" y="6" width="68" height="68">
<path d="M73.9995 6H6V74H73.9995V6Z" fill="white"/>
</mask>
<g mask="url(#mask0_6203_47405)">
<path d="M10.8359 40.002C10.8359 51.5475 17.5454 61.5242 27.2745 66.2527L13.3612 28.1316C11.6933 31.8664 10.8327 35.9116 10.8359 40.002ZM59.6934 38.5302C59.6934 34.9253 58.3987 32.4292 57.2881 30.486C55.8095 28.0835 54.4242 26.0489 54.4242 23.6463C54.4242 20.9652 56.4571 18.4693 59.3216 18.4693C59.4508 18.4693 59.5735 18.4854 59.7002 18.4927C54.5104 13.7387 47.5967 10.8359 40.0033 10.8359C29.8137 10.8359 20.8488 16.0641 15.6335 23.9828C16.3178 24.0032 16.9633 24.0173 17.5106 24.0173C20.5613 24.0173 25.2838 23.6471 25.2838 23.6471C26.8562 23.5544 27.0414 25.8637 25.4715 26.0497C25.4715 26.0497 23.8909 26.2358 22.1327 26.3277L32.7543 57.921L39.1378 38.7774L34.593 26.3272C33.0224 26.2349 31.5343 26.0492 31.5343 26.0492C29.9624 25.957 30.1469 23.5538 31.7185 23.6466C31.7185 23.6466 36.5353 24.0168 39.4014 24.0168C42.4516 24.0168 47.1746 23.6466 47.1746 23.6466C48.7481 23.5538 48.9328 25.8631 47.3617 26.0492C47.3617 26.0492 45.7784 26.2352 44.0235 26.3272L54.564 57.6811L57.4728 47.9593C58.7343 43.925 59.6939 41.0274 59.6939 38.5304L59.6934 38.5302Z" fill="#00749A"/>
<path d="M40.5091 42.5528L31.7578 67.9818C34.4332 68.7703 37.2081 69.1707 39.9972 69.1707C43.3937 69.1707 46.6512 68.5829 49.6832 67.5175C49.6018 67.3902 49.5325 67.2555 49.4756 67.1157L40.5091 42.5533V42.5528ZM65.5905 26.0078C65.7159 26.937 65.7869 27.9347 65.7869 29.0069C65.7869 31.9668 65.2342 35.2939 63.569 39.4541L54.6597 65.2133C63.331 60.1569 69.1635 50.7623 69.1635 40.0014C69.1714 35.1103 67.9422 30.2964 65.5905 26.0078Z" fill="#00749A"/>
<path d="M40.0003 6C21.2529 6 6 21.2519 6 39.9992C6 58.7465 21.2524 74.0005 40.0003 74.0005C58.7481 74.0005 74.0022 58.7492 74.0022 39.9992C74.0016 21.2519 58.7471 6 40.0003 6ZM40.0003 72.4414C22.1127 72.4414 7.5591 57.8878 7.5591 39.9989C7.5591 22.11 22.1122 7.55965 40.0003 7.55965C57.8884 7.55965 72.4398 22.1122 72.4398 39.9992C72.4398 57.8862 57.8867 72.4417 40.0003 72.4417V72.4414Z" fill="#00749A"/>
</g>
</g>
<defs>
<clipPath id="clip0_6203_47405">
<rect width="68" height="68" fill="white" transform="translate(6 6)"/>
</clipPath>
</defs>
</svg>
