<svg width="80" height="80" viewBox="0 0 80 80" fill="none" xmlns="http://www.w3.org/2000/svg">
<path d="M76.8223 33.0234V50.482L74.4062 52.8405V35.7558L76.8223 33.0234Z" fill="#E79225"/>
<path d="M60.9867 33.0378L58.4844 35.7558L58.6138 35.9284L74.3035 35.8709L74.4473 35.7558L76.8202 33.0234L60.9867 33.0378Z" fill="#FFF16D"/>
<path d="M74.4473 35.75H58.4844V52.849H74.4473V35.75Z" fill="url(#paint0_linear_6215_21559)"/>
<path d="M72.02 41.9157C71.7037 41.1248 71.2291 40.4057 70.6107 39.7873C70.0211 39.1833 69.3596 38.7231 68.6117 38.4211C67.8783 38.1191 67.0874 37.9609 66.2245 37.9609C65.3616 37.9609 64.5563 38.1191 63.8229 38.4211C63.0751 38.7231 62.4135 39.1833 61.8239 39.7873C61.2055 40.4057 60.7453 41.1248 60.4289 41.9157C60.1126 42.7067 59.9688 43.5695 59.9688 44.5187C59.9688 45.4391 60.1269 46.3019 60.4433 47.1073C60.7597 47.9126 61.2199 48.6317 61.8383 49.2644C62.4135 49.854 63.0751 50.2999 63.8085 50.6019C64.5419 50.9039 65.3616 51.062 66.2389 51.062C67.0874 51.062 67.8783 50.9039 68.6117 50.6019C69.3452 50.2999 70.0211 49.854 70.6107 49.2644C71.2291 48.6317 71.7037 47.9126 72.02 47.1216C72.3364 46.3307 72.4946 45.4534 72.4946 44.5331C72.4946 43.5695 72.3364 42.7067 72.02 41.9157ZM68.7268 47.5531C68.1084 48.2865 67.2887 48.6604 66.2245 48.6604C65.1603 48.6604 64.3262 48.2865 63.7078 47.5531C63.0894 46.8196 62.7874 45.7986 62.7874 44.5043C62.7874 43.1812 63.1038 42.1602 63.7078 41.4124C64.3262 40.6646 65.1459 40.305 66.2245 40.305C67.2887 40.305 68.1084 40.679 68.7268 41.4124C69.3308 42.1602 69.6472 43.1812 69.6472 44.5043C69.6472 45.7986 69.3452 46.8196 68.7268 47.5531Z" fill="white"/>
<path d="M56.9093 31.6094V31.6957L58.9514 47.3854L57.7578 50.693L57.5996 50.5779L55.5 35.5354L55.5431 35.3341L56.8518 31.6957L56.9093 31.6094Z" fill="#009ADA"/>
<path d="M41.1921 33.7953L56.9105 31.6094L55.5875 35.3772L55.4005 35.5785L40.7031 37.7357L40.775 35.0464L41.1921 33.7953Z" fill="#91C9ED"/>
<path d="M55.5896 35.375L57.7611 50.6908L42.2727 52.8623L40.1875 38.0643L41.0935 37.3596L55.5896 35.375Z" fill="url(#paint1_linear_6215_21559)"/>
<path d="M52.9634 38.3115C52.8915 37.8369 52.7333 37.4774 52.4745 37.2329C52.2587 37.046 51.9999 36.9453 51.6979 36.9453C51.626 36.9453 51.5397 36.9453 51.4534 36.9597C51.0507 37.0172 50.7487 37.2042 50.5618 37.5062C50.418 37.7219 50.3604 37.9951 50.3604 38.3115C50.3604 38.4266 50.3748 38.556 50.3892 38.6854L50.9501 42.669L46.4919 43.3305L45.9311 39.3469C45.8592 38.8867 45.701 38.5272 45.4421 38.2827C45.2264 38.0814 44.9676 37.9807 44.6799 37.9807C44.608 37.9807 44.5361 37.9807 44.4642 37.9951C44.0472 38.0527 43.7308 38.2396 43.5295 38.5416C43.3856 38.7573 43.3281 39.0306 43.3281 39.3469C43.3281 39.462 43.3425 39.5914 43.3569 39.7352L44.8813 50.1039C44.9532 50.5785 45.1114 50.938 45.399 51.1825C45.6147 51.3695 45.8736 51.4558 46.1899 51.4558C46.2762 51.4558 46.3625 51.4558 46.4488 51.4414C46.8371 51.3839 47.1247 51.1969 47.3117 50.8949C47.4411 50.6792 47.4986 50.4203 47.4986 50.1183C47.4986 50.0033 47.4842 49.8738 47.4699 49.7444L46.8515 45.6458L51.3096 44.9843L51.928 49.0829C51.9999 49.5575 52.1581 49.917 52.4313 50.1471C52.647 50.334 52.9059 50.4347 53.2079 50.4347C53.2798 50.4347 53.3661 50.4347 53.4524 50.4203C53.855 50.3628 54.157 50.1759 54.344 49.8738C54.4734 49.6581 54.5453 49.3993 54.5453 49.0829C54.5453 48.9678 54.5309 48.8384 54.5166 48.709L52.9634 38.3115Z" fill="white"/>
<path d="M26.477 27.6016L20.8828 40.8896L21.645 46.7283L21.6881 46.7139L27.9727 32.5774L27.9439 32.2754L26.5921 27.7885L26.477 27.6016Z" fill="#66BF6B"/>
<path d="M26.4766 27.6016L27.929 32.4767L27.9578 32.5774L41.7923 38.7756L41.8355 38.7469L40.6562 34.0874L26.4766 27.6016Z" fill="#98D0A0"/>
<path d="M27.9329 32.4766L41.8394 38.7467L35.5549 52.9983L21.6484 46.7282L27.9329 32.4766Z" fill="url(#paint2_linear_6215_21559)"/>
<path d="M37.6223 39.8948C37.3203 39.0894 36.9033 38.3991 36.3568 37.8239C35.8103 37.2487 35.1488 36.7885 34.3722 36.4577C33.5956 36.1269 32.819 35.9688 32.0281 35.9688H31.9849C31.1796 35.9688 30.3887 36.1557 29.6121 36.5008C28.7924 36.8604 28.0877 37.3493 27.4837 37.9965C26.8797 38.6292 26.3907 39.4058 26.0168 40.2974C25.6429 41.1747 25.4416 42.0663 25.3984 42.9435V43.2455C25.3984 44.0221 25.5279 44.7843 25.8011 45.5321C26.0887 46.3231 26.5058 46.999 27.0523 47.5742C27.5987 48.1495 28.2746 48.6097 29.08 48.9404C29.8422 49.2712 30.6187 49.4294 31.4097 49.4294H31.4241C32.215 49.4294 33.006 49.2568 33.7826 48.926C34.6023 48.5665 35.3213 48.0632 35.9253 47.416C36.5293 46.7833 37.0327 46.0211 37.4066 45.1295C37.7805 44.2378 37.9818 43.3606 38.025 42.4834V42.2245C38.0394 41.4335 37.9099 40.657 37.6223 39.8948ZM34.8468 44.0365C34.329 45.2733 33.6244 46.1217 32.7759 46.5819C32.3157 46.8264 31.8411 46.9558 31.3666 46.9558C30.9495 46.9558 30.5037 46.8552 30.0579 46.6682C29.08 46.2512 28.476 45.5897 28.2171 44.6405C28.1308 44.3241 28.0877 43.9934 28.0877 43.6482C28.0877 42.9579 28.2603 42.1957 28.6054 41.376C29.1375 40.1105 29.8422 39.2476 30.6907 38.773C31.1508 38.5142 31.6254 38.3991 32.1 38.3991C32.5314 38.3991 32.9629 38.4998 33.423 38.6868C34.3866 39.1038 34.9906 39.7653 35.2494 40.7145C35.3357 41.0165 35.3789 41.3473 35.3789 41.6924C35.3789 42.4114 35.2063 43.188 34.8468 44.0365Z" fill="white"/>
<path d="M19.7858 29.8672L22.058 45.0823L21.0225 50.432L20.8787 50.2451L18.6641 35.5477V35.2601L19.642 30.126L19.7858 29.8672Z" fill="#760D16"/>
<path d="M3.1875 37.7336L4.26608 32.3551L19.7832 29.8672L18.7334 35.3464V35.7059L3.37445 37.8774L3.1875 37.7336Z" fill="#EF463E"/>
<path d="M18.7334 35.3438L21.02 50.4294L5.66104 52.8311L3.1875 37.731L18.7334 35.3438Z" fill="url(#paint3_linear_6215_21559)"/>
<path d="M17.0827 48.0333C16.9676 47.8895 16.7951 47.7888 16.5937 47.7169C16.3924 47.645 16.1479 47.6162 15.8459 47.6162C15.5727 47.6162 15.2563 47.645 14.9112 47.7025L10.8557 48.3928C10.8988 48.0764 11.057 47.6738 11.3303 47.1704C11.6323 46.6096 12.0925 45.9336 12.6821 45.1571C12.8834 44.8838 13.0416 44.6825 13.1567 44.5387C13.2286 44.438 13.3436 44.3086 13.4874 44.1216C14.4222 42.8993 14.9831 41.907 15.2132 41.1304C15.3426 40.6846 15.4145 40.2388 15.4433 39.793C15.4576 39.6635 15.4576 39.5485 15.4576 39.4334C15.4576 39.117 15.4289 38.8007 15.3713 38.4843C15.3282 38.1967 15.2563 37.9666 15.1556 37.7796C15.055 37.5927 14.9399 37.4488 14.7961 37.3626C14.6379 37.2619 14.3934 37.2188 14.0914 37.2188C13.847 37.2188 13.545 37.2475 13.1854 37.305L8.49722 38.1104C7.93636 38.211 7.50493 38.3692 7.24607 38.6281C7.03035 38.8294 6.92969 39.0883 6.92969 39.3759C6.92969 39.4478 6.92969 39.5341 6.94407 39.6204C7.01597 40.023 7.21731 40.3107 7.54807 40.4545C7.74941 40.5408 7.9795 40.5839 8.26712 40.5839C8.45408 40.5839 8.66979 40.5695 8.89989 40.5264L12.8115 39.8361C12.8115 39.908 12.8259 39.9799 12.8259 40.0374C12.8259 40.2819 12.7828 40.5264 12.6965 40.7565C12.5814 41.0872 12.2938 41.5474 11.8192 42.1371C11.6898 42.2953 11.4885 42.5541 11.2152 42.8849C10.151 44.1648 9.40322 45.2577 8.94303 46.1637C8.61227 46.7965 8.39655 47.4005 8.26712 48.0189C8.19522 48.3784 8.15207 48.7092 8.15207 49.0399C8.15207 49.27 8.16646 49.5001 8.2096 49.7159C8.26712 50.0322 8.33903 50.2911 8.43969 50.4924C8.54036 50.6938 8.68417 50.852 8.84236 50.9382C9.00055 51.0245 9.21627 51.0533 9.53265 51.0533C9.92094 51.0533 10.453 50.9958 11.1289 50.8807L15.3857 50.1473C16.1335 50.0179 16.6656 49.8309 16.9676 49.5864C17.2121 49.3851 17.3415 49.1119 17.3415 48.7955C17.3415 48.7092 17.3272 48.6229 17.3128 48.5366C17.284 48.3497 17.2121 48.1771 17.0827 48.0333Z" fill="white"/>
<defs>
<linearGradient id="paint0_linear_6215_21559" x1="856.565" y1="60.2218" x2="856.565" y2="1694.03" gradientUnits="userSpaceOnUse">
<stop offset="0.005618" stop-color="#FFE513"/>
<stop offset="1" stop-color="#FDB924"/>
</linearGradient>
<linearGradient id="paint1_linear_6215_21559" x1="119.488" y1="271.353" x2="1715.27" y2="1565.57" gradientUnits="userSpaceOnUse">
<stop offset="0.005618" stop-color="#008CD2"/>
<stop offset="1" stop-color="#00649D"/>
</linearGradient>
<linearGradient id="paint2_linear_6215_21559" x1="1031.23" y1="602.546" x2="1031.23" y2="2033.94" gradientUnits="userSpaceOnUse">
<stop stop-color="#26A146"/>
<stop offset="1" stop-color="#008A52"/>
</linearGradient>
<linearGradient id="paint3_linear_6215_21559" x1="783.07" y1="178.876" x2="1020.13" y2="1666.59" gradientUnits="userSpaceOnUse">
<stop stop-color="#D92231"/>
<stop offset="1" stop-color="#BA2234"/>
</linearGradient>
</defs>
</svg>
