<svg width="80" height="80" viewBox="0 0 80 80" fill="none" xmlns="http://www.w3.org/2000/svg">
<path d="M17.0191 18.3002C17.0306 18.3767 17.9704 30.0859 19.1088 44.3214C20.2473 58.557 21.1833 70.2109 21.1833 70.2109C21.1833 70.2109 25.3933 71.5209 30.5355 73.1073L39.8839 75.9995L49.2552 73.1073C54.4088 71.5166 58.6303 70.2066 58.6303 70.2066C58.6303 70.2066 59.5663 58.5655 60.7047 44.3427C61.8432 30.1199 62.783 18.4108 62.7945 18.3214L62.8174 18.1641H17L17.0191 18.3002ZM54.2522 28.8907C54.2522 28.9843 53.9809 32.3826 52.384 52.292C51.9867 57.247 51.6467 61.3174 51.6276 61.3344C51.5856 61.3769 39.987 64.9496 39.8953 64.9496C39.8227 64.9496 28.1669 61.3599 28.1401 61.3259C28.1325 61.3174 27.9529 59.1397 27.7428 56.4857C27.5289 53.8317 27.3493 51.5775 27.334 51.4754L27.3149 51.2968H30.1993C31.7886 51.2968 33.0913 51.3053 33.0913 51.3053C33.0913 51.3138 33.183 52.4536 33.2976 53.8402C33.4084 55.231 33.5077 56.3709 33.5153 56.3794C33.523 56.3879 34.9556 56.826 36.7053 57.3491L39.88 58.3061L43.0624 57.3491C44.8159 56.8217 46.2562 56.3836 46.2638 56.3794C46.2791 56.3581 46.9133 48.4811 46.9171 48.2642V48.1068H27.0513V48.0005C27.0513 47.941 26.9405 46.5076 26.803 44.8191C26.6655 43.1305 26.5547 41.744 26.5547 41.7355C26.5547 41.7355 31.2575 41.727 37.0033 41.727H47.452V41.6206C47.452 41.5654 47.5627 40.1193 47.7003 38.418C47.8378 36.7124 47.9486 35.2833 47.9486 35.245C47.9486 35.1812 47.1043 35.177 36.9957 35.1685L26.0389 35.1557L25.8059 32.2635C25.676 30.6728 25.5576 29.2437 25.5423 29.0821L25.5194 28.7971H54.2522V28.8907Z" fill="#2965F1"/>
<path d="M27.7891 13.6974V8.84869V4H34.7421V7.23246H30.6925V10.4649H34.7421V13.6974H27.7891Z" fill="#4C4C4C"/>
<path d="M36.1365 10.3161L36.1251 7.1559L36.1174 4H43.0704V6.80713H39.0209V7.36006H43.0704V13.825H36.1174V10.8902H40.167V10.3373L38.1537 10.3288L36.1365 10.3161Z" fill="#4C4C4C"/>
<path d="M44.484 10.3373V7.16866V4H51.3988V6.80713H47.3874V7.36006H51.3988V13.825H44.484V10.8902H48.4953V10.3373H44.484Z" fill="#4C4C4C"/>
</svg>
