<svg width="80" height="80" viewBox="0 0 80 80" fill="none" xmlns="http://www.w3.org/2000/svg">
<path d="M14.8203 18.1406L19.3037 70.2073L39.5283 75.9998L59.7855 70.2073L64.3017 18.1406H14.8203ZM26.8307 61.3386L25.9798 51.2918H32.1977L32.6231 56.397L39.5283 58.3279H39.561L46.4334 56.397L47.1534 48.1174H25.6853L24.1799 30.511L24.0163 28.8092H55.073L54.9094 30.511L54.6148 33.7508L54.5167 35.1907H30.7905L31.3468 41.7359H53.9276L53.7967 43.4376L52.324 60.2587L52.2259 61.3386L39.561 64.9385H39.5283L26.8307 61.3386Z" fill="#E44D26"/>
<path d="M46.4349 56.389L39.5625 58.2871V48.1094H47.1549L46.4349 56.389Z" fill="#F16529"/>
<path d="M59.787 22.3828L55.9254 66.8899L39.5625 71.5696V64.9263L52.2274 61.3265L52.3255 60.2465L53.7982 43.4255L53.9291 41.7237H39.5625V35.1786H54.5182L54.6164 33.7387L54.9109 30.4988L55.0745 28.7971H39.5625V22.3828H59.787Z" fill="#F16529"/>
<path d="M25.4527 4V7.20712H22.5728V4H19.3984V13.7196H22.5728V10.447H25.4527V13.7196H28.5944V4H25.4527ZM29.9689 4V7.20712H32.7178V13.7196H35.8922V7.20712H38.6412V4H29.9689ZM47.3462 4L45.35 7.40348L43.321 4H40.0484V13.7196H43.1246V8.90886L45.2845 12.3451H45.35L47.5099 8.90886V13.7196H50.6515V4H47.3462ZM55.3641 10.5124V4H52.2224V13.7196H59.782V10.5124H55.3641Z" fill="#4C4C4C"/>
</svg>
