<svg width="104" height="108" viewBox="0 0 104 108" fill="none" xmlns="http://www.w3.org/2000/svg">
<path d="M90.8571 76.0044L52 99.931L13.1429 76.0044V69.3957H12V76.6478L52 101.279L92 76.6478V69.3957H90.8571V76.0044ZM52 6.77872L12 31.9117V38.6042H13.1429V32.5482L52 8.13331L90.8571 32.5482V38.6042H92V31.9117L52 6.77872Z" fill="#4C4C4C"/>
<path fill-rule="evenodd" clip-rule="evenodd" d="M95.428 78.5643L51.9994 105.306L8.57087 78.5643V69.3957H6.28516V79.8511L51.9994 108L97.7137 79.8511V69.3957H95.428V78.5643ZM51.9994 0L6.28516 28.7234V38.6043H8.57087V29.9964L51.9994 2.70919L95.428 29.9964V38.6043H97.7137V28.7234L51.9994 0Z" fill="#4C4C4C"/>
<path fill-rule="evenodd" clip-rule="evenodd" d="M0 36.766V71.234H104V36.766H0ZM102.171 69.3957H1.82857V38.6043H102.171V69.3957Z" fill="#4C4C4C"/>
<path fill-rule="evenodd" clip-rule="evenodd" d="M43.9984 21.9447H45.6075C45.7732 21.9447 45.9127 21.9826 46.0235 22.0584C46.1344 22.1342 46.2075 22.2354 46.2418 22.3606L47.3744 26.6886C47.4087 26.8288 47.4418 26.9793 47.4761 27.139C47.5104 27.2987 47.5435 27.4653 47.5778 27.6399C47.6452 27.2826 47.7287 26.9655 47.8269 26.6886L49.1641 22.3606C49.1984 22.2537 49.2704 22.1584 49.3824 22.0734C49.4932 21.9883 49.6292 21.9447 49.7869 21.9447H50.3538C50.5195 21.9447 50.6544 21.9837 50.7561 22.0619C50.8578 22.14 50.9355 22.2388 50.9881 22.3606L52.3138 26.6886C52.4121 26.954 52.4955 27.2562 52.5629 27.594C52.5927 27.4274 52.6247 27.2677 52.6567 27.116C52.6887 26.9644 52.7218 26.8219 52.7561 26.6886L53.8887 22.3606C53.9184 22.2503 53.9904 22.1538 54.1035 22.0699C54.2167 21.986 54.3527 21.9447 54.5115 21.9447H56.0189L53.4692 30.2434H51.7355L50.1835 25.1008C50.1264 24.9377 50.0727 24.7492 50.0189 24.5367C49.9664 24.7492 49.9115 24.9377 49.8544 25.1008L48.2795 30.2434H46.5458L43.9961 21.9447H43.9984ZM58.9207 21.9516H60.0967L57.7881 29.4357C57.6395 29.9171 57.1972 30.2446 56.6967 30.2446H55.5595L57.8269 22.7662C57.9732 22.2825 58.4178 21.9527 58.9207 21.9527V21.9516Z" fill="#4C4C4C"/>
<path fill-rule="evenodd" clip-rule="evenodd" d="M31.7621 81.9192L30.3906 78.1001H31.3575L32.0569 80.4301L32.6878 78.1001H33.4009L34.0318 80.4301L34.7312 78.1001H35.6981L34.3266 81.9192H33.7643L33.0443 79.4443L32.3243 81.9192H31.7621ZM39.9563 78.1001V81.9192H39.1198V81.4021H39.1061C38.9461 81.6181 38.7552 81.7778 38.5335 81.8812C38.3118 81.9846 38.0798 82.0386 37.8375 82.0432C37.3301 82.0432 36.8935 81.8594 36.5278 81.4917C36.1621 81.1241 35.9792 80.6415 35.9792 80.0441C35.9792 79.4466 36.1609 78.9583 36.5243 78.5654C36.8878 78.1725 37.3346 77.976 37.8649 77.976C38.1301 77.976 38.3689 78.0323 38.5815 78.1449C38.7941 78.2575 38.9689 78.4218 39.1061 78.6378H39.1198V78.1001H39.9563ZM38.0089 78.8446C37.6798 78.8446 37.4112 78.9583 37.2032 79.1858C36.9952 79.4133 36.8912 79.6994 36.8912 80.0441C36.8866 80.375 36.9883 80.6461 37.1963 80.8575C37.4043 81.0689 37.6752 81.1746 38.0089 81.1746C38.3426 81.1746 38.5963 81.0666 38.7975 80.8506C38.9986 80.6346 39.0992 80.352 39.0992 80.0027C39.0992 79.6718 38.9986 79.3961 38.7975 79.1755C38.5963 78.9549 38.3335 78.8446 38.0089 78.8446ZM44.4889 76.8179V81.9192H43.6523V81.4021H43.6386C43.4878 81.6135 43.3061 81.7721 43.0935 81.8778C42.8809 81.9835 42.6466 82.0386 42.3906 82.0432C41.8741 82.0432 41.4318 81.8502 41.0638 81.4642C40.6958 81.0781 40.5118 80.5979 40.5118 80.0234C40.5072 79.4352 40.6901 78.9469 41.0603 78.5585C41.4306 78.1702 41.8832 77.976 42.4181 77.976C42.6649 77.9806 42.8843 78.0277 43.0763 78.1173C43.2683 78.2069 43.4306 78.3322 43.5632 78.493H43.5769V76.8179H44.4889ZM42.5209 78.8446C42.2055 78.8446 41.9438 78.9537 41.7358 79.172C41.5278 79.3903 41.4238 79.6695 41.4238 80.0096C41.4238 80.3497 41.5255 80.6232 41.7289 80.8437C41.9323 81.0643 42.1963 81.1746 42.5209 81.1746C42.8409 81.1792 43.1061 81.0712 43.3163 80.8506C43.5266 80.63 43.6318 80.3497 43.6318 80.0096C43.6318 79.6695 43.5255 79.3961 43.3129 79.1755C43.1003 78.9549 42.8363 78.8446 42.5209 78.8446ZM45.2226 81.9192V76.8179H46.1346V81.9192H45.2226ZM46.8683 81.9192V78.1001H47.7803V81.9192H46.8683ZM46.8683 77.6589V76.8179H47.7803V77.6589H46.8683ZM48.5141 81.9192V78.1001H49.3506V78.4517H49.3643C49.4832 78.3 49.6306 78.1828 49.8066 78.1001C49.9826 78.0174 50.1826 77.976 50.4066 77.976C50.8501 77.976 51.2078 78.1288 51.4798 78.4344C51.7518 78.74 51.8878 79.1571 51.8878 79.6856V81.9192H50.9758V79.8924C50.9712 79.5431 50.9026 79.2812 50.7701 79.1066C50.6375 78.9319 50.4523 78.8446 50.2146 78.8446C49.9495 78.8446 49.7506 78.9342 49.6181 79.1135C49.4855 79.2927 49.4215 79.5523 49.4261 79.8924V81.9192H48.5141ZM56.4203 80.4163H53.4443C53.4992 80.6507 53.6169 80.8357 53.7975 80.9713C53.9781 81.1069 54.1918 81.1746 54.4386 81.1746C54.6215 81.1792 54.7849 81.1505 54.9289 81.0885C55.0729 81.0264 55.1929 80.9357 55.2889 80.8162H56.3175C56.1575 81.1976 55.9152 81.4975 55.5906 81.7158C55.2661 81.9341 54.8935 82.0432 54.4729 82.0432C53.9015 82.0432 53.4238 81.8502 53.0398 81.4642C52.6558 81.0781 52.4638 80.6025 52.4638 80.0372C52.4638 79.4719 52.6569 78.9871 53.0432 78.5826C53.4295 78.1782 53.9106 77.976 54.4866 77.976C55.0626 77.976 55.5255 78.1713 55.8889 78.562C56.2523 78.9526 56.4363 79.4352 56.4409 80.0096C56.4409 80.1015 56.4386 80.1785 56.4341 80.2406C56.4295 80.3026 56.4249 80.3612 56.4203 80.4163ZM53.4306 79.6029H55.4878C55.4238 79.3685 55.3003 79.1835 55.1175 79.048C54.9346 78.9124 54.7243 78.8446 54.4866 78.8446C54.2352 78.8492 54.0146 78.9193 53.8249 79.0549C53.6352 79.1904 53.5038 79.3731 53.4306 79.6029ZM57.1472 81.9192V81.0023H58.0592V81.9192H57.1472ZM61.7209 80.6783H62.7495C62.5986 81.0965 62.3621 81.4286 62.0398 81.6744C61.7175 81.9203 61.3278 82.0432 60.8706 82.0432C60.2672 82.0432 59.7666 81.8502 59.3689 81.4642C58.9712 81.0781 58.7723 80.5841 58.7723 79.982C58.7723 79.4122 58.9678 78.9354 59.3586 78.5516C59.7495 78.1679 60.2421 77.976 60.8363 77.976C61.3072 77.976 61.7118 78.1024 62.0501 78.3551C62.3883 78.6079 62.6215 78.9457 62.7495 79.3685H61.7209C61.6295 79.1985 61.5072 79.0698 61.3541 78.9825C61.2009 78.8952 61.0238 78.8492 60.8226 78.8446C60.4706 78.8446 60.1929 78.956 59.9895 79.1789C59.7861 79.4018 59.6843 79.6741 59.6843 79.9958C59.6843 80.3359 59.7883 80.6186 59.9963 80.8437C60.2043 81.0689 60.4798 81.1792 60.8226 81.1746C61.0146 81.1746 61.1895 81.1344 61.3472 81.054C61.5049 80.9736 61.6295 80.8483 61.7209 80.6783ZM65.1495 77.976C65.7209 77.976 66.1998 78.1759 66.5861 78.5757C66.9723 78.9756 67.1655 79.4558 67.1655 80.0165C67.1655 80.5772 66.9723 81.0609 66.5861 81.4538C66.1998 81.8468 65.7209 82.0432 65.1495 82.0432C64.5781 82.0432 64.0935 81.8468 63.7095 81.4538C63.3255 81.0609 63.1335 80.5818 63.1335 80.0165C63.1335 79.4512 63.3255 78.9756 63.7095 78.5757C64.0935 78.1759 64.5735 77.976 65.1495 77.976ZM65.1495 78.8446C64.8203 78.8446 64.5541 78.9595 64.3506 79.1893C64.1472 79.4191 64.0455 79.6948 64.0455 80.0165C64.0409 80.3382 64.1415 80.6117 64.3472 80.8369C64.5529 81.062 64.8203 81.1746 65.1495 81.1746C65.4741 81.1792 65.7392 81.0678 65.9449 80.8403C66.1506 80.6128 66.2535 80.3382 66.2535 80.0165C66.2535 79.6948 66.1506 79.4191 65.9449 79.1893C65.7392 78.9595 65.4741 78.8446 65.1495 78.8446ZM67.7141 81.9192V78.1001H68.5506V78.4517H68.5643C68.6695 78.3 68.8101 78.1828 68.9861 78.1001C69.1621 78.0174 69.3506 77.976 69.5518 77.976C69.7849 77.976 69.9998 78.03 70.1963 78.138C70.3929 78.246 70.5483 78.3896 70.6626 78.5689C70.8043 78.3758 70.9769 78.2288 71.1803 78.1277C71.3838 78.0266 71.6158 77.976 71.8763 77.976C72.3426 77.976 72.7175 78.1288 73.0009 78.4344C73.2843 78.74 73.4261 79.1571 73.4261 79.6856V81.9192H72.5141V79.8924C72.5141 79.5477 72.4523 79.2869 72.3289 79.11C72.2055 78.9331 72.018 78.8446 71.7666 78.8446C71.5152 78.8492 71.3289 78.9388 71.2078 79.1135C71.0866 79.2881 71.0261 79.5477 71.0261 79.8924V81.9192H70.1141V79.8924C70.1141 79.5477 70.0523 79.2869 69.9289 79.11C69.8055 78.9331 69.618 78.8446 69.3666 78.8446C69.1152 78.8446 68.9278 78.9331 68.8043 79.11C68.6809 79.2869 68.6215 79.5477 68.6261 79.8924V81.9192H67.7141Z" fill="#4C4C4C"/>
<path fill-rule="evenodd" clip-rule="evenodd" d="M16.917 52.1617V45.8851H15.5078V44.5098H19.7352V45.8851H18.3261V52.1617H16.917ZM23.9375 44.3754C25.069 44.3754 26.0198 44.7649 26.7924 45.5438C27.5638 46.3228 27.949 47.2672 27.949 48.3771C27.949 49.487 27.5615 50.4257 26.7867 51.1954C26.0118 51.9641 25.0621 52.3478 23.9375 52.3478C22.813 52.3478 21.853 51.9641 21.0781 51.1954C20.3032 50.4268 19.9192 49.4881 19.9261 48.3771C19.9261 47.2672 20.3101 46.3228 21.0781 45.5438C21.8461 44.7649 22.7992 44.3754 23.9375 44.3754ZM23.9272 50.9726C24.6678 50.9726 25.2884 50.7163 25.789 50.2028C26.2895 49.6892 26.5398 49.0711 26.5398 48.3461C26.5398 47.6211 26.2895 47.0179 25.789 46.5112C25.2884 46.0046 24.6712 45.7506 23.9375 45.7506C23.2038 45.7506 22.5787 46.0034 22.0815 46.5112C21.5844 47.0191 21.3352 47.6292 21.3352 48.3461C21.3352 49.063 21.5832 49.6972 22.0815 50.2074C22.5787 50.7175 23.1935 50.9726 23.9272 50.9726ZM29.0747 52.1617V44.5098H31.2038C32.0747 44.5167 32.7467 44.7315 33.2198 45.1555C33.693 45.5794 33.9295 46.1597 33.9295 46.8984C33.9295 47.5947 33.6998 48.1634 33.2404 48.6046C32.781 49.0458 32.1021 49.2664 31.2038 49.2664H30.4838V52.1617H29.0747ZM30.4838 45.8851V47.8911H31.317C31.701 47.8911 31.9958 47.8084 32.2015 47.6429C32.4072 47.4775 32.5135 47.2259 32.5204 46.8881C32.5204 46.5572 32.4152 46.3079 32.2061 46.1378C31.997 45.9689 31.701 45.8839 31.317 45.8839H30.4838V45.8851ZM36.933 50.0109H38.4038C38.4107 50.3073 38.5124 50.5417 38.7067 50.714C38.9021 50.8864 39.1398 50.9726 39.4221 50.9726C39.7238 50.9726 39.9707 50.8829 40.1627 50.7037C40.3547 50.5245 40.4507 50.2935 40.4507 50.0109C40.4507 49.7283 40.3615 49.4962 40.1832 49.2917C40.005 49.0883 39.7238 48.9217 39.3398 48.7907C38.949 48.6666 38.7364 48.5977 38.7021 48.5839C38.6678 48.5701 38.6335 48.5529 38.5992 48.5322C38.1261 48.3392 37.7764 48.0669 37.5501 47.7153C37.3238 47.3637 37.2107 46.9743 37.2107 46.5469C37.2107 45.9264 37.4278 45.4094 37.8632 44.9958C38.2987 44.5822 38.8347 44.3754 39.4735 44.3754C40.1124 44.3754 40.5947 44.5753 41.0061 44.9751C41.4175 45.3749 41.6404 45.8989 41.6747 46.5469H40.2244C40.2175 46.3125 40.1421 46.1206 39.9981 45.9724C39.8541 45.8242 39.6655 45.7506 39.4324 45.7506C39.1924 45.7575 38.9958 45.8322 38.8415 45.9724C38.6872 46.1137 38.6141 46.3079 38.621 46.5572C38.621 46.7778 38.6907 46.9605 38.8324 47.1052C38.973 47.25 39.2278 47.3775 39.5981 47.4878C39.8175 47.5637 39.9718 47.6165 40.061 47.6475C40.1501 47.6786 40.2358 47.7084 40.3181 47.7349C40.7844 47.9279 41.1581 48.2071 41.4392 48.5724C41.7204 48.9378 41.861 49.3893 41.861 49.927C41.861 50.6164 41.6278 51.192 41.1615 51.6539C40.6952 52.1157 40.1055 52.3467 39.3924 52.3467C38.6792 52.3467 38.0998 52.1226 37.6335 51.6746C37.1672 51.2265 36.9341 50.6715 36.9341 50.0097L36.933 50.0109ZM46.5958 44.3754C47.7272 44.3754 48.6781 44.7649 49.4507 45.5438C50.2221 46.3228 50.6072 47.2672 50.6072 48.3771C50.6072 49.487 50.2198 50.4257 49.445 51.1954C48.6701 51.9641 47.7204 52.3478 46.5958 52.3478C45.4712 52.3478 44.5112 51.9641 43.7364 51.1954C42.9615 50.4268 42.5775 49.4881 42.5844 48.3771C42.5844 47.2672 42.9684 46.3228 43.7364 45.5438C44.5044 44.7649 45.4575 44.3754 46.5958 44.3754ZM46.5855 50.9726C47.3261 50.9726 47.9467 50.7163 48.4472 50.2028C48.9478 49.6892 49.1981 49.0711 49.1981 48.3461C49.1981 47.6211 48.9478 47.0179 48.4472 46.5112C47.9467 46.0046 47.3295 45.7506 46.5958 45.7506C45.8621 45.7506 45.237 46.0034 44.7398 46.5112C44.2427 47.0179 43.9947 47.6292 43.9947 48.3461C43.9947 49.063 44.2427 49.6972 44.7398 50.2074C45.237 50.7175 45.8518 50.9726 46.5855 50.9726ZM51.7341 52.1617V44.5098H55.6015V45.8851H53.1432V47.6533H55.4884V49.0286H53.1432V52.1617H51.7341ZM57.5604 52.1617V45.8851H56.1512V44.5098H60.3787V45.8851H58.9695V52.1617H57.5604ZM62.8118 52.1617L60.6004 44.5098H62.0404L63.3672 49.8661L64.6632 44.5098H65.6918L66.9878 49.8661L68.3147 44.5098H69.7547L67.5432 52.1617H66.4221L65.1775 47.1052L63.933 52.1617H62.8118ZM69.0712 52.1617L72.2392 44.5098H73.3707L76.5387 52.1617H74.9855L74.2038 50.1867H71.4061L70.6244 52.1617H69.0712ZM71.941 48.8114H73.669L72.805 46.5779L71.941 48.8114ZM77.4381 52.1617V44.5098H79.6392C80.5581 44.5098 81.2644 44.7269 81.7581 45.1612C82.2518 45.5955 82.4987 46.1884 82.4987 46.9398C82.4987 47.5671 82.309 48.1094 81.9284 48.569C81.5478 49.0286 81.053 49.2836 80.4415 49.3388L82.581 52.1617H80.8427L78.8678 49.3388H78.8472V52.1617H77.4381ZM78.8472 45.8851V48.16H79.6804C80.1124 48.16 80.4552 48.0692 80.7089 47.8865C80.9627 47.7038 81.0895 47.4166 81.0895 47.0237C81.0827 46.6376 80.9547 46.3515 80.7032 46.1654C80.4518 45.9793 80.1124 45.8862 79.6792 45.8862H78.8461L78.8472 45.8851ZM83.5318 52.1617V44.5098H87.6152V45.8851H84.941V47.6533H87.5021V49.0286H84.941V50.7864H87.6152V52.1617H83.5318ZM21.7512 63.6511V55.9992H23.8598C25.1284 55.9992 26.1261 56.3243 26.853 56.9769C27.5798 57.6283 27.9432 58.5912 27.9432 59.8665C27.9432 60.9901 27.6072 61.9012 26.9352 62.6009C26.2632 63.3006 25.2484 63.6511 23.8907 63.6511H21.7512ZM23.1604 62.2758H23.8495C24.7135 62.2827 25.3752 62.0897 25.8347 61.6967C26.2941 61.3038 26.5272 60.6937 26.5341 59.8665C26.5341 59.0117 26.2964 58.3832 25.8187 57.9799C25.3421 57.5766 24.6621 57.3744 23.7764 57.3744H23.1592V62.2758H23.1604ZM29.0792 63.6511V55.9992H33.1627V57.3744H30.4884V59.1426H33.0495V60.5179H30.4884V62.2758H33.1627V63.6511H29.0792ZM36.8701 63.6511L33.9284 55.9992H35.4095L37.4564 61.8208L39.5032 55.9992H40.9844L38.0427 63.6511H36.8701ZM41.885 63.6511V55.9992H45.9684V57.3744H43.2941V59.1426H45.8552V60.5179H43.2941V62.2758H45.9684V63.6511H41.885ZM47.3627 63.6511V55.9992H48.7718V62.2758H51.0964V63.6511H47.3627ZM55.3387 55.8647C56.4701 55.8647 57.421 56.2542 58.1935 57.0332C58.9661 57.8122 59.3512 58.7566 59.3512 59.8665C59.3512 60.9763 58.9638 61.915 58.189 62.6837C57.4141 63.4523 56.4644 63.8372 55.3398 63.8372C54.2152 63.8372 53.2552 63.4535 52.4804 62.6837C51.7055 61.9139 51.3215 60.9763 51.3284 59.8665C51.3284 58.7566 51.7124 57.8122 52.4804 57.0332C53.2484 56.2542 54.2015 55.8647 55.3398 55.8647H55.3387ZM55.3284 62.4619C56.069 62.4619 56.6895 62.2057 57.1901 61.6921C57.6907 61.1786 57.941 60.5604 57.941 59.8366C57.941 59.1128 57.6907 58.5084 57.1901 58.0006C56.6895 57.4939 56.0724 57.2412 55.3387 57.2412C54.605 57.2412 53.9798 57.4939 53.4827 58.0006C52.9855 58.5073 52.7375 59.1185 52.7375 59.8366C52.7375 60.5547 52.9855 61.1877 53.4827 61.6979C53.9798 62.208 54.5947 62.4631 55.3284 62.4631V62.4619ZM60.477 63.6511V55.9992H62.6061C63.477 56.006 64.149 56.2209 64.6221 56.6449C65.0952 57.0688 65.3318 57.649 65.3318 58.3878C65.3318 59.084 65.1021 59.6528 64.6427 60.094C64.1832 60.5351 63.5044 60.7557 62.6061 60.7557H61.8861V63.6511H60.477ZM61.8861 57.3744V59.3805H62.7192C63.1032 59.3805 63.3981 59.2977 63.6038 59.1323C63.8095 58.9669 63.9158 58.7152 63.9227 58.3775C63.9227 58.0466 63.8187 57.7972 63.6095 57.6283C63.4004 57.4594 63.1044 57.3744 62.7204 57.3744H61.8872H61.8861ZM66.365 63.6511V55.9992H70.4484V57.3744H67.7741V59.1426H70.3352V60.5179H67.7741V62.2758H70.4484V63.6511H66.365ZM71.8427 63.6511V55.9992H74.0438C74.9627 55.9992 75.669 56.2163 76.1627 56.6506C76.6564 57.0849 76.9032 57.6777 76.9032 58.4292C76.9032 59.0565 76.7135 59.5988 76.333 60.0583C75.9524 60.5179 75.4575 60.7741 74.8461 60.8281L76.9855 63.6511H75.2472L73.2724 60.8281H73.2518V63.6511H71.8427ZM73.2518 57.3744V59.6493H74.085C74.517 59.6493 74.8598 59.5574 75.1135 59.3747C75.3672 59.192 75.4941 58.9037 75.4941 58.5107C75.4872 58.1247 75.3592 57.8386 75.1078 57.6525C74.8575 57.4663 74.517 57.3733 74.085 57.3733H73.2518V57.3744ZM77.3821 61.5003H78.853C78.8598 61.7967 78.9615 62.0311 79.157 62.2034C79.3524 62.3758 79.5901 62.4619 79.8724 62.4619C80.1741 62.4619 80.421 62.3723 80.613 62.1931C80.805 62.0138 80.901 61.7829 80.901 61.5003C80.901 61.2176 80.8118 60.9855 80.6335 60.781C80.4552 60.5777 80.1741 60.4111 79.7901 60.2801C79.3992 60.156 79.1867 60.0871 79.1524 60.0733C79.1181 60.0595 79.0838 60.0423 79.0495 60.0216C78.5764 59.8286 78.2267 59.5563 78.0004 59.2047C77.7741 58.8531 77.661 58.4636 77.661 58.0362C77.661 57.4158 77.8792 56.8988 78.3147 56.4852C78.7501 56.0715 79.2861 55.8647 79.925 55.8647C80.5638 55.8647 81.0461 56.0646 81.4575 56.4645C81.869 56.8643 82.0918 57.3882 82.1261 58.0362H80.6758C80.669 57.8018 80.5935 57.6111 80.4495 57.4629C80.3055 57.3147 80.117 57.2412 79.8838 57.2412C79.6438 57.248 79.4472 57.3216 79.293 57.4629C79.1387 57.6042 79.0655 57.7984 79.0724 58.0466C79.0724 58.2672 79.1421 58.4498 79.2838 58.5946C79.4244 58.7394 79.6792 58.8669 80.0495 58.9772C80.269 59.053 80.4232 59.1059 80.5124 59.1369C80.6015 59.1679 80.6872 59.1966 80.7695 59.2254C81.2358 59.4184 81.6095 59.6976 81.8907 60.0629C82.1718 60.4283 82.3124 60.8798 82.3124 61.4175C82.3124 62.1069 82.0792 62.6825 81.613 63.1444C81.1467 63.6063 80.557 63.8372 79.8438 63.8372C79.1307 63.8372 78.5512 63.6132 78.085 63.1651C77.6187 62.717 77.3855 62.162 77.3855 61.5003H77.3821Z" fill="#4C4C4C"/>
</svg>
