<svg width="80" height="80" viewBox="0 0 80 80" fill="none" xmlns="http://www.w3.org/2000/svg">
<path d="M52.084 13.8889C52.084 13.7589 51.9535 13.629 51.8229 13.629C51.5617 13.629 48.8194 13.3691 48.8194 13.3691C48.8194 13.3691 46.8606 11.42 46.5994 11.2901C46.3382 11.0302 45.9464 11.1602 45.8159 11.1602C45.8159 11.1602 45.4241 11.2901 44.7712 11.55C44.1182 9.73084 42.9429 8.04164 40.9841 8.04164H40.8535C40.3312 7.26201 39.5477 7.00213 38.8947 7.00213C34.1936 6.87219 31.9736 12.7194 31.1901 15.708C30.1454 15.9679 29.1007 16.3577 27.9254 16.7475C26.8807 17.0074 26.8807 17.1373 26.7501 18.0469C26.6196 18.6966 24.0078 39.2269 24.0078 39.2269L44.7712 43.1251L56.0017 40.6562C56.0017 40.6562 52.084 14.1488 52.084 13.8889ZM40.723 12.5895V12.8494L36.9359 13.8889C37.7195 11.1602 39.0253 9.99072 40.2006 9.47096C40.4618 10.2506 40.723 11.1602 40.723 12.5895ZM38.7642 8.17158C39.0253 8.17158 39.1559 8.30152 39.4171 8.43145C37.85 9.08115 36.283 10.7703 35.4995 14.4086L32.6266 15.1883C33.5407 12.5895 35.3689 8.17158 38.7642 8.17158ZM39.5477 24.0241C39.5477 24.0241 38.3724 23.3744 36.8054 23.3744C34.5854 23.3744 34.4548 24.6738 34.4548 25.0636C34.4548 26.8827 39.4171 27.6624 39.4171 32.0803C39.4171 35.5886 37.1971 37.7976 34.1936 37.7976C30.6678 37.7976 28.8395 35.5886 28.8395 35.5886L29.7536 32.4701C29.7536 32.4701 31.5819 34.0294 33.1489 34.0294C34.1936 34.0294 34.5854 33.2497 34.5854 32.6C34.5854 30.1312 30.5372 30.0013 30.5372 25.9732C30.5372 22.5948 33.0183 19.3463 37.85 19.3463C40.07 19.2164 40.9841 19.866 40.9841 19.866L39.5477 24.0241ZM41.8982 12.3296V11.9398C41.8982 10.7703 41.7677 9.86078 41.5065 9.08115C42.4206 9.34102 43.2041 10.5105 43.5959 11.8099L41.8982 12.3296Z" fill="#8DB849"/>
<path d="M51.6867 13.6329C51.5562 13.6329 48.8138 13.373 48.8138 13.373C48.8138 13.373 46.855 11.4239 46.5938 11.294C46.5068 11.2074 46.4197 11.1641 46.3327 11.1641L44.7656 43.129L55.9961 40.6601C55.9961 40.6601 52.0785 14.1527 52.0785 13.8928C52.0785 13.7628 51.8173 13.6329 51.6867 13.6329Z" fill="#5A863E"/>
<path d="M10.1599 59.2059C9.25105 58.7021 8.84712 58.299 8.84712 57.7952C8.84712 57.0899 9.45302 56.6868 10.4628 56.6868C11.5736 56.6868 12.5834 57.1906 12.5834 57.1906L13.3913 54.7723C13.3913 54.7723 12.6844 54.1678 10.5638 54.1678C7.53436 54.1678 5.51473 55.8807 5.51473 58.299C5.51473 59.7097 6.52454 60.7173 7.73633 61.4227C8.74614 62.0273 9.15007 62.4303 9.15007 63.0349C9.15007 63.6395 8.64516 64.244 7.63534 64.244C6.2216 64.244 4.80785 63.5387 4.80785 63.5387L4 65.957C4 65.957 5.21178 66.7631 7.3324 66.7631C10.3619 66.7631 12.5834 65.2517 12.5834 62.5311C12.5834 61.0196 11.4727 59.9112 10.1599 59.2059ZM22.3787 54.067C20.864 54.067 19.6522 54.7723 18.7433 55.8807L20.0561 49.0289H16.6227L13.2903 66.4608H16.7237L17.8345 60.5158C18.2384 58.299 19.4502 56.8883 20.561 56.8883C21.3689 56.8883 21.6718 57.3922 21.6718 58.1983C21.6718 58.7021 21.6718 59.2059 21.5708 59.7097L20.2581 66.5616H23.6914L25.0042 59.5082C25.1052 58.8028 25.2062 57.896 25.2062 57.2914C25.2062 55.2761 24.1964 54.067 22.3787 54.067ZM31.1641 64.0425C29.9523 64.0425 29.5484 63.0349 29.5484 61.8257C29.5484 59.9112 30.5582 56.6868 32.3759 56.6868C33.5877 56.6868 33.9916 57.6945 33.9916 58.7021C33.9916 60.9189 32.9818 64.0425 31.1641 64.0425ZM32.8808 54.067C28.7405 54.067 26.014 57.7952 26.014 61.9265C26.014 64.5463 27.6297 66.6623 30.7602 66.6623C34.7994 66.6623 37.5259 63.0349 37.5259 58.8028C37.5259 56.3845 36.1122 54.067 32.8808 54.067ZM42.979 64.1433C42.0701 64.1433 41.5652 63.6395 41.5652 63.6395L42.1711 60.415C42.575 58.299 43.6858 56.8883 44.8976 56.8883C45.9074 56.8883 46.3114 57.896 46.3114 58.8028C46.2104 61.0196 44.8976 64.1433 42.979 64.1433ZM46.3114 54.067C43.9888 54.067 42.676 56.0822 42.676 56.0822L42.878 54.2685H39.8485C39.7475 55.4777 39.4446 57.3922 39.1417 58.8028L36.7181 71.2974H40.1515L41.0603 66.2593H41.1613C41.1613 66.2593 41.8682 66.6623 43.1809 66.6623C47.2202 66.6623 49.8457 62.5311 49.8457 58.3998C49.8457 56.183 48.8359 54.067 46.3114 54.067ZM54.6928 49.2304C53.582 49.2304 52.7742 50.1372 52.7742 51.2456C52.7742 52.2533 53.3801 52.9586 54.3899 52.9586C55.5007 52.9586 56.4095 52.2533 56.4095 50.9433C56.4095 49.9357 55.7027 49.2304 54.6928 49.2304ZM49.9467 66.4608H53.3801L55.7027 54.3693H52.2693L49.9467 66.4608ZM64.3871 54.3693H61.9635L62.0645 53.7647C62.2665 52.5555 62.9733 51.5479 64.0841 51.5479C64.69 51.5479 65.1949 51.7494 65.1949 51.7494L65.9018 49.0289C65.9018 49.0289 65.2959 48.7266 64.0841 48.7266C62.8724 48.7266 61.6606 49.0289 60.7518 49.835C59.54 50.8426 59.0351 52.2533 58.7321 53.6639L58.6311 54.2685H57.0154L56.5105 56.8883H58.1262L56.3086 66.4608H59.7419L61.5596 56.8883H63.8822L64.3871 54.3693ZM72.5666 54.3693C72.5666 54.3693 70.446 59.7097 69.4362 62.6318C69.3352 61.725 68.6283 54.3693 68.6283 54.3693H64.993L67.0126 65.4532C67.0126 65.6547 67.0126 65.8562 66.9116 66.0578C66.5077 66.8639 65.8008 67.5692 65.094 68.073C64.4881 68.5768 63.6802 68.8791 63.1753 69.0806L64.0841 72.0028C64.791 71.902 66.2048 71.2974 67.4165 70.189C68.9313 68.7784 70.446 66.4608 71.8597 63.4379L76 54.47L72.5666 54.3693Z" fill="#4C4C4C"/>
</svg>
