<svg width="80" height="80" viewBox="0 0 80 80" fill="none" xmlns="http://www.w3.org/2000/svg">
<path d="M62.4237 14H17.5466C14.7065 14 12.4075 16.3368 12.4298 19.1733V36.4177C12.4298 39.2768 14.7288 41.591 17.569 41.591H38.8235L48.5382 47.0367L46.3287 41.591H62.4217C65.2618 41.591 67.5608 39.2768 67.5608 36.4177V19.1733C67.5608 16.3143 65.2618 14 62.4217 14H62.4237ZM34.9925 36.7126C35.0373 37.2799 34.9477 37.7797 34.7219 38.2097C34.4513 38.7095 34.0464 38.9818 33.5277 39.0269C32.9417 39.072 32.3334 38.7996 31.7475 38.1872C29.6519 36.0327 27.9836 32.8091 26.767 28.5205C25.3022 31.4246 24.2198 33.6037 23.522 35.0558C22.1914 37.6199 21.0643 38.9347 20.1182 39.0044C19.5099 39.0494 18.9911 38.5272 18.5395 37.4397C17.39 34.468 16.151 28.7274 14.8204 20.2178C14.7533 19.628 14.8651 19.1057 15.1805 18.6982C15.4958 18.2681 15.9699 18.0408 16.6006 17.9957C17.7501 17.9056 18.4032 18.4504 18.5618 19.63C19.2597 24.3712 20.0267 28.3874 20.8385 31.6786L25.7742 22.2167C26.2258 21.3545 26.7894 20.8998 27.4648 20.8547C28.4577 20.7872 29.066 21.4221 29.3122 22.7615C29.8757 25.7782 30.598 28.3423 31.4545 30.5214C32.0404 24.7583 33.0333 20.6069 34.4289 18.0428C34.7667 17.4079 35.2631 17.0905 35.9162 17.0454C36.435 17.0004 36.909 17.1581 37.3362 17.5001C37.7635 17.8401 37.9893 18.2722 38.0341 18.7924C38.0565 19.1999 37.9893 19.542 37.8082 19.8819C36.9293 21.5163 36.2071 24.2606 35.6212 28.072C35.0576 31.7707 34.8541 34.6523 34.9905 36.7167L34.9925 36.7126ZM48.8312 33.1511C47.4782 35.4203 45.7204 36.5549 43.5354 36.5549C43.1529 36.5549 42.746 36.5099 42.3187 36.4198C40.7176 36.0798 39.5233 35.2176 38.7116 33.788C37.9914 32.5408 37.6292 31.0416 37.6292 29.2947C37.6292 26.9579 38.2151 24.8238 39.387 22.8966C40.7623 20.6274 42.5202 19.4928 44.6828 19.4928C45.0653 19.4928 45.4722 19.5379 45.8995 19.628C47.4782 19.968 48.6949 20.8302 49.5066 22.2597C50.2269 23.4844 50.589 24.959 50.589 26.7305C50.589 29.0673 50.0031 31.2014 48.8312 33.1511ZM62.9629 33.1511C61.6099 35.4203 59.8521 36.5549 57.667 36.5549C57.2846 36.5549 56.8777 36.5099 56.4504 36.4198C54.8493 36.0798 53.655 35.2176 52.8432 33.788C52.123 32.5408 51.7609 31.0416 51.7609 29.2947C51.7609 26.9579 52.3468 24.8238 53.5187 22.8966C54.894 20.6274 56.6518 19.4928 58.8165 19.4928C59.199 19.4928 59.6059 19.5379 60.0332 19.628C61.6343 19.968 62.8286 20.8302 63.6403 22.2597C64.3626 23.4844 64.7227 24.959 64.7227 26.7305C64.7227 29.0673 64.1368 31.2014 62.9649 33.1511H62.9629Z" fill="#A0679B"/>
<path d="M45.0873 23.3201C44.2756 23.1604 43.4862 23.615 42.7436 24.7271C42.1353 25.5893 41.7528 26.4966 41.5493 27.4264C41.4374 27.9487 41.3906 28.516 41.3906 29.0833C41.3906 29.7407 41.5249 30.4452 41.7955 31.1477C42.1332 32.0324 42.5849 32.5096 43.1261 32.6223C43.6896 32.7349 44.2979 32.4871 44.951 31.8952C45.7852 31.1456 46.3487 30.0356 46.6641 28.5364C46.776 28.0142 46.8228 27.4469 46.8228 26.8571C46.8228 26.1996 46.6885 25.4951 46.4179 24.7927C46.0802 23.9079 45.6285 23.4307 45.0873 23.3181V23.3201Z" fill="#A0679B"/>
<path d="M59.2201 23.3201C58.4084 23.1604 57.619 23.615 56.8764 24.7271C56.2681 25.5893 55.8836 26.4966 55.6821 27.4264C55.5702 27.9487 55.5234 28.516 55.5234 29.0833C55.5234 29.7407 55.6577 30.4452 55.9283 31.1477C56.266 32.0324 56.7177 32.5096 57.2589 32.6223C57.8224 32.7349 58.4307 32.4871 59.0838 31.8952C59.918 31.1456 60.4815 30.0356 60.7969 28.5364C60.8864 28.0142 60.9556 27.4469 60.9556 26.8571C60.9556 26.1996 60.8213 25.4951 60.5507 24.7927C60.213 23.9079 59.7613 23.4307 59.2201 23.3181V23.3201Z" fill="#A0679B"/>
<path d="M5.55794 54.3095C4.51463 55.3442 4 56.662 4 58.2614C4 59.9713 4.51463 61.3669 5.54248 62.4171C6.57032 63.4674 7.91032 64.001 9.57653 64.001C10.0588 64.001 10.6044 63.9231 11.1963 63.7505V61.2098C10.6508 61.3669 10.184 61.4447 9.77901 61.4447C8.95364 61.4447 8.29981 61.163 7.80065 60.6139C7.30289 60.0491 7.05261 59.2961 7.05261 58.3407C7.05261 57.4475 7.30149 56.7101 7.78518 56.1453C8.28294 55.565 8.89177 55.2833 9.6384 55.2833C10.1207 55.2833 10.6353 55.3612 11.1963 55.5183V52.9776C10.6817 52.8361 10.1052 52.7738 9.49779 52.7738C7.90892 52.7582 6.59985 53.2763 5.55654 54.3109L5.55794 54.3095Z" fill="#4C4C4C"/>
<path d="M63.7376 54.3095C62.6943 55.3442 62.1797 56.662 62.1797 58.2614C62.1797 59.9713 62.6943 61.3669 63.7222 62.4171C64.75 63.4674 66.09 64.001 67.7562 64.001C68.2385 64.001 68.7841 63.9231 69.376 63.7505V61.2098C68.8319 61.3669 68.3637 61.4447 67.9587 61.4447C67.1333 61.4447 66.4795 61.163 65.9803 60.6139C65.4812 60.0491 65.2323 59.2961 65.2323 58.3407C65.2323 57.4475 65.4812 56.7101 65.9635 56.1453C66.4626 55.565 67.0701 55.2833 67.8167 55.2833C68.299 55.2833 68.8136 55.3612 69.3746 55.5183V52.9776C68.8614 52.8361 68.2849 52.7738 67.6775 52.7738C66.1041 52.7582 64.7795 53.2763 63.7348 54.3109L63.7376 54.3095Z" fill="#4C4C4C"/>
<path d="M50.5936 59.5148H53.133V57.3039H50.5936V55.3435H53.521V53.0703H47.7266V63.7483H53.5379V61.4751H50.5936V59.5148Z" fill="#4C4C4C"/>
<path d="M61.6035 57.8219C61.9002 57.3364 62.0549 56.8339 62.0549 56.3158C62.0549 55.3123 61.6654 54.5126 60.8864 53.9323C60.1074 53.3519 59.0332 53.0547 57.6932 53.0547H54.3594V63.7341H57.2264V58.8735H57.2728L59.5942 63.7341H62.6159L60.3254 58.9202C60.871 58.6697 61.3068 58.3088 61.6021 57.8219H61.6035ZM57.2109 57.6492V55.1085C57.8957 55.1241 58.3794 55.2345 58.6746 55.4538C58.9699 55.6732 59.1105 56.0186 59.1105 56.5197C59.1105 57.2571 58.4722 57.6336 57.2095 57.6492H57.2109Z" fill="#4C4C4C"/>
<path d="M73.0376 61.4609V61.4454V59.5006H75.577V57.2897H73.0376V55.3293H75.982V53.0547H70.1875V63.7341H75.9974V61.4609H73.0376Z" fill="#4C4C4C"/>
<path d="M16.3688 52.7578C14.936 52.7578 13.814 53.2433 13.0041 54.2001C12.1942 55.157 11.8047 56.5059 11.8047 58.2299C11.8047 60.0954 12.2096 61.5236 13.0041 62.5116C13.7985 63.4995 14.967 64.0006 16.494 64.0006C18.021 64.0006 19.1107 63.4995 19.9051 62.5116C20.6996 61.5236 21.1045 60.128 21.1045 58.3403C21.1045 56.5526 20.6996 55.1725 19.8897 54.2001C19.0643 53.2433 17.8958 52.7578 16.3688 52.7578ZM17.5992 60.9121C17.3194 61.3509 16.8975 61.5703 16.3688 61.5703C15.8697 61.5703 15.4971 61.3509 15.2313 60.9121C14.9656 60.4733 14.8418 59.5943 14.8418 58.2624C14.8418 56.2086 15.3565 55.1895 16.3998 55.1895C17.4431 55.1895 18.0505 56.2242 18.0505 58.3106C18.0351 59.5958 17.879 60.4747 17.5992 60.9135V60.9121Z" fill="#4C4C4C"/>
<path d="M28.798 53.0561L28.237 55.4553C28.0964 56.0667 27.9572 56.6938 27.8321 57.3364L27.5199 58.9981C27.2246 57.3364 26.8183 55.3604 26.305 53.0547H22.6914L21.3359 63.7341H24.0469L24.7794 56.3795L26.6327 63.7341H28.5646L30.3405 56.3951L31.104 63.7341H33.9387L32.5059 53.0547H28.798V53.0561Z" fill="#4C4C4C"/>
<path d="M41.7746 53.0561L41.2136 55.4553C41.073 56.0667 40.9338 56.6938 40.8086 57.3364L40.4965 58.9981C40.2012 57.3364 39.7948 55.3604 39.2816 53.0547H35.668L34.3125 63.7341H37.0234L37.756 56.3795L39.6092 63.7341H41.5412L43.3016 56.3951L44.0651 63.7341H46.8998L45.467 53.0547H41.7746V53.0561Z" fill="#4C4C4C"/>
</svg>
